%TF.GenerationSoftware,KiCad,Pcbnew,10.0.6*%
%TF.CreationDate,2026-09-14T21:40:11-04:00*%
%TF.ProjectId,patch_antenna_smp_rev9,70617463-685f-4616-9e74-656e6e615f73,9*%
%TF.SameCoordinates,PX1312d00PY1312d00*%
%TF.FileFunction,Soldermask,Bot*%
%TF.FilePolarity,Negative*%
%FSLAX46Y46*%
G04 Gerber Fmt 4.6, Leading zero omitted, Abs format (unit mm)*
G04 Created by KiCad (PCBNEW 10.0.6) date 2026-09-14 21:40:11*
%MOMM*%
%LPD*%
G01*
G04 APERTURE LIST*
G04 APERTURE END LIST*
G36*
X27119305Y-207355086D02*
G01*
X27129458Y-207355086D01*
X27179456Y-207363005D01*
X27321889Y-207381757D01*
X27356643Y-207391069D01*
X27385185Y-207395590D01*
X27440070Y-207413423D01*
X27530356Y-207437615D01*
X27587960Y-207461475D01*
X27631428Y-207475599D01*
X27672151Y-207496348D01*
X27729753Y-207520208D01*
X27810701Y-207566943D01*
X27862123Y-207593144D01*
X27885498Y-207610127D01*
X27916663Y-207628120D01*
X28030664Y-207715596D01*
X28071589Y-207745330D01*
X28078762Y-207752503D01*
X28087883Y-207759502D01*
X28240497Y-207912116D01*
X28247495Y-207921236D01*
X28254670Y-207928411D01*
X28284407Y-207969341D01*
X28371879Y-208083336D01*
X28389870Y-208114498D01*
X28406856Y-208137877D01*
X28433059Y-208189304D01*
X28479791Y-208270246D01*
X28503648Y-208327842D01*
X28524401Y-208368572D01*
X28538526Y-208412045D01*
X28562384Y-208469643D01*
X28586572Y-208559916D01*
X28604410Y-208614815D01*
X28608931Y-208643362D01*
X28618242Y-208678110D01*
X28636993Y-208820535D01*
X28644914Y-208870542D01*
X28644914Y-208880693D01*
X28646414Y-208892087D01*
X28646414Y-209107912D01*
X28644914Y-209119305D01*
X28644914Y-209129458D01*
X28636992Y-209179468D01*
X28618242Y-209321889D01*
X28608932Y-209356634D01*
X28604410Y-209385185D01*
X28586571Y-209440087D01*
X28562384Y-209530356D01*
X28538528Y-209587949D01*
X28524401Y-209631428D01*
X28503646Y-209672161D01*
X28479791Y-209729753D01*
X28433063Y-209810687D01*
X28406856Y-209862123D01*
X28389868Y-209885504D01*
X28371879Y-209916663D01*
X28284421Y-210030639D01*
X28254670Y-210071589D01*
X28247491Y-210078767D01*
X28240497Y-210087883D01*
X28087883Y-210240497D01*
X28078767Y-210247491D01*
X28071589Y-210254670D01*
X28030639Y-210284421D01*
X27916663Y-210371879D01*
X27885504Y-210389868D01*
X27862123Y-210406856D01*
X27810687Y-210433063D01*
X27729753Y-210479791D01*
X27672161Y-210503646D01*
X27631428Y-210524401D01*
X27587949Y-210538528D01*
X27530356Y-210562384D01*
X27440087Y-210586571D01*
X27385185Y-210604410D01*
X27356634Y-210608932D01*
X27321889Y-210618242D01*
X27179468Y-210636992D01*
X27129458Y-210644914D01*
X27119305Y-210644914D01*
X27107912Y-210646414D01*
X26892088Y-210646414D01*
X26880695Y-210644914D01*
X26870542Y-210644914D01*
X26820532Y-210636993D01*
X26678110Y-210618242D01*
X26643362Y-210608931D01*
X26614815Y-210604410D01*
X26559916Y-210586572D01*
X26469643Y-210562384D01*
X26412045Y-210538526D01*
X26368572Y-210524401D01*
X26327842Y-210503648D01*
X26270246Y-210479791D01*
X26189304Y-210433059D01*
X26137877Y-210406856D01*
X26114498Y-210389870D01*
X26083336Y-210371879D01*
X25969341Y-210284407D01*
X25928411Y-210254670D01*
X25921236Y-210247495D01*
X25912116Y-210240497D01*
X25759502Y-210087883D01*
X25752503Y-210078762D01*
X25745330Y-210071589D01*
X25715596Y-210030664D01*
X25628120Y-209916663D01*
X25610127Y-209885498D01*
X25593144Y-209862123D01*
X25566943Y-209810701D01*
X25520208Y-209729753D01*
X25496348Y-209672151D01*
X25475599Y-209631428D01*
X25461475Y-209587960D01*
X25437615Y-209530356D01*
X25413423Y-209440070D01*
X25395590Y-209385185D01*
X25391069Y-209356643D01*
X25381757Y-209321889D01*
X25363005Y-209179456D01*
X25355086Y-209129458D01*
X25355086Y-209119305D01*
X25353586Y-209107912D01*
X25353586Y-208892087D01*
X25355086Y-208880693D01*
X25355086Y-208870542D01*
X25363004Y-208820548D01*
X25381757Y-208678110D01*
X25391069Y-208643353D01*
X25395590Y-208614815D01*
X25413421Y-208559934D01*
X25437615Y-208469643D01*
X25461477Y-208412034D01*
X25475599Y-208368572D01*
X25496346Y-208327852D01*
X25520208Y-208270246D01*
X25566947Y-208189289D01*
X25593144Y-208137877D01*
X25610124Y-208114505D01*
X25628120Y-208083336D01*
X25715610Y-207969316D01*
X25745330Y-207928411D01*
X25752500Y-207921240D01*
X25759502Y-207912116D01*
X25912116Y-207759502D01*
X25921240Y-207752500D01*
X25928411Y-207745330D01*
X25969316Y-207715610D01*
X26083336Y-207628120D01*
X26114505Y-207610124D01*
X26137877Y-207593144D01*
X26189289Y-207566947D01*
X26270246Y-207520208D01*
X26327852Y-207496346D01*
X26368572Y-207475599D01*
X26412034Y-207461477D01*
X26469643Y-207437615D01*
X26559934Y-207413421D01*
X26614815Y-207395590D01*
X26643353Y-207391069D01*
X26678110Y-207381757D01*
X26820545Y-207363004D01*
X26870542Y-207355086D01*
X26880694Y-207355086D01*
X26892088Y-207353586D01*
X27107912Y-207353586D01*
X27119305Y-207355086D01*
G37*
G36*
X71119305Y-207355086D02*
G01*
X71129458Y-207355086D01*
X71179456Y-207363005D01*
X71321889Y-207381757D01*
X71356643Y-207391069D01*
X71385185Y-207395590D01*
X71440070Y-207413423D01*
X71530356Y-207437615D01*
X71587960Y-207461475D01*
X71631428Y-207475599D01*
X71672151Y-207496348D01*
X71729753Y-207520208D01*
X71810701Y-207566943D01*
X71862123Y-207593144D01*
X71885498Y-207610127D01*
X71916663Y-207628120D01*
X72030664Y-207715596D01*
X72071589Y-207745330D01*
X72078762Y-207752503D01*
X72087883Y-207759502D01*
X72240497Y-207912116D01*
X72247495Y-207921236D01*
X72254670Y-207928411D01*
X72284407Y-207969341D01*
X72371879Y-208083336D01*
X72389870Y-208114498D01*
X72406856Y-208137877D01*
X72433059Y-208189304D01*
X72479791Y-208270246D01*
X72503648Y-208327842D01*
X72524401Y-208368572D01*
X72538526Y-208412045D01*
X72562384Y-208469643D01*
X72586572Y-208559916D01*
X72604410Y-208614815D01*
X72608931Y-208643362D01*
X72618242Y-208678110D01*
X72636993Y-208820535D01*
X72644914Y-208870542D01*
X72644914Y-208880693D01*
X72646414Y-208892087D01*
X72646414Y-209107912D01*
X72644914Y-209119305D01*
X72644914Y-209129458D01*
X72636992Y-209179468D01*
X72618242Y-209321889D01*
X72608932Y-209356634D01*
X72604410Y-209385185D01*
X72586571Y-209440087D01*
X72562384Y-209530356D01*
X72538528Y-209587949D01*
X72524401Y-209631428D01*
X72503646Y-209672161D01*
X72479791Y-209729753D01*
X72433063Y-209810687D01*
X72406856Y-209862123D01*
X72389868Y-209885504D01*
X72371879Y-209916663D01*
X72284421Y-210030639D01*
X72254670Y-210071589D01*
X72247491Y-210078767D01*
X72240497Y-210087883D01*
X72087883Y-210240497D01*
X72078767Y-210247491D01*
X72071589Y-210254670D01*
X72030639Y-210284421D01*
X71916663Y-210371879D01*
X71885504Y-210389868D01*
X71862123Y-210406856D01*
X71810687Y-210433063D01*
X71729753Y-210479791D01*
X71672161Y-210503646D01*
X71631428Y-210524401D01*
X71587949Y-210538528D01*
X71530356Y-210562384D01*
X71440087Y-210586571D01*
X71385185Y-210604410D01*
X71356634Y-210608932D01*
X71321889Y-210618242D01*
X71179468Y-210636992D01*
X71129458Y-210644914D01*
X71119305Y-210644914D01*
X71107912Y-210646414D01*
X70892088Y-210646414D01*
X70880695Y-210644914D01*
X70870542Y-210644914D01*
X70820532Y-210636993D01*
X70678110Y-210618242D01*
X70643362Y-210608931D01*
X70614815Y-210604410D01*
X70559916Y-210586572D01*
X70469643Y-210562384D01*
X70412045Y-210538526D01*
X70368572Y-210524401D01*
X70327842Y-210503648D01*
X70270246Y-210479791D01*
X70189304Y-210433059D01*
X70137877Y-210406856D01*
X70114498Y-210389870D01*
X70083336Y-210371879D01*
X69969341Y-210284407D01*
X69928411Y-210254670D01*
X69921236Y-210247495D01*
X69912116Y-210240497D01*
X69759502Y-210087883D01*
X69752503Y-210078762D01*
X69745330Y-210071589D01*
X69715596Y-210030664D01*
X69628120Y-209916663D01*
X69610127Y-209885498D01*
X69593144Y-209862123D01*
X69566943Y-209810701D01*
X69520208Y-209729753D01*
X69496348Y-209672151D01*
X69475599Y-209631428D01*
X69461475Y-209587960D01*
X69437615Y-209530356D01*
X69413423Y-209440070D01*
X69395590Y-209385185D01*
X69391069Y-209356643D01*
X69381757Y-209321889D01*
X69363005Y-209179456D01*
X69355086Y-209129458D01*
X69355086Y-209119305D01*
X69353586Y-209107912D01*
X69353586Y-208892087D01*
X69355086Y-208880693D01*
X69355086Y-208870542D01*
X69363004Y-208820548D01*
X69381757Y-208678110D01*
X69391069Y-208643353D01*
X69395590Y-208614815D01*
X69413421Y-208559934D01*
X69437615Y-208469643D01*
X69461477Y-208412034D01*
X69475599Y-208368572D01*
X69496346Y-208327852D01*
X69520208Y-208270246D01*
X69566947Y-208189289D01*
X69593144Y-208137877D01*
X69610124Y-208114505D01*
X69628120Y-208083336D01*
X69715610Y-207969316D01*
X69745330Y-207928411D01*
X69752500Y-207921240D01*
X69759502Y-207912116D01*
X69912116Y-207759502D01*
X69921240Y-207752500D01*
X69928411Y-207745330D01*
X69969316Y-207715610D01*
X70083336Y-207628120D01*
X70114505Y-207610124D01*
X70137877Y-207593144D01*
X70189289Y-207566947D01*
X70270246Y-207520208D01*
X70327852Y-207496346D01*
X70368572Y-207475599D01*
X70412034Y-207461477D01*
X70469643Y-207437615D01*
X70559934Y-207413421D01*
X70614815Y-207395590D01*
X70643353Y-207391069D01*
X70678110Y-207381757D01*
X70820545Y-207363004D01*
X70870542Y-207355086D01*
X70880694Y-207355086D01*
X70892088Y-207353586D01*
X71107912Y-207353586D01*
X71119305Y-207355086D01*
G37*
G36*
X85119305Y-207355086D02*
G01*
X85129458Y-207355086D01*
X85179456Y-207363005D01*
X85321889Y-207381757D01*
X85356643Y-207391069D01*
X85385185Y-207395590D01*
X85440070Y-207413423D01*
X85530356Y-207437615D01*
X85587960Y-207461475D01*
X85631428Y-207475599D01*
X85672151Y-207496348D01*
X85729753Y-207520208D01*
X85810701Y-207566943D01*
X85862123Y-207593144D01*
X85885498Y-207610127D01*
X85916663Y-207628120D01*
X86030664Y-207715596D01*
X86071589Y-207745330D01*
X86078762Y-207752503D01*
X86087883Y-207759502D01*
X86240497Y-207912116D01*
X86247495Y-207921236D01*
X86254670Y-207928411D01*
X86284407Y-207969341D01*
X86371879Y-208083336D01*
X86389870Y-208114498D01*
X86406856Y-208137877D01*
X86433059Y-208189304D01*
X86479791Y-208270246D01*
X86503648Y-208327842D01*
X86524401Y-208368572D01*
X86538526Y-208412045D01*
X86562384Y-208469643D01*
X86586572Y-208559916D01*
X86604410Y-208614815D01*
X86608931Y-208643362D01*
X86618242Y-208678110D01*
X86636993Y-208820535D01*
X86644914Y-208870542D01*
X86644914Y-208880693D01*
X86646414Y-208892087D01*
X86646414Y-209107912D01*
X86644914Y-209119305D01*
X86644914Y-209129458D01*
X86636992Y-209179468D01*
X86618242Y-209321889D01*
X86608932Y-209356634D01*
X86604410Y-209385185D01*
X86586571Y-209440087D01*
X86562384Y-209530356D01*
X86538528Y-209587949D01*
X86524401Y-209631428D01*
X86503646Y-209672161D01*
X86479791Y-209729753D01*
X86433063Y-209810687D01*
X86406856Y-209862123D01*
X86389868Y-209885504D01*
X86371879Y-209916663D01*
X86284421Y-210030639D01*
X86254670Y-210071589D01*
X86247491Y-210078767D01*
X86240497Y-210087883D01*
X86087883Y-210240497D01*
X86078767Y-210247491D01*
X86071589Y-210254670D01*
X86030639Y-210284421D01*
X85916663Y-210371879D01*
X85885504Y-210389868D01*
X85862123Y-210406856D01*
X85810687Y-210433063D01*
X85729753Y-210479791D01*
X85672161Y-210503646D01*
X85631428Y-210524401D01*
X85587949Y-210538528D01*
X85530356Y-210562384D01*
X85440087Y-210586571D01*
X85385185Y-210604410D01*
X85356634Y-210608932D01*
X85321889Y-210618242D01*
X85179468Y-210636992D01*
X85129458Y-210644914D01*
X85119305Y-210644914D01*
X85107912Y-210646414D01*
X84892088Y-210646414D01*
X84880695Y-210644914D01*
X84870542Y-210644914D01*
X84820532Y-210636993D01*
X84678110Y-210618242D01*
X84643362Y-210608931D01*
X84614815Y-210604410D01*
X84559916Y-210586572D01*
X84469643Y-210562384D01*
X84412045Y-210538526D01*
X84368572Y-210524401D01*
X84327842Y-210503648D01*
X84270246Y-210479791D01*
X84189304Y-210433059D01*
X84137877Y-210406856D01*
X84114498Y-210389870D01*
X84083336Y-210371879D01*
X83969341Y-210284407D01*
X83928411Y-210254670D01*
X83921236Y-210247495D01*
X83912116Y-210240497D01*
X83759502Y-210087883D01*
X83752503Y-210078762D01*
X83745330Y-210071589D01*
X83715596Y-210030664D01*
X83628120Y-209916663D01*
X83610127Y-209885498D01*
X83593144Y-209862123D01*
X83566943Y-209810701D01*
X83520208Y-209729753D01*
X83496348Y-209672151D01*
X83475599Y-209631428D01*
X83461475Y-209587960D01*
X83437615Y-209530356D01*
X83413423Y-209440070D01*
X83395590Y-209385185D01*
X83391069Y-209356643D01*
X83381757Y-209321889D01*
X83363005Y-209179456D01*
X83355086Y-209129458D01*
X83355086Y-209119305D01*
X83353586Y-209107912D01*
X83353586Y-208892087D01*
X83355086Y-208880693D01*
X83355086Y-208870542D01*
X83363004Y-208820548D01*
X83381757Y-208678110D01*
X83391069Y-208643353D01*
X83395590Y-208614815D01*
X83413421Y-208559934D01*
X83437615Y-208469643D01*
X83461477Y-208412034D01*
X83475599Y-208368572D01*
X83496346Y-208327852D01*
X83520208Y-208270246D01*
X83566947Y-208189289D01*
X83593144Y-208137877D01*
X83610124Y-208114505D01*
X83628120Y-208083336D01*
X83715610Y-207969316D01*
X83745330Y-207928411D01*
X83752500Y-207921240D01*
X83759502Y-207912116D01*
X83912116Y-207759502D01*
X83921240Y-207752500D01*
X83928411Y-207745330D01*
X83969316Y-207715610D01*
X84083336Y-207628120D01*
X84114505Y-207610124D01*
X84137877Y-207593144D01*
X84189289Y-207566947D01*
X84270246Y-207520208D01*
X84327852Y-207496346D01*
X84368572Y-207475599D01*
X84412034Y-207461477D01*
X84469643Y-207437615D01*
X84559934Y-207413421D01*
X84614815Y-207395590D01*
X84643353Y-207391069D01*
X84678110Y-207381757D01*
X84820545Y-207363004D01*
X84870542Y-207355086D01*
X84880694Y-207355086D01*
X84892088Y-207353586D01*
X85107912Y-207353586D01*
X85119305Y-207355086D01*
G37*
G36*
X129119305Y-207355086D02*
G01*
X129129458Y-207355086D01*
X129179456Y-207363005D01*
X129321889Y-207381757D01*
X129356643Y-207391069D01*
X129385185Y-207395590D01*
X129440070Y-207413423D01*
X129530356Y-207437615D01*
X129587960Y-207461475D01*
X129631428Y-207475599D01*
X129672151Y-207496348D01*
X129729753Y-207520208D01*
X129810701Y-207566943D01*
X129862123Y-207593144D01*
X129885498Y-207610127D01*
X129916663Y-207628120D01*
X130030664Y-207715596D01*
X130071589Y-207745330D01*
X130078762Y-207752503D01*
X130087883Y-207759502D01*
X130240497Y-207912116D01*
X130247495Y-207921236D01*
X130254670Y-207928411D01*
X130284407Y-207969341D01*
X130371879Y-208083336D01*
X130389870Y-208114498D01*
X130406856Y-208137877D01*
X130433059Y-208189304D01*
X130479791Y-208270246D01*
X130503648Y-208327842D01*
X130524401Y-208368572D01*
X130538526Y-208412045D01*
X130562384Y-208469643D01*
X130586572Y-208559916D01*
X130604410Y-208614815D01*
X130608931Y-208643362D01*
X130618242Y-208678110D01*
X130636993Y-208820535D01*
X130644914Y-208870542D01*
X130644914Y-208880693D01*
X130646414Y-208892087D01*
X130646414Y-209107912D01*
X130644914Y-209119305D01*
X130644914Y-209129458D01*
X130636992Y-209179468D01*
X130618242Y-209321889D01*
X130608932Y-209356634D01*
X130604410Y-209385185D01*
X130586571Y-209440087D01*
X130562384Y-209530356D01*
X130538528Y-209587949D01*
X130524401Y-209631428D01*
X130503646Y-209672161D01*
X130479791Y-209729753D01*
X130433063Y-209810687D01*
X130406856Y-209862123D01*
X130389868Y-209885504D01*
X130371879Y-209916663D01*
X130284421Y-210030639D01*
X130254670Y-210071589D01*
X130247491Y-210078767D01*
X130240497Y-210087883D01*
X130087883Y-210240497D01*
X130078767Y-210247491D01*
X130071589Y-210254670D01*
X130030639Y-210284421D01*
X129916663Y-210371879D01*
X129885504Y-210389868D01*
X129862123Y-210406856D01*
X129810687Y-210433063D01*
X129729753Y-210479791D01*
X129672161Y-210503646D01*
X129631428Y-210524401D01*
X129587949Y-210538528D01*
X129530356Y-210562384D01*
X129440087Y-210586571D01*
X129385185Y-210604410D01*
X129356634Y-210608932D01*
X129321889Y-210618242D01*
X129179468Y-210636992D01*
X129129458Y-210644914D01*
X129119305Y-210644914D01*
X129107912Y-210646414D01*
X128892088Y-210646414D01*
X128880695Y-210644914D01*
X128870542Y-210644914D01*
X128820532Y-210636993D01*
X128678110Y-210618242D01*
X128643362Y-210608931D01*
X128614815Y-210604410D01*
X128559916Y-210586572D01*
X128469643Y-210562384D01*
X128412045Y-210538526D01*
X128368572Y-210524401D01*
X128327842Y-210503648D01*
X128270246Y-210479791D01*
X128189304Y-210433059D01*
X128137877Y-210406856D01*
X128114498Y-210389870D01*
X128083336Y-210371879D01*
X127969341Y-210284407D01*
X127928411Y-210254670D01*
X127921236Y-210247495D01*
X127912116Y-210240497D01*
X127759502Y-210087883D01*
X127752503Y-210078762D01*
X127745330Y-210071589D01*
X127715596Y-210030664D01*
X127628120Y-209916663D01*
X127610127Y-209885498D01*
X127593144Y-209862123D01*
X127566943Y-209810701D01*
X127520208Y-209729753D01*
X127496348Y-209672151D01*
X127475599Y-209631428D01*
X127461475Y-209587960D01*
X127437615Y-209530356D01*
X127413423Y-209440070D01*
X127395590Y-209385185D01*
X127391069Y-209356643D01*
X127381757Y-209321889D01*
X127363005Y-209179456D01*
X127355086Y-209129458D01*
X127355086Y-209119305D01*
X127353586Y-209107912D01*
X127353586Y-208892087D01*
X127355086Y-208880693D01*
X127355086Y-208870542D01*
X127363004Y-208820548D01*
X127381757Y-208678110D01*
X127391069Y-208643353D01*
X127395590Y-208614815D01*
X127413421Y-208559934D01*
X127437615Y-208469643D01*
X127461477Y-208412034D01*
X127475599Y-208368572D01*
X127496346Y-208327852D01*
X127520208Y-208270246D01*
X127566947Y-208189289D01*
X127593144Y-208137877D01*
X127610124Y-208114505D01*
X127628120Y-208083336D01*
X127715610Y-207969316D01*
X127745330Y-207928411D01*
X127752500Y-207921240D01*
X127759502Y-207912116D01*
X127912116Y-207759502D01*
X127921240Y-207752500D01*
X127928411Y-207745330D01*
X127969316Y-207715610D01*
X128083336Y-207628120D01*
X128114505Y-207610124D01*
X128137877Y-207593144D01*
X128189289Y-207566947D01*
X128270246Y-207520208D01*
X128327852Y-207496346D01*
X128368572Y-207475599D01*
X128412034Y-207461477D01*
X128469643Y-207437615D01*
X128559934Y-207413421D01*
X128614815Y-207395590D01*
X128643353Y-207391069D01*
X128678110Y-207381757D01*
X128820545Y-207363004D01*
X128870542Y-207355086D01*
X128880694Y-207355086D01*
X128892088Y-207353586D01*
X129107912Y-207353586D01*
X129119305Y-207355086D01*
G37*
G36*
X143119305Y-207355086D02*
G01*
X143129458Y-207355086D01*
X143179456Y-207363005D01*
X143321889Y-207381757D01*
X143356643Y-207391069D01*
X143385185Y-207395590D01*
X143440070Y-207413423D01*
X143530356Y-207437615D01*
X143587960Y-207461475D01*
X143631428Y-207475599D01*
X143672151Y-207496348D01*
X143729753Y-207520208D01*
X143810701Y-207566943D01*
X143862123Y-207593144D01*
X143885498Y-207610127D01*
X143916663Y-207628120D01*
X144030664Y-207715596D01*
X144071589Y-207745330D01*
X144078762Y-207752503D01*
X144087883Y-207759502D01*
X144240497Y-207912116D01*
X144247495Y-207921236D01*
X144254670Y-207928411D01*
X144284407Y-207969341D01*
X144371879Y-208083336D01*
X144389870Y-208114498D01*
X144406856Y-208137877D01*
X144433059Y-208189304D01*
X144479791Y-208270246D01*
X144503648Y-208327842D01*
X144524401Y-208368572D01*
X144538526Y-208412045D01*
X144562384Y-208469643D01*
X144586572Y-208559916D01*
X144604410Y-208614815D01*
X144608931Y-208643362D01*
X144618242Y-208678110D01*
X144636993Y-208820535D01*
X144644914Y-208870542D01*
X144644914Y-208880693D01*
X144646414Y-208892087D01*
X144646414Y-209107912D01*
X144644914Y-209119305D01*
X144644914Y-209129458D01*
X144636992Y-209179468D01*
X144618242Y-209321889D01*
X144608932Y-209356634D01*
X144604410Y-209385185D01*
X144586571Y-209440087D01*
X144562384Y-209530356D01*
X144538528Y-209587949D01*
X144524401Y-209631428D01*
X144503646Y-209672161D01*
X144479791Y-209729753D01*
X144433063Y-209810687D01*
X144406856Y-209862123D01*
X144389868Y-209885504D01*
X144371879Y-209916663D01*
X144284421Y-210030639D01*
X144254670Y-210071589D01*
X144247491Y-210078767D01*
X144240497Y-210087883D01*
X144087883Y-210240497D01*
X144078767Y-210247491D01*
X144071589Y-210254670D01*
X144030639Y-210284421D01*
X143916663Y-210371879D01*
X143885504Y-210389868D01*
X143862123Y-210406856D01*
X143810687Y-210433063D01*
X143729753Y-210479791D01*
X143672161Y-210503646D01*
X143631428Y-210524401D01*
X143587949Y-210538528D01*
X143530356Y-210562384D01*
X143440087Y-210586571D01*
X143385185Y-210604410D01*
X143356634Y-210608932D01*
X143321889Y-210618242D01*
X143179468Y-210636992D01*
X143129458Y-210644914D01*
X143119305Y-210644914D01*
X143107912Y-210646414D01*
X142892088Y-210646414D01*
X142880695Y-210644914D01*
X142870542Y-210644914D01*
X142820532Y-210636993D01*
X142678110Y-210618242D01*
X142643362Y-210608931D01*
X142614815Y-210604410D01*
X142559916Y-210586572D01*
X142469643Y-210562384D01*
X142412045Y-210538526D01*
X142368572Y-210524401D01*
X142327842Y-210503648D01*
X142270246Y-210479791D01*
X142189304Y-210433059D01*
X142137877Y-210406856D01*
X142114498Y-210389870D01*
X142083336Y-210371879D01*
X141969341Y-210284407D01*
X141928411Y-210254670D01*
X141921236Y-210247495D01*
X141912116Y-210240497D01*
X141759502Y-210087883D01*
X141752503Y-210078762D01*
X141745330Y-210071589D01*
X141715596Y-210030664D01*
X141628120Y-209916663D01*
X141610127Y-209885498D01*
X141593144Y-209862123D01*
X141566943Y-209810701D01*
X141520208Y-209729753D01*
X141496348Y-209672151D01*
X141475599Y-209631428D01*
X141461475Y-209587960D01*
X141437615Y-209530356D01*
X141413423Y-209440070D01*
X141395590Y-209385185D01*
X141391069Y-209356643D01*
X141381757Y-209321889D01*
X141363005Y-209179456D01*
X141355086Y-209129458D01*
X141355086Y-209119305D01*
X141353586Y-209107912D01*
X141353586Y-208892087D01*
X141355086Y-208880693D01*
X141355086Y-208870542D01*
X141363004Y-208820548D01*
X141381757Y-208678110D01*
X141391069Y-208643353D01*
X141395590Y-208614815D01*
X141413421Y-208559934D01*
X141437615Y-208469643D01*
X141461477Y-208412034D01*
X141475599Y-208368572D01*
X141496346Y-208327852D01*
X141520208Y-208270246D01*
X141566947Y-208189289D01*
X141593144Y-208137877D01*
X141610124Y-208114505D01*
X141628120Y-208083336D01*
X141715610Y-207969316D01*
X141745330Y-207928411D01*
X141752500Y-207921240D01*
X141759502Y-207912116D01*
X141912116Y-207759502D01*
X141921240Y-207752500D01*
X141928411Y-207745330D01*
X141969316Y-207715610D01*
X142083336Y-207628120D01*
X142114505Y-207610124D01*
X142137877Y-207593144D01*
X142189289Y-207566947D01*
X142270246Y-207520208D01*
X142327852Y-207496346D01*
X142368572Y-207475599D01*
X142412034Y-207461477D01*
X142469643Y-207437615D01*
X142559934Y-207413421D01*
X142614815Y-207395590D01*
X142643353Y-207391069D01*
X142678110Y-207381757D01*
X142820545Y-207363004D01*
X142870542Y-207355086D01*
X142880694Y-207355086D01*
X142892088Y-207353586D01*
X143107912Y-207353586D01*
X143119305Y-207355086D01*
G37*
G36*
X187119305Y-207355086D02*
G01*
X187129458Y-207355086D01*
X187179456Y-207363005D01*
X187321889Y-207381757D01*
X187356643Y-207391069D01*
X187385185Y-207395590D01*
X187440070Y-207413423D01*
X187530356Y-207437615D01*
X187587960Y-207461475D01*
X187631428Y-207475599D01*
X187672151Y-207496348D01*
X187729753Y-207520208D01*
X187810701Y-207566943D01*
X187862123Y-207593144D01*
X187885498Y-207610127D01*
X187916663Y-207628120D01*
X188030664Y-207715596D01*
X188071589Y-207745330D01*
X188078762Y-207752503D01*
X188087883Y-207759502D01*
X188240497Y-207912116D01*
X188247495Y-207921236D01*
X188254670Y-207928411D01*
X188284407Y-207969341D01*
X188371879Y-208083336D01*
X188389870Y-208114498D01*
X188406856Y-208137877D01*
X188433059Y-208189304D01*
X188479791Y-208270246D01*
X188503648Y-208327842D01*
X188524401Y-208368572D01*
X188538526Y-208412045D01*
X188562384Y-208469643D01*
X188586572Y-208559916D01*
X188604410Y-208614815D01*
X188608931Y-208643362D01*
X188618242Y-208678110D01*
X188636993Y-208820535D01*
X188644914Y-208870542D01*
X188644914Y-208880693D01*
X188646414Y-208892087D01*
X188646414Y-209107912D01*
X188644914Y-209119305D01*
X188644914Y-209129458D01*
X188636992Y-209179468D01*
X188618242Y-209321889D01*
X188608932Y-209356634D01*
X188604410Y-209385185D01*
X188586571Y-209440087D01*
X188562384Y-209530356D01*
X188538528Y-209587949D01*
X188524401Y-209631428D01*
X188503646Y-209672161D01*
X188479791Y-209729753D01*
X188433063Y-209810687D01*
X188406856Y-209862123D01*
X188389868Y-209885504D01*
X188371879Y-209916663D01*
X188284421Y-210030639D01*
X188254670Y-210071589D01*
X188247491Y-210078767D01*
X188240497Y-210087883D01*
X188087883Y-210240497D01*
X188078767Y-210247491D01*
X188071589Y-210254670D01*
X188030639Y-210284421D01*
X187916663Y-210371879D01*
X187885504Y-210389868D01*
X187862123Y-210406856D01*
X187810687Y-210433063D01*
X187729753Y-210479791D01*
X187672161Y-210503646D01*
X187631428Y-210524401D01*
X187587949Y-210538528D01*
X187530356Y-210562384D01*
X187440087Y-210586571D01*
X187385185Y-210604410D01*
X187356634Y-210608932D01*
X187321889Y-210618242D01*
X187179468Y-210636992D01*
X187129458Y-210644914D01*
X187119305Y-210644914D01*
X187107912Y-210646414D01*
X186892088Y-210646414D01*
X186880695Y-210644914D01*
X186870542Y-210644914D01*
X186820532Y-210636993D01*
X186678110Y-210618242D01*
X186643362Y-210608931D01*
X186614815Y-210604410D01*
X186559916Y-210586572D01*
X186469643Y-210562384D01*
X186412045Y-210538526D01*
X186368572Y-210524401D01*
X186327842Y-210503648D01*
X186270246Y-210479791D01*
X186189304Y-210433059D01*
X186137877Y-210406856D01*
X186114498Y-210389870D01*
X186083336Y-210371879D01*
X185969341Y-210284407D01*
X185928411Y-210254670D01*
X185921236Y-210247495D01*
X185912116Y-210240497D01*
X185759502Y-210087883D01*
X185752503Y-210078762D01*
X185745330Y-210071589D01*
X185715596Y-210030664D01*
X185628120Y-209916663D01*
X185610127Y-209885498D01*
X185593144Y-209862123D01*
X185566943Y-209810701D01*
X185520208Y-209729753D01*
X185496348Y-209672151D01*
X185475599Y-209631428D01*
X185461475Y-209587960D01*
X185437615Y-209530356D01*
X185413423Y-209440070D01*
X185395590Y-209385185D01*
X185391069Y-209356643D01*
X185381757Y-209321889D01*
X185363005Y-209179456D01*
X185355086Y-209129458D01*
X185355086Y-209119305D01*
X185353586Y-209107912D01*
X185353586Y-208892087D01*
X185355086Y-208880693D01*
X185355086Y-208870542D01*
X185363004Y-208820548D01*
X185381757Y-208678110D01*
X185391069Y-208643353D01*
X185395590Y-208614815D01*
X185413421Y-208559934D01*
X185437615Y-208469643D01*
X185461477Y-208412034D01*
X185475599Y-208368572D01*
X185496346Y-208327852D01*
X185520208Y-208270246D01*
X185566947Y-208189289D01*
X185593144Y-208137877D01*
X185610124Y-208114505D01*
X185628120Y-208083336D01*
X185715610Y-207969316D01*
X185745330Y-207928411D01*
X185752500Y-207921240D01*
X185759502Y-207912116D01*
X185912116Y-207759502D01*
X185921240Y-207752500D01*
X185928411Y-207745330D01*
X185969316Y-207715610D01*
X186083336Y-207628120D01*
X186114505Y-207610124D01*
X186137877Y-207593144D01*
X186189289Y-207566947D01*
X186270246Y-207520208D01*
X186327852Y-207496346D01*
X186368572Y-207475599D01*
X186412034Y-207461477D01*
X186469643Y-207437615D01*
X186559934Y-207413421D01*
X186614815Y-207395590D01*
X186643353Y-207391069D01*
X186678110Y-207381757D01*
X186820545Y-207363004D01*
X186870542Y-207355086D01*
X186880694Y-207355086D01*
X186892088Y-207353586D01*
X187107912Y-207353586D01*
X187119305Y-207355086D01*
G37*
G36*
X27119305Y-163355086D02*
G01*
X27129458Y-163355086D01*
X27179456Y-163363005D01*
X27321889Y-163381757D01*
X27356643Y-163391069D01*
X27385185Y-163395590D01*
X27440070Y-163413423D01*
X27530356Y-163437615D01*
X27587960Y-163461475D01*
X27631428Y-163475599D01*
X27672151Y-163496348D01*
X27729753Y-163520208D01*
X27810701Y-163566943D01*
X27862123Y-163593144D01*
X27885498Y-163610127D01*
X27916663Y-163628120D01*
X28030664Y-163715596D01*
X28071589Y-163745330D01*
X28078762Y-163752503D01*
X28087883Y-163759502D01*
X28240497Y-163912116D01*
X28247495Y-163921236D01*
X28254670Y-163928411D01*
X28284407Y-163969341D01*
X28371879Y-164083336D01*
X28389870Y-164114498D01*
X28406856Y-164137877D01*
X28433059Y-164189304D01*
X28479791Y-164270246D01*
X28503648Y-164327842D01*
X28524401Y-164368572D01*
X28538526Y-164412045D01*
X28562384Y-164469643D01*
X28586572Y-164559916D01*
X28604410Y-164614815D01*
X28608931Y-164643362D01*
X28618242Y-164678110D01*
X28636993Y-164820535D01*
X28644914Y-164870542D01*
X28644914Y-164880693D01*
X28646414Y-164892087D01*
X28646414Y-165107912D01*
X28644914Y-165119305D01*
X28644914Y-165129458D01*
X28636992Y-165179468D01*
X28618242Y-165321889D01*
X28608932Y-165356634D01*
X28604410Y-165385185D01*
X28586571Y-165440087D01*
X28562384Y-165530356D01*
X28538528Y-165587949D01*
X28524401Y-165631428D01*
X28503646Y-165672161D01*
X28479791Y-165729753D01*
X28433063Y-165810687D01*
X28406856Y-165862123D01*
X28389868Y-165885504D01*
X28371879Y-165916663D01*
X28284421Y-166030639D01*
X28254670Y-166071589D01*
X28247491Y-166078767D01*
X28240497Y-166087883D01*
X28087883Y-166240497D01*
X28078767Y-166247491D01*
X28071589Y-166254670D01*
X28030639Y-166284421D01*
X27916663Y-166371879D01*
X27885504Y-166389868D01*
X27862123Y-166406856D01*
X27810687Y-166433063D01*
X27729753Y-166479791D01*
X27672161Y-166503646D01*
X27631428Y-166524401D01*
X27587949Y-166538528D01*
X27530356Y-166562384D01*
X27440087Y-166586571D01*
X27385185Y-166604410D01*
X27356634Y-166608932D01*
X27321889Y-166618242D01*
X27179468Y-166636992D01*
X27129458Y-166644914D01*
X27119305Y-166644914D01*
X27107912Y-166646414D01*
X26892088Y-166646414D01*
X26880695Y-166644914D01*
X26870542Y-166644914D01*
X26820532Y-166636993D01*
X26678110Y-166618242D01*
X26643362Y-166608931D01*
X26614815Y-166604410D01*
X26559916Y-166586572D01*
X26469643Y-166562384D01*
X26412045Y-166538526D01*
X26368572Y-166524401D01*
X26327842Y-166503648D01*
X26270246Y-166479791D01*
X26189304Y-166433059D01*
X26137877Y-166406856D01*
X26114498Y-166389870D01*
X26083336Y-166371879D01*
X25969341Y-166284407D01*
X25928411Y-166254670D01*
X25921236Y-166247495D01*
X25912116Y-166240497D01*
X25759502Y-166087883D01*
X25752503Y-166078762D01*
X25745330Y-166071589D01*
X25715596Y-166030664D01*
X25628120Y-165916663D01*
X25610127Y-165885498D01*
X25593144Y-165862123D01*
X25566943Y-165810701D01*
X25520208Y-165729753D01*
X25496348Y-165672151D01*
X25475599Y-165631428D01*
X25461475Y-165587960D01*
X25437615Y-165530356D01*
X25413423Y-165440070D01*
X25395590Y-165385185D01*
X25391069Y-165356643D01*
X25381757Y-165321889D01*
X25363005Y-165179456D01*
X25355086Y-165129458D01*
X25355086Y-165119305D01*
X25353586Y-165107912D01*
X25353586Y-164892087D01*
X25355086Y-164880693D01*
X25355086Y-164870542D01*
X25363004Y-164820548D01*
X25381757Y-164678110D01*
X25391069Y-164643353D01*
X25395590Y-164614815D01*
X25413421Y-164559934D01*
X25437615Y-164469643D01*
X25461477Y-164412034D01*
X25475599Y-164368572D01*
X25496346Y-164327852D01*
X25520208Y-164270246D01*
X25566947Y-164189289D01*
X25593144Y-164137877D01*
X25610124Y-164114505D01*
X25628120Y-164083336D01*
X25715610Y-163969316D01*
X25745330Y-163928411D01*
X25752500Y-163921240D01*
X25759502Y-163912116D01*
X25912116Y-163759502D01*
X25921240Y-163752500D01*
X25928411Y-163745330D01*
X25969316Y-163715610D01*
X26083336Y-163628120D01*
X26114505Y-163610124D01*
X26137877Y-163593144D01*
X26189289Y-163566947D01*
X26270246Y-163520208D01*
X26327852Y-163496346D01*
X26368572Y-163475599D01*
X26412034Y-163461477D01*
X26469643Y-163437615D01*
X26559934Y-163413421D01*
X26614815Y-163395590D01*
X26643353Y-163391069D01*
X26678110Y-163381757D01*
X26820545Y-163363004D01*
X26870542Y-163355086D01*
X26880694Y-163355086D01*
X26892088Y-163353586D01*
X27107912Y-163353586D01*
X27119305Y-163355086D01*
G37*
G36*
X71119305Y-163355086D02*
G01*
X71129458Y-163355086D01*
X71179456Y-163363005D01*
X71321889Y-163381757D01*
X71356643Y-163391069D01*
X71385185Y-163395590D01*
X71440070Y-163413423D01*
X71530356Y-163437615D01*
X71587960Y-163461475D01*
X71631428Y-163475599D01*
X71672151Y-163496348D01*
X71729753Y-163520208D01*
X71810701Y-163566943D01*
X71862123Y-163593144D01*
X71885498Y-163610127D01*
X71916663Y-163628120D01*
X72030664Y-163715596D01*
X72071589Y-163745330D01*
X72078762Y-163752503D01*
X72087883Y-163759502D01*
X72240497Y-163912116D01*
X72247495Y-163921236D01*
X72254670Y-163928411D01*
X72284407Y-163969341D01*
X72371879Y-164083336D01*
X72389870Y-164114498D01*
X72406856Y-164137877D01*
X72433059Y-164189304D01*
X72479791Y-164270246D01*
X72503648Y-164327842D01*
X72524401Y-164368572D01*
X72538526Y-164412045D01*
X72562384Y-164469643D01*
X72586572Y-164559916D01*
X72604410Y-164614815D01*
X72608931Y-164643362D01*
X72618242Y-164678110D01*
X72636993Y-164820535D01*
X72644914Y-164870542D01*
X72644914Y-164880693D01*
X72646414Y-164892087D01*
X72646414Y-165107912D01*
X72644914Y-165119305D01*
X72644914Y-165129458D01*
X72636992Y-165179468D01*
X72618242Y-165321889D01*
X72608932Y-165356634D01*
X72604410Y-165385185D01*
X72586571Y-165440087D01*
X72562384Y-165530356D01*
X72538528Y-165587949D01*
X72524401Y-165631428D01*
X72503646Y-165672161D01*
X72479791Y-165729753D01*
X72433063Y-165810687D01*
X72406856Y-165862123D01*
X72389868Y-165885504D01*
X72371879Y-165916663D01*
X72284421Y-166030639D01*
X72254670Y-166071589D01*
X72247491Y-166078767D01*
X72240497Y-166087883D01*
X72087883Y-166240497D01*
X72078767Y-166247491D01*
X72071589Y-166254670D01*
X72030639Y-166284421D01*
X71916663Y-166371879D01*
X71885504Y-166389868D01*
X71862123Y-166406856D01*
X71810687Y-166433063D01*
X71729753Y-166479791D01*
X71672161Y-166503646D01*
X71631428Y-166524401D01*
X71587949Y-166538528D01*
X71530356Y-166562384D01*
X71440087Y-166586571D01*
X71385185Y-166604410D01*
X71356634Y-166608932D01*
X71321889Y-166618242D01*
X71179468Y-166636992D01*
X71129458Y-166644914D01*
X71119305Y-166644914D01*
X71107912Y-166646414D01*
X70892088Y-166646414D01*
X70880695Y-166644914D01*
X70870542Y-166644914D01*
X70820532Y-166636993D01*
X70678110Y-166618242D01*
X70643362Y-166608931D01*
X70614815Y-166604410D01*
X70559916Y-166586572D01*
X70469643Y-166562384D01*
X70412045Y-166538526D01*
X70368572Y-166524401D01*
X70327842Y-166503648D01*
X70270246Y-166479791D01*
X70189304Y-166433059D01*
X70137877Y-166406856D01*
X70114498Y-166389870D01*
X70083336Y-166371879D01*
X69969341Y-166284407D01*
X69928411Y-166254670D01*
X69921236Y-166247495D01*
X69912116Y-166240497D01*
X69759502Y-166087883D01*
X69752503Y-166078762D01*
X69745330Y-166071589D01*
X69715596Y-166030664D01*
X69628120Y-165916663D01*
X69610127Y-165885498D01*
X69593144Y-165862123D01*
X69566943Y-165810701D01*
X69520208Y-165729753D01*
X69496348Y-165672151D01*
X69475599Y-165631428D01*
X69461475Y-165587960D01*
X69437615Y-165530356D01*
X69413423Y-165440070D01*
X69395590Y-165385185D01*
X69391069Y-165356643D01*
X69381757Y-165321889D01*
X69363005Y-165179456D01*
X69355086Y-165129458D01*
X69355086Y-165119305D01*
X69353586Y-165107912D01*
X69353586Y-164892087D01*
X69355086Y-164880693D01*
X69355086Y-164870542D01*
X69363004Y-164820548D01*
X69381757Y-164678110D01*
X69391069Y-164643353D01*
X69395590Y-164614815D01*
X69413421Y-164559934D01*
X69437615Y-164469643D01*
X69461477Y-164412034D01*
X69475599Y-164368572D01*
X69496346Y-164327852D01*
X69520208Y-164270246D01*
X69566947Y-164189289D01*
X69593144Y-164137877D01*
X69610124Y-164114505D01*
X69628120Y-164083336D01*
X69715610Y-163969316D01*
X69745330Y-163928411D01*
X69752500Y-163921240D01*
X69759502Y-163912116D01*
X69912116Y-163759502D01*
X69921240Y-163752500D01*
X69928411Y-163745330D01*
X69969316Y-163715610D01*
X70083336Y-163628120D01*
X70114505Y-163610124D01*
X70137877Y-163593144D01*
X70189289Y-163566947D01*
X70270246Y-163520208D01*
X70327852Y-163496346D01*
X70368572Y-163475599D01*
X70412034Y-163461477D01*
X70469643Y-163437615D01*
X70559934Y-163413421D01*
X70614815Y-163395590D01*
X70643353Y-163391069D01*
X70678110Y-163381757D01*
X70820545Y-163363004D01*
X70870542Y-163355086D01*
X70880694Y-163355086D01*
X70892088Y-163353586D01*
X71107912Y-163353586D01*
X71119305Y-163355086D01*
G37*
G36*
X85119305Y-163355086D02*
G01*
X85129458Y-163355086D01*
X85179456Y-163363005D01*
X85321889Y-163381757D01*
X85356643Y-163391069D01*
X85385185Y-163395590D01*
X85440070Y-163413423D01*
X85530356Y-163437615D01*
X85587960Y-163461475D01*
X85631428Y-163475599D01*
X85672151Y-163496348D01*
X85729753Y-163520208D01*
X85810701Y-163566943D01*
X85862123Y-163593144D01*
X85885498Y-163610127D01*
X85916663Y-163628120D01*
X86030664Y-163715596D01*
X86071589Y-163745330D01*
X86078762Y-163752503D01*
X86087883Y-163759502D01*
X86240497Y-163912116D01*
X86247495Y-163921236D01*
X86254670Y-163928411D01*
X86284407Y-163969341D01*
X86371879Y-164083336D01*
X86389870Y-164114498D01*
X86406856Y-164137877D01*
X86433059Y-164189304D01*
X86479791Y-164270246D01*
X86503648Y-164327842D01*
X86524401Y-164368572D01*
X86538526Y-164412045D01*
X86562384Y-164469643D01*
X86586572Y-164559916D01*
X86604410Y-164614815D01*
X86608931Y-164643362D01*
X86618242Y-164678110D01*
X86636993Y-164820535D01*
X86644914Y-164870542D01*
X86644914Y-164880693D01*
X86646414Y-164892087D01*
X86646414Y-165107912D01*
X86644914Y-165119305D01*
X86644914Y-165129458D01*
X86636992Y-165179468D01*
X86618242Y-165321889D01*
X86608932Y-165356634D01*
X86604410Y-165385185D01*
X86586571Y-165440087D01*
X86562384Y-165530356D01*
X86538528Y-165587949D01*
X86524401Y-165631428D01*
X86503646Y-165672161D01*
X86479791Y-165729753D01*
X86433063Y-165810687D01*
X86406856Y-165862123D01*
X86389868Y-165885504D01*
X86371879Y-165916663D01*
X86284421Y-166030639D01*
X86254670Y-166071589D01*
X86247491Y-166078767D01*
X86240497Y-166087883D01*
X86087883Y-166240497D01*
X86078767Y-166247491D01*
X86071589Y-166254670D01*
X86030639Y-166284421D01*
X85916663Y-166371879D01*
X85885504Y-166389868D01*
X85862123Y-166406856D01*
X85810687Y-166433063D01*
X85729753Y-166479791D01*
X85672161Y-166503646D01*
X85631428Y-166524401D01*
X85587949Y-166538528D01*
X85530356Y-166562384D01*
X85440087Y-166586571D01*
X85385185Y-166604410D01*
X85356634Y-166608932D01*
X85321889Y-166618242D01*
X85179468Y-166636992D01*
X85129458Y-166644914D01*
X85119305Y-166644914D01*
X85107912Y-166646414D01*
X84892088Y-166646414D01*
X84880695Y-166644914D01*
X84870542Y-166644914D01*
X84820532Y-166636993D01*
X84678110Y-166618242D01*
X84643362Y-166608931D01*
X84614815Y-166604410D01*
X84559916Y-166586572D01*
X84469643Y-166562384D01*
X84412045Y-166538526D01*
X84368572Y-166524401D01*
X84327842Y-166503648D01*
X84270246Y-166479791D01*
X84189304Y-166433059D01*
X84137877Y-166406856D01*
X84114498Y-166389870D01*
X84083336Y-166371879D01*
X83969341Y-166284407D01*
X83928411Y-166254670D01*
X83921236Y-166247495D01*
X83912116Y-166240497D01*
X83759502Y-166087883D01*
X83752503Y-166078762D01*
X83745330Y-166071589D01*
X83715596Y-166030664D01*
X83628120Y-165916663D01*
X83610127Y-165885498D01*
X83593144Y-165862123D01*
X83566943Y-165810701D01*
X83520208Y-165729753D01*
X83496348Y-165672151D01*
X83475599Y-165631428D01*
X83461475Y-165587960D01*
X83437615Y-165530356D01*
X83413423Y-165440070D01*
X83395590Y-165385185D01*
X83391069Y-165356643D01*
X83381757Y-165321889D01*
X83363005Y-165179456D01*
X83355086Y-165129458D01*
X83355086Y-165119305D01*
X83353586Y-165107912D01*
X83353586Y-164892087D01*
X83355086Y-164880693D01*
X83355086Y-164870542D01*
X83363004Y-164820548D01*
X83381757Y-164678110D01*
X83391069Y-164643353D01*
X83395590Y-164614815D01*
X83413421Y-164559934D01*
X83437615Y-164469643D01*
X83461477Y-164412034D01*
X83475599Y-164368572D01*
X83496346Y-164327852D01*
X83520208Y-164270246D01*
X83566947Y-164189289D01*
X83593144Y-164137877D01*
X83610124Y-164114505D01*
X83628120Y-164083336D01*
X83715610Y-163969316D01*
X83745330Y-163928411D01*
X83752500Y-163921240D01*
X83759502Y-163912116D01*
X83912116Y-163759502D01*
X83921240Y-163752500D01*
X83928411Y-163745330D01*
X83969316Y-163715610D01*
X84083336Y-163628120D01*
X84114505Y-163610124D01*
X84137877Y-163593144D01*
X84189289Y-163566947D01*
X84270246Y-163520208D01*
X84327852Y-163496346D01*
X84368572Y-163475599D01*
X84412034Y-163461477D01*
X84469643Y-163437615D01*
X84559934Y-163413421D01*
X84614815Y-163395590D01*
X84643353Y-163391069D01*
X84678110Y-163381757D01*
X84820545Y-163363004D01*
X84870542Y-163355086D01*
X84880694Y-163355086D01*
X84892088Y-163353586D01*
X85107912Y-163353586D01*
X85119305Y-163355086D01*
G37*
G36*
X129119305Y-163355086D02*
G01*
X129129458Y-163355086D01*
X129179456Y-163363005D01*
X129321889Y-163381757D01*
X129356643Y-163391069D01*
X129385185Y-163395590D01*
X129440070Y-163413423D01*
X129530356Y-163437615D01*
X129587960Y-163461475D01*
X129631428Y-163475599D01*
X129672151Y-163496348D01*
X129729753Y-163520208D01*
X129810701Y-163566943D01*
X129862123Y-163593144D01*
X129885498Y-163610127D01*
X129916663Y-163628120D01*
X130030664Y-163715596D01*
X130071589Y-163745330D01*
X130078762Y-163752503D01*
X130087883Y-163759502D01*
X130240497Y-163912116D01*
X130247495Y-163921236D01*
X130254670Y-163928411D01*
X130284407Y-163969341D01*
X130371879Y-164083336D01*
X130389870Y-164114498D01*
X130406856Y-164137877D01*
X130433059Y-164189304D01*
X130479791Y-164270246D01*
X130503648Y-164327842D01*
X130524401Y-164368572D01*
X130538526Y-164412045D01*
X130562384Y-164469643D01*
X130586572Y-164559916D01*
X130604410Y-164614815D01*
X130608931Y-164643362D01*
X130618242Y-164678110D01*
X130636993Y-164820535D01*
X130644914Y-164870542D01*
X130644914Y-164880693D01*
X130646414Y-164892087D01*
X130646414Y-165107912D01*
X130644914Y-165119305D01*
X130644914Y-165129458D01*
X130636992Y-165179468D01*
X130618242Y-165321889D01*
X130608932Y-165356634D01*
X130604410Y-165385185D01*
X130586571Y-165440087D01*
X130562384Y-165530356D01*
X130538528Y-165587949D01*
X130524401Y-165631428D01*
X130503646Y-165672161D01*
X130479791Y-165729753D01*
X130433063Y-165810687D01*
X130406856Y-165862123D01*
X130389868Y-165885504D01*
X130371879Y-165916663D01*
X130284421Y-166030639D01*
X130254670Y-166071589D01*
X130247491Y-166078767D01*
X130240497Y-166087883D01*
X130087883Y-166240497D01*
X130078767Y-166247491D01*
X130071589Y-166254670D01*
X130030639Y-166284421D01*
X129916663Y-166371879D01*
X129885504Y-166389868D01*
X129862123Y-166406856D01*
X129810687Y-166433063D01*
X129729753Y-166479791D01*
X129672161Y-166503646D01*
X129631428Y-166524401D01*
X129587949Y-166538528D01*
X129530356Y-166562384D01*
X129440087Y-166586571D01*
X129385185Y-166604410D01*
X129356634Y-166608932D01*
X129321889Y-166618242D01*
X129179468Y-166636992D01*
X129129458Y-166644914D01*
X129119305Y-166644914D01*
X129107912Y-166646414D01*
X128892088Y-166646414D01*
X128880695Y-166644914D01*
X128870542Y-166644914D01*
X128820532Y-166636993D01*
X128678110Y-166618242D01*
X128643362Y-166608931D01*
X128614815Y-166604410D01*
X128559916Y-166586572D01*
X128469643Y-166562384D01*
X128412045Y-166538526D01*
X128368572Y-166524401D01*
X128327842Y-166503648D01*
X128270246Y-166479791D01*
X128189304Y-166433059D01*
X128137877Y-166406856D01*
X128114498Y-166389870D01*
X128083336Y-166371879D01*
X127969341Y-166284407D01*
X127928411Y-166254670D01*
X127921236Y-166247495D01*
X127912116Y-166240497D01*
X127759502Y-166087883D01*
X127752503Y-166078762D01*
X127745330Y-166071589D01*
X127715596Y-166030664D01*
X127628120Y-165916663D01*
X127610127Y-165885498D01*
X127593144Y-165862123D01*
X127566943Y-165810701D01*
X127520208Y-165729753D01*
X127496348Y-165672151D01*
X127475599Y-165631428D01*
X127461475Y-165587960D01*
X127437615Y-165530356D01*
X127413423Y-165440070D01*
X127395590Y-165385185D01*
X127391069Y-165356643D01*
X127381757Y-165321889D01*
X127363005Y-165179456D01*
X127355086Y-165129458D01*
X127355086Y-165119305D01*
X127353586Y-165107912D01*
X127353586Y-164892087D01*
X127355086Y-164880693D01*
X127355086Y-164870542D01*
X127363004Y-164820548D01*
X127381757Y-164678110D01*
X127391069Y-164643353D01*
X127395590Y-164614815D01*
X127413421Y-164559934D01*
X127437615Y-164469643D01*
X127461477Y-164412034D01*
X127475599Y-164368572D01*
X127496346Y-164327852D01*
X127520208Y-164270246D01*
X127566947Y-164189289D01*
X127593144Y-164137877D01*
X127610124Y-164114505D01*
X127628120Y-164083336D01*
X127715610Y-163969316D01*
X127745330Y-163928411D01*
X127752500Y-163921240D01*
X127759502Y-163912116D01*
X127912116Y-163759502D01*
X127921240Y-163752500D01*
X127928411Y-163745330D01*
X127969316Y-163715610D01*
X128083336Y-163628120D01*
X128114505Y-163610124D01*
X128137877Y-163593144D01*
X128189289Y-163566947D01*
X128270246Y-163520208D01*
X128327852Y-163496346D01*
X128368572Y-163475599D01*
X128412034Y-163461477D01*
X128469643Y-163437615D01*
X128559934Y-163413421D01*
X128614815Y-163395590D01*
X128643353Y-163391069D01*
X128678110Y-163381757D01*
X128820545Y-163363004D01*
X128870542Y-163355086D01*
X128880694Y-163355086D01*
X128892088Y-163353586D01*
X129107912Y-163353586D01*
X129119305Y-163355086D01*
G37*
G36*
X143119305Y-163355086D02*
G01*
X143129458Y-163355086D01*
X143179456Y-163363005D01*
X143321889Y-163381757D01*
X143356643Y-163391069D01*
X143385185Y-163395590D01*
X143440070Y-163413423D01*
X143530356Y-163437615D01*
X143587960Y-163461475D01*
X143631428Y-163475599D01*
X143672151Y-163496348D01*
X143729753Y-163520208D01*
X143810701Y-163566943D01*
X143862123Y-163593144D01*
X143885498Y-163610127D01*
X143916663Y-163628120D01*
X144030664Y-163715596D01*
X144071589Y-163745330D01*
X144078762Y-163752503D01*
X144087883Y-163759502D01*
X144240497Y-163912116D01*
X144247495Y-163921236D01*
X144254670Y-163928411D01*
X144284407Y-163969341D01*
X144371879Y-164083336D01*
X144389870Y-164114498D01*
X144406856Y-164137877D01*
X144433059Y-164189304D01*
X144479791Y-164270246D01*
X144503648Y-164327842D01*
X144524401Y-164368572D01*
X144538526Y-164412045D01*
X144562384Y-164469643D01*
X144586572Y-164559916D01*
X144604410Y-164614815D01*
X144608931Y-164643362D01*
X144618242Y-164678110D01*
X144636993Y-164820535D01*
X144644914Y-164870542D01*
X144644914Y-164880693D01*
X144646414Y-164892087D01*
X144646414Y-165107912D01*
X144644914Y-165119305D01*
X144644914Y-165129458D01*
X144636992Y-165179468D01*
X144618242Y-165321889D01*
X144608932Y-165356634D01*
X144604410Y-165385185D01*
X144586571Y-165440087D01*
X144562384Y-165530356D01*
X144538528Y-165587949D01*
X144524401Y-165631428D01*
X144503646Y-165672161D01*
X144479791Y-165729753D01*
X144433063Y-165810687D01*
X144406856Y-165862123D01*
X144389868Y-165885504D01*
X144371879Y-165916663D01*
X144284421Y-166030639D01*
X144254670Y-166071589D01*
X144247491Y-166078767D01*
X144240497Y-166087883D01*
X144087883Y-166240497D01*
X144078767Y-166247491D01*
X144071589Y-166254670D01*
X144030639Y-166284421D01*
X143916663Y-166371879D01*
X143885504Y-166389868D01*
X143862123Y-166406856D01*
X143810687Y-166433063D01*
X143729753Y-166479791D01*
X143672161Y-166503646D01*
X143631428Y-166524401D01*
X143587949Y-166538528D01*
X143530356Y-166562384D01*
X143440087Y-166586571D01*
X143385185Y-166604410D01*
X143356634Y-166608932D01*
X143321889Y-166618242D01*
X143179468Y-166636992D01*
X143129458Y-166644914D01*
X143119305Y-166644914D01*
X143107912Y-166646414D01*
X142892088Y-166646414D01*
X142880695Y-166644914D01*
X142870542Y-166644914D01*
X142820532Y-166636993D01*
X142678110Y-166618242D01*
X142643362Y-166608931D01*
X142614815Y-166604410D01*
X142559916Y-166586572D01*
X142469643Y-166562384D01*
X142412045Y-166538526D01*
X142368572Y-166524401D01*
X142327842Y-166503648D01*
X142270246Y-166479791D01*
X142189304Y-166433059D01*
X142137877Y-166406856D01*
X142114498Y-166389870D01*
X142083336Y-166371879D01*
X141969341Y-166284407D01*
X141928411Y-166254670D01*
X141921236Y-166247495D01*
X141912116Y-166240497D01*
X141759502Y-166087883D01*
X141752503Y-166078762D01*
X141745330Y-166071589D01*
X141715596Y-166030664D01*
X141628120Y-165916663D01*
X141610127Y-165885498D01*
X141593144Y-165862123D01*
X141566943Y-165810701D01*
X141520208Y-165729753D01*
X141496348Y-165672151D01*
X141475599Y-165631428D01*
X141461475Y-165587960D01*
X141437615Y-165530356D01*
X141413423Y-165440070D01*
X141395590Y-165385185D01*
X141391069Y-165356643D01*
X141381757Y-165321889D01*
X141363005Y-165179456D01*
X141355086Y-165129458D01*
X141355086Y-165119305D01*
X141353586Y-165107912D01*
X141353586Y-164892087D01*
X141355086Y-164880693D01*
X141355086Y-164870542D01*
X141363004Y-164820548D01*
X141381757Y-164678110D01*
X141391069Y-164643353D01*
X141395590Y-164614815D01*
X141413421Y-164559934D01*
X141437615Y-164469643D01*
X141461477Y-164412034D01*
X141475599Y-164368572D01*
X141496346Y-164327852D01*
X141520208Y-164270246D01*
X141566947Y-164189289D01*
X141593144Y-164137877D01*
X141610124Y-164114505D01*
X141628120Y-164083336D01*
X141715610Y-163969316D01*
X141745330Y-163928411D01*
X141752500Y-163921240D01*
X141759502Y-163912116D01*
X141912116Y-163759502D01*
X141921240Y-163752500D01*
X141928411Y-163745330D01*
X141969316Y-163715610D01*
X142083336Y-163628120D01*
X142114505Y-163610124D01*
X142137877Y-163593144D01*
X142189289Y-163566947D01*
X142270246Y-163520208D01*
X142327852Y-163496346D01*
X142368572Y-163475599D01*
X142412034Y-163461477D01*
X142469643Y-163437615D01*
X142559934Y-163413421D01*
X142614815Y-163395590D01*
X142643353Y-163391069D01*
X142678110Y-163381757D01*
X142820545Y-163363004D01*
X142870542Y-163355086D01*
X142880694Y-163355086D01*
X142892088Y-163353586D01*
X143107912Y-163353586D01*
X143119305Y-163355086D01*
G37*
G36*
X187119305Y-163355086D02*
G01*
X187129458Y-163355086D01*
X187179456Y-163363005D01*
X187321889Y-163381757D01*
X187356643Y-163391069D01*
X187385185Y-163395590D01*
X187440070Y-163413423D01*
X187530356Y-163437615D01*
X187587960Y-163461475D01*
X187631428Y-163475599D01*
X187672151Y-163496348D01*
X187729753Y-163520208D01*
X187810701Y-163566943D01*
X187862123Y-163593144D01*
X187885498Y-163610127D01*
X187916663Y-163628120D01*
X188030664Y-163715596D01*
X188071589Y-163745330D01*
X188078762Y-163752503D01*
X188087883Y-163759502D01*
X188240497Y-163912116D01*
X188247495Y-163921236D01*
X188254670Y-163928411D01*
X188284407Y-163969341D01*
X188371879Y-164083336D01*
X188389870Y-164114498D01*
X188406856Y-164137877D01*
X188433059Y-164189304D01*
X188479791Y-164270246D01*
X188503648Y-164327842D01*
X188524401Y-164368572D01*
X188538526Y-164412045D01*
X188562384Y-164469643D01*
X188586572Y-164559916D01*
X188604410Y-164614815D01*
X188608931Y-164643362D01*
X188618242Y-164678110D01*
X188636993Y-164820535D01*
X188644914Y-164870542D01*
X188644914Y-164880693D01*
X188646414Y-164892087D01*
X188646414Y-165107912D01*
X188644914Y-165119305D01*
X188644914Y-165129458D01*
X188636992Y-165179468D01*
X188618242Y-165321889D01*
X188608932Y-165356634D01*
X188604410Y-165385185D01*
X188586571Y-165440087D01*
X188562384Y-165530356D01*
X188538528Y-165587949D01*
X188524401Y-165631428D01*
X188503646Y-165672161D01*
X188479791Y-165729753D01*
X188433063Y-165810687D01*
X188406856Y-165862123D01*
X188389868Y-165885504D01*
X188371879Y-165916663D01*
X188284421Y-166030639D01*
X188254670Y-166071589D01*
X188247491Y-166078767D01*
X188240497Y-166087883D01*
X188087883Y-166240497D01*
X188078767Y-166247491D01*
X188071589Y-166254670D01*
X188030639Y-166284421D01*
X187916663Y-166371879D01*
X187885504Y-166389868D01*
X187862123Y-166406856D01*
X187810687Y-166433063D01*
X187729753Y-166479791D01*
X187672161Y-166503646D01*
X187631428Y-166524401D01*
X187587949Y-166538528D01*
X187530356Y-166562384D01*
X187440087Y-166586571D01*
X187385185Y-166604410D01*
X187356634Y-166608932D01*
X187321889Y-166618242D01*
X187179468Y-166636992D01*
X187129458Y-166644914D01*
X187119305Y-166644914D01*
X187107912Y-166646414D01*
X186892088Y-166646414D01*
X186880695Y-166644914D01*
X186870542Y-166644914D01*
X186820532Y-166636993D01*
X186678110Y-166618242D01*
X186643362Y-166608931D01*
X186614815Y-166604410D01*
X186559916Y-166586572D01*
X186469643Y-166562384D01*
X186412045Y-166538526D01*
X186368572Y-166524401D01*
X186327842Y-166503648D01*
X186270246Y-166479791D01*
X186189304Y-166433059D01*
X186137877Y-166406856D01*
X186114498Y-166389870D01*
X186083336Y-166371879D01*
X185969341Y-166284407D01*
X185928411Y-166254670D01*
X185921236Y-166247495D01*
X185912116Y-166240497D01*
X185759502Y-166087883D01*
X185752503Y-166078762D01*
X185745330Y-166071589D01*
X185715596Y-166030664D01*
X185628120Y-165916663D01*
X185610127Y-165885498D01*
X185593144Y-165862123D01*
X185566943Y-165810701D01*
X185520208Y-165729753D01*
X185496348Y-165672151D01*
X185475599Y-165631428D01*
X185461475Y-165587960D01*
X185437615Y-165530356D01*
X185413423Y-165440070D01*
X185395590Y-165385185D01*
X185391069Y-165356643D01*
X185381757Y-165321889D01*
X185363005Y-165179456D01*
X185355086Y-165129458D01*
X185355086Y-165119305D01*
X185353586Y-165107912D01*
X185353586Y-164892087D01*
X185355086Y-164880693D01*
X185355086Y-164870542D01*
X185363004Y-164820548D01*
X185381757Y-164678110D01*
X185391069Y-164643353D01*
X185395590Y-164614815D01*
X185413421Y-164559934D01*
X185437615Y-164469643D01*
X185461477Y-164412034D01*
X185475599Y-164368572D01*
X185496346Y-164327852D01*
X185520208Y-164270246D01*
X185566947Y-164189289D01*
X185593144Y-164137877D01*
X185610124Y-164114505D01*
X185628120Y-164083336D01*
X185715610Y-163969316D01*
X185745330Y-163928411D01*
X185752500Y-163921240D01*
X185759502Y-163912116D01*
X185912116Y-163759502D01*
X185921240Y-163752500D01*
X185928411Y-163745330D01*
X185969316Y-163715610D01*
X186083336Y-163628120D01*
X186114505Y-163610124D01*
X186137877Y-163593144D01*
X186189289Y-163566947D01*
X186270246Y-163520208D01*
X186327852Y-163496346D01*
X186368572Y-163475599D01*
X186412034Y-163461477D01*
X186469643Y-163437615D01*
X186559934Y-163413421D01*
X186614815Y-163395590D01*
X186643353Y-163391069D01*
X186678110Y-163381757D01*
X186820545Y-163363004D01*
X186870542Y-163355086D01*
X186880694Y-163355086D01*
X186892088Y-163353586D01*
X187107912Y-163353586D01*
X187119305Y-163355086D01*
G37*
G36*
X27119305Y-137355086D02*
G01*
X27129458Y-137355086D01*
X27179456Y-137363005D01*
X27321889Y-137381757D01*
X27356643Y-137391069D01*
X27385185Y-137395590D01*
X27440070Y-137413423D01*
X27530356Y-137437615D01*
X27587960Y-137461475D01*
X27631428Y-137475599D01*
X27672151Y-137496348D01*
X27729753Y-137520208D01*
X27810701Y-137566943D01*
X27862123Y-137593144D01*
X27885498Y-137610127D01*
X27916663Y-137628120D01*
X28030664Y-137715596D01*
X28071589Y-137745330D01*
X28078762Y-137752503D01*
X28087883Y-137759502D01*
X28240497Y-137912116D01*
X28247495Y-137921236D01*
X28254670Y-137928411D01*
X28284407Y-137969341D01*
X28371879Y-138083336D01*
X28389870Y-138114498D01*
X28406856Y-138137877D01*
X28433059Y-138189304D01*
X28479791Y-138270246D01*
X28503648Y-138327842D01*
X28524401Y-138368572D01*
X28538526Y-138412045D01*
X28562384Y-138469643D01*
X28586572Y-138559916D01*
X28604410Y-138614815D01*
X28608931Y-138643362D01*
X28618242Y-138678110D01*
X28636993Y-138820535D01*
X28644914Y-138870542D01*
X28644914Y-138880693D01*
X28646414Y-138892087D01*
X28646414Y-139107912D01*
X28644914Y-139119305D01*
X28644914Y-139129458D01*
X28636992Y-139179468D01*
X28618242Y-139321889D01*
X28608932Y-139356634D01*
X28604410Y-139385185D01*
X28586571Y-139440087D01*
X28562384Y-139530356D01*
X28538528Y-139587949D01*
X28524401Y-139631428D01*
X28503646Y-139672161D01*
X28479791Y-139729753D01*
X28433063Y-139810687D01*
X28406856Y-139862123D01*
X28389868Y-139885504D01*
X28371879Y-139916663D01*
X28284421Y-140030639D01*
X28254670Y-140071589D01*
X28247491Y-140078767D01*
X28240497Y-140087883D01*
X28087883Y-140240497D01*
X28078767Y-140247491D01*
X28071589Y-140254670D01*
X28030639Y-140284421D01*
X27916663Y-140371879D01*
X27885504Y-140389868D01*
X27862123Y-140406856D01*
X27810687Y-140433063D01*
X27729753Y-140479791D01*
X27672161Y-140503646D01*
X27631428Y-140524401D01*
X27587949Y-140538528D01*
X27530356Y-140562384D01*
X27440087Y-140586571D01*
X27385185Y-140604410D01*
X27356634Y-140608932D01*
X27321889Y-140618242D01*
X27179468Y-140636992D01*
X27129458Y-140644914D01*
X27119305Y-140644914D01*
X27107912Y-140646414D01*
X26892088Y-140646414D01*
X26880695Y-140644914D01*
X26870542Y-140644914D01*
X26820532Y-140636993D01*
X26678110Y-140618242D01*
X26643362Y-140608931D01*
X26614815Y-140604410D01*
X26559916Y-140586572D01*
X26469643Y-140562384D01*
X26412045Y-140538526D01*
X26368572Y-140524401D01*
X26327842Y-140503648D01*
X26270246Y-140479791D01*
X26189304Y-140433059D01*
X26137877Y-140406856D01*
X26114498Y-140389870D01*
X26083336Y-140371879D01*
X25969341Y-140284407D01*
X25928411Y-140254670D01*
X25921236Y-140247495D01*
X25912116Y-140240497D01*
X25759502Y-140087883D01*
X25752503Y-140078762D01*
X25745330Y-140071589D01*
X25715596Y-140030664D01*
X25628120Y-139916663D01*
X25610127Y-139885498D01*
X25593144Y-139862123D01*
X25566943Y-139810701D01*
X25520208Y-139729753D01*
X25496348Y-139672151D01*
X25475599Y-139631428D01*
X25461475Y-139587960D01*
X25437615Y-139530356D01*
X25413423Y-139440070D01*
X25395590Y-139385185D01*
X25391069Y-139356643D01*
X25381757Y-139321889D01*
X25363005Y-139179456D01*
X25355086Y-139129458D01*
X25355086Y-139119305D01*
X25353586Y-139107912D01*
X25353586Y-138892087D01*
X25355086Y-138880693D01*
X25355086Y-138870542D01*
X25363004Y-138820548D01*
X25381757Y-138678110D01*
X25391069Y-138643353D01*
X25395590Y-138614815D01*
X25413421Y-138559934D01*
X25437615Y-138469643D01*
X25461477Y-138412034D01*
X25475599Y-138368572D01*
X25496346Y-138327852D01*
X25520208Y-138270246D01*
X25566947Y-138189289D01*
X25593144Y-138137877D01*
X25610124Y-138114505D01*
X25628120Y-138083336D01*
X25715610Y-137969316D01*
X25745330Y-137928411D01*
X25752500Y-137921240D01*
X25759502Y-137912116D01*
X25912116Y-137759502D01*
X25921240Y-137752500D01*
X25928411Y-137745330D01*
X25969316Y-137715610D01*
X26083336Y-137628120D01*
X26114505Y-137610124D01*
X26137877Y-137593144D01*
X26189289Y-137566947D01*
X26270246Y-137520208D01*
X26327852Y-137496346D01*
X26368572Y-137475599D01*
X26412034Y-137461477D01*
X26469643Y-137437615D01*
X26559934Y-137413421D01*
X26614815Y-137395590D01*
X26643353Y-137391069D01*
X26678110Y-137381757D01*
X26820545Y-137363004D01*
X26870542Y-137355086D01*
X26880694Y-137355086D01*
X26892088Y-137353586D01*
X27107912Y-137353586D01*
X27119305Y-137355086D01*
G37*
G36*
X71119305Y-137355086D02*
G01*
X71129458Y-137355086D01*
X71179456Y-137363005D01*
X71321889Y-137381757D01*
X71356643Y-137391069D01*
X71385185Y-137395590D01*
X71440070Y-137413423D01*
X71530356Y-137437615D01*
X71587960Y-137461475D01*
X71631428Y-137475599D01*
X71672151Y-137496348D01*
X71729753Y-137520208D01*
X71810701Y-137566943D01*
X71862123Y-137593144D01*
X71885498Y-137610127D01*
X71916663Y-137628120D01*
X72030664Y-137715596D01*
X72071589Y-137745330D01*
X72078762Y-137752503D01*
X72087883Y-137759502D01*
X72240497Y-137912116D01*
X72247495Y-137921236D01*
X72254670Y-137928411D01*
X72284407Y-137969341D01*
X72371879Y-138083336D01*
X72389870Y-138114498D01*
X72406856Y-138137877D01*
X72433059Y-138189304D01*
X72479791Y-138270246D01*
X72503648Y-138327842D01*
X72524401Y-138368572D01*
X72538526Y-138412045D01*
X72562384Y-138469643D01*
X72586572Y-138559916D01*
X72604410Y-138614815D01*
X72608931Y-138643362D01*
X72618242Y-138678110D01*
X72636993Y-138820535D01*
X72644914Y-138870542D01*
X72644914Y-138880693D01*
X72646414Y-138892087D01*
X72646414Y-139107912D01*
X72644914Y-139119305D01*
X72644914Y-139129458D01*
X72636992Y-139179468D01*
X72618242Y-139321889D01*
X72608932Y-139356634D01*
X72604410Y-139385185D01*
X72586571Y-139440087D01*
X72562384Y-139530356D01*
X72538528Y-139587949D01*
X72524401Y-139631428D01*
X72503646Y-139672161D01*
X72479791Y-139729753D01*
X72433063Y-139810687D01*
X72406856Y-139862123D01*
X72389868Y-139885504D01*
X72371879Y-139916663D01*
X72284421Y-140030639D01*
X72254670Y-140071589D01*
X72247491Y-140078767D01*
X72240497Y-140087883D01*
X72087883Y-140240497D01*
X72078767Y-140247491D01*
X72071589Y-140254670D01*
X72030639Y-140284421D01*
X71916663Y-140371879D01*
X71885504Y-140389868D01*
X71862123Y-140406856D01*
X71810687Y-140433063D01*
X71729753Y-140479791D01*
X71672161Y-140503646D01*
X71631428Y-140524401D01*
X71587949Y-140538528D01*
X71530356Y-140562384D01*
X71440087Y-140586571D01*
X71385185Y-140604410D01*
X71356634Y-140608932D01*
X71321889Y-140618242D01*
X71179468Y-140636992D01*
X71129458Y-140644914D01*
X71119305Y-140644914D01*
X71107912Y-140646414D01*
X70892088Y-140646414D01*
X70880695Y-140644914D01*
X70870542Y-140644914D01*
X70820532Y-140636993D01*
X70678110Y-140618242D01*
X70643362Y-140608931D01*
X70614815Y-140604410D01*
X70559916Y-140586572D01*
X70469643Y-140562384D01*
X70412045Y-140538526D01*
X70368572Y-140524401D01*
X70327842Y-140503648D01*
X70270246Y-140479791D01*
X70189304Y-140433059D01*
X70137877Y-140406856D01*
X70114498Y-140389870D01*
X70083336Y-140371879D01*
X69969341Y-140284407D01*
X69928411Y-140254670D01*
X69921236Y-140247495D01*
X69912116Y-140240497D01*
X69759502Y-140087883D01*
X69752503Y-140078762D01*
X69745330Y-140071589D01*
X69715596Y-140030664D01*
X69628120Y-139916663D01*
X69610127Y-139885498D01*
X69593144Y-139862123D01*
X69566943Y-139810701D01*
X69520208Y-139729753D01*
X69496348Y-139672151D01*
X69475599Y-139631428D01*
X69461475Y-139587960D01*
X69437615Y-139530356D01*
X69413423Y-139440070D01*
X69395590Y-139385185D01*
X69391069Y-139356643D01*
X69381757Y-139321889D01*
X69363005Y-139179456D01*
X69355086Y-139129458D01*
X69355086Y-139119305D01*
X69353586Y-139107912D01*
X69353586Y-138892087D01*
X69355086Y-138880693D01*
X69355086Y-138870542D01*
X69363004Y-138820548D01*
X69381757Y-138678110D01*
X69391069Y-138643353D01*
X69395590Y-138614815D01*
X69413421Y-138559934D01*
X69437615Y-138469643D01*
X69461477Y-138412034D01*
X69475599Y-138368572D01*
X69496346Y-138327852D01*
X69520208Y-138270246D01*
X69566947Y-138189289D01*
X69593144Y-138137877D01*
X69610124Y-138114505D01*
X69628120Y-138083336D01*
X69715610Y-137969316D01*
X69745330Y-137928411D01*
X69752500Y-137921240D01*
X69759502Y-137912116D01*
X69912116Y-137759502D01*
X69921240Y-137752500D01*
X69928411Y-137745330D01*
X69969316Y-137715610D01*
X70083336Y-137628120D01*
X70114505Y-137610124D01*
X70137877Y-137593144D01*
X70189289Y-137566947D01*
X70270246Y-137520208D01*
X70327852Y-137496346D01*
X70368572Y-137475599D01*
X70412034Y-137461477D01*
X70469643Y-137437615D01*
X70559934Y-137413421D01*
X70614815Y-137395590D01*
X70643353Y-137391069D01*
X70678110Y-137381757D01*
X70820545Y-137363004D01*
X70870542Y-137355086D01*
X70880694Y-137355086D01*
X70892088Y-137353586D01*
X71107912Y-137353586D01*
X71119305Y-137355086D01*
G37*
G36*
X85119305Y-137355086D02*
G01*
X85129458Y-137355086D01*
X85179456Y-137363005D01*
X85321889Y-137381757D01*
X85356643Y-137391069D01*
X85385185Y-137395590D01*
X85440070Y-137413423D01*
X85530356Y-137437615D01*
X85587960Y-137461475D01*
X85631428Y-137475599D01*
X85672151Y-137496348D01*
X85729753Y-137520208D01*
X85810701Y-137566943D01*
X85862123Y-137593144D01*
X85885498Y-137610127D01*
X85916663Y-137628120D01*
X86030664Y-137715596D01*
X86071589Y-137745330D01*
X86078762Y-137752503D01*
X86087883Y-137759502D01*
X86240497Y-137912116D01*
X86247495Y-137921236D01*
X86254670Y-137928411D01*
X86284407Y-137969341D01*
X86371879Y-138083336D01*
X86389870Y-138114498D01*
X86406856Y-138137877D01*
X86433059Y-138189304D01*
X86479791Y-138270246D01*
X86503648Y-138327842D01*
X86524401Y-138368572D01*
X86538526Y-138412045D01*
X86562384Y-138469643D01*
X86586572Y-138559916D01*
X86604410Y-138614815D01*
X86608931Y-138643362D01*
X86618242Y-138678110D01*
X86636993Y-138820535D01*
X86644914Y-138870542D01*
X86644914Y-138880693D01*
X86646414Y-138892087D01*
X86646414Y-139107912D01*
X86644914Y-139119305D01*
X86644914Y-139129458D01*
X86636992Y-139179468D01*
X86618242Y-139321889D01*
X86608932Y-139356634D01*
X86604410Y-139385185D01*
X86586571Y-139440087D01*
X86562384Y-139530356D01*
X86538528Y-139587949D01*
X86524401Y-139631428D01*
X86503646Y-139672161D01*
X86479791Y-139729753D01*
X86433063Y-139810687D01*
X86406856Y-139862123D01*
X86389868Y-139885504D01*
X86371879Y-139916663D01*
X86284421Y-140030639D01*
X86254670Y-140071589D01*
X86247491Y-140078767D01*
X86240497Y-140087883D01*
X86087883Y-140240497D01*
X86078767Y-140247491D01*
X86071589Y-140254670D01*
X86030639Y-140284421D01*
X85916663Y-140371879D01*
X85885504Y-140389868D01*
X85862123Y-140406856D01*
X85810687Y-140433063D01*
X85729753Y-140479791D01*
X85672161Y-140503646D01*
X85631428Y-140524401D01*
X85587949Y-140538528D01*
X85530356Y-140562384D01*
X85440087Y-140586571D01*
X85385185Y-140604410D01*
X85356634Y-140608932D01*
X85321889Y-140618242D01*
X85179468Y-140636992D01*
X85129458Y-140644914D01*
X85119305Y-140644914D01*
X85107912Y-140646414D01*
X84892088Y-140646414D01*
X84880695Y-140644914D01*
X84870542Y-140644914D01*
X84820532Y-140636993D01*
X84678110Y-140618242D01*
X84643362Y-140608931D01*
X84614815Y-140604410D01*
X84559916Y-140586572D01*
X84469643Y-140562384D01*
X84412045Y-140538526D01*
X84368572Y-140524401D01*
X84327842Y-140503648D01*
X84270246Y-140479791D01*
X84189304Y-140433059D01*
X84137877Y-140406856D01*
X84114498Y-140389870D01*
X84083336Y-140371879D01*
X83969341Y-140284407D01*
X83928411Y-140254670D01*
X83921236Y-140247495D01*
X83912116Y-140240497D01*
X83759502Y-140087883D01*
X83752503Y-140078762D01*
X83745330Y-140071589D01*
X83715596Y-140030664D01*
X83628120Y-139916663D01*
X83610127Y-139885498D01*
X83593144Y-139862123D01*
X83566943Y-139810701D01*
X83520208Y-139729753D01*
X83496348Y-139672151D01*
X83475599Y-139631428D01*
X83461475Y-139587960D01*
X83437615Y-139530356D01*
X83413423Y-139440070D01*
X83395590Y-139385185D01*
X83391069Y-139356643D01*
X83381757Y-139321889D01*
X83363005Y-139179456D01*
X83355086Y-139129458D01*
X83355086Y-139119305D01*
X83353586Y-139107912D01*
X83353586Y-138892087D01*
X83355086Y-138880693D01*
X83355086Y-138870542D01*
X83363004Y-138820548D01*
X83381757Y-138678110D01*
X83391069Y-138643353D01*
X83395590Y-138614815D01*
X83413421Y-138559934D01*
X83437615Y-138469643D01*
X83461477Y-138412034D01*
X83475599Y-138368572D01*
X83496346Y-138327852D01*
X83520208Y-138270246D01*
X83566947Y-138189289D01*
X83593144Y-138137877D01*
X83610124Y-138114505D01*
X83628120Y-138083336D01*
X83715610Y-137969316D01*
X83745330Y-137928411D01*
X83752500Y-137921240D01*
X83759502Y-137912116D01*
X83912116Y-137759502D01*
X83921240Y-137752500D01*
X83928411Y-137745330D01*
X83969316Y-137715610D01*
X84083336Y-137628120D01*
X84114505Y-137610124D01*
X84137877Y-137593144D01*
X84189289Y-137566947D01*
X84270246Y-137520208D01*
X84327852Y-137496346D01*
X84368572Y-137475599D01*
X84412034Y-137461477D01*
X84469643Y-137437615D01*
X84559934Y-137413421D01*
X84614815Y-137395590D01*
X84643353Y-137391069D01*
X84678110Y-137381757D01*
X84820545Y-137363004D01*
X84870542Y-137355086D01*
X84880694Y-137355086D01*
X84892088Y-137353586D01*
X85107912Y-137353586D01*
X85119305Y-137355086D01*
G37*
G36*
X129119305Y-137355086D02*
G01*
X129129458Y-137355086D01*
X129179456Y-137363005D01*
X129321889Y-137381757D01*
X129356643Y-137391069D01*
X129385185Y-137395590D01*
X129440070Y-137413423D01*
X129530356Y-137437615D01*
X129587960Y-137461475D01*
X129631428Y-137475599D01*
X129672151Y-137496348D01*
X129729753Y-137520208D01*
X129810701Y-137566943D01*
X129862123Y-137593144D01*
X129885498Y-137610127D01*
X129916663Y-137628120D01*
X130030664Y-137715596D01*
X130071589Y-137745330D01*
X130078762Y-137752503D01*
X130087883Y-137759502D01*
X130240497Y-137912116D01*
X130247495Y-137921236D01*
X130254670Y-137928411D01*
X130284407Y-137969341D01*
X130371879Y-138083336D01*
X130389870Y-138114498D01*
X130406856Y-138137877D01*
X130433059Y-138189304D01*
X130479791Y-138270246D01*
X130503648Y-138327842D01*
X130524401Y-138368572D01*
X130538526Y-138412045D01*
X130562384Y-138469643D01*
X130586572Y-138559916D01*
X130604410Y-138614815D01*
X130608931Y-138643362D01*
X130618242Y-138678110D01*
X130636993Y-138820535D01*
X130644914Y-138870542D01*
X130644914Y-138880693D01*
X130646414Y-138892087D01*
X130646414Y-139107912D01*
X130644914Y-139119305D01*
X130644914Y-139129458D01*
X130636992Y-139179468D01*
X130618242Y-139321889D01*
X130608932Y-139356634D01*
X130604410Y-139385185D01*
X130586571Y-139440087D01*
X130562384Y-139530356D01*
X130538528Y-139587949D01*
X130524401Y-139631428D01*
X130503646Y-139672161D01*
X130479791Y-139729753D01*
X130433063Y-139810687D01*
X130406856Y-139862123D01*
X130389868Y-139885504D01*
X130371879Y-139916663D01*
X130284421Y-140030639D01*
X130254670Y-140071589D01*
X130247491Y-140078767D01*
X130240497Y-140087883D01*
X130087883Y-140240497D01*
X130078767Y-140247491D01*
X130071589Y-140254670D01*
X130030639Y-140284421D01*
X129916663Y-140371879D01*
X129885504Y-140389868D01*
X129862123Y-140406856D01*
X129810687Y-140433063D01*
X129729753Y-140479791D01*
X129672161Y-140503646D01*
X129631428Y-140524401D01*
X129587949Y-140538528D01*
X129530356Y-140562384D01*
X129440087Y-140586571D01*
X129385185Y-140604410D01*
X129356634Y-140608932D01*
X129321889Y-140618242D01*
X129179468Y-140636992D01*
X129129458Y-140644914D01*
X129119305Y-140644914D01*
X129107912Y-140646414D01*
X128892088Y-140646414D01*
X128880695Y-140644914D01*
X128870542Y-140644914D01*
X128820532Y-140636993D01*
X128678110Y-140618242D01*
X128643362Y-140608931D01*
X128614815Y-140604410D01*
X128559916Y-140586572D01*
X128469643Y-140562384D01*
X128412045Y-140538526D01*
X128368572Y-140524401D01*
X128327842Y-140503648D01*
X128270246Y-140479791D01*
X128189304Y-140433059D01*
X128137877Y-140406856D01*
X128114498Y-140389870D01*
X128083336Y-140371879D01*
X127969341Y-140284407D01*
X127928411Y-140254670D01*
X127921236Y-140247495D01*
X127912116Y-140240497D01*
X127759502Y-140087883D01*
X127752503Y-140078762D01*
X127745330Y-140071589D01*
X127715596Y-140030664D01*
X127628120Y-139916663D01*
X127610127Y-139885498D01*
X127593144Y-139862123D01*
X127566943Y-139810701D01*
X127520208Y-139729753D01*
X127496348Y-139672151D01*
X127475599Y-139631428D01*
X127461475Y-139587960D01*
X127437615Y-139530356D01*
X127413423Y-139440070D01*
X127395590Y-139385185D01*
X127391069Y-139356643D01*
X127381757Y-139321889D01*
X127363005Y-139179456D01*
X127355086Y-139129458D01*
X127355086Y-139119305D01*
X127353586Y-139107912D01*
X127353586Y-138892087D01*
X127355086Y-138880693D01*
X127355086Y-138870542D01*
X127363004Y-138820548D01*
X127381757Y-138678110D01*
X127391069Y-138643353D01*
X127395590Y-138614815D01*
X127413421Y-138559934D01*
X127437615Y-138469643D01*
X127461477Y-138412034D01*
X127475599Y-138368572D01*
X127496346Y-138327852D01*
X127520208Y-138270246D01*
X127566947Y-138189289D01*
X127593144Y-138137877D01*
X127610124Y-138114505D01*
X127628120Y-138083336D01*
X127715610Y-137969316D01*
X127745330Y-137928411D01*
X127752500Y-137921240D01*
X127759502Y-137912116D01*
X127912116Y-137759502D01*
X127921240Y-137752500D01*
X127928411Y-137745330D01*
X127969316Y-137715610D01*
X128083336Y-137628120D01*
X128114505Y-137610124D01*
X128137877Y-137593144D01*
X128189289Y-137566947D01*
X128270246Y-137520208D01*
X128327852Y-137496346D01*
X128368572Y-137475599D01*
X128412034Y-137461477D01*
X128469643Y-137437615D01*
X128559934Y-137413421D01*
X128614815Y-137395590D01*
X128643353Y-137391069D01*
X128678110Y-137381757D01*
X128820545Y-137363004D01*
X128870542Y-137355086D01*
X128880694Y-137355086D01*
X128892088Y-137353586D01*
X129107912Y-137353586D01*
X129119305Y-137355086D01*
G37*
G36*
X143119305Y-137355086D02*
G01*
X143129458Y-137355086D01*
X143179456Y-137363005D01*
X143321889Y-137381757D01*
X143356643Y-137391069D01*
X143385185Y-137395590D01*
X143440070Y-137413423D01*
X143530356Y-137437615D01*
X143587960Y-137461475D01*
X143631428Y-137475599D01*
X143672151Y-137496348D01*
X143729753Y-137520208D01*
X143810701Y-137566943D01*
X143862123Y-137593144D01*
X143885498Y-137610127D01*
X143916663Y-137628120D01*
X144030664Y-137715596D01*
X144071589Y-137745330D01*
X144078762Y-137752503D01*
X144087883Y-137759502D01*
X144240497Y-137912116D01*
X144247495Y-137921236D01*
X144254670Y-137928411D01*
X144284407Y-137969341D01*
X144371879Y-138083336D01*
X144389870Y-138114498D01*
X144406856Y-138137877D01*
X144433059Y-138189304D01*
X144479791Y-138270246D01*
X144503648Y-138327842D01*
X144524401Y-138368572D01*
X144538526Y-138412045D01*
X144562384Y-138469643D01*
X144586572Y-138559916D01*
X144604410Y-138614815D01*
X144608931Y-138643362D01*
X144618242Y-138678110D01*
X144636993Y-138820535D01*
X144644914Y-138870542D01*
X144644914Y-138880693D01*
X144646414Y-138892087D01*
X144646414Y-139107912D01*
X144644914Y-139119305D01*
X144644914Y-139129458D01*
X144636992Y-139179468D01*
X144618242Y-139321889D01*
X144608932Y-139356634D01*
X144604410Y-139385185D01*
X144586571Y-139440087D01*
X144562384Y-139530356D01*
X144538528Y-139587949D01*
X144524401Y-139631428D01*
X144503646Y-139672161D01*
X144479791Y-139729753D01*
X144433063Y-139810687D01*
X144406856Y-139862123D01*
X144389868Y-139885504D01*
X144371879Y-139916663D01*
X144284421Y-140030639D01*
X144254670Y-140071589D01*
X144247491Y-140078767D01*
X144240497Y-140087883D01*
X144087883Y-140240497D01*
X144078767Y-140247491D01*
X144071589Y-140254670D01*
X144030639Y-140284421D01*
X143916663Y-140371879D01*
X143885504Y-140389868D01*
X143862123Y-140406856D01*
X143810687Y-140433063D01*
X143729753Y-140479791D01*
X143672161Y-140503646D01*
X143631428Y-140524401D01*
X143587949Y-140538528D01*
X143530356Y-140562384D01*
X143440087Y-140586571D01*
X143385185Y-140604410D01*
X143356634Y-140608932D01*
X143321889Y-140618242D01*
X143179468Y-140636992D01*
X143129458Y-140644914D01*
X143119305Y-140644914D01*
X143107912Y-140646414D01*
X142892088Y-140646414D01*
X142880695Y-140644914D01*
X142870542Y-140644914D01*
X142820532Y-140636993D01*
X142678110Y-140618242D01*
X142643362Y-140608931D01*
X142614815Y-140604410D01*
X142559916Y-140586572D01*
X142469643Y-140562384D01*
X142412045Y-140538526D01*
X142368572Y-140524401D01*
X142327842Y-140503648D01*
X142270246Y-140479791D01*
X142189304Y-140433059D01*
X142137877Y-140406856D01*
X142114498Y-140389870D01*
X142083336Y-140371879D01*
X141969341Y-140284407D01*
X141928411Y-140254670D01*
X141921236Y-140247495D01*
X141912116Y-140240497D01*
X141759502Y-140087883D01*
X141752503Y-140078762D01*
X141745330Y-140071589D01*
X141715596Y-140030664D01*
X141628120Y-139916663D01*
X141610127Y-139885498D01*
X141593144Y-139862123D01*
X141566943Y-139810701D01*
X141520208Y-139729753D01*
X141496348Y-139672151D01*
X141475599Y-139631428D01*
X141461475Y-139587960D01*
X141437615Y-139530356D01*
X141413423Y-139440070D01*
X141395590Y-139385185D01*
X141391069Y-139356643D01*
X141381757Y-139321889D01*
X141363005Y-139179456D01*
X141355086Y-139129458D01*
X141355086Y-139119305D01*
X141353586Y-139107912D01*
X141353586Y-138892087D01*
X141355086Y-138880693D01*
X141355086Y-138870542D01*
X141363004Y-138820548D01*
X141381757Y-138678110D01*
X141391069Y-138643353D01*
X141395590Y-138614815D01*
X141413421Y-138559934D01*
X141437615Y-138469643D01*
X141461477Y-138412034D01*
X141475599Y-138368572D01*
X141496346Y-138327852D01*
X141520208Y-138270246D01*
X141566947Y-138189289D01*
X141593144Y-138137877D01*
X141610124Y-138114505D01*
X141628120Y-138083336D01*
X141715610Y-137969316D01*
X141745330Y-137928411D01*
X141752500Y-137921240D01*
X141759502Y-137912116D01*
X141912116Y-137759502D01*
X141921240Y-137752500D01*
X141928411Y-137745330D01*
X141969316Y-137715610D01*
X142083336Y-137628120D01*
X142114505Y-137610124D01*
X142137877Y-137593144D01*
X142189289Y-137566947D01*
X142270246Y-137520208D01*
X142327852Y-137496346D01*
X142368572Y-137475599D01*
X142412034Y-137461477D01*
X142469643Y-137437615D01*
X142559934Y-137413421D01*
X142614815Y-137395590D01*
X142643353Y-137391069D01*
X142678110Y-137381757D01*
X142820545Y-137363004D01*
X142870542Y-137355086D01*
X142880694Y-137355086D01*
X142892088Y-137353586D01*
X143107912Y-137353586D01*
X143119305Y-137355086D01*
G37*
G36*
X187119305Y-137355086D02*
G01*
X187129458Y-137355086D01*
X187179456Y-137363005D01*
X187321889Y-137381757D01*
X187356643Y-137391069D01*
X187385185Y-137395590D01*
X187440070Y-137413423D01*
X187530356Y-137437615D01*
X187587960Y-137461475D01*
X187631428Y-137475599D01*
X187672151Y-137496348D01*
X187729753Y-137520208D01*
X187810701Y-137566943D01*
X187862123Y-137593144D01*
X187885498Y-137610127D01*
X187916663Y-137628120D01*
X188030664Y-137715596D01*
X188071589Y-137745330D01*
X188078762Y-137752503D01*
X188087883Y-137759502D01*
X188240497Y-137912116D01*
X188247495Y-137921236D01*
X188254670Y-137928411D01*
X188284407Y-137969341D01*
X188371879Y-138083336D01*
X188389870Y-138114498D01*
X188406856Y-138137877D01*
X188433059Y-138189304D01*
X188479791Y-138270246D01*
X188503648Y-138327842D01*
X188524401Y-138368572D01*
X188538526Y-138412045D01*
X188562384Y-138469643D01*
X188586572Y-138559916D01*
X188604410Y-138614815D01*
X188608931Y-138643362D01*
X188618242Y-138678110D01*
X188636993Y-138820535D01*
X188644914Y-138870542D01*
X188644914Y-138880693D01*
X188646414Y-138892087D01*
X188646414Y-139107912D01*
X188644914Y-139119305D01*
X188644914Y-139129458D01*
X188636992Y-139179468D01*
X188618242Y-139321889D01*
X188608932Y-139356634D01*
X188604410Y-139385185D01*
X188586571Y-139440087D01*
X188562384Y-139530356D01*
X188538528Y-139587949D01*
X188524401Y-139631428D01*
X188503646Y-139672161D01*
X188479791Y-139729753D01*
X188433063Y-139810687D01*
X188406856Y-139862123D01*
X188389868Y-139885504D01*
X188371879Y-139916663D01*
X188284421Y-140030639D01*
X188254670Y-140071589D01*
X188247491Y-140078767D01*
X188240497Y-140087883D01*
X188087883Y-140240497D01*
X188078767Y-140247491D01*
X188071589Y-140254670D01*
X188030639Y-140284421D01*
X187916663Y-140371879D01*
X187885504Y-140389868D01*
X187862123Y-140406856D01*
X187810687Y-140433063D01*
X187729753Y-140479791D01*
X187672161Y-140503646D01*
X187631428Y-140524401D01*
X187587949Y-140538528D01*
X187530356Y-140562384D01*
X187440087Y-140586571D01*
X187385185Y-140604410D01*
X187356634Y-140608932D01*
X187321889Y-140618242D01*
X187179468Y-140636992D01*
X187129458Y-140644914D01*
X187119305Y-140644914D01*
X187107912Y-140646414D01*
X186892088Y-140646414D01*
X186880695Y-140644914D01*
X186870542Y-140644914D01*
X186820532Y-140636993D01*
X186678110Y-140618242D01*
X186643362Y-140608931D01*
X186614815Y-140604410D01*
X186559916Y-140586572D01*
X186469643Y-140562384D01*
X186412045Y-140538526D01*
X186368572Y-140524401D01*
X186327842Y-140503648D01*
X186270246Y-140479791D01*
X186189304Y-140433059D01*
X186137877Y-140406856D01*
X186114498Y-140389870D01*
X186083336Y-140371879D01*
X185969341Y-140284407D01*
X185928411Y-140254670D01*
X185921236Y-140247495D01*
X185912116Y-140240497D01*
X185759502Y-140087883D01*
X185752503Y-140078762D01*
X185745330Y-140071589D01*
X185715596Y-140030664D01*
X185628120Y-139916663D01*
X185610127Y-139885498D01*
X185593144Y-139862123D01*
X185566943Y-139810701D01*
X185520208Y-139729753D01*
X185496348Y-139672151D01*
X185475599Y-139631428D01*
X185461475Y-139587960D01*
X185437615Y-139530356D01*
X185413423Y-139440070D01*
X185395590Y-139385185D01*
X185391069Y-139356643D01*
X185381757Y-139321889D01*
X185363005Y-139179456D01*
X185355086Y-139129458D01*
X185355086Y-139119305D01*
X185353586Y-139107912D01*
X185353586Y-138892087D01*
X185355086Y-138880693D01*
X185355086Y-138870542D01*
X185363004Y-138820548D01*
X185381757Y-138678110D01*
X185391069Y-138643353D01*
X185395590Y-138614815D01*
X185413421Y-138559934D01*
X185437615Y-138469643D01*
X185461477Y-138412034D01*
X185475599Y-138368572D01*
X185496346Y-138327852D01*
X185520208Y-138270246D01*
X185566947Y-138189289D01*
X185593144Y-138137877D01*
X185610124Y-138114505D01*
X185628120Y-138083336D01*
X185715610Y-137969316D01*
X185745330Y-137928411D01*
X185752500Y-137921240D01*
X185759502Y-137912116D01*
X185912116Y-137759502D01*
X185921240Y-137752500D01*
X185928411Y-137745330D01*
X185969316Y-137715610D01*
X186083336Y-137628120D01*
X186114505Y-137610124D01*
X186137877Y-137593144D01*
X186189289Y-137566947D01*
X186270246Y-137520208D01*
X186327852Y-137496346D01*
X186368572Y-137475599D01*
X186412034Y-137461477D01*
X186469643Y-137437615D01*
X186559934Y-137413421D01*
X186614815Y-137395590D01*
X186643353Y-137391069D01*
X186678110Y-137381757D01*
X186820545Y-137363004D01*
X186870542Y-137355086D01*
X186880694Y-137355086D01*
X186892088Y-137353586D01*
X187107912Y-137353586D01*
X187119305Y-137355086D01*
G37*
G36*
X27119305Y-93355086D02*
G01*
X27129458Y-93355086D01*
X27179456Y-93363005D01*
X27321889Y-93381757D01*
X27356643Y-93391069D01*
X27385185Y-93395590D01*
X27440070Y-93413423D01*
X27530356Y-93437615D01*
X27587960Y-93461475D01*
X27631428Y-93475599D01*
X27672151Y-93496348D01*
X27729753Y-93520208D01*
X27810701Y-93566943D01*
X27862123Y-93593144D01*
X27885498Y-93610127D01*
X27916663Y-93628120D01*
X28030664Y-93715596D01*
X28071589Y-93745330D01*
X28078762Y-93752503D01*
X28087883Y-93759502D01*
X28240497Y-93912116D01*
X28247495Y-93921236D01*
X28254670Y-93928411D01*
X28284407Y-93969341D01*
X28371879Y-94083336D01*
X28389870Y-94114498D01*
X28406856Y-94137877D01*
X28433059Y-94189304D01*
X28479791Y-94270246D01*
X28503648Y-94327842D01*
X28524401Y-94368572D01*
X28538526Y-94412045D01*
X28562384Y-94469643D01*
X28586572Y-94559916D01*
X28604410Y-94614815D01*
X28608931Y-94643362D01*
X28618242Y-94678110D01*
X28636993Y-94820535D01*
X28644914Y-94870542D01*
X28644914Y-94880693D01*
X28646414Y-94892087D01*
X28646414Y-95107912D01*
X28644914Y-95119305D01*
X28644914Y-95129458D01*
X28636992Y-95179468D01*
X28618242Y-95321889D01*
X28608932Y-95356634D01*
X28604410Y-95385185D01*
X28586571Y-95440087D01*
X28562384Y-95530356D01*
X28538528Y-95587949D01*
X28524401Y-95631428D01*
X28503646Y-95672161D01*
X28479791Y-95729753D01*
X28433063Y-95810687D01*
X28406856Y-95862123D01*
X28389868Y-95885504D01*
X28371879Y-95916663D01*
X28284421Y-96030639D01*
X28254670Y-96071589D01*
X28247491Y-96078767D01*
X28240497Y-96087883D01*
X28087883Y-96240497D01*
X28078767Y-96247491D01*
X28071589Y-96254670D01*
X28030639Y-96284421D01*
X27916663Y-96371879D01*
X27885504Y-96389868D01*
X27862123Y-96406856D01*
X27810687Y-96433063D01*
X27729753Y-96479791D01*
X27672161Y-96503646D01*
X27631428Y-96524401D01*
X27587949Y-96538528D01*
X27530356Y-96562384D01*
X27440087Y-96586571D01*
X27385185Y-96604410D01*
X27356634Y-96608932D01*
X27321889Y-96618242D01*
X27179468Y-96636992D01*
X27129458Y-96644914D01*
X27119305Y-96644914D01*
X27107912Y-96646414D01*
X26892088Y-96646414D01*
X26880695Y-96644914D01*
X26870542Y-96644914D01*
X26820532Y-96636993D01*
X26678110Y-96618242D01*
X26643362Y-96608931D01*
X26614815Y-96604410D01*
X26559916Y-96586572D01*
X26469643Y-96562384D01*
X26412045Y-96538526D01*
X26368572Y-96524401D01*
X26327842Y-96503648D01*
X26270246Y-96479791D01*
X26189304Y-96433059D01*
X26137877Y-96406856D01*
X26114498Y-96389870D01*
X26083336Y-96371879D01*
X25969341Y-96284407D01*
X25928411Y-96254670D01*
X25921236Y-96247495D01*
X25912116Y-96240497D01*
X25759502Y-96087883D01*
X25752503Y-96078762D01*
X25745330Y-96071589D01*
X25715596Y-96030664D01*
X25628120Y-95916663D01*
X25610127Y-95885498D01*
X25593144Y-95862123D01*
X25566943Y-95810701D01*
X25520208Y-95729753D01*
X25496348Y-95672151D01*
X25475599Y-95631428D01*
X25461475Y-95587960D01*
X25437615Y-95530356D01*
X25413423Y-95440070D01*
X25395590Y-95385185D01*
X25391069Y-95356643D01*
X25381757Y-95321889D01*
X25363005Y-95179456D01*
X25355086Y-95129458D01*
X25355086Y-95119305D01*
X25353586Y-95107912D01*
X25353586Y-94892087D01*
X25355086Y-94880693D01*
X25355086Y-94870542D01*
X25363004Y-94820548D01*
X25381757Y-94678110D01*
X25391069Y-94643353D01*
X25395590Y-94614815D01*
X25413421Y-94559934D01*
X25437615Y-94469643D01*
X25461477Y-94412034D01*
X25475599Y-94368572D01*
X25496346Y-94327852D01*
X25520208Y-94270246D01*
X25566947Y-94189289D01*
X25593144Y-94137877D01*
X25610124Y-94114505D01*
X25628120Y-94083336D01*
X25715610Y-93969316D01*
X25745330Y-93928411D01*
X25752500Y-93921240D01*
X25759502Y-93912116D01*
X25912116Y-93759502D01*
X25921240Y-93752500D01*
X25928411Y-93745330D01*
X25969316Y-93715610D01*
X26083336Y-93628120D01*
X26114505Y-93610124D01*
X26137877Y-93593144D01*
X26189289Y-93566947D01*
X26270246Y-93520208D01*
X26327852Y-93496346D01*
X26368572Y-93475599D01*
X26412034Y-93461477D01*
X26469643Y-93437615D01*
X26559934Y-93413421D01*
X26614815Y-93395590D01*
X26643353Y-93391069D01*
X26678110Y-93381757D01*
X26820545Y-93363004D01*
X26870542Y-93355086D01*
X26880694Y-93355086D01*
X26892088Y-93353586D01*
X27107912Y-93353586D01*
X27119305Y-93355086D01*
G37*
G36*
X71119305Y-93355086D02*
G01*
X71129458Y-93355086D01*
X71179456Y-93363005D01*
X71321889Y-93381757D01*
X71356643Y-93391069D01*
X71385185Y-93395590D01*
X71440070Y-93413423D01*
X71530356Y-93437615D01*
X71587960Y-93461475D01*
X71631428Y-93475599D01*
X71672151Y-93496348D01*
X71729753Y-93520208D01*
X71810701Y-93566943D01*
X71862123Y-93593144D01*
X71885498Y-93610127D01*
X71916663Y-93628120D01*
X72030664Y-93715596D01*
X72071589Y-93745330D01*
X72078762Y-93752503D01*
X72087883Y-93759502D01*
X72240497Y-93912116D01*
X72247495Y-93921236D01*
X72254670Y-93928411D01*
X72284407Y-93969341D01*
X72371879Y-94083336D01*
X72389870Y-94114498D01*
X72406856Y-94137877D01*
X72433059Y-94189304D01*
X72479791Y-94270246D01*
X72503648Y-94327842D01*
X72524401Y-94368572D01*
X72538526Y-94412045D01*
X72562384Y-94469643D01*
X72586572Y-94559916D01*
X72604410Y-94614815D01*
X72608931Y-94643362D01*
X72618242Y-94678110D01*
X72636993Y-94820535D01*
X72644914Y-94870542D01*
X72644914Y-94880693D01*
X72646414Y-94892087D01*
X72646414Y-95107912D01*
X72644914Y-95119305D01*
X72644914Y-95129458D01*
X72636992Y-95179468D01*
X72618242Y-95321889D01*
X72608932Y-95356634D01*
X72604410Y-95385185D01*
X72586571Y-95440087D01*
X72562384Y-95530356D01*
X72538528Y-95587949D01*
X72524401Y-95631428D01*
X72503646Y-95672161D01*
X72479791Y-95729753D01*
X72433063Y-95810687D01*
X72406856Y-95862123D01*
X72389868Y-95885504D01*
X72371879Y-95916663D01*
X72284421Y-96030639D01*
X72254670Y-96071589D01*
X72247491Y-96078767D01*
X72240497Y-96087883D01*
X72087883Y-96240497D01*
X72078767Y-96247491D01*
X72071589Y-96254670D01*
X72030639Y-96284421D01*
X71916663Y-96371879D01*
X71885504Y-96389868D01*
X71862123Y-96406856D01*
X71810687Y-96433063D01*
X71729753Y-96479791D01*
X71672161Y-96503646D01*
X71631428Y-96524401D01*
X71587949Y-96538528D01*
X71530356Y-96562384D01*
X71440087Y-96586571D01*
X71385185Y-96604410D01*
X71356634Y-96608932D01*
X71321889Y-96618242D01*
X71179468Y-96636992D01*
X71129458Y-96644914D01*
X71119305Y-96644914D01*
X71107912Y-96646414D01*
X70892088Y-96646414D01*
X70880695Y-96644914D01*
X70870542Y-96644914D01*
X70820532Y-96636993D01*
X70678110Y-96618242D01*
X70643362Y-96608931D01*
X70614815Y-96604410D01*
X70559916Y-96586572D01*
X70469643Y-96562384D01*
X70412045Y-96538526D01*
X70368572Y-96524401D01*
X70327842Y-96503648D01*
X70270246Y-96479791D01*
X70189304Y-96433059D01*
X70137877Y-96406856D01*
X70114498Y-96389870D01*
X70083336Y-96371879D01*
X69969341Y-96284407D01*
X69928411Y-96254670D01*
X69921236Y-96247495D01*
X69912116Y-96240497D01*
X69759502Y-96087883D01*
X69752503Y-96078762D01*
X69745330Y-96071589D01*
X69715596Y-96030664D01*
X69628120Y-95916663D01*
X69610127Y-95885498D01*
X69593144Y-95862123D01*
X69566943Y-95810701D01*
X69520208Y-95729753D01*
X69496348Y-95672151D01*
X69475599Y-95631428D01*
X69461475Y-95587960D01*
X69437615Y-95530356D01*
X69413423Y-95440070D01*
X69395590Y-95385185D01*
X69391069Y-95356643D01*
X69381757Y-95321889D01*
X69363005Y-95179456D01*
X69355086Y-95129458D01*
X69355086Y-95119305D01*
X69353586Y-95107912D01*
X69353586Y-94892087D01*
X69355086Y-94880693D01*
X69355086Y-94870542D01*
X69363004Y-94820548D01*
X69381757Y-94678110D01*
X69391069Y-94643353D01*
X69395590Y-94614815D01*
X69413421Y-94559934D01*
X69437615Y-94469643D01*
X69461477Y-94412034D01*
X69475599Y-94368572D01*
X69496346Y-94327852D01*
X69520208Y-94270246D01*
X69566947Y-94189289D01*
X69593144Y-94137877D01*
X69610124Y-94114505D01*
X69628120Y-94083336D01*
X69715610Y-93969316D01*
X69745330Y-93928411D01*
X69752500Y-93921240D01*
X69759502Y-93912116D01*
X69912116Y-93759502D01*
X69921240Y-93752500D01*
X69928411Y-93745330D01*
X69969316Y-93715610D01*
X70083336Y-93628120D01*
X70114505Y-93610124D01*
X70137877Y-93593144D01*
X70189289Y-93566947D01*
X70270246Y-93520208D01*
X70327852Y-93496346D01*
X70368572Y-93475599D01*
X70412034Y-93461477D01*
X70469643Y-93437615D01*
X70559934Y-93413421D01*
X70614815Y-93395590D01*
X70643353Y-93391069D01*
X70678110Y-93381757D01*
X70820545Y-93363004D01*
X70870542Y-93355086D01*
X70880694Y-93355086D01*
X70892088Y-93353586D01*
X71107912Y-93353586D01*
X71119305Y-93355086D01*
G37*
G36*
X85119305Y-93355086D02*
G01*
X85129458Y-93355086D01*
X85179456Y-93363005D01*
X85321889Y-93381757D01*
X85356643Y-93391069D01*
X85385185Y-93395590D01*
X85440070Y-93413423D01*
X85530356Y-93437615D01*
X85587960Y-93461475D01*
X85631428Y-93475599D01*
X85672151Y-93496348D01*
X85729753Y-93520208D01*
X85810701Y-93566943D01*
X85862123Y-93593144D01*
X85885498Y-93610127D01*
X85916663Y-93628120D01*
X86030664Y-93715596D01*
X86071589Y-93745330D01*
X86078762Y-93752503D01*
X86087883Y-93759502D01*
X86240497Y-93912116D01*
X86247495Y-93921236D01*
X86254670Y-93928411D01*
X86284407Y-93969341D01*
X86371879Y-94083336D01*
X86389870Y-94114498D01*
X86406856Y-94137877D01*
X86433059Y-94189304D01*
X86479791Y-94270246D01*
X86503648Y-94327842D01*
X86524401Y-94368572D01*
X86538526Y-94412045D01*
X86562384Y-94469643D01*
X86586572Y-94559916D01*
X86604410Y-94614815D01*
X86608931Y-94643362D01*
X86618242Y-94678110D01*
X86636993Y-94820535D01*
X86644914Y-94870542D01*
X86644914Y-94880693D01*
X86646414Y-94892087D01*
X86646414Y-95107912D01*
X86644914Y-95119305D01*
X86644914Y-95129458D01*
X86636992Y-95179468D01*
X86618242Y-95321889D01*
X86608932Y-95356634D01*
X86604410Y-95385185D01*
X86586571Y-95440087D01*
X86562384Y-95530356D01*
X86538528Y-95587949D01*
X86524401Y-95631428D01*
X86503646Y-95672161D01*
X86479791Y-95729753D01*
X86433063Y-95810687D01*
X86406856Y-95862123D01*
X86389868Y-95885504D01*
X86371879Y-95916663D01*
X86284421Y-96030639D01*
X86254670Y-96071589D01*
X86247491Y-96078767D01*
X86240497Y-96087883D01*
X86087883Y-96240497D01*
X86078767Y-96247491D01*
X86071589Y-96254670D01*
X86030639Y-96284421D01*
X85916663Y-96371879D01*
X85885504Y-96389868D01*
X85862123Y-96406856D01*
X85810687Y-96433063D01*
X85729753Y-96479791D01*
X85672161Y-96503646D01*
X85631428Y-96524401D01*
X85587949Y-96538528D01*
X85530356Y-96562384D01*
X85440087Y-96586571D01*
X85385185Y-96604410D01*
X85356634Y-96608932D01*
X85321889Y-96618242D01*
X85179468Y-96636992D01*
X85129458Y-96644914D01*
X85119305Y-96644914D01*
X85107912Y-96646414D01*
X84892088Y-96646414D01*
X84880695Y-96644914D01*
X84870542Y-96644914D01*
X84820532Y-96636993D01*
X84678110Y-96618242D01*
X84643362Y-96608931D01*
X84614815Y-96604410D01*
X84559916Y-96586572D01*
X84469643Y-96562384D01*
X84412045Y-96538526D01*
X84368572Y-96524401D01*
X84327842Y-96503648D01*
X84270246Y-96479791D01*
X84189304Y-96433059D01*
X84137877Y-96406856D01*
X84114498Y-96389870D01*
X84083336Y-96371879D01*
X83969341Y-96284407D01*
X83928411Y-96254670D01*
X83921236Y-96247495D01*
X83912116Y-96240497D01*
X83759502Y-96087883D01*
X83752503Y-96078762D01*
X83745330Y-96071589D01*
X83715596Y-96030664D01*
X83628120Y-95916663D01*
X83610127Y-95885498D01*
X83593144Y-95862123D01*
X83566943Y-95810701D01*
X83520208Y-95729753D01*
X83496348Y-95672151D01*
X83475599Y-95631428D01*
X83461475Y-95587960D01*
X83437615Y-95530356D01*
X83413423Y-95440070D01*
X83395590Y-95385185D01*
X83391069Y-95356643D01*
X83381757Y-95321889D01*
X83363005Y-95179456D01*
X83355086Y-95129458D01*
X83355086Y-95119305D01*
X83353586Y-95107912D01*
X83353586Y-94892087D01*
X83355086Y-94880693D01*
X83355086Y-94870542D01*
X83363004Y-94820548D01*
X83381757Y-94678110D01*
X83391069Y-94643353D01*
X83395590Y-94614815D01*
X83413421Y-94559934D01*
X83437615Y-94469643D01*
X83461477Y-94412034D01*
X83475599Y-94368572D01*
X83496346Y-94327852D01*
X83520208Y-94270246D01*
X83566947Y-94189289D01*
X83593144Y-94137877D01*
X83610124Y-94114505D01*
X83628120Y-94083336D01*
X83715610Y-93969316D01*
X83745330Y-93928411D01*
X83752500Y-93921240D01*
X83759502Y-93912116D01*
X83912116Y-93759502D01*
X83921240Y-93752500D01*
X83928411Y-93745330D01*
X83969316Y-93715610D01*
X84083336Y-93628120D01*
X84114505Y-93610124D01*
X84137877Y-93593144D01*
X84189289Y-93566947D01*
X84270246Y-93520208D01*
X84327852Y-93496346D01*
X84368572Y-93475599D01*
X84412034Y-93461477D01*
X84469643Y-93437615D01*
X84559934Y-93413421D01*
X84614815Y-93395590D01*
X84643353Y-93391069D01*
X84678110Y-93381757D01*
X84820545Y-93363004D01*
X84870542Y-93355086D01*
X84880694Y-93355086D01*
X84892088Y-93353586D01*
X85107912Y-93353586D01*
X85119305Y-93355086D01*
G37*
G36*
X129119305Y-93355086D02*
G01*
X129129458Y-93355086D01*
X129179456Y-93363005D01*
X129321889Y-93381757D01*
X129356643Y-93391069D01*
X129385185Y-93395590D01*
X129440070Y-93413423D01*
X129530356Y-93437615D01*
X129587960Y-93461475D01*
X129631428Y-93475599D01*
X129672151Y-93496348D01*
X129729753Y-93520208D01*
X129810701Y-93566943D01*
X129862123Y-93593144D01*
X129885498Y-93610127D01*
X129916663Y-93628120D01*
X130030664Y-93715596D01*
X130071589Y-93745330D01*
X130078762Y-93752503D01*
X130087883Y-93759502D01*
X130240497Y-93912116D01*
X130247495Y-93921236D01*
X130254670Y-93928411D01*
X130284407Y-93969341D01*
X130371879Y-94083336D01*
X130389870Y-94114498D01*
X130406856Y-94137877D01*
X130433059Y-94189304D01*
X130479791Y-94270246D01*
X130503648Y-94327842D01*
X130524401Y-94368572D01*
X130538526Y-94412045D01*
X130562384Y-94469643D01*
X130586572Y-94559916D01*
X130604410Y-94614815D01*
X130608931Y-94643362D01*
X130618242Y-94678110D01*
X130636993Y-94820535D01*
X130644914Y-94870542D01*
X130644914Y-94880693D01*
X130646414Y-94892087D01*
X130646414Y-95107912D01*
X130644914Y-95119305D01*
X130644914Y-95129458D01*
X130636992Y-95179468D01*
X130618242Y-95321889D01*
X130608932Y-95356634D01*
X130604410Y-95385185D01*
X130586571Y-95440087D01*
X130562384Y-95530356D01*
X130538528Y-95587949D01*
X130524401Y-95631428D01*
X130503646Y-95672161D01*
X130479791Y-95729753D01*
X130433063Y-95810687D01*
X130406856Y-95862123D01*
X130389868Y-95885504D01*
X130371879Y-95916663D01*
X130284421Y-96030639D01*
X130254670Y-96071589D01*
X130247491Y-96078767D01*
X130240497Y-96087883D01*
X130087883Y-96240497D01*
X130078767Y-96247491D01*
X130071589Y-96254670D01*
X130030639Y-96284421D01*
X129916663Y-96371879D01*
X129885504Y-96389868D01*
X129862123Y-96406856D01*
X129810687Y-96433063D01*
X129729753Y-96479791D01*
X129672161Y-96503646D01*
X129631428Y-96524401D01*
X129587949Y-96538528D01*
X129530356Y-96562384D01*
X129440087Y-96586571D01*
X129385185Y-96604410D01*
X129356634Y-96608932D01*
X129321889Y-96618242D01*
X129179468Y-96636992D01*
X129129458Y-96644914D01*
X129119305Y-96644914D01*
X129107912Y-96646414D01*
X128892088Y-96646414D01*
X128880695Y-96644914D01*
X128870542Y-96644914D01*
X128820532Y-96636993D01*
X128678110Y-96618242D01*
X128643362Y-96608931D01*
X128614815Y-96604410D01*
X128559916Y-96586572D01*
X128469643Y-96562384D01*
X128412045Y-96538526D01*
X128368572Y-96524401D01*
X128327842Y-96503648D01*
X128270246Y-96479791D01*
X128189304Y-96433059D01*
X128137877Y-96406856D01*
X128114498Y-96389870D01*
X128083336Y-96371879D01*
X127969341Y-96284407D01*
X127928411Y-96254670D01*
X127921236Y-96247495D01*
X127912116Y-96240497D01*
X127759502Y-96087883D01*
X127752503Y-96078762D01*
X127745330Y-96071589D01*
X127715596Y-96030664D01*
X127628120Y-95916663D01*
X127610127Y-95885498D01*
X127593144Y-95862123D01*
X127566943Y-95810701D01*
X127520208Y-95729753D01*
X127496348Y-95672151D01*
X127475599Y-95631428D01*
X127461475Y-95587960D01*
X127437615Y-95530356D01*
X127413423Y-95440070D01*
X127395590Y-95385185D01*
X127391069Y-95356643D01*
X127381757Y-95321889D01*
X127363005Y-95179456D01*
X127355086Y-95129458D01*
X127355086Y-95119305D01*
X127353586Y-95107912D01*
X127353586Y-94892087D01*
X127355086Y-94880693D01*
X127355086Y-94870542D01*
X127363004Y-94820548D01*
X127381757Y-94678110D01*
X127391069Y-94643353D01*
X127395590Y-94614815D01*
X127413421Y-94559934D01*
X127437615Y-94469643D01*
X127461477Y-94412034D01*
X127475599Y-94368572D01*
X127496346Y-94327852D01*
X127520208Y-94270246D01*
X127566947Y-94189289D01*
X127593144Y-94137877D01*
X127610124Y-94114505D01*
X127628120Y-94083336D01*
X127715610Y-93969316D01*
X127745330Y-93928411D01*
X127752500Y-93921240D01*
X127759502Y-93912116D01*
X127912116Y-93759502D01*
X127921240Y-93752500D01*
X127928411Y-93745330D01*
X127969316Y-93715610D01*
X128083336Y-93628120D01*
X128114505Y-93610124D01*
X128137877Y-93593144D01*
X128189289Y-93566947D01*
X128270246Y-93520208D01*
X128327852Y-93496346D01*
X128368572Y-93475599D01*
X128412034Y-93461477D01*
X128469643Y-93437615D01*
X128559934Y-93413421D01*
X128614815Y-93395590D01*
X128643353Y-93391069D01*
X128678110Y-93381757D01*
X128820545Y-93363004D01*
X128870542Y-93355086D01*
X128880694Y-93355086D01*
X128892088Y-93353586D01*
X129107912Y-93353586D01*
X129119305Y-93355086D01*
G37*
G36*
X143119305Y-93355086D02*
G01*
X143129458Y-93355086D01*
X143179456Y-93363005D01*
X143321889Y-93381757D01*
X143356643Y-93391069D01*
X143385185Y-93395590D01*
X143440070Y-93413423D01*
X143530356Y-93437615D01*
X143587960Y-93461475D01*
X143631428Y-93475599D01*
X143672151Y-93496348D01*
X143729753Y-93520208D01*
X143810701Y-93566943D01*
X143862123Y-93593144D01*
X143885498Y-93610127D01*
X143916663Y-93628120D01*
X144030664Y-93715596D01*
X144071589Y-93745330D01*
X144078762Y-93752503D01*
X144087883Y-93759502D01*
X144240497Y-93912116D01*
X144247495Y-93921236D01*
X144254670Y-93928411D01*
X144284407Y-93969341D01*
X144371879Y-94083336D01*
X144389870Y-94114498D01*
X144406856Y-94137877D01*
X144433059Y-94189304D01*
X144479791Y-94270246D01*
X144503648Y-94327842D01*
X144524401Y-94368572D01*
X144538526Y-94412045D01*
X144562384Y-94469643D01*
X144586572Y-94559916D01*
X144604410Y-94614815D01*
X144608931Y-94643362D01*
X144618242Y-94678110D01*
X144636993Y-94820535D01*
X144644914Y-94870542D01*
X144644914Y-94880693D01*
X144646414Y-94892087D01*
X144646414Y-95107912D01*
X144644914Y-95119305D01*
X144644914Y-95129458D01*
X144636992Y-95179468D01*
X144618242Y-95321889D01*
X144608932Y-95356634D01*
X144604410Y-95385185D01*
X144586571Y-95440087D01*
X144562384Y-95530356D01*
X144538528Y-95587949D01*
X144524401Y-95631428D01*
X144503646Y-95672161D01*
X144479791Y-95729753D01*
X144433063Y-95810687D01*
X144406856Y-95862123D01*
X144389868Y-95885504D01*
X144371879Y-95916663D01*
X144284421Y-96030639D01*
X144254670Y-96071589D01*
X144247491Y-96078767D01*
X144240497Y-96087883D01*
X144087883Y-96240497D01*
X144078767Y-96247491D01*
X144071589Y-96254670D01*
X144030639Y-96284421D01*
X143916663Y-96371879D01*
X143885504Y-96389868D01*
X143862123Y-96406856D01*
X143810687Y-96433063D01*
X143729753Y-96479791D01*
X143672161Y-96503646D01*
X143631428Y-96524401D01*
X143587949Y-96538528D01*
X143530356Y-96562384D01*
X143440087Y-96586571D01*
X143385185Y-96604410D01*
X143356634Y-96608932D01*
X143321889Y-96618242D01*
X143179468Y-96636992D01*
X143129458Y-96644914D01*
X143119305Y-96644914D01*
X143107912Y-96646414D01*
X142892088Y-96646414D01*
X142880695Y-96644914D01*
X142870542Y-96644914D01*
X142820532Y-96636993D01*
X142678110Y-96618242D01*
X142643362Y-96608931D01*
X142614815Y-96604410D01*
X142559916Y-96586572D01*
X142469643Y-96562384D01*
X142412045Y-96538526D01*
X142368572Y-96524401D01*
X142327842Y-96503648D01*
X142270246Y-96479791D01*
X142189304Y-96433059D01*
X142137877Y-96406856D01*
X142114498Y-96389870D01*
X142083336Y-96371879D01*
X141969341Y-96284407D01*
X141928411Y-96254670D01*
X141921236Y-96247495D01*
X141912116Y-96240497D01*
X141759502Y-96087883D01*
X141752503Y-96078762D01*
X141745330Y-96071589D01*
X141715596Y-96030664D01*
X141628120Y-95916663D01*
X141610127Y-95885498D01*
X141593144Y-95862123D01*
X141566943Y-95810701D01*
X141520208Y-95729753D01*
X141496348Y-95672151D01*
X141475599Y-95631428D01*
X141461475Y-95587960D01*
X141437615Y-95530356D01*
X141413423Y-95440070D01*
X141395590Y-95385185D01*
X141391069Y-95356643D01*
X141381757Y-95321889D01*
X141363005Y-95179456D01*
X141355086Y-95129458D01*
X141355086Y-95119305D01*
X141353586Y-95107912D01*
X141353586Y-94892087D01*
X141355086Y-94880693D01*
X141355086Y-94870542D01*
X141363004Y-94820548D01*
X141381757Y-94678110D01*
X141391069Y-94643353D01*
X141395590Y-94614815D01*
X141413421Y-94559934D01*
X141437615Y-94469643D01*
X141461477Y-94412034D01*
X141475599Y-94368572D01*
X141496346Y-94327852D01*
X141520208Y-94270246D01*
X141566947Y-94189289D01*
X141593144Y-94137877D01*
X141610124Y-94114505D01*
X141628120Y-94083336D01*
X141715610Y-93969316D01*
X141745330Y-93928411D01*
X141752500Y-93921240D01*
X141759502Y-93912116D01*
X141912116Y-93759502D01*
X141921240Y-93752500D01*
X141928411Y-93745330D01*
X141969316Y-93715610D01*
X142083336Y-93628120D01*
X142114505Y-93610124D01*
X142137877Y-93593144D01*
X142189289Y-93566947D01*
X142270246Y-93520208D01*
X142327852Y-93496346D01*
X142368572Y-93475599D01*
X142412034Y-93461477D01*
X142469643Y-93437615D01*
X142559934Y-93413421D01*
X142614815Y-93395590D01*
X142643353Y-93391069D01*
X142678110Y-93381757D01*
X142820545Y-93363004D01*
X142870542Y-93355086D01*
X142880694Y-93355086D01*
X142892088Y-93353586D01*
X143107912Y-93353586D01*
X143119305Y-93355086D01*
G37*
G36*
X187119305Y-93355086D02*
G01*
X187129458Y-93355086D01*
X187179456Y-93363005D01*
X187321889Y-93381757D01*
X187356643Y-93391069D01*
X187385185Y-93395590D01*
X187440070Y-93413423D01*
X187530356Y-93437615D01*
X187587960Y-93461475D01*
X187631428Y-93475599D01*
X187672151Y-93496348D01*
X187729753Y-93520208D01*
X187810701Y-93566943D01*
X187862123Y-93593144D01*
X187885498Y-93610127D01*
X187916663Y-93628120D01*
X188030664Y-93715596D01*
X188071589Y-93745330D01*
X188078762Y-93752503D01*
X188087883Y-93759502D01*
X188240497Y-93912116D01*
X188247495Y-93921236D01*
X188254670Y-93928411D01*
X188284407Y-93969341D01*
X188371879Y-94083336D01*
X188389870Y-94114498D01*
X188406856Y-94137877D01*
X188433059Y-94189304D01*
X188479791Y-94270246D01*
X188503648Y-94327842D01*
X188524401Y-94368572D01*
X188538526Y-94412045D01*
X188562384Y-94469643D01*
X188586572Y-94559916D01*
X188604410Y-94614815D01*
X188608931Y-94643362D01*
X188618242Y-94678110D01*
X188636993Y-94820535D01*
X188644914Y-94870542D01*
X188644914Y-94880693D01*
X188646414Y-94892087D01*
X188646414Y-95107912D01*
X188644914Y-95119305D01*
X188644914Y-95129458D01*
X188636992Y-95179468D01*
X188618242Y-95321889D01*
X188608932Y-95356634D01*
X188604410Y-95385185D01*
X188586571Y-95440087D01*
X188562384Y-95530356D01*
X188538528Y-95587949D01*
X188524401Y-95631428D01*
X188503646Y-95672161D01*
X188479791Y-95729753D01*
X188433063Y-95810687D01*
X188406856Y-95862123D01*
X188389868Y-95885504D01*
X188371879Y-95916663D01*
X188284421Y-96030639D01*
X188254670Y-96071589D01*
X188247491Y-96078767D01*
X188240497Y-96087883D01*
X188087883Y-96240497D01*
X188078767Y-96247491D01*
X188071589Y-96254670D01*
X188030639Y-96284421D01*
X187916663Y-96371879D01*
X187885504Y-96389868D01*
X187862123Y-96406856D01*
X187810687Y-96433063D01*
X187729753Y-96479791D01*
X187672161Y-96503646D01*
X187631428Y-96524401D01*
X187587949Y-96538528D01*
X187530356Y-96562384D01*
X187440087Y-96586571D01*
X187385185Y-96604410D01*
X187356634Y-96608932D01*
X187321889Y-96618242D01*
X187179468Y-96636992D01*
X187129458Y-96644914D01*
X187119305Y-96644914D01*
X187107912Y-96646414D01*
X186892088Y-96646414D01*
X186880695Y-96644914D01*
X186870542Y-96644914D01*
X186820532Y-96636993D01*
X186678110Y-96618242D01*
X186643362Y-96608931D01*
X186614815Y-96604410D01*
X186559916Y-96586572D01*
X186469643Y-96562384D01*
X186412045Y-96538526D01*
X186368572Y-96524401D01*
X186327842Y-96503648D01*
X186270246Y-96479791D01*
X186189304Y-96433059D01*
X186137877Y-96406856D01*
X186114498Y-96389870D01*
X186083336Y-96371879D01*
X185969341Y-96284407D01*
X185928411Y-96254670D01*
X185921236Y-96247495D01*
X185912116Y-96240497D01*
X185759502Y-96087883D01*
X185752503Y-96078762D01*
X185745330Y-96071589D01*
X185715596Y-96030664D01*
X185628120Y-95916663D01*
X185610127Y-95885498D01*
X185593144Y-95862123D01*
X185566943Y-95810701D01*
X185520208Y-95729753D01*
X185496348Y-95672151D01*
X185475599Y-95631428D01*
X185461475Y-95587960D01*
X185437615Y-95530356D01*
X185413423Y-95440070D01*
X185395590Y-95385185D01*
X185391069Y-95356643D01*
X185381757Y-95321889D01*
X185363005Y-95179456D01*
X185355086Y-95129458D01*
X185355086Y-95119305D01*
X185353586Y-95107912D01*
X185353586Y-94892087D01*
X185355086Y-94880693D01*
X185355086Y-94870542D01*
X185363004Y-94820548D01*
X185381757Y-94678110D01*
X185391069Y-94643353D01*
X185395590Y-94614815D01*
X185413421Y-94559934D01*
X185437615Y-94469643D01*
X185461477Y-94412034D01*
X185475599Y-94368572D01*
X185496346Y-94327852D01*
X185520208Y-94270246D01*
X185566947Y-94189289D01*
X185593144Y-94137877D01*
X185610124Y-94114505D01*
X185628120Y-94083336D01*
X185715610Y-93969316D01*
X185745330Y-93928411D01*
X185752500Y-93921240D01*
X185759502Y-93912116D01*
X185912116Y-93759502D01*
X185921240Y-93752500D01*
X185928411Y-93745330D01*
X185969316Y-93715610D01*
X186083336Y-93628120D01*
X186114505Y-93610124D01*
X186137877Y-93593144D01*
X186189289Y-93566947D01*
X186270246Y-93520208D01*
X186327852Y-93496346D01*
X186368572Y-93475599D01*
X186412034Y-93461477D01*
X186469643Y-93437615D01*
X186559934Y-93413421D01*
X186614815Y-93395590D01*
X186643353Y-93391069D01*
X186678110Y-93381757D01*
X186820545Y-93363004D01*
X186870542Y-93355086D01*
X186880694Y-93355086D01*
X186892088Y-93353586D01*
X187107912Y-93353586D01*
X187119305Y-93355086D01*
G37*
G36*
X27119305Y-67355086D02*
G01*
X27129458Y-67355086D01*
X27179456Y-67363005D01*
X27321889Y-67381757D01*
X27356643Y-67391069D01*
X27385185Y-67395590D01*
X27440070Y-67413423D01*
X27530356Y-67437615D01*
X27587960Y-67461475D01*
X27631428Y-67475599D01*
X27672151Y-67496348D01*
X27729753Y-67520208D01*
X27810701Y-67566943D01*
X27862123Y-67593144D01*
X27885498Y-67610127D01*
X27916663Y-67628120D01*
X28030664Y-67715596D01*
X28071589Y-67745330D01*
X28078762Y-67752503D01*
X28087883Y-67759502D01*
X28240497Y-67912116D01*
X28247495Y-67921236D01*
X28254670Y-67928411D01*
X28284407Y-67969341D01*
X28371879Y-68083336D01*
X28389870Y-68114498D01*
X28406856Y-68137877D01*
X28433059Y-68189304D01*
X28479791Y-68270246D01*
X28503648Y-68327842D01*
X28524401Y-68368572D01*
X28538526Y-68412045D01*
X28562384Y-68469643D01*
X28586572Y-68559916D01*
X28604410Y-68614815D01*
X28608931Y-68643362D01*
X28618242Y-68678110D01*
X28636993Y-68820535D01*
X28644914Y-68870542D01*
X28644914Y-68880693D01*
X28646414Y-68892087D01*
X28646414Y-69107912D01*
X28644914Y-69119305D01*
X28644914Y-69129458D01*
X28636992Y-69179468D01*
X28618242Y-69321889D01*
X28608932Y-69356634D01*
X28604410Y-69385185D01*
X28586571Y-69440087D01*
X28562384Y-69530356D01*
X28538528Y-69587949D01*
X28524401Y-69631428D01*
X28503646Y-69672161D01*
X28479791Y-69729753D01*
X28433063Y-69810687D01*
X28406856Y-69862123D01*
X28389868Y-69885504D01*
X28371879Y-69916663D01*
X28284421Y-70030639D01*
X28254670Y-70071589D01*
X28247491Y-70078767D01*
X28240497Y-70087883D01*
X28087883Y-70240497D01*
X28078767Y-70247491D01*
X28071589Y-70254670D01*
X28030639Y-70284421D01*
X27916663Y-70371879D01*
X27885504Y-70389868D01*
X27862123Y-70406856D01*
X27810687Y-70433063D01*
X27729753Y-70479791D01*
X27672161Y-70503646D01*
X27631428Y-70524401D01*
X27587949Y-70538528D01*
X27530356Y-70562384D01*
X27440087Y-70586571D01*
X27385185Y-70604410D01*
X27356634Y-70608932D01*
X27321889Y-70618242D01*
X27179468Y-70636992D01*
X27129458Y-70644914D01*
X27119305Y-70644914D01*
X27107912Y-70646414D01*
X26892088Y-70646414D01*
X26880695Y-70644914D01*
X26870542Y-70644914D01*
X26820532Y-70636993D01*
X26678110Y-70618242D01*
X26643362Y-70608931D01*
X26614815Y-70604410D01*
X26559916Y-70586572D01*
X26469643Y-70562384D01*
X26412045Y-70538526D01*
X26368572Y-70524401D01*
X26327842Y-70503648D01*
X26270246Y-70479791D01*
X26189304Y-70433059D01*
X26137877Y-70406856D01*
X26114498Y-70389870D01*
X26083336Y-70371879D01*
X25969341Y-70284407D01*
X25928411Y-70254670D01*
X25921236Y-70247495D01*
X25912116Y-70240497D01*
X25759502Y-70087883D01*
X25752503Y-70078762D01*
X25745330Y-70071589D01*
X25715596Y-70030664D01*
X25628120Y-69916663D01*
X25610127Y-69885498D01*
X25593144Y-69862123D01*
X25566943Y-69810701D01*
X25520208Y-69729753D01*
X25496348Y-69672151D01*
X25475599Y-69631428D01*
X25461475Y-69587960D01*
X25437615Y-69530356D01*
X25413423Y-69440070D01*
X25395590Y-69385185D01*
X25391069Y-69356643D01*
X25381757Y-69321889D01*
X25363005Y-69179456D01*
X25355086Y-69129458D01*
X25355086Y-69119305D01*
X25353586Y-69107912D01*
X25353586Y-68892087D01*
X25355086Y-68880693D01*
X25355086Y-68870542D01*
X25363004Y-68820548D01*
X25381757Y-68678110D01*
X25391069Y-68643353D01*
X25395590Y-68614815D01*
X25413421Y-68559934D01*
X25437615Y-68469643D01*
X25461477Y-68412034D01*
X25475599Y-68368572D01*
X25496346Y-68327852D01*
X25520208Y-68270246D01*
X25566947Y-68189289D01*
X25593144Y-68137877D01*
X25610124Y-68114505D01*
X25628120Y-68083336D01*
X25715610Y-67969316D01*
X25745330Y-67928411D01*
X25752500Y-67921240D01*
X25759502Y-67912116D01*
X25912116Y-67759502D01*
X25921240Y-67752500D01*
X25928411Y-67745330D01*
X25969316Y-67715610D01*
X26083336Y-67628120D01*
X26114505Y-67610124D01*
X26137877Y-67593144D01*
X26189289Y-67566947D01*
X26270246Y-67520208D01*
X26327852Y-67496346D01*
X26368572Y-67475599D01*
X26412034Y-67461477D01*
X26469643Y-67437615D01*
X26559934Y-67413421D01*
X26614815Y-67395590D01*
X26643353Y-67391069D01*
X26678110Y-67381757D01*
X26820545Y-67363004D01*
X26870542Y-67355086D01*
X26880694Y-67355086D01*
X26892088Y-67353586D01*
X27107912Y-67353586D01*
X27119305Y-67355086D01*
G37*
G36*
X71119305Y-67355086D02*
G01*
X71129458Y-67355086D01*
X71179456Y-67363005D01*
X71321889Y-67381757D01*
X71356643Y-67391069D01*
X71385185Y-67395590D01*
X71440070Y-67413423D01*
X71530356Y-67437615D01*
X71587960Y-67461475D01*
X71631428Y-67475599D01*
X71672151Y-67496348D01*
X71729753Y-67520208D01*
X71810701Y-67566943D01*
X71862123Y-67593144D01*
X71885498Y-67610127D01*
X71916663Y-67628120D01*
X72030664Y-67715596D01*
X72071589Y-67745330D01*
X72078762Y-67752503D01*
X72087883Y-67759502D01*
X72240497Y-67912116D01*
X72247495Y-67921236D01*
X72254670Y-67928411D01*
X72284407Y-67969341D01*
X72371879Y-68083336D01*
X72389870Y-68114498D01*
X72406856Y-68137877D01*
X72433059Y-68189304D01*
X72479791Y-68270246D01*
X72503648Y-68327842D01*
X72524401Y-68368572D01*
X72538526Y-68412045D01*
X72562384Y-68469643D01*
X72586572Y-68559916D01*
X72604410Y-68614815D01*
X72608931Y-68643362D01*
X72618242Y-68678110D01*
X72636993Y-68820535D01*
X72644914Y-68870542D01*
X72644914Y-68880693D01*
X72646414Y-68892087D01*
X72646414Y-69107912D01*
X72644914Y-69119305D01*
X72644914Y-69129458D01*
X72636992Y-69179468D01*
X72618242Y-69321889D01*
X72608932Y-69356634D01*
X72604410Y-69385185D01*
X72586571Y-69440087D01*
X72562384Y-69530356D01*
X72538528Y-69587949D01*
X72524401Y-69631428D01*
X72503646Y-69672161D01*
X72479791Y-69729753D01*
X72433063Y-69810687D01*
X72406856Y-69862123D01*
X72389868Y-69885504D01*
X72371879Y-69916663D01*
X72284421Y-70030639D01*
X72254670Y-70071589D01*
X72247491Y-70078767D01*
X72240497Y-70087883D01*
X72087883Y-70240497D01*
X72078767Y-70247491D01*
X72071589Y-70254670D01*
X72030639Y-70284421D01*
X71916663Y-70371879D01*
X71885504Y-70389868D01*
X71862123Y-70406856D01*
X71810687Y-70433063D01*
X71729753Y-70479791D01*
X71672161Y-70503646D01*
X71631428Y-70524401D01*
X71587949Y-70538528D01*
X71530356Y-70562384D01*
X71440087Y-70586571D01*
X71385185Y-70604410D01*
X71356634Y-70608932D01*
X71321889Y-70618242D01*
X71179468Y-70636992D01*
X71129458Y-70644914D01*
X71119305Y-70644914D01*
X71107912Y-70646414D01*
X70892088Y-70646414D01*
X70880695Y-70644914D01*
X70870542Y-70644914D01*
X70820532Y-70636993D01*
X70678110Y-70618242D01*
X70643362Y-70608931D01*
X70614815Y-70604410D01*
X70559916Y-70586572D01*
X70469643Y-70562384D01*
X70412045Y-70538526D01*
X70368572Y-70524401D01*
X70327842Y-70503648D01*
X70270246Y-70479791D01*
X70189304Y-70433059D01*
X70137877Y-70406856D01*
X70114498Y-70389870D01*
X70083336Y-70371879D01*
X69969341Y-70284407D01*
X69928411Y-70254670D01*
X69921236Y-70247495D01*
X69912116Y-70240497D01*
X69759502Y-70087883D01*
X69752503Y-70078762D01*
X69745330Y-70071589D01*
X69715596Y-70030664D01*
X69628120Y-69916663D01*
X69610127Y-69885498D01*
X69593144Y-69862123D01*
X69566943Y-69810701D01*
X69520208Y-69729753D01*
X69496348Y-69672151D01*
X69475599Y-69631428D01*
X69461475Y-69587960D01*
X69437615Y-69530356D01*
X69413423Y-69440070D01*
X69395590Y-69385185D01*
X69391069Y-69356643D01*
X69381757Y-69321889D01*
X69363005Y-69179456D01*
X69355086Y-69129458D01*
X69355086Y-69119305D01*
X69353586Y-69107912D01*
X69353586Y-68892087D01*
X69355086Y-68880693D01*
X69355086Y-68870542D01*
X69363004Y-68820548D01*
X69381757Y-68678110D01*
X69391069Y-68643353D01*
X69395590Y-68614815D01*
X69413421Y-68559934D01*
X69437615Y-68469643D01*
X69461477Y-68412034D01*
X69475599Y-68368572D01*
X69496346Y-68327852D01*
X69520208Y-68270246D01*
X69566947Y-68189289D01*
X69593144Y-68137877D01*
X69610124Y-68114505D01*
X69628120Y-68083336D01*
X69715610Y-67969316D01*
X69745330Y-67928411D01*
X69752500Y-67921240D01*
X69759502Y-67912116D01*
X69912116Y-67759502D01*
X69921240Y-67752500D01*
X69928411Y-67745330D01*
X69969316Y-67715610D01*
X70083336Y-67628120D01*
X70114505Y-67610124D01*
X70137877Y-67593144D01*
X70189289Y-67566947D01*
X70270246Y-67520208D01*
X70327852Y-67496346D01*
X70368572Y-67475599D01*
X70412034Y-67461477D01*
X70469643Y-67437615D01*
X70559934Y-67413421D01*
X70614815Y-67395590D01*
X70643353Y-67391069D01*
X70678110Y-67381757D01*
X70820545Y-67363004D01*
X70870542Y-67355086D01*
X70880694Y-67355086D01*
X70892088Y-67353586D01*
X71107912Y-67353586D01*
X71119305Y-67355086D01*
G37*
G36*
X85119305Y-67355086D02*
G01*
X85129458Y-67355086D01*
X85179456Y-67363005D01*
X85321889Y-67381757D01*
X85356643Y-67391069D01*
X85385185Y-67395590D01*
X85440070Y-67413423D01*
X85530356Y-67437615D01*
X85587960Y-67461475D01*
X85631428Y-67475599D01*
X85672151Y-67496348D01*
X85729753Y-67520208D01*
X85810701Y-67566943D01*
X85862123Y-67593144D01*
X85885498Y-67610127D01*
X85916663Y-67628120D01*
X86030664Y-67715596D01*
X86071589Y-67745330D01*
X86078762Y-67752503D01*
X86087883Y-67759502D01*
X86240497Y-67912116D01*
X86247495Y-67921236D01*
X86254670Y-67928411D01*
X86284407Y-67969341D01*
X86371879Y-68083336D01*
X86389870Y-68114498D01*
X86406856Y-68137877D01*
X86433059Y-68189304D01*
X86479791Y-68270246D01*
X86503648Y-68327842D01*
X86524401Y-68368572D01*
X86538526Y-68412045D01*
X86562384Y-68469643D01*
X86586572Y-68559916D01*
X86604410Y-68614815D01*
X86608931Y-68643362D01*
X86618242Y-68678110D01*
X86636993Y-68820535D01*
X86644914Y-68870542D01*
X86644914Y-68880693D01*
X86646414Y-68892087D01*
X86646414Y-69107912D01*
X86644914Y-69119305D01*
X86644914Y-69129458D01*
X86636992Y-69179468D01*
X86618242Y-69321889D01*
X86608932Y-69356634D01*
X86604410Y-69385185D01*
X86586571Y-69440087D01*
X86562384Y-69530356D01*
X86538528Y-69587949D01*
X86524401Y-69631428D01*
X86503646Y-69672161D01*
X86479791Y-69729753D01*
X86433063Y-69810687D01*
X86406856Y-69862123D01*
X86389868Y-69885504D01*
X86371879Y-69916663D01*
X86284421Y-70030639D01*
X86254670Y-70071589D01*
X86247491Y-70078767D01*
X86240497Y-70087883D01*
X86087883Y-70240497D01*
X86078767Y-70247491D01*
X86071589Y-70254670D01*
X86030639Y-70284421D01*
X85916663Y-70371879D01*
X85885504Y-70389868D01*
X85862123Y-70406856D01*
X85810687Y-70433063D01*
X85729753Y-70479791D01*
X85672161Y-70503646D01*
X85631428Y-70524401D01*
X85587949Y-70538528D01*
X85530356Y-70562384D01*
X85440087Y-70586571D01*
X85385185Y-70604410D01*
X85356634Y-70608932D01*
X85321889Y-70618242D01*
X85179468Y-70636992D01*
X85129458Y-70644914D01*
X85119305Y-70644914D01*
X85107912Y-70646414D01*
X84892088Y-70646414D01*
X84880695Y-70644914D01*
X84870542Y-70644914D01*
X84820532Y-70636993D01*
X84678110Y-70618242D01*
X84643362Y-70608931D01*
X84614815Y-70604410D01*
X84559916Y-70586572D01*
X84469643Y-70562384D01*
X84412045Y-70538526D01*
X84368572Y-70524401D01*
X84327842Y-70503648D01*
X84270246Y-70479791D01*
X84189304Y-70433059D01*
X84137877Y-70406856D01*
X84114498Y-70389870D01*
X84083336Y-70371879D01*
X83969341Y-70284407D01*
X83928411Y-70254670D01*
X83921236Y-70247495D01*
X83912116Y-70240497D01*
X83759502Y-70087883D01*
X83752503Y-70078762D01*
X83745330Y-70071589D01*
X83715596Y-70030664D01*
X83628120Y-69916663D01*
X83610127Y-69885498D01*
X83593144Y-69862123D01*
X83566943Y-69810701D01*
X83520208Y-69729753D01*
X83496348Y-69672151D01*
X83475599Y-69631428D01*
X83461475Y-69587960D01*
X83437615Y-69530356D01*
X83413423Y-69440070D01*
X83395590Y-69385185D01*
X83391069Y-69356643D01*
X83381757Y-69321889D01*
X83363005Y-69179456D01*
X83355086Y-69129458D01*
X83355086Y-69119305D01*
X83353586Y-69107912D01*
X83353586Y-68892087D01*
X83355086Y-68880693D01*
X83355086Y-68870542D01*
X83363004Y-68820548D01*
X83381757Y-68678110D01*
X83391069Y-68643353D01*
X83395590Y-68614815D01*
X83413421Y-68559934D01*
X83437615Y-68469643D01*
X83461477Y-68412034D01*
X83475599Y-68368572D01*
X83496346Y-68327852D01*
X83520208Y-68270246D01*
X83566947Y-68189289D01*
X83593144Y-68137877D01*
X83610124Y-68114505D01*
X83628120Y-68083336D01*
X83715610Y-67969316D01*
X83745330Y-67928411D01*
X83752500Y-67921240D01*
X83759502Y-67912116D01*
X83912116Y-67759502D01*
X83921240Y-67752500D01*
X83928411Y-67745330D01*
X83969316Y-67715610D01*
X84083336Y-67628120D01*
X84114505Y-67610124D01*
X84137877Y-67593144D01*
X84189289Y-67566947D01*
X84270246Y-67520208D01*
X84327852Y-67496346D01*
X84368572Y-67475599D01*
X84412034Y-67461477D01*
X84469643Y-67437615D01*
X84559934Y-67413421D01*
X84614815Y-67395590D01*
X84643353Y-67391069D01*
X84678110Y-67381757D01*
X84820545Y-67363004D01*
X84870542Y-67355086D01*
X84880694Y-67355086D01*
X84892088Y-67353586D01*
X85107912Y-67353586D01*
X85119305Y-67355086D01*
G37*
G36*
X129119305Y-67355086D02*
G01*
X129129458Y-67355086D01*
X129179456Y-67363005D01*
X129321889Y-67381757D01*
X129356643Y-67391069D01*
X129385185Y-67395590D01*
X129440070Y-67413423D01*
X129530356Y-67437615D01*
X129587960Y-67461475D01*
X129631428Y-67475599D01*
X129672151Y-67496348D01*
X129729753Y-67520208D01*
X129810701Y-67566943D01*
X129862123Y-67593144D01*
X129885498Y-67610127D01*
X129916663Y-67628120D01*
X130030664Y-67715596D01*
X130071589Y-67745330D01*
X130078762Y-67752503D01*
X130087883Y-67759502D01*
X130240497Y-67912116D01*
X130247495Y-67921236D01*
X130254670Y-67928411D01*
X130284407Y-67969341D01*
X130371879Y-68083336D01*
X130389870Y-68114498D01*
X130406856Y-68137877D01*
X130433059Y-68189304D01*
X130479791Y-68270246D01*
X130503648Y-68327842D01*
X130524401Y-68368572D01*
X130538526Y-68412045D01*
X130562384Y-68469643D01*
X130586572Y-68559916D01*
X130604410Y-68614815D01*
X130608931Y-68643362D01*
X130618242Y-68678110D01*
X130636993Y-68820535D01*
X130644914Y-68870542D01*
X130644914Y-68880693D01*
X130646414Y-68892087D01*
X130646414Y-69107912D01*
X130644914Y-69119305D01*
X130644914Y-69129458D01*
X130636992Y-69179468D01*
X130618242Y-69321889D01*
X130608932Y-69356634D01*
X130604410Y-69385185D01*
X130586571Y-69440087D01*
X130562384Y-69530356D01*
X130538528Y-69587949D01*
X130524401Y-69631428D01*
X130503646Y-69672161D01*
X130479791Y-69729753D01*
X130433063Y-69810687D01*
X130406856Y-69862123D01*
X130389868Y-69885504D01*
X130371879Y-69916663D01*
X130284421Y-70030639D01*
X130254670Y-70071589D01*
X130247491Y-70078767D01*
X130240497Y-70087883D01*
X130087883Y-70240497D01*
X130078767Y-70247491D01*
X130071589Y-70254670D01*
X130030639Y-70284421D01*
X129916663Y-70371879D01*
X129885504Y-70389868D01*
X129862123Y-70406856D01*
X129810687Y-70433063D01*
X129729753Y-70479791D01*
X129672161Y-70503646D01*
X129631428Y-70524401D01*
X129587949Y-70538528D01*
X129530356Y-70562384D01*
X129440087Y-70586571D01*
X129385185Y-70604410D01*
X129356634Y-70608932D01*
X129321889Y-70618242D01*
X129179468Y-70636992D01*
X129129458Y-70644914D01*
X129119305Y-70644914D01*
X129107912Y-70646414D01*
X128892088Y-70646414D01*
X128880695Y-70644914D01*
X128870542Y-70644914D01*
X128820532Y-70636993D01*
X128678110Y-70618242D01*
X128643362Y-70608931D01*
X128614815Y-70604410D01*
X128559916Y-70586572D01*
X128469643Y-70562384D01*
X128412045Y-70538526D01*
X128368572Y-70524401D01*
X128327842Y-70503648D01*
X128270246Y-70479791D01*
X128189304Y-70433059D01*
X128137877Y-70406856D01*
X128114498Y-70389870D01*
X128083336Y-70371879D01*
X127969341Y-70284407D01*
X127928411Y-70254670D01*
X127921236Y-70247495D01*
X127912116Y-70240497D01*
X127759502Y-70087883D01*
X127752503Y-70078762D01*
X127745330Y-70071589D01*
X127715596Y-70030664D01*
X127628120Y-69916663D01*
X127610127Y-69885498D01*
X127593144Y-69862123D01*
X127566943Y-69810701D01*
X127520208Y-69729753D01*
X127496348Y-69672151D01*
X127475599Y-69631428D01*
X127461475Y-69587960D01*
X127437615Y-69530356D01*
X127413423Y-69440070D01*
X127395590Y-69385185D01*
X127391069Y-69356643D01*
X127381757Y-69321889D01*
X127363005Y-69179456D01*
X127355086Y-69129458D01*
X127355086Y-69119305D01*
X127353586Y-69107912D01*
X127353586Y-68892087D01*
X127355086Y-68880693D01*
X127355086Y-68870542D01*
X127363004Y-68820548D01*
X127381757Y-68678110D01*
X127391069Y-68643353D01*
X127395590Y-68614815D01*
X127413421Y-68559934D01*
X127437615Y-68469643D01*
X127461477Y-68412034D01*
X127475599Y-68368572D01*
X127496346Y-68327852D01*
X127520208Y-68270246D01*
X127566947Y-68189289D01*
X127593144Y-68137877D01*
X127610124Y-68114505D01*
X127628120Y-68083336D01*
X127715610Y-67969316D01*
X127745330Y-67928411D01*
X127752500Y-67921240D01*
X127759502Y-67912116D01*
X127912116Y-67759502D01*
X127921240Y-67752500D01*
X127928411Y-67745330D01*
X127969316Y-67715610D01*
X128083336Y-67628120D01*
X128114505Y-67610124D01*
X128137877Y-67593144D01*
X128189289Y-67566947D01*
X128270246Y-67520208D01*
X128327852Y-67496346D01*
X128368572Y-67475599D01*
X128412034Y-67461477D01*
X128469643Y-67437615D01*
X128559934Y-67413421D01*
X128614815Y-67395590D01*
X128643353Y-67391069D01*
X128678110Y-67381757D01*
X128820545Y-67363004D01*
X128870542Y-67355086D01*
X128880694Y-67355086D01*
X128892088Y-67353586D01*
X129107912Y-67353586D01*
X129119305Y-67355086D01*
G37*
G36*
X143119305Y-67355086D02*
G01*
X143129458Y-67355086D01*
X143179456Y-67363005D01*
X143321889Y-67381757D01*
X143356643Y-67391069D01*
X143385185Y-67395590D01*
X143440070Y-67413423D01*
X143530356Y-67437615D01*
X143587960Y-67461475D01*
X143631428Y-67475599D01*
X143672151Y-67496348D01*
X143729753Y-67520208D01*
X143810701Y-67566943D01*
X143862123Y-67593144D01*
X143885498Y-67610127D01*
X143916663Y-67628120D01*
X144030664Y-67715596D01*
X144071589Y-67745330D01*
X144078762Y-67752503D01*
X144087883Y-67759502D01*
X144240497Y-67912116D01*
X144247495Y-67921236D01*
X144254670Y-67928411D01*
X144284407Y-67969341D01*
X144371879Y-68083336D01*
X144389870Y-68114498D01*
X144406856Y-68137877D01*
X144433059Y-68189304D01*
X144479791Y-68270246D01*
X144503648Y-68327842D01*
X144524401Y-68368572D01*
X144538526Y-68412045D01*
X144562384Y-68469643D01*
X144586572Y-68559916D01*
X144604410Y-68614815D01*
X144608931Y-68643362D01*
X144618242Y-68678110D01*
X144636993Y-68820535D01*
X144644914Y-68870542D01*
X144644914Y-68880693D01*
X144646414Y-68892087D01*
X144646414Y-69107912D01*
X144644914Y-69119305D01*
X144644914Y-69129458D01*
X144636992Y-69179468D01*
X144618242Y-69321889D01*
X144608932Y-69356634D01*
X144604410Y-69385185D01*
X144586571Y-69440087D01*
X144562384Y-69530356D01*
X144538528Y-69587949D01*
X144524401Y-69631428D01*
X144503646Y-69672161D01*
X144479791Y-69729753D01*
X144433063Y-69810687D01*
X144406856Y-69862123D01*
X144389868Y-69885504D01*
X144371879Y-69916663D01*
X144284421Y-70030639D01*
X144254670Y-70071589D01*
X144247491Y-70078767D01*
X144240497Y-70087883D01*
X144087883Y-70240497D01*
X144078767Y-70247491D01*
X144071589Y-70254670D01*
X144030639Y-70284421D01*
X143916663Y-70371879D01*
X143885504Y-70389868D01*
X143862123Y-70406856D01*
X143810687Y-70433063D01*
X143729753Y-70479791D01*
X143672161Y-70503646D01*
X143631428Y-70524401D01*
X143587949Y-70538528D01*
X143530356Y-70562384D01*
X143440087Y-70586571D01*
X143385185Y-70604410D01*
X143356634Y-70608932D01*
X143321889Y-70618242D01*
X143179468Y-70636992D01*
X143129458Y-70644914D01*
X143119305Y-70644914D01*
X143107912Y-70646414D01*
X142892088Y-70646414D01*
X142880695Y-70644914D01*
X142870542Y-70644914D01*
X142820532Y-70636993D01*
X142678110Y-70618242D01*
X142643362Y-70608931D01*
X142614815Y-70604410D01*
X142559916Y-70586572D01*
X142469643Y-70562384D01*
X142412045Y-70538526D01*
X142368572Y-70524401D01*
X142327842Y-70503648D01*
X142270246Y-70479791D01*
X142189304Y-70433059D01*
X142137877Y-70406856D01*
X142114498Y-70389870D01*
X142083336Y-70371879D01*
X141969341Y-70284407D01*
X141928411Y-70254670D01*
X141921236Y-70247495D01*
X141912116Y-70240497D01*
X141759502Y-70087883D01*
X141752503Y-70078762D01*
X141745330Y-70071589D01*
X141715596Y-70030664D01*
X141628120Y-69916663D01*
X141610127Y-69885498D01*
X141593144Y-69862123D01*
X141566943Y-69810701D01*
X141520208Y-69729753D01*
X141496348Y-69672151D01*
X141475599Y-69631428D01*
X141461475Y-69587960D01*
X141437615Y-69530356D01*
X141413423Y-69440070D01*
X141395590Y-69385185D01*
X141391069Y-69356643D01*
X141381757Y-69321889D01*
X141363005Y-69179456D01*
X141355086Y-69129458D01*
X141355086Y-69119305D01*
X141353586Y-69107912D01*
X141353586Y-68892087D01*
X141355086Y-68880693D01*
X141355086Y-68870542D01*
X141363004Y-68820548D01*
X141381757Y-68678110D01*
X141391069Y-68643353D01*
X141395590Y-68614815D01*
X141413421Y-68559934D01*
X141437615Y-68469643D01*
X141461477Y-68412034D01*
X141475599Y-68368572D01*
X141496346Y-68327852D01*
X141520208Y-68270246D01*
X141566947Y-68189289D01*
X141593144Y-68137877D01*
X141610124Y-68114505D01*
X141628120Y-68083336D01*
X141715610Y-67969316D01*
X141745330Y-67928411D01*
X141752500Y-67921240D01*
X141759502Y-67912116D01*
X141912116Y-67759502D01*
X141921240Y-67752500D01*
X141928411Y-67745330D01*
X141969316Y-67715610D01*
X142083336Y-67628120D01*
X142114505Y-67610124D01*
X142137877Y-67593144D01*
X142189289Y-67566947D01*
X142270246Y-67520208D01*
X142327852Y-67496346D01*
X142368572Y-67475599D01*
X142412034Y-67461477D01*
X142469643Y-67437615D01*
X142559934Y-67413421D01*
X142614815Y-67395590D01*
X142643353Y-67391069D01*
X142678110Y-67381757D01*
X142820545Y-67363004D01*
X142870542Y-67355086D01*
X142880694Y-67355086D01*
X142892088Y-67353586D01*
X143107912Y-67353586D01*
X143119305Y-67355086D01*
G37*
G36*
X187119305Y-67355086D02*
G01*
X187129458Y-67355086D01*
X187179456Y-67363005D01*
X187321889Y-67381757D01*
X187356643Y-67391069D01*
X187385185Y-67395590D01*
X187440070Y-67413423D01*
X187530356Y-67437615D01*
X187587960Y-67461475D01*
X187631428Y-67475599D01*
X187672151Y-67496348D01*
X187729753Y-67520208D01*
X187810701Y-67566943D01*
X187862123Y-67593144D01*
X187885498Y-67610127D01*
X187916663Y-67628120D01*
X188030664Y-67715596D01*
X188071589Y-67745330D01*
X188078762Y-67752503D01*
X188087883Y-67759502D01*
X188240497Y-67912116D01*
X188247495Y-67921236D01*
X188254670Y-67928411D01*
X188284407Y-67969341D01*
X188371879Y-68083336D01*
X188389870Y-68114498D01*
X188406856Y-68137877D01*
X188433059Y-68189304D01*
X188479791Y-68270246D01*
X188503648Y-68327842D01*
X188524401Y-68368572D01*
X188538526Y-68412045D01*
X188562384Y-68469643D01*
X188586572Y-68559916D01*
X188604410Y-68614815D01*
X188608931Y-68643362D01*
X188618242Y-68678110D01*
X188636993Y-68820535D01*
X188644914Y-68870542D01*
X188644914Y-68880693D01*
X188646414Y-68892087D01*
X188646414Y-69107912D01*
X188644914Y-69119305D01*
X188644914Y-69129458D01*
X188636992Y-69179468D01*
X188618242Y-69321889D01*
X188608932Y-69356634D01*
X188604410Y-69385185D01*
X188586571Y-69440087D01*
X188562384Y-69530356D01*
X188538528Y-69587949D01*
X188524401Y-69631428D01*
X188503646Y-69672161D01*
X188479791Y-69729753D01*
X188433063Y-69810687D01*
X188406856Y-69862123D01*
X188389868Y-69885504D01*
X188371879Y-69916663D01*
X188284421Y-70030639D01*
X188254670Y-70071589D01*
X188247491Y-70078767D01*
X188240497Y-70087883D01*
X188087883Y-70240497D01*
X188078767Y-70247491D01*
X188071589Y-70254670D01*
X188030639Y-70284421D01*
X187916663Y-70371879D01*
X187885504Y-70389868D01*
X187862123Y-70406856D01*
X187810687Y-70433063D01*
X187729753Y-70479791D01*
X187672161Y-70503646D01*
X187631428Y-70524401D01*
X187587949Y-70538528D01*
X187530356Y-70562384D01*
X187440087Y-70586571D01*
X187385185Y-70604410D01*
X187356634Y-70608932D01*
X187321889Y-70618242D01*
X187179468Y-70636992D01*
X187129458Y-70644914D01*
X187119305Y-70644914D01*
X187107912Y-70646414D01*
X186892088Y-70646414D01*
X186880695Y-70644914D01*
X186870542Y-70644914D01*
X186820532Y-70636993D01*
X186678110Y-70618242D01*
X186643362Y-70608931D01*
X186614815Y-70604410D01*
X186559916Y-70586572D01*
X186469643Y-70562384D01*
X186412045Y-70538526D01*
X186368572Y-70524401D01*
X186327842Y-70503648D01*
X186270246Y-70479791D01*
X186189304Y-70433059D01*
X186137877Y-70406856D01*
X186114498Y-70389870D01*
X186083336Y-70371879D01*
X185969341Y-70284407D01*
X185928411Y-70254670D01*
X185921236Y-70247495D01*
X185912116Y-70240497D01*
X185759502Y-70087883D01*
X185752503Y-70078762D01*
X185745330Y-70071589D01*
X185715596Y-70030664D01*
X185628120Y-69916663D01*
X185610127Y-69885498D01*
X185593144Y-69862123D01*
X185566943Y-69810701D01*
X185520208Y-69729753D01*
X185496348Y-69672151D01*
X185475599Y-69631428D01*
X185461475Y-69587960D01*
X185437615Y-69530356D01*
X185413423Y-69440070D01*
X185395590Y-69385185D01*
X185391069Y-69356643D01*
X185381757Y-69321889D01*
X185363005Y-69179456D01*
X185355086Y-69129458D01*
X185355086Y-69119305D01*
X185353586Y-69107912D01*
X185353586Y-68892087D01*
X185355086Y-68880693D01*
X185355086Y-68870542D01*
X185363004Y-68820548D01*
X185381757Y-68678110D01*
X185391069Y-68643353D01*
X185395590Y-68614815D01*
X185413421Y-68559934D01*
X185437615Y-68469643D01*
X185461477Y-68412034D01*
X185475599Y-68368572D01*
X185496346Y-68327852D01*
X185520208Y-68270246D01*
X185566947Y-68189289D01*
X185593144Y-68137877D01*
X185610124Y-68114505D01*
X185628120Y-68083336D01*
X185715610Y-67969316D01*
X185745330Y-67928411D01*
X185752500Y-67921240D01*
X185759502Y-67912116D01*
X185912116Y-67759502D01*
X185921240Y-67752500D01*
X185928411Y-67745330D01*
X185969316Y-67715610D01*
X186083336Y-67628120D01*
X186114505Y-67610124D01*
X186137877Y-67593144D01*
X186189289Y-67566947D01*
X186270246Y-67520208D01*
X186327852Y-67496346D01*
X186368572Y-67475599D01*
X186412034Y-67461477D01*
X186469643Y-67437615D01*
X186559934Y-67413421D01*
X186614815Y-67395590D01*
X186643353Y-67391069D01*
X186678110Y-67381757D01*
X186820545Y-67363004D01*
X186870542Y-67355086D01*
X186880694Y-67355086D01*
X186892088Y-67353586D01*
X187107912Y-67353586D01*
X187119305Y-67355086D01*
G37*
G36*
X27119305Y-23355086D02*
G01*
X27129458Y-23355086D01*
X27179456Y-23363005D01*
X27321889Y-23381757D01*
X27356643Y-23391069D01*
X27385185Y-23395590D01*
X27440070Y-23413423D01*
X27530356Y-23437615D01*
X27587960Y-23461475D01*
X27631428Y-23475599D01*
X27672151Y-23496348D01*
X27729753Y-23520208D01*
X27810701Y-23566943D01*
X27862123Y-23593144D01*
X27885498Y-23610127D01*
X27916663Y-23628120D01*
X28030664Y-23715596D01*
X28071589Y-23745330D01*
X28078762Y-23752503D01*
X28087883Y-23759502D01*
X28240497Y-23912116D01*
X28247495Y-23921236D01*
X28254670Y-23928411D01*
X28284407Y-23969341D01*
X28371879Y-24083336D01*
X28389870Y-24114498D01*
X28406856Y-24137877D01*
X28433059Y-24189304D01*
X28479791Y-24270246D01*
X28503648Y-24327842D01*
X28524401Y-24368572D01*
X28538526Y-24412045D01*
X28562384Y-24469643D01*
X28586572Y-24559916D01*
X28604410Y-24614815D01*
X28608931Y-24643362D01*
X28618242Y-24678110D01*
X28636993Y-24820535D01*
X28644914Y-24870542D01*
X28644914Y-24880693D01*
X28646414Y-24892087D01*
X28646414Y-25107912D01*
X28644914Y-25119305D01*
X28644914Y-25129458D01*
X28636992Y-25179468D01*
X28618242Y-25321889D01*
X28608932Y-25356634D01*
X28604410Y-25385185D01*
X28586571Y-25440087D01*
X28562384Y-25530356D01*
X28538528Y-25587949D01*
X28524401Y-25631428D01*
X28503646Y-25672161D01*
X28479791Y-25729753D01*
X28433063Y-25810687D01*
X28406856Y-25862123D01*
X28389868Y-25885504D01*
X28371879Y-25916663D01*
X28284421Y-26030639D01*
X28254670Y-26071589D01*
X28247491Y-26078767D01*
X28240497Y-26087883D01*
X28087883Y-26240497D01*
X28078767Y-26247491D01*
X28071589Y-26254670D01*
X28030639Y-26284421D01*
X27916663Y-26371879D01*
X27885504Y-26389868D01*
X27862123Y-26406856D01*
X27810687Y-26433063D01*
X27729753Y-26479791D01*
X27672161Y-26503646D01*
X27631428Y-26524401D01*
X27587949Y-26538528D01*
X27530356Y-26562384D01*
X27440087Y-26586571D01*
X27385185Y-26604410D01*
X27356634Y-26608932D01*
X27321889Y-26618242D01*
X27179468Y-26636992D01*
X27129458Y-26644914D01*
X27119305Y-26644914D01*
X27107912Y-26646414D01*
X26892088Y-26646414D01*
X26880695Y-26644914D01*
X26870542Y-26644914D01*
X26820532Y-26636993D01*
X26678110Y-26618242D01*
X26643362Y-26608931D01*
X26614815Y-26604410D01*
X26559916Y-26586572D01*
X26469643Y-26562384D01*
X26412045Y-26538526D01*
X26368572Y-26524401D01*
X26327842Y-26503648D01*
X26270246Y-26479791D01*
X26189304Y-26433059D01*
X26137877Y-26406856D01*
X26114498Y-26389870D01*
X26083336Y-26371879D01*
X25969341Y-26284407D01*
X25928411Y-26254670D01*
X25921236Y-26247495D01*
X25912116Y-26240497D01*
X25759502Y-26087883D01*
X25752503Y-26078762D01*
X25745330Y-26071589D01*
X25715596Y-26030664D01*
X25628120Y-25916663D01*
X25610127Y-25885498D01*
X25593144Y-25862123D01*
X25566943Y-25810701D01*
X25520208Y-25729753D01*
X25496348Y-25672151D01*
X25475599Y-25631428D01*
X25461475Y-25587960D01*
X25437615Y-25530356D01*
X25413423Y-25440070D01*
X25395590Y-25385185D01*
X25391069Y-25356643D01*
X25381757Y-25321889D01*
X25363005Y-25179456D01*
X25355086Y-25129458D01*
X25355086Y-25119305D01*
X25353586Y-25107912D01*
X25353586Y-24892087D01*
X25355086Y-24880693D01*
X25355086Y-24870542D01*
X25363004Y-24820548D01*
X25381757Y-24678110D01*
X25391069Y-24643353D01*
X25395590Y-24614815D01*
X25413421Y-24559934D01*
X25437615Y-24469643D01*
X25461477Y-24412034D01*
X25475599Y-24368572D01*
X25496346Y-24327852D01*
X25520208Y-24270246D01*
X25566947Y-24189289D01*
X25593144Y-24137877D01*
X25610124Y-24114505D01*
X25628120Y-24083336D01*
X25715610Y-23969316D01*
X25745330Y-23928411D01*
X25752500Y-23921240D01*
X25759502Y-23912116D01*
X25912116Y-23759502D01*
X25921240Y-23752500D01*
X25928411Y-23745330D01*
X25969316Y-23715610D01*
X26083336Y-23628120D01*
X26114505Y-23610124D01*
X26137877Y-23593144D01*
X26189289Y-23566947D01*
X26270246Y-23520208D01*
X26327852Y-23496346D01*
X26368572Y-23475599D01*
X26412034Y-23461477D01*
X26469643Y-23437615D01*
X26559934Y-23413421D01*
X26614815Y-23395590D01*
X26643353Y-23391069D01*
X26678110Y-23381757D01*
X26820545Y-23363004D01*
X26870542Y-23355086D01*
X26880694Y-23355086D01*
X26892088Y-23353586D01*
X27107912Y-23353586D01*
X27119305Y-23355086D01*
G37*
G36*
X71119305Y-23355086D02*
G01*
X71129458Y-23355086D01*
X71179456Y-23363005D01*
X71321889Y-23381757D01*
X71356643Y-23391069D01*
X71385185Y-23395590D01*
X71440070Y-23413423D01*
X71530356Y-23437615D01*
X71587960Y-23461475D01*
X71631428Y-23475599D01*
X71672151Y-23496348D01*
X71729753Y-23520208D01*
X71810701Y-23566943D01*
X71862123Y-23593144D01*
X71885498Y-23610127D01*
X71916663Y-23628120D01*
X72030664Y-23715596D01*
X72071589Y-23745330D01*
X72078762Y-23752503D01*
X72087883Y-23759502D01*
X72240497Y-23912116D01*
X72247495Y-23921236D01*
X72254670Y-23928411D01*
X72284407Y-23969341D01*
X72371879Y-24083336D01*
X72389870Y-24114498D01*
X72406856Y-24137877D01*
X72433059Y-24189304D01*
X72479791Y-24270246D01*
X72503648Y-24327842D01*
X72524401Y-24368572D01*
X72538526Y-24412045D01*
X72562384Y-24469643D01*
X72586572Y-24559916D01*
X72604410Y-24614815D01*
X72608931Y-24643362D01*
X72618242Y-24678110D01*
X72636993Y-24820535D01*
X72644914Y-24870542D01*
X72644914Y-24880693D01*
X72646414Y-24892087D01*
X72646414Y-25107912D01*
X72644914Y-25119305D01*
X72644914Y-25129458D01*
X72636992Y-25179468D01*
X72618242Y-25321889D01*
X72608932Y-25356634D01*
X72604410Y-25385185D01*
X72586571Y-25440087D01*
X72562384Y-25530356D01*
X72538528Y-25587949D01*
X72524401Y-25631428D01*
X72503646Y-25672161D01*
X72479791Y-25729753D01*
X72433063Y-25810687D01*
X72406856Y-25862123D01*
X72389868Y-25885504D01*
X72371879Y-25916663D01*
X72284421Y-26030639D01*
X72254670Y-26071589D01*
X72247491Y-26078767D01*
X72240497Y-26087883D01*
X72087883Y-26240497D01*
X72078767Y-26247491D01*
X72071589Y-26254670D01*
X72030639Y-26284421D01*
X71916663Y-26371879D01*
X71885504Y-26389868D01*
X71862123Y-26406856D01*
X71810687Y-26433063D01*
X71729753Y-26479791D01*
X71672161Y-26503646D01*
X71631428Y-26524401D01*
X71587949Y-26538528D01*
X71530356Y-26562384D01*
X71440087Y-26586571D01*
X71385185Y-26604410D01*
X71356634Y-26608932D01*
X71321889Y-26618242D01*
X71179468Y-26636992D01*
X71129458Y-26644914D01*
X71119305Y-26644914D01*
X71107912Y-26646414D01*
X70892088Y-26646414D01*
X70880695Y-26644914D01*
X70870542Y-26644914D01*
X70820532Y-26636993D01*
X70678110Y-26618242D01*
X70643362Y-26608931D01*
X70614815Y-26604410D01*
X70559916Y-26586572D01*
X70469643Y-26562384D01*
X70412045Y-26538526D01*
X70368572Y-26524401D01*
X70327842Y-26503648D01*
X70270246Y-26479791D01*
X70189304Y-26433059D01*
X70137877Y-26406856D01*
X70114498Y-26389870D01*
X70083336Y-26371879D01*
X69969341Y-26284407D01*
X69928411Y-26254670D01*
X69921236Y-26247495D01*
X69912116Y-26240497D01*
X69759502Y-26087883D01*
X69752503Y-26078762D01*
X69745330Y-26071589D01*
X69715596Y-26030664D01*
X69628120Y-25916663D01*
X69610127Y-25885498D01*
X69593144Y-25862123D01*
X69566943Y-25810701D01*
X69520208Y-25729753D01*
X69496348Y-25672151D01*
X69475599Y-25631428D01*
X69461475Y-25587960D01*
X69437615Y-25530356D01*
X69413423Y-25440070D01*
X69395590Y-25385185D01*
X69391069Y-25356643D01*
X69381757Y-25321889D01*
X69363005Y-25179456D01*
X69355086Y-25129458D01*
X69355086Y-25119305D01*
X69353586Y-25107912D01*
X69353586Y-24892087D01*
X69355086Y-24880693D01*
X69355086Y-24870542D01*
X69363004Y-24820548D01*
X69381757Y-24678110D01*
X69391069Y-24643353D01*
X69395590Y-24614815D01*
X69413421Y-24559934D01*
X69437615Y-24469643D01*
X69461477Y-24412034D01*
X69475599Y-24368572D01*
X69496346Y-24327852D01*
X69520208Y-24270246D01*
X69566947Y-24189289D01*
X69593144Y-24137877D01*
X69610124Y-24114505D01*
X69628120Y-24083336D01*
X69715610Y-23969316D01*
X69745330Y-23928411D01*
X69752500Y-23921240D01*
X69759502Y-23912116D01*
X69912116Y-23759502D01*
X69921240Y-23752500D01*
X69928411Y-23745330D01*
X69969316Y-23715610D01*
X70083336Y-23628120D01*
X70114505Y-23610124D01*
X70137877Y-23593144D01*
X70189289Y-23566947D01*
X70270246Y-23520208D01*
X70327852Y-23496346D01*
X70368572Y-23475599D01*
X70412034Y-23461477D01*
X70469643Y-23437615D01*
X70559934Y-23413421D01*
X70614815Y-23395590D01*
X70643353Y-23391069D01*
X70678110Y-23381757D01*
X70820545Y-23363004D01*
X70870542Y-23355086D01*
X70880694Y-23355086D01*
X70892088Y-23353586D01*
X71107912Y-23353586D01*
X71119305Y-23355086D01*
G37*
G36*
X85119305Y-23355086D02*
G01*
X85129458Y-23355086D01*
X85179456Y-23363005D01*
X85321889Y-23381757D01*
X85356643Y-23391069D01*
X85385185Y-23395590D01*
X85440070Y-23413423D01*
X85530356Y-23437615D01*
X85587960Y-23461475D01*
X85631428Y-23475599D01*
X85672151Y-23496348D01*
X85729753Y-23520208D01*
X85810701Y-23566943D01*
X85862123Y-23593144D01*
X85885498Y-23610127D01*
X85916663Y-23628120D01*
X86030664Y-23715596D01*
X86071589Y-23745330D01*
X86078762Y-23752503D01*
X86087883Y-23759502D01*
X86240497Y-23912116D01*
X86247495Y-23921236D01*
X86254670Y-23928411D01*
X86284407Y-23969341D01*
X86371879Y-24083336D01*
X86389870Y-24114498D01*
X86406856Y-24137877D01*
X86433059Y-24189304D01*
X86479791Y-24270246D01*
X86503648Y-24327842D01*
X86524401Y-24368572D01*
X86538526Y-24412045D01*
X86562384Y-24469643D01*
X86586572Y-24559916D01*
X86604410Y-24614815D01*
X86608931Y-24643362D01*
X86618242Y-24678110D01*
X86636993Y-24820535D01*
X86644914Y-24870542D01*
X86644914Y-24880693D01*
X86646414Y-24892087D01*
X86646414Y-25107912D01*
X86644914Y-25119305D01*
X86644914Y-25129458D01*
X86636992Y-25179468D01*
X86618242Y-25321889D01*
X86608932Y-25356634D01*
X86604410Y-25385185D01*
X86586571Y-25440087D01*
X86562384Y-25530356D01*
X86538528Y-25587949D01*
X86524401Y-25631428D01*
X86503646Y-25672161D01*
X86479791Y-25729753D01*
X86433063Y-25810687D01*
X86406856Y-25862123D01*
X86389868Y-25885504D01*
X86371879Y-25916663D01*
X86284421Y-26030639D01*
X86254670Y-26071589D01*
X86247491Y-26078767D01*
X86240497Y-26087883D01*
X86087883Y-26240497D01*
X86078767Y-26247491D01*
X86071589Y-26254670D01*
X86030639Y-26284421D01*
X85916663Y-26371879D01*
X85885504Y-26389868D01*
X85862123Y-26406856D01*
X85810687Y-26433063D01*
X85729753Y-26479791D01*
X85672161Y-26503646D01*
X85631428Y-26524401D01*
X85587949Y-26538528D01*
X85530356Y-26562384D01*
X85440087Y-26586571D01*
X85385185Y-26604410D01*
X85356634Y-26608932D01*
X85321889Y-26618242D01*
X85179468Y-26636992D01*
X85129458Y-26644914D01*
X85119305Y-26644914D01*
X85107912Y-26646414D01*
X84892088Y-26646414D01*
X84880695Y-26644914D01*
X84870542Y-26644914D01*
X84820532Y-26636993D01*
X84678110Y-26618242D01*
X84643362Y-26608931D01*
X84614815Y-26604410D01*
X84559916Y-26586572D01*
X84469643Y-26562384D01*
X84412045Y-26538526D01*
X84368572Y-26524401D01*
X84327842Y-26503648D01*
X84270246Y-26479791D01*
X84189304Y-26433059D01*
X84137877Y-26406856D01*
X84114498Y-26389870D01*
X84083336Y-26371879D01*
X83969341Y-26284407D01*
X83928411Y-26254670D01*
X83921236Y-26247495D01*
X83912116Y-26240497D01*
X83759502Y-26087883D01*
X83752503Y-26078762D01*
X83745330Y-26071589D01*
X83715596Y-26030664D01*
X83628120Y-25916663D01*
X83610127Y-25885498D01*
X83593144Y-25862123D01*
X83566943Y-25810701D01*
X83520208Y-25729753D01*
X83496348Y-25672151D01*
X83475599Y-25631428D01*
X83461475Y-25587960D01*
X83437615Y-25530356D01*
X83413423Y-25440070D01*
X83395590Y-25385185D01*
X83391069Y-25356643D01*
X83381757Y-25321889D01*
X83363005Y-25179456D01*
X83355086Y-25129458D01*
X83355086Y-25119305D01*
X83353586Y-25107912D01*
X83353586Y-24892087D01*
X83355086Y-24880693D01*
X83355086Y-24870542D01*
X83363004Y-24820548D01*
X83381757Y-24678110D01*
X83391069Y-24643353D01*
X83395590Y-24614815D01*
X83413421Y-24559934D01*
X83437615Y-24469643D01*
X83461477Y-24412034D01*
X83475599Y-24368572D01*
X83496346Y-24327852D01*
X83520208Y-24270246D01*
X83566947Y-24189289D01*
X83593144Y-24137877D01*
X83610124Y-24114505D01*
X83628120Y-24083336D01*
X83715610Y-23969316D01*
X83745330Y-23928411D01*
X83752500Y-23921240D01*
X83759502Y-23912116D01*
X83912116Y-23759502D01*
X83921240Y-23752500D01*
X83928411Y-23745330D01*
X83969316Y-23715610D01*
X84083336Y-23628120D01*
X84114505Y-23610124D01*
X84137877Y-23593144D01*
X84189289Y-23566947D01*
X84270246Y-23520208D01*
X84327852Y-23496346D01*
X84368572Y-23475599D01*
X84412034Y-23461477D01*
X84469643Y-23437615D01*
X84559934Y-23413421D01*
X84614815Y-23395590D01*
X84643353Y-23391069D01*
X84678110Y-23381757D01*
X84820545Y-23363004D01*
X84870542Y-23355086D01*
X84880694Y-23355086D01*
X84892088Y-23353586D01*
X85107912Y-23353586D01*
X85119305Y-23355086D01*
G37*
G36*
X129119305Y-23355086D02*
G01*
X129129458Y-23355086D01*
X129179456Y-23363005D01*
X129321889Y-23381757D01*
X129356643Y-23391069D01*
X129385185Y-23395590D01*
X129440070Y-23413423D01*
X129530356Y-23437615D01*
X129587960Y-23461475D01*
X129631428Y-23475599D01*
X129672151Y-23496348D01*
X129729753Y-23520208D01*
X129810701Y-23566943D01*
X129862123Y-23593144D01*
X129885498Y-23610127D01*
X129916663Y-23628120D01*
X130030664Y-23715596D01*
X130071589Y-23745330D01*
X130078762Y-23752503D01*
X130087883Y-23759502D01*
X130240497Y-23912116D01*
X130247495Y-23921236D01*
X130254670Y-23928411D01*
X130284407Y-23969341D01*
X130371879Y-24083336D01*
X130389870Y-24114498D01*
X130406856Y-24137877D01*
X130433059Y-24189304D01*
X130479791Y-24270246D01*
X130503648Y-24327842D01*
X130524401Y-24368572D01*
X130538526Y-24412045D01*
X130562384Y-24469643D01*
X130586572Y-24559916D01*
X130604410Y-24614815D01*
X130608931Y-24643362D01*
X130618242Y-24678110D01*
X130636993Y-24820535D01*
X130644914Y-24870542D01*
X130644914Y-24880693D01*
X130646414Y-24892087D01*
X130646414Y-25107912D01*
X130644914Y-25119305D01*
X130644914Y-25129458D01*
X130636992Y-25179468D01*
X130618242Y-25321889D01*
X130608932Y-25356634D01*
X130604410Y-25385185D01*
X130586571Y-25440087D01*
X130562384Y-25530356D01*
X130538528Y-25587949D01*
X130524401Y-25631428D01*
X130503646Y-25672161D01*
X130479791Y-25729753D01*
X130433063Y-25810687D01*
X130406856Y-25862123D01*
X130389868Y-25885504D01*
X130371879Y-25916663D01*
X130284421Y-26030639D01*
X130254670Y-26071589D01*
X130247491Y-26078767D01*
X130240497Y-26087883D01*
X130087883Y-26240497D01*
X130078767Y-26247491D01*
X130071589Y-26254670D01*
X130030639Y-26284421D01*
X129916663Y-26371879D01*
X129885504Y-26389868D01*
X129862123Y-26406856D01*
X129810687Y-26433063D01*
X129729753Y-26479791D01*
X129672161Y-26503646D01*
X129631428Y-26524401D01*
X129587949Y-26538528D01*
X129530356Y-26562384D01*
X129440087Y-26586571D01*
X129385185Y-26604410D01*
X129356634Y-26608932D01*
X129321889Y-26618242D01*
X129179468Y-26636992D01*
X129129458Y-26644914D01*
X129119305Y-26644914D01*
X129107912Y-26646414D01*
X128892088Y-26646414D01*
X128880695Y-26644914D01*
X128870542Y-26644914D01*
X128820532Y-26636993D01*
X128678110Y-26618242D01*
X128643362Y-26608931D01*
X128614815Y-26604410D01*
X128559916Y-26586572D01*
X128469643Y-26562384D01*
X128412045Y-26538526D01*
X128368572Y-26524401D01*
X128327842Y-26503648D01*
X128270246Y-26479791D01*
X128189304Y-26433059D01*
X128137877Y-26406856D01*
X128114498Y-26389870D01*
X128083336Y-26371879D01*
X127969341Y-26284407D01*
X127928411Y-26254670D01*
X127921236Y-26247495D01*
X127912116Y-26240497D01*
X127759502Y-26087883D01*
X127752503Y-26078762D01*
X127745330Y-26071589D01*
X127715596Y-26030664D01*
X127628120Y-25916663D01*
X127610127Y-25885498D01*
X127593144Y-25862123D01*
X127566943Y-25810701D01*
X127520208Y-25729753D01*
X127496348Y-25672151D01*
X127475599Y-25631428D01*
X127461475Y-25587960D01*
X127437615Y-25530356D01*
X127413423Y-25440070D01*
X127395590Y-25385185D01*
X127391069Y-25356643D01*
X127381757Y-25321889D01*
X127363005Y-25179456D01*
X127355086Y-25129458D01*
X127355086Y-25119305D01*
X127353586Y-25107912D01*
X127353586Y-24892087D01*
X127355086Y-24880693D01*
X127355086Y-24870542D01*
X127363004Y-24820548D01*
X127381757Y-24678110D01*
X127391069Y-24643353D01*
X127395590Y-24614815D01*
X127413421Y-24559934D01*
X127437615Y-24469643D01*
X127461477Y-24412034D01*
X127475599Y-24368572D01*
X127496346Y-24327852D01*
X127520208Y-24270246D01*
X127566947Y-24189289D01*
X127593144Y-24137877D01*
X127610124Y-24114505D01*
X127628120Y-24083336D01*
X127715610Y-23969316D01*
X127745330Y-23928411D01*
X127752500Y-23921240D01*
X127759502Y-23912116D01*
X127912116Y-23759502D01*
X127921240Y-23752500D01*
X127928411Y-23745330D01*
X127969316Y-23715610D01*
X128083336Y-23628120D01*
X128114505Y-23610124D01*
X128137877Y-23593144D01*
X128189289Y-23566947D01*
X128270246Y-23520208D01*
X128327852Y-23496346D01*
X128368572Y-23475599D01*
X128412034Y-23461477D01*
X128469643Y-23437615D01*
X128559934Y-23413421D01*
X128614815Y-23395590D01*
X128643353Y-23391069D01*
X128678110Y-23381757D01*
X128820545Y-23363004D01*
X128870542Y-23355086D01*
X128880694Y-23355086D01*
X128892088Y-23353586D01*
X129107912Y-23353586D01*
X129119305Y-23355086D01*
G37*
G36*
X143119305Y-23355086D02*
G01*
X143129458Y-23355086D01*
X143179456Y-23363005D01*
X143321889Y-23381757D01*
X143356643Y-23391069D01*
X143385185Y-23395590D01*
X143440070Y-23413423D01*
X143530356Y-23437615D01*
X143587960Y-23461475D01*
X143631428Y-23475599D01*
X143672151Y-23496348D01*
X143729753Y-23520208D01*
X143810701Y-23566943D01*
X143862123Y-23593144D01*
X143885498Y-23610127D01*
X143916663Y-23628120D01*
X144030664Y-23715596D01*
X144071589Y-23745330D01*
X144078762Y-23752503D01*
X144087883Y-23759502D01*
X144240497Y-23912116D01*
X144247495Y-23921236D01*
X144254670Y-23928411D01*
X144284407Y-23969341D01*
X144371879Y-24083336D01*
X144389870Y-24114498D01*
X144406856Y-24137877D01*
X144433059Y-24189304D01*
X144479791Y-24270246D01*
X144503648Y-24327842D01*
X144524401Y-24368572D01*
X144538526Y-24412045D01*
X144562384Y-24469643D01*
X144586572Y-24559916D01*
X144604410Y-24614815D01*
X144608931Y-24643362D01*
X144618242Y-24678110D01*
X144636993Y-24820535D01*
X144644914Y-24870542D01*
X144644914Y-24880693D01*
X144646414Y-24892087D01*
X144646414Y-25107912D01*
X144644914Y-25119305D01*
X144644914Y-25129458D01*
X144636992Y-25179468D01*
X144618242Y-25321889D01*
X144608932Y-25356634D01*
X144604410Y-25385185D01*
X144586571Y-25440087D01*
X144562384Y-25530356D01*
X144538528Y-25587949D01*
X144524401Y-25631428D01*
X144503646Y-25672161D01*
X144479791Y-25729753D01*
X144433063Y-25810687D01*
X144406856Y-25862123D01*
X144389868Y-25885504D01*
X144371879Y-25916663D01*
X144284421Y-26030639D01*
X144254670Y-26071589D01*
X144247491Y-26078767D01*
X144240497Y-26087883D01*
X144087883Y-26240497D01*
X144078767Y-26247491D01*
X144071589Y-26254670D01*
X144030639Y-26284421D01*
X143916663Y-26371879D01*
X143885504Y-26389868D01*
X143862123Y-26406856D01*
X143810687Y-26433063D01*
X143729753Y-26479791D01*
X143672161Y-26503646D01*
X143631428Y-26524401D01*
X143587949Y-26538528D01*
X143530356Y-26562384D01*
X143440087Y-26586571D01*
X143385185Y-26604410D01*
X143356634Y-26608932D01*
X143321889Y-26618242D01*
X143179468Y-26636992D01*
X143129458Y-26644914D01*
X143119305Y-26644914D01*
X143107912Y-26646414D01*
X142892088Y-26646414D01*
X142880695Y-26644914D01*
X142870542Y-26644914D01*
X142820532Y-26636993D01*
X142678110Y-26618242D01*
X142643362Y-26608931D01*
X142614815Y-26604410D01*
X142559916Y-26586572D01*
X142469643Y-26562384D01*
X142412045Y-26538526D01*
X142368572Y-26524401D01*
X142327842Y-26503648D01*
X142270246Y-26479791D01*
X142189304Y-26433059D01*
X142137877Y-26406856D01*
X142114498Y-26389870D01*
X142083336Y-26371879D01*
X141969341Y-26284407D01*
X141928411Y-26254670D01*
X141921236Y-26247495D01*
X141912116Y-26240497D01*
X141759502Y-26087883D01*
X141752503Y-26078762D01*
X141745330Y-26071589D01*
X141715596Y-26030664D01*
X141628120Y-25916663D01*
X141610127Y-25885498D01*
X141593144Y-25862123D01*
X141566943Y-25810701D01*
X141520208Y-25729753D01*
X141496348Y-25672151D01*
X141475599Y-25631428D01*
X141461475Y-25587960D01*
X141437615Y-25530356D01*
X141413423Y-25440070D01*
X141395590Y-25385185D01*
X141391069Y-25356643D01*
X141381757Y-25321889D01*
X141363005Y-25179456D01*
X141355086Y-25129458D01*
X141355086Y-25119305D01*
X141353586Y-25107912D01*
X141353586Y-24892087D01*
X141355086Y-24880693D01*
X141355086Y-24870542D01*
X141363004Y-24820548D01*
X141381757Y-24678110D01*
X141391069Y-24643353D01*
X141395590Y-24614815D01*
X141413421Y-24559934D01*
X141437615Y-24469643D01*
X141461477Y-24412034D01*
X141475599Y-24368572D01*
X141496346Y-24327852D01*
X141520208Y-24270246D01*
X141566947Y-24189289D01*
X141593144Y-24137877D01*
X141610124Y-24114505D01*
X141628120Y-24083336D01*
X141715610Y-23969316D01*
X141745330Y-23928411D01*
X141752500Y-23921240D01*
X141759502Y-23912116D01*
X141912116Y-23759502D01*
X141921240Y-23752500D01*
X141928411Y-23745330D01*
X141969316Y-23715610D01*
X142083336Y-23628120D01*
X142114505Y-23610124D01*
X142137877Y-23593144D01*
X142189289Y-23566947D01*
X142270246Y-23520208D01*
X142327852Y-23496346D01*
X142368572Y-23475599D01*
X142412034Y-23461477D01*
X142469643Y-23437615D01*
X142559934Y-23413421D01*
X142614815Y-23395590D01*
X142643353Y-23391069D01*
X142678110Y-23381757D01*
X142820545Y-23363004D01*
X142870542Y-23355086D01*
X142880694Y-23355086D01*
X142892088Y-23353586D01*
X143107912Y-23353586D01*
X143119305Y-23355086D01*
G37*
G36*
X187119305Y-23355086D02*
G01*
X187129458Y-23355086D01*
X187179456Y-23363005D01*
X187321889Y-23381757D01*
X187356643Y-23391069D01*
X187385185Y-23395590D01*
X187440070Y-23413423D01*
X187530356Y-23437615D01*
X187587960Y-23461475D01*
X187631428Y-23475599D01*
X187672151Y-23496348D01*
X187729753Y-23520208D01*
X187810701Y-23566943D01*
X187862123Y-23593144D01*
X187885498Y-23610127D01*
X187916663Y-23628120D01*
X188030664Y-23715596D01*
X188071589Y-23745330D01*
X188078762Y-23752503D01*
X188087883Y-23759502D01*
X188240497Y-23912116D01*
X188247495Y-23921236D01*
X188254670Y-23928411D01*
X188284407Y-23969341D01*
X188371879Y-24083336D01*
X188389870Y-24114498D01*
X188406856Y-24137877D01*
X188433059Y-24189304D01*
X188479791Y-24270246D01*
X188503648Y-24327842D01*
X188524401Y-24368572D01*
X188538526Y-24412045D01*
X188562384Y-24469643D01*
X188586572Y-24559916D01*
X188604410Y-24614815D01*
X188608931Y-24643362D01*
X188618242Y-24678110D01*
X188636993Y-24820535D01*
X188644914Y-24870542D01*
X188644914Y-24880693D01*
X188646414Y-24892087D01*
X188646414Y-25107912D01*
X188644914Y-25119305D01*
X188644914Y-25129458D01*
X188636992Y-25179468D01*
X188618242Y-25321889D01*
X188608932Y-25356634D01*
X188604410Y-25385185D01*
X188586571Y-25440087D01*
X188562384Y-25530356D01*
X188538528Y-25587949D01*
X188524401Y-25631428D01*
X188503646Y-25672161D01*
X188479791Y-25729753D01*
X188433063Y-25810687D01*
X188406856Y-25862123D01*
X188389868Y-25885504D01*
X188371879Y-25916663D01*
X188284421Y-26030639D01*
X188254670Y-26071589D01*
X188247491Y-26078767D01*
X188240497Y-26087883D01*
X188087883Y-26240497D01*
X188078767Y-26247491D01*
X188071589Y-26254670D01*
X188030639Y-26284421D01*
X187916663Y-26371879D01*
X187885504Y-26389868D01*
X187862123Y-26406856D01*
X187810687Y-26433063D01*
X187729753Y-26479791D01*
X187672161Y-26503646D01*
X187631428Y-26524401D01*
X187587949Y-26538528D01*
X187530356Y-26562384D01*
X187440087Y-26586571D01*
X187385185Y-26604410D01*
X187356634Y-26608932D01*
X187321889Y-26618242D01*
X187179468Y-26636992D01*
X187129458Y-26644914D01*
X187119305Y-26644914D01*
X187107912Y-26646414D01*
X186892088Y-26646414D01*
X186880695Y-26644914D01*
X186870542Y-26644914D01*
X186820532Y-26636993D01*
X186678110Y-26618242D01*
X186643362Y-26608931D01*
X186614815Y-26604410D01*
X186559916Y-26586572D01*
X186469643Y-26562384D01*
X186412045Y-26538526D01*
X186368572Y-26524401D01*
X186327842Y-26503648D01*
X186270246Y-26479791D01*
X186189304Y-26433059D01*
X186137877Y-26406856D01*
X186114498Y-26389870D01*
X186083336Y-26371879D01*
X185969341Y-26284407D01*
X185928411Y-26254670D01*
X185921236Y-26247495D01*
X185912116Y-26240497D01*
X185759502Y-26087883D01*
X185752503Y-26078762D01*
X185745330Y-26071589D01*
X185715596Y-26030664D01*
X185628120Y-25916663D01*
X185610127Y-25885498D01*
X185593144Y-25862123D01*
X185566943Y-25810701D01*
X185520208Y-25729753D01*
X185496348Y-25672151D01*
X185475599Y-25631428D01*
X185461475Y-25587960D01*
X185437615Y-25530356D01*
X185413423Y-25440070D01*
X185395590Y-25385185D01*
X185391069Y-25356643D01*
X185381757Y-25321889D01*
X185363005Y-25179456D01*
X185355086Y-25129458D01*
X185355086Y-25119305D01*
X185353586Y-25107912D01*
X185353586Y-24892087D01*
X185355086Y-24880693D01*
X185355086Y-24870542D01*
X185363004Y-24820548D01*
X185381757Y-24678110D01*
X185391069Y-24643353D01*
X185395590Y-24614815D01*
X185413421Y-24559934D01*
X185437615Y-24469643D01*
X185461477Y-24412034D01*
X185475599Y-24368572D01*
X185496346Y-24327852D01*
X185520208Y-24270246D01*
X185566947Y-24189289D01*
X185593144Y-24137877D01*
X185610124Y-24114505D01*
X185628120Y-24083336D01*
X185715610Y-23969316D01*
X185745330Y-23928411D01*
X185752500Y-23921240D01*
X185759502Y-23912116D01*
X185912116Y-23759502D01*
X185921240Y-23752500D01*
X185928411Y-23745330D01*
X185969316Y-23715610D01*
X186083336Y-23628120D01*
X186114505Y-23610124D01*
X186137877Y-23593144D01*
X186189289Y-23566947D01*
X186270246Y-23520208D01*
X186327852Y-23496346D01*
X186368572Y-23475599D01*
X186412034Y-23461477D01*
X186469643Y-23437615D01*
X186559934Y-23413421D01*
X186614815Y-23395590D01*
X186643353Y-23391069D01*
X186678110Y-23381757D01*
X186820545Y-23363004D01*
X186870542Y-23355086D01*
X186880694Y-23355086D01*
X186892088Y-23353586D01*
X187107912Y-23353586D01*
X187119305Y-23355086D01*
G37*
M02*
