%TF.GenerationSoftware,KiCad,Pcbnew,10.0.1*%
%TF.CreationDate,2026-07-27T18:27:45-04:00*%
%TF.ProjectId,patch_antenna_smp_rev9,70617463-685f-4616-9e74-656e6e615f73,9*%
%TF.SameCoordinates,PX1312d00PY1312d00*%
%TF.FileFunction,Copper,L2,Bot*%
%TF.FilePolarity,Positive*%
%FSLAX46Y46*%
G04 Gerber Fmt 4.6, Leading zero omitted, Abs format (unit mm)*
G04 Created by KiCad (PCBNEW 10.0.1) date 2026-07-27 18:27:45*
%MOMM*%
%LPD*%
G01*
G04 APERTURE LIST*
%TA.AperFunction,ViaPad*%
%ADD10C,0.800000*%
%TD*%
G04 APERTURE END LIST*
D10*
%TO.N,GND*%
X50670000Y-151400000D03*
X110500000Y-88000000D03*
X47290000Y-151400000D03*
X52500000Y-88000000D03*
X45500000Y-158000000D03*
X108670000Y-221400000D03*
X163290000Y-221400000D03*
X161500000Y-228000000D03*
X103500000Y-158000000D03*
X166670000Y-151400000D03*
X45500000Y-228000000D03*
X103500000Y-88000000D03*
X47290000Y-81400000D03*
X105290000Y-151400000D03*
X161500000Y-158000000D03*
X105290000Y-81400000D03*
X108670000Y-81400000D03*
X163290000Y-81400000D03*
X168500000Y-228000000D03*
X52500000Y-158000000D03*
X52500000Y-228000000D03*
X50670000Y-81400000D03*
X166670000Y-81400000D03*
X103500000Y-228000000D03*
X166670000Y-221400000D03*
X108670000Y-151400000D03*
X168500000Y-88000000D03*
X110500000Y-228000000D03*
X47290000Y-221400000D03*
X105290000Y-221400000D03*
X168500000Y-158000000D03*
X45500000Y-88000000D03*
X163290000Y-151400000D03*
X50670000Y-221400000D03*
X161500000Y-88000000D03*
X110500000Y-158000000D03*
%TD*%
%TA.AperFunction,Conductor*%
%TO.N,GND*%
G36*
X77442539Y-160520185D02*
G01*
X77488294Y-160572989D01*
X77499500Y-160624500D01*
X77499500Y-229375500D01*
X77479815Y-229442539D01*
X77427011Y-229488294D01*
X77375500Y-229499500D01*
X20624500Y-229499500D01*
X20557461Y-229479815D01*
X20511706Y-229427011D01*
X20500500Y-229375500D01*
X20500500Y-208878711D01*
X25149500Y-208878711D01*
X25149500Y-209121288D01*
X25181161Y-209361785D01*
X25243947Y-209596104D01*
X25336773Y-209820205D01*
X25336776Y-209820212D01*
X25458064Y-210030289D01*
X25458066Y-210030292D01*
X25458067Y-210030293D01*
X25605733Y-210222736D01*
X25605739Y-210222743D01*
X25777256Y-210394260D01*
X25777262Y-210394265D01*
X25969711Y-210541936D01*
X26179788Y-210663224D01*
X26403900Y-210756054D01*
X26638211Y-210818838D01*
X26818586Y-210842584D01*
X26878711Y-210850500D01*
X26878712Y-210850500D01*
X27121289Y-210850500D01*
X27169388Y-210844167D01*
X27361789Y-210818838D01*
X27596100Y-210756054D01*
X27820212Y-210663224D01*
X28030289Y-210541936D01*
X28222738Y-210394265D01*
X28394265Y-210222738D01*
X28541936Y-210030289D01*
X28663224Y-209820212D01*
X28756054Y-209596100D01*
X28818838Y-209361789D01*
X28850500Y-209121288D01*
X28850500Y-208878712D01*
X28850500Y-208878711D01*
X69149500Y-208878711D01*
X69149500Y-209121288D01*
X69181161Y-209361785D01*
X69243947Y-209596104D01*
X69336773Y-209820205D01*
X69336776Y-209820212D01*
X69458064Y-210030289D01*
X69458066Y-210030292D01*
X69458067Y-210030293D01*
X69605733Y-210222736D01*
X69605739Y-210222743D01*
X69777256Y-210394260D01*
X69777262Y-210394265D01*
X69969711Y-210541936D01*
X70179788Y-210663224D01*
X70403900Y-210756054D01*
X70638211Y-210818838D01*
X70818586Y-210842584D01*
X70878711Y-210850500D01*
X70878712Y-210850500D01*
X71121289Y-210850500D01*
X71169388Y-210844167D01*
X71361789Y-210818838D01*
X71596100Y-210756054D01*
X71820212Y-210663224D01*
X72030289Y-210541936D01*
X72222738Y-210394265D01*
X72394265Y-210222738D01*
X72541936Y-210030289D01*
X72663224Y-209820212D01*
X72756054Y-209596100D01*
X72818838Y-209361789D01*
X72850500Y-209121288D01*
X72850500Y-208878712D01*
X72818838Y-208638211D01*
X72756054Y-208403900D01*
X72663224Y-208179788D01*
X72541936Y-207969711D01*
X72394265Y-207777262D01*
X72394260Y-207777256D01*
X72222743Y-207605739D01*
X72222736Y-207605733D01*
X72030293Y-207458067D01*
X72030292Y-207458066D01*
X72030289Y-207458064D01*
X71820212Y-207336776D01*
X71820205Y-207336773D01*
X71596104Y-207243947D01*
X71361785Y-207181161D01*
X71121289Y-207149500D01*
X71121288Y-207149500D01*
X70878712Y-207149500D01*
X70878711Y-207149500D01*
X70638214Y-207181161D01*
X70403895Y-207243947D01*
X70179794Y-207336773D01*
X70179785Y-207336777D01*
X69969706Y-207458067D01*
X69777263Y-207605733D01*
X69777256Y-207605739D01*
X69605739Y-207777256D01*
X69605733Y-207777263D01*
X69458067Y-207969706D01*
X69336777Y-208179785D01*
X69336773Y-208179794D01*
X69243947Y-208403895D01*
X69181161Y-208638214D01*
X69149500Y-208878711D01*
X28850500Y-208878711D01*
X28818838Y-208638211D01*
X28756054Y-208403900D01*
X28663224Y-208179788D01*
X28541936Y-207969711D01*
X28394265Y-207777262D01*
X28394260Y-207777256D01*
X28222743Y-207605739D01*
X28222736Y-207605733D01*
X28030293Y-207458067D01*
X28030292Y-207458066D01*
X28030289Y-207458064D01*
X27820212Y-207336776D01*
X27820205Y-207336773D01*
X27596104Y-207243947D01*
X27361785Y-207181161D01*
X27121289Y-207149500D01*
X27121288Y-207149500D01*
X26878712Y-207149500D01*
X26878711Y-207149500D01*
X26638214Y-207181161D01*
X26403895Y-207243947D01*
X26179794Y-207336773D01*
X26179785Y-207336777D01*
X25969706Y-207458067D01*
X25777263Y-207605733D01*
X25777256Y-207605739D01*
X25605739Y-207777256D01*
X25605733Y-207777263D01*
X25458067Y-207969706D01*
X25336777Y-208179785D01*
X25336773Y-208179794D01*
X25243947Y-208403895D01*
X25181161Y-208638214D01*
X25149500Y-208878711D01*
X20500500Y-208878711D01*
X20500500Y-164878711D01*
X25149500Y-164878711D01*
X25149500Y-165121288D01*
X25181161Y-165361785D01*
X25243947Y-165596104D01*
X25336773Y-165820205D01*
X25336776Y-165820212D01*
X25458064Y-166030289D01*
X25458066Y-166030292D01*
X25458067Y-166030293D01*
X25605733Y-166222736D01*
X25605739Y-166222743D01*
X25777256Y-166394260D01*
X25777262Y-166394265D01*
X25969711Y-166541936D01*
X26179788Y-166663224D01*
X26403900Y-166756054D01*
X26638211Y-166818838D01*
X26818586Y-166842584D01*
X26878711Y-166850500D01*
X26878712Y-166850500D01*
X27121289Y-166850500D01*
X27169388Y-166844167D01*
X27361789Y-166818838D01*
X27596100Y-166756054D01*
X27820212Y-166663224D01*
X28030289Y-166541936D01*
X28222738Y-166394265D01*
X28394265Y-166222738D01*
X28541936Y-166030289D01*
X28663224Y-165820212D01*
X28756054Y-165596100D01*
X28818838Y-165361789D01*
X28850500Y-165121288D01*
X28850500Y-164878712D01*
X28850500Y-164878711D01*
X69149500Y-164878711D01*
X69149500Y-165121288D01*
X69181161Y-165361785D01*
X69243947Y-165596104D01*
X69336773Y-165820205D01*
X69336776Y-165820212D01*
X69458064Y-166030289D01*
X69458066Y-166030292D01*
X69458067Y-166030293D01*
X69605733Y-166222736D01*
X69605739Y-166222743D01*
X69777256Y-166394260D01*
X69777262Y-166394265D01*
X69969711Y-166541936D01*
X70179788Y-166663224D01*
X70403900Y-166756054D01*
X70638211Y-166818838D01*
X70818586Y-166842584D01*
X70878711Y-166850500D01*
X70878712Y-166850500D01*
X71121289Y-166850500D01*
X71169388Y-166844167D01*
X71361789Y-166818838D01*
X71596100Y-166756054D01*
X71820212Y-166663224D01*
X72030289Y-166541936D01*
X72222738Y-166394265D01*
X72394265Y-166222738D01*
X72541936Y-166030289D01*
X72663224Y-165820212D01*
X72756054Y-165596100D01*
X72818838Y-165361789D01*
X72850500Y-165121288D01*
X72850500Y-164878712D01*
X72818838Y-164638211D01*
X72756054Y-164403900D01*
X72663224Y-164179788D01*
X72541936Y-163969711D01*
X72394265Y-163777262D01*
X72394260Y-163777256D01*
X72222743Y-163605739D01*
X72222736Y-163605733D01*
X72030293Y-163458067D01*
X72030292Y-163458066D01*
X72030289Y-163458064D01*
X71820212Y-163336776D01*
X71820205Y-163336773D01*
X71596104Y-163243947D01*
X71361785Y-163181161D01*
X71121289Y-163149500D01*
X71121288Y-163149500D01*
X70878712Y-163149500D01*
X70878711Y-163149500D01*
X70638214Y-163181161D01*
X70403895Y-163243947D01*
X70179794Y-163336773D01*
X70179785Y-163336777D01*
X69969706Y-163458067D01*
X69777263Y-163605733D01*
X69777256Y-163605739D01*
X69605739Y-163777256D01*
X69605733Y-163777263D01*
X69458067Y-163969706D01*
X69336777Y-164179785D01*
X69336773Y-164179794D01*
X69243947Y-164403895D01*
X69181161Y-164638214D01*
X69149500Y-164878711D01*
X28850500Y-164878711D01*
X28818838Y-164638211D01*
X28756054Y-164403900D01*
X28663224Y-164179788D01*
X28541936Y-163969711D01*
X28394265Y-163777262D01*
X28394260Y-163777256D01*
X28222743Y-163605739D01*
X28222736Y-163605733D01*
X28030293Y-163458067D01*
X28030292Y-163458066D01*
X28030289Y-163458064D01*
X27820212Y-163336776D01*
X27820205Y-163336773D01*
X27596104Y-163243947D01*
X27361785Y-163181161D01*
X27121289Y-163149500D01*
X27121288Y-163149500D01*
X26878712Y-163149500D01*
X26878711Y-163149500D01*
X26638214Y-163181161D01*
X26403895Y-163243947D01*
X26179794Y-163336773D01*
X26179785Y-163336777D01*
X25969706Y-163458067D01*
X25777263Y-163605733D01*
X25777256Y-163605739D01*
X25605739Y-163777256D01*
X25605733Y-163777263D01*
X25458067Y-163969706D01*
X25336777Y-164179785D01*
X25336773Y-164179794D01*
X25243947Y-164403895D01*
X25181161Y-164638214D01*
X25149500Y-164878711D01*
X20500500Y-164878711D01*
X20500500Y-160624500D01*
X20520185Y-160557461D01*
X20572989Y-160511706D01*
X20624500Y-160500500D01*
X77375500Y-160500500D01*
X77442539Y-160520185D01*
G37*
%TD.AperFunction*%
%TA.AperFunction,Conductor*%
G36*
X135442539Y-160520185D02*
G01*
X135488294Y-160572989D01*
X135499500Y-160624500D01*
X135499500Y-229375500D01*
X135479815Y-229442539D01*
X135427011Y-229488294D01*
X135375500Y-229499500D01*
X78624500Y-229499500D01*
X78557461Y-229479815D01*
X78511706Y-229427011D01*
X78500500Y-229375500D01*
X78500500Y-208878711D01*
X83149500Y-208878711D01*
X83149500Y-209121288D01*
X83181161Y-209361785D01*
X83243947Y-209596104D01*
X83336773Y-209820205D01*
X83336776Y-209820212D01*
X83458064Y-210030289D01*
X83458066Y-210030292D01*
X83458067Y-210030293D01*
X83605733Y-210222736D01*
X83605739Y-210222743D01*
X83777256Y-210394260D01*
X83777262Y-210394265D01*
X83969711Y-210541936D01*
X84179788Y-210663224D01*
X84403900Y-210756054D01*
X84638211Y-210818838D01*
X84818586Y-210842584D01*
X84878711Y-210850500D01*
X84878712Y-210850500D01*
X85121289Y-210850500D01*
X85169388Y-210844167D01*
X85361789Y-210818838D01*
X85596100Y-210756054D01*
X85820212Y-210663224D01*
X86030289Y-210541936D01*
X86222738Y-210394265D01*
X86394265Y-210222738D01*
X86541936Y-210030289D01*
X86663224Y-209820212D01*
X86756054Y-209596100D01*
X86818838Y-209361789D01*
X86850500Y-209121288D01*
X86850500Y-208878712D01*
X86850500Y-208878711D01*
X127149500Y-208878711D01*
X127149500Y-209121288D01*
X127181161Y-209361785D01*
X127243947Y-209596104D01*
X127336773Y-209820205D01*
X127336776Y-209820212D01*
X127458064Y-210030289D01*
X127458066Y-210030292D01*
X127458067Y-210030293D01*
X127605733Y-210222736D01*
X127605739Y-210222743D01*
X127777256Y-210394260D01*
X127777262Y-210394265D01*
X127969711Y-210541936D01*
X128179788Y-210663224D01*
X128403900Y-210756054D01*
X128638211Y-210818838D01*
X128818586Y-210842584D01*
X128878711Y-210850500D01*
X128878712Y-210850500D01*
X129121289Y-210850500D01*
X129169388Y-210844167D01*
X129361789Y-210818838D01*
X129596100Y-210756054D01*
X129820212Y-210663224D01*
X130030289Y-210541936D01*
X130222738Y-210394265D01*
X130394265Y-210222738D01*
X130541936Y-210030289D01*
X130663224Y-209820212D01*
X130756054Y-209596100D01*
X130818838Y-209361789D01*
X130850500Y-209121288D01*
X130850500Y-208878712D01*
X130818838Y-208638211D01*
X130756054Y-208403900D01*
X130663224Y-208179788D01*
X130541936Y-207969711D01*
X130394265Y-207777262D01*
X130394260Y-207777256D01*
X130222743Y-207605739D01*
X130222736Y-207605733D01*
X130030293Y-207458067D01*
X130030292Y-207458066D01*
X130030289Y-207458064D01*
X129820212Y-207336776D01*
X129820205Y-207336773D01*
X129596104Y-207243947D01*
X129361785Y-207181161D01*
X129121289Y-207149500D01*
X129121288Y-207149500D01*
X128878712Y-207149500D01*
X128878711Y-207149500D01*
X128638214Y-207181161D01*
X128403895Y-207243947D01*
X128179794Y-207336773D01*
X128179785Y-207336777D01*
X127969706Y-207458067D01*
X127777263Y-207605733D01*
X127777256Y-207605739D01*
X127605739Y-207777256D01*
X127605733Y-207777263D01*
X127458067Y-207969706D01*
X127336777Y-208179785D01*
X127336773Y-208179794D01*
X127243947Y-208403895D01*
X127181161Y-208638214D01*
X127149500Y-208878711D01*
X86850500Y-208878711D01*
X86818838Y-208638211D01*
X86756054Y-208403900D01*
X86663224Y-208179788D01*
X86541936Y-207969711D01*
X86394265Y-207777262D01*
X86394260Y-207777256D01*
X86222743Y-207605739D01*
X86222736Y-207605733D01*
X86030293Y-207458067D01*
X86030292Y-207458066D01*
X86030289Y-207458064D01*
X85820212Y-207336776D01*
X85820205Y-207336773D01*
X85596104Y-207243947D01*
X85361785Y-207181161D01*
X85121289Y-207149500D01*
X85121288Y-207149500D01*
X84878712Y-207149500D01*
X84878711Y-207149500D01*
X84638214Y-207181161D01*
X84403895Y-207243947D01*
X84179794Y-207336773D01*
X84179785Y-207336777D01*
X83969706Y-207458067D01*
X83777263Y-207605733D01*
X83777256Y-207605739D01*
X83605739Y-207777256D01*
X83605733Y-207777263D01*
X83458067Y-207969706D01*
X83336777Y-208179785D01*
X83336773Y-208179794D01*
X83243947Y-208403895D01*
X83181161Y-208638214D01*
X83149500Y-208878711D01*
X78500500Y-208878711D01*
X78500500Y-164878711D01*
X83149500Y-164878711D01*
X83149500Y-165121288D01*
X83181161Y-165361785D01*
X83243947Y-165596104D01*
X83336773Y-165820205D01*
X83336776Y-165820212D01*
X83458064Y-166030289D01*
X83458066Y-166030292D01*
X83458067Y-166030293D01*
X83605733Y-166222736D01*
X83605739Y-166222743D01*
X83777256Y-166394260D01*
X83777262Y-166394265D01*
X83969711Y-166541936D01*
X84179788Y-166663224D01*
X84403900Y-166756054D01*
X84638211Y-166818838D01*
X84818586Y-166842584D01*
X84878711Y-166850500D01*
X84878712Y-166850500D01*
X85121289Y-166850500D01*
X85169388Y-166844167D01*
X85361789Y-166818838D01*
X85596100Y-166756054D01*
X85820212Y-166663224D01*
X86030289Y-166541936D01*
X86222738Y-166394265D01*
X86394265Y-166222738D01*
X86541936Y-166030289D01*
X86663224Y-165820212D01*
X86756054Y-165596100D01*
X86818838Y-165361789D01*
X86850500Y-165121288D01*
X86850500Y-164878712D01*
X86850500Y-164878711D01*
X127149500Y-164878711D01*
X127149500Y-165121288D01*
X127181161Y-165361785D01*
X127243947Y-165596104D01*
X127336773Y-165820205D01*
X127336776Y-165820212D01*
X127458064Y-166030289D01*
X127458066Y-166030292D01*
X127458067Y-166030293D01*
X127605733Y-166222736D01*
X127605739Y-166222743D01*
X127777256Y-166394260D01*
X127777262Y-166394265D01*
X127969711Y-166541936D01*
X128179788Y-166663224D01*
X128403900Y-166756054D01*
X128638211Y-166818838D01*
X128818586Y-166842584D01*
X128878711Y-166850500D01*
X128878712Y-166850500D01*
X129121289Y-166850500D01*
X129169388Y-166844167D01*
X129361789Y-166818838D01*
X129596100Y-166756054D01*
X129820212Y-166663224D01*
X130030289Y-166541936D01*
X130222738Y-166394265D01*
X130394265Y-166222738D01*
X130541936Y-166030289D01*
X130663224Y-165820212D01*
X130756054Y-165596100D01*
X130818838Y-165361789D01*
X130850500Y-165121288D01*
X130850500Y-164878712D01*
X130818838Y-164638211D01*
X130756054Y-164403900D01*
X130663224Y-164179788D01*
X130541936Y-163969711D01*
X130394265Y-163777262D01*
X130394260Y-163777256D01*
X130222743Y-163605739D01*
X130222736Y-163605733D01*
X130030293Y-163458067D01*
X130030292Y-163458066D01*
X130030289Y-163458064D01*
X129820212Y-163336776D01*
X129820205Y-163336773D01*
X129596104Y-163243947D01*
X129361785Y-163181161D01*
X129121289Y-163149500D01*
X129121288Y-163149500D01*
X128878712Y-163149500D01*
X128878711Y-163149500D01*
X128638214Y-163181161D01*
X128403895Y-163243947D01*
X128179794Y-163336773D01*
X128179785Y-163336777D01*
X127969706Y-163458067D01*
X127777263Y-163605733D01*
X127777256Y-163605739D01*
X127605739Y-163777256D01*
X127605733Y-163777263D01*
X127458067Y-163969706D01*
X127336777Y-164179785D01*
X127336773Y-164179794D01*
X127243947Y-164403895D01*
X127181161Y-164638214D01*
X127149500Y-164878711D01*
X86850500Y-164878711D01*
X86818838Y-164638211D01*
X86756054Y-164403900D01*
X86663224Y-164179788D01*
X86541936Y-163969711D01*
X86394265Y-163777262D01*
X86394260Y-163777256D01*
X86222743Y-163605739D01*
X86222736Y-163605733D01*
X86030293Y-163458067D01*
X86030292Y-163458066D01*
X86030289Y-163458064D01*
X85820212Y-163336776D01*
X85820205Y-163336773D01*
X85596104Y-163243947D01*
X85361785Y-163181161D01*
X85121289Y-163149500D01*
X85121288Y-163149500D01*
X84878712Y-163149500D01*
X84878711Y-163149500D01*
X84638214Y-163181161D01*
X84403895Y-163243947D01*
X84179794Y-163336773D01*
X84179785Y-163336777D01*
X83969706Y-163458067D01*
X83777263Y-163605733D01*
X83777256Y-163605739D01*
X83605739Y-163777256D01*
X83605733Y-163777263D01*
X83458067Y-163969706D01*
X83336777Y-164179785D01*
X83336773Y-164179794D01*
X83243947Y-164403895D01*
X83181161Y-164638214D01*
X83149500Y-164878711D01*
X78500500Y-164878711D01*
X78500500Y-160624500D01*
X78520185Y-160557461D01*
X78572989Y-160511706D01*
X78624500Y-160500500D01*
X135375500Y-160500500D01*
X135442539Y-160520185D01*
G37*
%TD.AperFunction*%
%TA.AperFunction,Conductor*%
G36*
X193442539Y-160520185D02*
G01*
X193488294Y-160572989D01*
X193499500Y-160624500D01*
X193499500Y-229375500D01*
X193479815Y-229442539D01*
X193427011Y-229488294D01*
X193375500Y-229499500D01*
X136624500Y-229499500D01*
X136557461Y-229479815D01*
X136511706Y-229427011D01*
X136500500Y-229375500D01*
X136500500Y-208878711D01*
X141149500Y-208878711D01*
X141149500Y-209121288D01*
X141181161Y-209361785D01*
X141243947Y-209596104D01*
X141336773Y-209820205D01*
X141336776Y-209820212D01*
X141458064Y-210030289D01*
X141458066Y-210030292D01*
X141458067Y-210030293D01*
X141605733Y-210222736D01*
X141605739Y-210222743D01*
X141777256Y-210394260D01*
X141777262Y-210394265D01*
X141969711Y-210541936D01*
X142179788Y-210663224D01*
X142403900Y-210756054D01*
X142638211Y-210818838D01*
X142818586Y-210842584D01*
X142878711Y-210850500D01*
X142878712Y-210850500D01*
X143121289Y-210850500D01*
X143169388Y-210844167D01*
X143361789Y-210818838D01*
X143596100Y-210756054D01*
X143820212Y-210663224D01*
X144030289Y-210541936D01*
X144222738Y-210394265D01*
X144394265Y-210222738D01*
X144541936Y-210030289D01*
X144663224Y-209820212D01*
X144756054Y-209596100D01*
X144818838Y-209361789D01*
X144850500Y-209121288D01*
X144850500Y-208878712D01*
X144850500Y-208878711D01*
X185149500Y-208878711D01*
X185149500Y-209121288D01*
X185181161Y-209361785D01*
X185243947Y-209596104D01*
X185336773Y-209820205D01*
X185336776Y-209820212D01*
X185458064Y-210030289D01*
X185458066Y-210030292D01*
X185458067Y-210030293D01*
X185605733Y-210222736D01*
X185605739Y-210222743D01*
X185777256Y-210394260D01*
X185777262Y-210394265D01*
X185969711Y-210541936D01*
X186179788Y-210663224D01*
X186403900Y-210756054D01*
X186638211Y-210818838D01*
X186818586Y-210842584D01*
X186878711Y-210850500D01*
X186878712Y-210850500D01*
X187121289Y-210850500D01*
X187169388Y-210844167D01*
X187361789Y-210818838D01*
X187596100Y-210756054D01*
X187820212Y-210663224D01*
X188030289Y-210541936D01*
X188222738Y-210394265D01*
X188394265Y-210222738D01*
X188541936Y-210030289D01*
X188663224Y-209820212D01*
X188756054Y-209596100D01*
X188818838Y-209361789D01*
X188850500Y-209121288D01*
X188850500Y-208878712D01*
X188818838Y-208638211D01*
X188756054Y-208403900D01*
X188663224Y-208179788D01*
X188541936Y-207969711D01*
X188394265Y-207777262D01*
X188394260Y-207777256D01*
X188222743Y-207605739D01*
X188222736Y-207605733D01*
X188030293Y-207458067D01*
X188030292Y-207458066D01*
X188030289Y-207458064D01*
X187820212Y-207336776D01*
X187820205Y-207336773D01*
X187596104Y-207243947D01*
X187361785Y-207181161D01*
X187121289Y-207149500D01*
X187121288Y-207149500D01*
X186878712Y-207149500D01*
X186878711Y-207149500D01*
X186638214Y-207181161D01*
X186403895Y-207243947D01*
X186179794Y-207336773D01*
X186179785Y-207336777D01*
X185969706Y-207458067D01*
X185777263Y-207605733D01*
X185777256Y-207605739D01*
X185605739Y-207777256D01*
X185605733Y-207777263D01*
X185458067Y-207969706D01*
X185336777Y-208179785D01*
X185336773Y-208179794D01*
X185243947Y-208403895D01*
X185181161Y-208638214D01*
X185149500Y-208878711D01*
X144850500Y-208878711D01*
X144818838Y-208638211D01*
X144756054Y-208403900D01*
X144663224Y-208179788D01*
X144541936Y-207969711D01*
X144394265Y-207777262D01*
X144394260Y-207777256D01*
X144222743Y-207605739D01*
X144222736Y-207605733D01*
X144030293Y-207458067D01*
X144030292Y-207458066D01*
X144030289Y-207458064D01*
X143820212Y-207336776D01*
X143820205Y-207336773D01*
X143596104Y-207243947D01*
X143361785Y-207181161D01*
X143121289Y-207149500D01*
X143121288Y-207149500D01*
X142878712Y-207149500D01*
X142878711Y-207149500D01*
X142638214Y-207181161D01*
X142403895Y-207243947D01*
X142179794Y-207336773D01*
X142179785Y-207336777D01*
X141969706Y-207458067D01*
X141777263Y-207605733D01*
X141777256Y-207605739D01*
X141605739Y-207777256D01*
X141605733Y-207777263D01*
X141458067Y-207969706D01*
X141336777Y-208179785D01*
X141336773Y-208179794D01*
X141243947Y-208403895D01*
X141181161Y-208638214D01*
X141149500Y-208878711D01*
X136500500Y-208878711D01*
X136500500Y-164878711D01*
X141149500Y-164878711D01*
X141149500Y-165121288D01*
X141181161Y-165361785D01*
X141243947Y-165596104D01*
X141336773Y-165820205D01*
X141336776Y-165820212D01*
X141458064Y-166030289D01*
X141458066Y-166030292D01*
X141458067Y-166030293D01*
X141605733Y-166222736D01*
X141605739Y-166222743D01*
X141777256Y-166394260D01*
X141777262Y-166394265D01*
X141969711Y-166541936D01*
X142179788Y-166663224D01*
X142403900Y-166756054D01*
X142638211Y-166818838D01*
X142818586Y-166842584D01*
X142878711Y-166850500D01*
X142878712Y-166850500D01*
X143121289Y-166850500D01*
X143169388Y-166844167D01*
X143361789Y-166818838D01*
X143596100Y-166756054D01*
X143820212Y-166663224D01*
X144030289Y-166541936D01*
X144222738Y-166394265D01*
X144394265Y-166222738D01*
X144541936Y-166030289D01*
X144663224Y-165820212D01*
X144756054Y-165596100D01*
X144818838Y-165361789D01*
X144850500Y-165121288D01*
X144850500Y-164878712D01*
X144850500Y-164878711D01*
X185149500Y-164878711D01*
X185149500Y-165121288D01*
X185181161Y-165361785D01*
X185243947Y-165596104D01*
X185336773Y-165820205D01*
X185336776Y-165820212D01*
X185458064Y-166030289D01*
X185458066Y-166030292D01*
X185458067Y-166030293D01*
X185605733Y-166222736D01*
X185605739Y-166222743D01*
X185777256Y-166394260D01*
X185777262Y-166394265D01*
X185969711Y-166541936D01*
X186179788Y-166663224D01*
X186403900Y-166756054D01*
X186638211Y-166818838D01*
X186818586Y-166842584D01*
X186878711Y-166850500D01*
X186878712Y-166850500D01*
X187121289Y-166850500D01*
X187169388Y-166844167D01*
X187361789Y-166818838D01*
X187596100Y-166756054D01*
X187820212Y-166663224D01*
X188030289Y-166541936D01*
X188222738Y-166394265D01*
X188394265Y-166222738D01*
X188541936Y-166030289D01*
X188663224Y-165820212D01*
X188756054Y-165596100D01*
X188818838Y-165361789D01*
X188850500Y-165121288D01*
X188850500Y-164878712D01*
X188818838Y-164638211D01*
X188756054Y-164403900D01*
X188663224Y-164179788D01*
X188541936Y-163969711D01*
X188394265Y-163777262D01*
X188394260Y-163777256D01*
X188222743Y-163605739D01*
X188222736Y-163605733D01*
X188030293Y-163458067D01*
X188030292Y-163458066D01*
X188030289Y-163458064D01*
X187820212Y-163336776D01*
X187820205Y-163336773D01*
X187596104Y-163243947D01*
X187361785Y-163181161D01*
X187121289Y-163149500D01*
X187121288Y-163149500D01*
X186878712Y-163149500D01*
X186878711Y-163149500D01*
X186638214Y-163181161D01*
X186403895Y-163243947D01*
X186179794Y-163336773D01*
X186179785Y-163336777D01*
X185969706Y-163458067D01*
X185777263Y-163605733D01*
X185777256Y-163605739D01*
X185605739Y-163777256D01*
X185605733Y-163777263D01*
X185458067Y-163969706D01*
X185336777Y-164179785D01*
X185336773Y-164179794D01*
X185243947Y-164403895D01*
X185181161Y-164638214D01*
X185149500Y-164878711D01*
X144850500Y-164878711D01*
X144818838Y-164638211D01*
X144756054Y-164403900D01*
X144663224Y-164179788D01*
X144541936Y-163969711D01*
X144394265Y-163777262D01*
X144394260Y-163777256D01*
X144222743Y-163605739D01*
X144222736Y-163605733D01*
X144030293Y-163458067D01*
X144030292Y-163458066D01*
X144030289Y-163458064D01*
X143820212Y-163336776D01*
X143820205Y-163336773D01*
X143596104Y-163243947D01*
X143361785Y-163181161D01*
X143121289Y-163149500D01*
X143121288Y-163149500D01*
X142878712Y-163149500D01*
X142878711Y-163149500D01*
X142638214Y-163181161D01*
X142403895Y-163243947D01*
X142179794Y-163336773D01*
X142179785Y-163336777D01*
X141969706Y-163458067D01*
X141777263Y-163605733D01*
X141777256Y-163605739D01*
X141605739Y-163777256D01*
X141605733Y-163777263D01*
X141458067Y-163969706D01*
X141336777Y-164179785D01*
X141336773Y-164179794D01*
X141243947Y-164403895D01*
X141181161Y-164638214D01*
X141149500Y-164878711D01*
X136500500Y-164878711D01*
X136500500Y-160624500D01*
X136520185Y-160557461D01*
X136572989Y-160511706D01*
X136624500Y-160500500D01*
X193375500Y-160500500D01*
X193442539Y-160520185D01*
G37*
%TD.AperFunction*%
%TA.AperFunction,Conductor*%
G36*
X77442539Y-90520185D02*
G01*
X77488294Y-90572989D01*
X77499500Y-90624500D01*
X77499500Y-159375500D01*
X77479815Y-159442539D01*
X77427011Y-159488294D01*
X77375500Y-159499500D01*
X20624500Y-159499500D01*
X20557461Y-159479815D01*
X20511706Y-159427011D01*
X20500500Y-159375500D01*
X20500500Y-138878711D01*
X25149500Y-138878711D01*
X25149500Y-139121288D01*
X25181161Y-139361785D01*
X25243947Y-139596104D01*
X25336773Y-139820205D01*
X25336776Y-139820212D01*
X25458064Y-140030289D01*
X25458066Y-140030292D01*
X25458067Y-140030293D01*
X25605733Y-140222736D01*
X25605739Y-140222743D01*
X25777256Y-140394260D01*
X25777262Y-140394265D01*
X25969711Y-140541936D01*
X26179788Y-140663224D01*
X26403900Y-140756054D01*
X26638211Y-140818838D01*
X26818586Y-140842584D01*
X26878711Y-140850500D01*
X26878712Y-140850500D01*
X27121289Y-140850500D01*
X27169388Y-140844167D01*
X27361789Y-140818838D01*
X27596100Y-140756054D01*
X27820212Y-140663224D01*
X28030289Y-140541936D01*
X28222738Y-140394265D01*
X28394265Y-140222738D01*
X28541936Y-140030289D01*
X28663224Y-139820212D01*
X28756054Y-139596100D01*
X28818838Y-139361789D01*
X28850500Y-139121288D01*
X28850500Y-138878712D01*
X28850500Y-138878711D01*
X69149500Y-138878711D01*
X69149500Y-139121288D01*
X69181161Y-139361785D01*
X69243947Y-139596104D01*
X69336773Y-139820205D01*
X69336776Y-139820212D01*
X69458064Y-140030289D01*
X69458066Y-140030292D01*
X69458067Y-140030293D01*
X69605733Y-140222736D01*
X69605739Y-140222743D01*
X69777256Y-140394260D01*
X69777262Y-140394265D01*
X69969711Y-140541936D01*
X70179788Y-140663224D01*
X70403900Y-140756054D01*
X70638211Y-140818838D01*
X70818586Y-140842584D01*
X70878711Y-140850500D01*
X70878712Y-140850500D01*
X71121289Y-140850500D01*
X71169388Y-140844167D01*
X71361789Y-140818838D01*
X71596100Y-140756054D01*
X71820212Y-140663224D01*
X72030289Y-140541936D01*
X72222738Y-140394265D01*
X72394265Y-140222738D01*
X72541936Y-140030289D01*
X72663224Y-139820212D01*
X72756054Y-139596100D01*
X72818838Y-139361789D01*
X72850500Y-139121288D01*
X72850500Y-138878712D01*
X72818838Y-138638211D01*
X72756054Y-138403900D01*
X72663224Y-138179788D01*
X72541936Y-137969711D01*
X72394265Y-137777262D01*
X72394260Y-137777256D01*
X72222743Y-137605739D01*
X72222736Y-137605733D01*
X72030293Y-137458067D01*
X72030292Y-137458066D01*
X72030289Y-137458064D01*
X71820212Y-137336776D01*
X71820205Y-137336773D01*
X71596104Y-137243947D01*
X71361785Y-137181161D01*
X71121289Y-137149500D01*
X71121288Y-137149500D01*
X70878712Y-137149500D01*
X70878711Y-137149500D01*
X70638214Y-137181161D01*
X70403895Y-137243947D01*
X70179794Y-137336773D01*
X70179785Y-137336777D01*
X69969706Y-137458067D01*
X69777263Y-137605733D01*
X69777256Y-137605739D01*
X69605739Y-137777256D01*
X69605733Y-137777263D01*
X69458067Y-137969706D01*
X69336777Y-138179785D01*
X69336773Y-138179794D01*
X69243947Y-138403895D01*
X69181161Y-138638214D01*
X69149500Y-138878711D01*
X28850500Y-138878711D01*
X28818838Y-138638211D01*
X28756054Y-138403900D01*
X28663224Y-138179788D01*
X28541936Y-137969711D01*
X28394265Y-137777262D01*
X28394260Y-137777256D01*
X28222743Y-137605739D01*
X28222736Y-137605733D01*
X28030293Y-137458067D01*
X28030292Y-137458066D01*
X28030289Y-137458064D01*
X27820212Y-137336776D01*
X27820205Y-137336773D01*
X27596104Y-137243947D01*
X27361785Y-137181161D01*
X27121289Y-137149500D01*
X27121288Y-137149500D01*
X26878712Y-137149500D01*
X26878711Y-137149500D01*
X26638214Y-137181161D01*
X26403895Y-137243947D01*
X26179794Y-137336773D01*
X26179785Y-137336777D01*
X25969706Y-137458067D01*
X25777263Y-137605733D01*
X25777256Y-137605739D01*
X25605739Y-137777256D01*
X25605733Y-137777263D01*
X25458067Y-137969706D01*
X25336777Y-138179785D01*
X25336773Y-138179794D01*
X25243947Y-138403895D01*
X25181161Y-138638214D01*
X25149500Y-138878711D01*
X20500500Y-138878711D01*
X20500500Y-94878711D01*
X25149500Y-94878711D01*
X25149500Y-95121288D01*
X25181161Y-95361785D01*
X25243947Y-95596104D01*
X25336773Y-95820205D01*
X25336776Y-95820212D01*
X25458064Y-96030289D01*
X25458066Y-96030292D01*
X25458067Y-96030293D01*
X25605733Y-96222736D01*
X25605739Y-96222743D01*
X25777256Y-96394260D01*
X25777262Y-96394265D01*
X25969711Y-96541936D01*
X26179788Y-96663224D01*
X26403900Y-96756054D01*
X26638211Y-96818838D01*
X26818586Y-96842584D01*
X26878711Y-96850500D01*
X26878712Y-96850500D01*
X27121289Y-96850500D01*
X27169388Y-96844167D01*
X27361789Y-96818838D01*
X27596100Y-96756054D01*
X27820212Y-96663224D01*
X28030289Y-96541936D01*
X28222738Y-96394265D01*
X28394265Y-96222738D01*
X28541936Y-96030289D01*
X28663224Y-95820212D01*
X28756054Y-95596100D01*
X28818838Y-95361789D01*
X28850500Y-95121288D01*
X28850500Y-94878712D01*
X28850500Y-94878711D01*
X69149500Y-94878711D01*
X69149500Y-95121288D01*
X69181161Y-95361785D01*
X69243947Y-95596104D01*
X69336773Y-95820205D01*
X69336776Y-95820212D01*
X69458064Y-96030289D01*
X69458066Y-96030292D01*
X69458067Y-96030293D01*
X69605733Y-96222736D01*
X69605739Y-96222743D01*
X69777256Y-96394260D01*
X69777262Y-96394265D01*
X69969711Y-96541936D01*
X70179788Y-96663224D01*
X70403900Y-96756054D01*
X70638211Y-96818838D01*
X70818586Y-96842584D01*
X70878711Y-96850500D01*
X70878712Y-96850500D01*
X71121289Y-96850500D01*
X71169388Y-96844167D01*
X71361789Y-96818838D01*
X71596100Y-96756054D01*
X71820212Y-96663224D01*
X72030289Y-96541936D01*
X72222738Y-96394265D01*
X72394265Y-96222738D01*
X72541936Y-96030289D01*
X72663224Y-95820212D01*
X72756054Y-95596100D01*
X72818838Y-95361789D01*
X72850500Y-95121288D01*
X72850500Y-94878712D01*
X72818838Y-94638211D01*
X72756054Y-94403900D01*
X72663224Y-94179788D01*
X72541936Y-93969711D01*
X72394265Y-93777262D01*
X72394260Y-93777256D01*
X72222743Y-93605739D01*
X72222736Y-93605733D01*
X72030293Y-93458067D01*
X72030292Y-93458066D01*
X72030289Y-93458064D01*
X71820212Y-93336776D01*
X71820205Y-93336773D01*
X71596104Y-93243947D01*
X71361785Y-93181161D01*
X71121289Y-93149500D01*
X71121288Y-93149500D01*
X70878712Y-93149500D01*
X70878711Y-93149500D01*
X70638214Y-93181161D01*
X70403895Y-93243947D01*
X70179794Y-93336773D01*
X70179785Y-93336777D01*
X69969706Y-93458067D01*
X69777263Y-93605733D01*
X69777256Y-93605739D01*
X69605739Y-93777256D01*
X69605733Y-93777263D01*
X69458067Y-93969706D01*
X69336777Y-94179785D01*
X69336773Y-94179794D01*
X69243947Y-94403895D01*
X69181161Y-94638214D01*
X69149500Y-94878711D01*
X28850500Y-94878711D01*
X28818838Y-94638211D01*
X28756054Y-94403900D01*
X28663224Y-94179788D01*
X28541936Y-93969711D01*
X28394265Y-93777262D01*
X28394260Y-93777256D01*
X28222743Y-93605739D01*
X28222736Y-93605733D01*
X28030293Y-93458067D01*
X28030292Y-93458066D01*
X28030289Y-93458064D01*
X27820212Y-93336776D01*
X27820205Y-93336773D01*
X27596104Y-93243947D01*
X27361785Y-93181161D01*
X27121289Y-93149500D01*
X27121288Y-93149500D01*
X26878712Y-93149500D01*
X26878711Y-93149500D01*
X26638214Y-93181161D01*
X26403895Y-93243947D01*
X26179794Y-93336773D01*
X26179785Y-93336777D01*
X25969706Y-93458067D01*
X25777263Y-93605733D01*
X25777256Y-93605739D01*
X25605739Y-93777256D01*
X25605733Y-93777263D01*
X25458067Y-93969706D01*
X25336777Y-94179785D01*
X25336773Y-94179794D01*
X25243947Y-94403895D01*
X25181161Y-94638214D01*
X25149500Y-94878711D01*
X20500500Y-94878711D01*
X20500500Y-90624500D01*
X20520185Y-90557461D01*
X20572989Y-90511706D01*
X20624500Y-90500500D01*
X77375500Y-90500500D01*
X77442539Y-90520185D01*
G37*
%TD.AperFunction*%
%TA.AperFunction,Conductor*%
G36*
X135442539Y-90520185D02*
G01*
X135488294Y-90572989D01*
X135499500Y-90624500D01*
X135499500Y-159375500D01*
X135479815Y-159442539D01*
X135427011Y-159488294D01*
X135375500Y-159499500D01*
X78624500Y-159499500D01*
X78557461Y-159479815D01*
X78511706Y-159427011D01*
X78500500Y-159375500D01*
X78500500Y-138878711D01*
X83149500Y-138878711D01*
X83149500Y-139121288D01*
X83181161Y-139361785D01*
X83243947Y-139596104D01*
X83336773Y-139820205D01*
X83336776Y-139820212D01*
X83458064Y-140030289D01*
X83458066Y-140030292D01*
X83458067Y-140030293D01*
X83605733Y-140222736D01*
X83605739Y-140222743D01*
X83777256Y-140394260D01*
X83777262Y-140394265D01*
X83969711Y-140541936D01*
X84179788Y-140663224D01*
X84403900Y-140756054D01*
X84638211Y-140818838D01*
X84818586Y-140842584D01*
X84878711Y-140850500D01*
X84878712Y-140850500D01*
X85121289Y-140850500D01*
X85169388Y-140844167D01*
X85361789Y-140818838D01*
X85596100Y-140756054D01*
X85820212Y-140663224D01*
X86030289Y-140541936D01*
X86222738Y-140394265D01*
X86394265Y-140222738D01*
X86541936Y-140030289D01*
X86663224Y-139820212D01*
X86756054Y-139596100D01*
X86818838Y-139361789D01*
X86850500Y-139121288D01*
X86850500Y-138878712D01*
X86850500Y-138878711D01*
X127149500Y-138878711D01*
X127149500Y-139121288D01*
X127181161Y-139361785D01*
X127243947Y-139596104D01*
X127336773Y-139820205D01*
X127336776Y-139820212D01*
X127458064Y-140030289D01*
X127458066Y-140030292D01*
X127458067Y-140030293D01*
X127605733Y-140222736D01*
X127605739Y-140222743D01*
X127777256Y-140394260D01*
X127777262Y-140394265D01*
X127969711Y-140541936D01*
X128179788Y-140663224D01*
X128403900Y-140756054D01*
X128638211Y-140818838D01*
X128818586Y-140842584D01*
X128878711Y-140850500D01*
X128878712Y-140850500D01*
X129121289Y-140850500D01*
X129169388Y-140844167D01*
X129361789Y-140818838D01*
X129596100Y-140756054D01*
X129820212Y-140663224D01*
X130030289Y-140541936D01*
X130222738Y-140394265D01*
X130394265Y-140222738D01*
X130541936Y-140030289D01*
X130663224Y-139820212D01*
X130756054Y-139596100D01*
X130818838Y-139361789D01*
X130850500Y-139121288D01*
X130850500Y-138878712D01*
X130818838Y-138638211D01*
X130756054Y-138403900D01*
X130663224Y-138179788D01*
X130541936Y-137969711D01*
X130394265Y-137777262D01*
X130394260Y-137777256D01*
X130222743Y-137605739D01*
X130222736Y-137605733D01*
X130030293Y-137458067D01*
X130030292Y-137458066D01*
X130030289Y-137458064D01*
X129820212Y-137336776D01*
X129820205Y-137336773D01*
X129596104Y-137243947D01*
X129361785Y-137181161D01*
X129121289Y-137149500D01*
X129121288Y-137149500D01*
X128878712Y-137149500D01*
X128878711Y-137149500D01*
X128638214Y-137181161D01*
X128403895Y-137243947D01*
X128179794Y-137336773D01*
X128179785Y-137336777D01*
X127969706Y-137458067D01*
X127777263Y-137605733D01*
X127777256Y-137605739D01*
X127605739Y-137777256D01*
X127605733Y-137777263D01*
X127458067Y-137969706D01*
X127336777Y-138179785D01*
X127336773Y-138179794D01*
X127243947Y-138403895D01*
X127181161Y-138638214D01*
X127149500Y-138878711D01*
X86850500Y-138878711D01*
X86818838Y-138638211D01*
X86756054Y-138403900D01*
X86663224Y-138179788D01*
X86541936Y-137969711D01*
X86394265Y-137777262D01*
X86394260Y-137777256D01*
X86222743Y-137605739D01*
X86222736Y-137605733D01*
X86030293Y-137458067D01*
X86030292Y-137458066D01*
X86030289Y-137458064D01*
X85820212Y-137336776D01*
X85820205Y-137336773D01*
X85596104Y-137243947D01*
X85361785Y-137181161D01*
X85121289Y-137149500D01*
X85121288Y-137149500D01*
X84878712Y-137149500D01*
X84878711Y-137149500D01*
X84638214Y-137181161D01*
X84403895Y-137243947D01*
X84179794Y-137336773D01*
X84179785Y-137336777D01*
X83969706Y-137458067D01*
X83777263Y-137605733D01*
X83777256Y-137605739D01*
X83605739Y-137777256D01*
X83605733Y-137777263D01*
X83458067Y-137969706D01*
X83336777Y-138179785D01*
X83336773Y-138179794D01*
X83243947Y-138403895D01*
X83181161Y-138638214D01*
X83149500Y-138878711D01*
X78500500Y-138878711D01*
X78500500Y-94878711D01*
X83149500Y-94878711D01*
X83149500Y-95121288D01*
X83181161Y-95361785D01*
X83243947Y-95596104D01*
X83336773Y-95820205D01*
X83336776Y-95820212D01*
X83458064Y-96030289D01*
X83458066Y-96030292D01*
X83458067Y-96030293D01*
X83605733Y-96222736D01*
X83605739Y-96222743D01*
X83777256Y-96394260D01*
X83777262Y-96394265D01*
X83969711Y-96541936D01*
X84179788Y-96663224D01*
X84403900Y-96756054D01*
X84638211Y-96818838D01*
X84818586Y-96842584D01*
X84878711Y-96850500D01*
X84878712Y-96850500D01*
X85121289Y-96850500D01*
X85169388Y-96844167D01*
X85361789Y-96818838D01*
X85596100Y-96756054D01*
X85820212Y-96663224D01*
X86030289Y-96541936D01*
X86222738Y-96394265D01*
X86394265Y-96222738D01*
X86541936Y-96030289D01*
X86663224Y-95820212D01*
X86756054Y-95596100D01*
X86818838Y-95361789D01*
X86850500Y-95121288D01*
X86850500Y-94878712D01*
X86850500Y-94878711D01*
X127149500Y-94878711D01*
X127149500Y-95121288D01*
X127181161Y-95361785D01*
X127243947Y-95596104D01*
X127336773Y-95820205D01*
X127336776Y-95820212D01*
X127458064Y-96030289D01*
X127458066Y-96030292D01*
X127458067Y-96030293D01*
X127605733Y-96222736D01*
X127605739Y-96222743D01*
X127777256Y-96394260D01*
X127777262Y-96394265D01*
X127969711Y-96541936D01*
X128179788Y-96663224D01*
X128403900Y-96756054D01*
X128638211Y-96818838D01*
X128818586Y-96842584D01*
X128878711Y-96850500D01*
X128878712Y-96850500D01*
X129121289Y-96850500D01*
X129169388Y-96844167D01*
X129361789Y-96818838D01*
X129596100Y-96756054D01*
X129820212Y-96663224D01*
X130030289Y-96541936D01*
X130222738Y-96394265D01*
X130394265Y-96222738D01*
X130541936Y-96030289D01*
X130663224Y-95820212D01*
X130756054Y-95596100D01*
X130818838Y-95361789D01*
X130850500Y-95121288D01*
X130850500Y-94878712D01*
X130818838Y-94638211D01*
X130756054Y-94403900D01*
X130663224Y-94179788D01*
X130541936Y-93969711D01*
X130394265Y-93777262D01*
X130394260Y-93777256D01*
X130222743Y-93605739D01*
X130222736Y-93605733D01*
X130030293Y-93458067D01*
X130030292Y-93458066D01*
X130030289Y-93458064D01*
X129820212Y-93336776D01*
X129820205Y-93336773D01*
X129596104Y-93243947D01*
X129361785Y-93181161D01*
X129121289Y-93149500D01*
X129121288Y-93149500D01*
X128878712Y-93149500D01*
X128878711Y-93149500D01*
X128638214Y-93181161D01*
X128403895Y-93243947D01*
X128179794Y-93336773D01*
X128179785Y-93336777D01*
X127969706Y-93458067D01*
X127777263Y-93605733D01*
X127777256Y-93605739D01*
X127605739Y-93777256D01*
X127605733Y-93777263D01*
X127458067Y-93969706D01*
X127336777Y-94179785D01*
X127336773Y-94179794D01*
X127243947Y-94403895D01*
X127181161Y-94638214D01*
X127149500Y-94878711D01*
X86850500Y-94878711D01*
X86818838Y-94638211D01*
X86756054Y-94403900D01*
X86663224Y-94179788D01*
X86541936Y-93969711D01*
X86394265Y-93777262D01*
X86394260Y-93777256D01*
X86222743Y-93605739D01*
X86222736Y-93605733D01*
X86030293Y-93458067D01*
X86030292Y-93458066D01*
X86030289Y-93458064D01*
X85820212Y-93336776D01*
X85820205Y-93336773D01*
X85596104Y-93243947D01*
X85361785Y-93181161D01*
X85121289Y-93149500D01*
X85121288Y-93149500D01*
X84878712Y-93149500D01*
X84878711Y-93149500D01*
X84638214Y-93181161D01*
X84403895Y-93243947D01*
X84179794Y-93336773D01*
X84179785Y-93336777D01*
X83969706Y-93458067D01*
X83777263Y-93605733D01*
X83777256Y-93605739D01*
X83605739Y-93777256D01*
X83605733Y-93777263D01*
X83458067Y-93969706D01*
X83336777Y-94179785D01*
X83336773Y-94179794D01*
X83243947Y-94403895D01*
X83181161Y-94638214D01*
X83149500Y-94878711D01*
X78500500Y-94878711D01*
X78500500Y-90624500D01*
X78520185Y-90557461D01*
X78572989Y-90511706D01*
X78624500Y-90500500D01*
X135375500Y-90500500D01*
X135442539Y-90520185D01*
G37*
%TD.AperFunction*%
%TA.AperFunction,Conductor*%
G36*
X193442539Y-90520185D02*
G01*
X193488294Y-90572989D01*
X193499500Y-90624500D01*
X193499500Y-159375500D01*
X193479815Y-159442539D01*
X193427011Y-159488294D01*
X193375500Y-159499500D01*
X136624500Y-159499500D01*
X136557461Y-159479815D01*
X136511706Y-159427011D01*
X136500500Y-159375500D01*
X136500500Y-138878711D01*
X141149500Y-138878711D01*
X141149500Y-139121288D01*
X141181161Y-139361785D01*
X141243947Y-139596104D01*
X141336773Y-139820205D01*
X141336776Y-139820212D01*
X141458064Y-140030289D01*
X141458066Y-140030292D01*
X141458067Y-140030293D01*
X141605733Y-140222736D01*
X141605739Y-140222743D01*
X141777256Y-140394260D01*
X141777262Y-140394265D01*
X141969711Y-140541936D01*
X142179788Y-140663224D01*
X142403900Y-140756054D01*
X142638211Y-140818838D01*
X142818586Y-140842584D01*
X142878711Y-140850500D01*
X142878712Y-140850500D01*
X143121289Y-140850500D01*
X143169388Y-140844167D01*
X143361789Y-140818838D01*
X143596100Y-140756054D01*
X143820212Y-140663224D01*
X144030289Y-140541936D01*
X144222738Y-140394265D01*
X144394265Y-140222738D01*
X144541936Y-140030289D01*
X144663224Y-139820212D01*
X144756054Y-139596100D01*
X144818838Y-139361789D01*
X144850500Y-139121288D01*
X144850500Y-138878712D01*
X144850500Y-138878711D01*
X185149500Y-138878711D01*
X185149500Y-139121288D01*
X185181161Y-139361785D01*
X185243947Y-139596104D01*
X185336773Y-139820205D01*
X185336776Y-139820212D01*
X185458064Y-140030289D01*
X185458066Y-140030292D01*
X185458067Y-140030293D01*
X185605733Y-140222736D01*
X185605739Y-140222743D01*
X185777256Y-140394260D01*
X185777262Y-140394265D01*
X185969711Y-140541936D01*
X186179788Y-140663224D01*
X186403900Y-140756054D01*
X186638211Y-140818838D01*
X186818586Y-140842584D01*
X186878711Y-140850500D01*
X186878712Y-140850500D01*
X187121289Y-140850500D01*
X187169388Y-140844167D01*
X187361789Y-140818838D01*
X187596100Y-140756054D01*
X187820212Y-140663224D01*
X188030289Y-140541936D01*
X188222738Y-140394265D01*
X188394265Y-140222738D01*
X188541936Y-140030289D01*
X188663224Y-139820212D01*
X188756054Y-139596100D01*
X188818838Y-139361789D01*
X188850500Y-139121288D01*
X188850500Y-138878712D01*
X188818838Y-138638211D01*
X188756054Y-138403900D01*
X188663224Y-138179788D01*
X188541936Y-137969711D01*
X188394265Y-137777262D01*
X188394260Y-137777256D01*
X188222743Y-137605739D01*
X188222736Y-137605733D01*
X188030293Y-137458067D01*
X188030292Y-137458066D01*
X188030289Y-137458064D01*
X187820212Y-137336776D01*
X187820205Y-137336773D01*
X187596104Y-137243947D01*
X187361785Y-137181161D01*
X187121289Y-137149500D01*
X187121288Y-137149500D01*
X186878712Y-137149500D01*
X186878711Y-137149500D01*
X186638214Y-137181161D01*
X186403895Y-137243947D01*
X186179794Y-137336773D01*
X186179785Y-137336777D01*
X185969706Y-137458067D01*
X185777263Y-137605733D01*
X185777256Y-137605739D01*
X185605739Y-137777256D01*
X185605733Y-137777263D01*
X185458067Y-137969706D01*
X185336777Y-138179785D01*
X185336773Y-138179794D01*
X185243947Y-138403895D01*
X185181161Y-138638214D01*
X185149500Y-138878711D01*
X144850500Y-138878711D01*
X144818838Y-138638211D01*
X144756054Y-138403900D01*
X144663224Y-138179788D01*
X144541936Y-137969711D01*
X144394265Y-137777262D01*
X144394260Y-137777256D01*
X144222743Y-137605739D01*
X144222736Y-137605733D01*
X144030293Y-137458067D01*
X144030292Y-137458066D01*
X144030289Y-137458064D01*
X143820212Y-137336776D01*
X143820205Y-137336773D01*
X143596104Y-137243947D01*
X143361785Y-137181161D01*
X143121289Y-137149500D01*
X143121288Y-137149500D01*
X142878712Y-137149500D01*
X142878711Y-137149500D01*
X142638214Y-137181161D01*
X142403895Y-137243947D01*
X142179794Y-137336773D01*
X142179785Y-137336777D01*
X141969706Y-137458067D01*
X141777263Y-137605733D01*
X141777256Y-137605739D01*
X141605739Y-137777256D01*
X141605733Y-137777263D01*
X141458067Y-137969706D01*
X141336777Y-138179785D01*
X141336773Y-138179794D01*
X141243947Y-138403895D01*
X141181161Y-138638214D01*
X141149500Y-138878711D01*
X136500500Y-138878711D01*
X136500500Y-94878711D01*
X141149500Y-94878711D01*
X141149500Y-95121288D01*
X141181161Y-95361785D01*
X141243947Y-95596104D01*
X141336773Y-95820205D01*
X141336776Y-95820212D01*
X141458064Y-96030289D01*
X141458066Y-96030292D01*
X141458067Y-96030293D01*
X141605733Y-96222736D01*
X141605739Y-96222743D01*
X141777256Y-96394260D01*
X141777262Y-96394265D01*
X141969711Y-96541936D01*
X142179788Y-96663224D01*
X142403900Y-96756054D01*
X142638211Y-96818838D01*
X142818586Y-96842584D01*
X142878711Y-96850500D01*
X142878712Y-96850500D01*
X143121289Y-96850500D01*
X143169388Y-96844167D01*
X143361789Y-96818838D01*
X143596100Y-96756054D01*
X143820212Y-96663224D01*
X144030289Y-96541936D01*
X144222738Y-96394265D01*
X144394265Y-96222738D01*
X144541936Y-96030289D01*
X144663224Y-95820212D01*
X144756054Y-95596100D01*
X144818838Y-95361789D01*
X144850500Y-95121288D01*
X144850500Y-94878712D01*
X144850500Y-94878711D01*
X185149500Y-94878711D01*
X185149500Y-95121288D01*
X185181161Y-95361785D01*
X185243947Y-95596104D01*
X185336773Y-95820205D01*
X185336776Y-95820212D01*
X185458064Y-96030289D01*
X185458066Y-96030292D01*
X185458067Y-96030293D01*
X185605733Y-96222736D01*
X185605739Y-96222743D01*
X185777256Y-96394260D01*
X185777262Y-96394265D01*
X185969711Y-96541936D01*
X186179788Y-96663224D01*
X186403900Y-96756054D01*
X186638211Y-96818838D01*
X186818586Y-96842584D01*
X186878711Y-96850500D01*
X186878712Y-96850500D01*
X187121289Y-96850500D01*
X187169388Y-96844167D01*
X187361789Y-96818838D01*
X187596100Y-96756054D01*
X187820212Y-96663224D01*
X188030289Y-96541936D01*
X188222738Y-96394265D01*
X188394265Y-96222738D01*
X188541936Y-96030289D01*
X188663224Y-95820212D01*
X188756054Y-95596100D01*
X188818838Y-95361789D01*
X188850500Y-95121288D01*
X188850500Y-94878712D01*
X188818838Y-94638211D01*
X188756054Y-94403900D01*
X188663224Y-94179788D01*
X188541936Y-93969711D01*
X188394265Y-93777262D01*
X188394260Y-93777256D01*
X188222743Y-93605739D01*
X188222736Y-93605733D01*
X188030293Y-93458067D01*
X188030292Y-93458066D01*
X188030289Y-93458064D01*
X187820212Y-93336776D01*
X187820205Y-93336773D01*
X187596104Y-93243947D01*
X187361785Y-93181161D01*
X187121289Y-93149500D01*
X187121288Y-93149500D01*
X186878712Y-93149500D01*
X186878711Y-93149500D01*
X186638214Y-93181161D01*
X186403895Y-93243947D01*
X186179794Y-93336773D01*
X186179785Y-93336777D01*
X185969706Y-93458067D01*
X185777263Y-93605733D01*
X185777256Y-93605739D01*
X185605739Y-93777256D01*
X185605733Y-93777263D01*
X185458067Y-93969706D01*
X185336777Y-94179785D01*
X185336773Y-94179794D01*
X185243947Y-94403895D01*
X185181161Y-94638214D01*
X185149500Y-94878711D01*
X144850500Y-94878711D01*
X144818838Y-94638211D01*
X144756054Y-94403900D01*
X144663224Y-94179788D01*
X144541936Y-93969711D01*
X144394265Y-93777262D01*
X144394260Y-93777256D01*
X144222743Y-93605739D01*
X144222736Y-93605733D01*
X144030293Y-93458067D01*
X144030292Y-93458066D01*
X144030289Y-93458064D01*
X143820212Y-93336776D01*
X143820205Y-93336773D01*
X143596104Y-93243947D01*
X143361785Y-93181161D01*
X143121289Y-93149500D01*
X143121288Y-93149500D01*
X142878712Y-93149500D01*
X142878711Y-93149500D01*
X142638214Y-93181161D01*
X142403895Y-93243947D01*
X142179794Y-93336773D01*
X142179785Y-93336777D01*
X141969706Y-93458067D01*
X141777263Y-93605733D01*
X141777256Y-93605739D01*
X141605739Y-93777256D01*
X141605733Y-93777263D01*
X141458067Y-93969706D01*
X141336777Y-94179785D01*
X141336773Y-94179794D01*
X141243947Y-94403895D01*
X141181161Y-94638214D01*
X141149500Y-94878711D01*
X136500500Y-94878711D01*
X136500500Y-90624500D01*
X136520185Y-90557461D01*
X136572989Y-90511706D01*
X136624500Y-90500500D01*
X193375500Y-90500500D01*
X193442539Y-90520185D01*
G37*
%TD.AperFunction*%
%TA.AperFunction,Conductor*%
G36*
X77442539Y-20520185D02*
G01*
X77488294Y-20572989D01*
X77499500Y-20624500D01*
X77499500Y-89375500D01*
X77479815Y-89442539D01*
X77427011Y-89488294D01*
X77375500Y-89499500D01*
X20624500Y-89499500D01*
X20557461Y-89479815D01*
X20511706Y-89427011D01*
X20500500Y-89375500D01*
X20500500Y-68878711D01*
X25149500Y-68878711D01*
X25149500Y-69121288D01*
X25181161Y-69361785D01*
X25243947Y-69596104D01*
X25336773Y-69820205D01*
X25336776Y-69820212D01*
X25458064Y-70030289D01*
X25458066Y-70030292D01*
X25458067Y-70030293D01*
X25605733Y-70222736D01*
X25605739Y-70222743D01*
X25777256Y-70394260D01*
X25777262Y-70394265D01*
X25969711Y-70541936D01*
X26179788Y-70663224D01*
X26403900Y-70756054D01*
X26638211Y-70818838D01*
X26818586Y-70842584D01*
X26878711Y-70850500D01*
X26878712Y-70850500D01*
X27121289Y-70850500D01*
X27169388Y-70844167D01*
X27361789Y-70818838D01*
X27596100Y-70756054D01*
X27820212Y-70663224D01*
X28030289Y-70541936D01*
X28222738Y-70394265D01*
X28394265Y-70222738D01*
X28541936Y-70030289D01*
X28663224Y-69820212D01*
X28756054Y-69596100D01*
X28818838Y-69361789D01*
X28850500Y-69121288D01*
X28850500Y-68878712D01*
X28850500Y-68878711D01*
X69149500Y-68878711D01*
X69149500Y-69121288D01*
X69181161Y-69361785D01*
X69243947Y-69596104D01*
X69336773Y-69820205D01*
X69336776Y-69820212D01*
X69458064Y-70030289D01*
X69458066Y-70030292D01*
X69458067Y-70030293D01*
X69605733Y-70222736D01*
X69605739Y-70222743D01*
X69777256Y-70394260D01*
X69777262Y-70394265D01*
X69969711Y-70541936D01*
X70179788Y-70663224D01*
X70403900Y-70756054D01*
X70638211Y-70818838D01*
X70818586Y-70842584D01*
X70878711Y-70850500D01*
X70878712Y-70850500D01*
X71121289Y-70850500D01*
X71169388Y-70844167D01*
X71361789Y-70818838D01*
X71596100Y-70756054D01*
X71820212Y-70663224D01*
X72030289Y-70541936D01*
X72222738Y-70394265D01*
X72394265Y-70222738D01*
X72541936Y-70030289D01*
X72663224Y-69820212D01*
X72756054Y-69596100D01*
X72818838Y-69361789D01*
X72850500Y-69121288D01*
X72850500Y-68878712D01*
X72818838Y-68638211D01*
X72756054Y-68403900D01*
X72663224Y-68179788D01*
X72541936Y-67969711D01*
X72394265Y-67777262D01*
X72394260Y-67777256D01*
X72222743Y-67605739D01*
X72222736Y-67605733D01*
X72030293Y-67458067D01*
X72030292Y-67458066D01*
X72030289Y-67458064D01*
X71820212Y-67336776D01*
X71820205Y-67336773D01*
X71596104Y-67243947D01*
X71361785Y-67181161D01*
X71121289Y-67149500D01*
X71121288Y-67149500D01*
X70878712Y-67149500D01*
X70878711Y-67149500D01*
X70638214Y-67181161D01*
X70403895Y-67243947D01*
X70179794Y-67336773D01*
X70179785Y-67336777D01*
X69969706Y-67458067D01*
X69777263Y-67605733D01*
X69777256Y-67605739D01*
X69605739Y-67777256D01*
X69605733Y-67777263D01*
X69458067Y-67969706D01*
X69336777Y-68179785D01*
X69336773Y-68179794D01*
X69243947Y-68403895D01*
X69181161Y-68638214D01*
X69149500Y-68878711D01*
X28850500Y-68878711D01*
X28818838Y-68638211D01*
X28756054Y-68403900D01*
X28663224Y-68179788D01*
X28541936Y-67969711D01*
X28394265Y-67777262D01*
X28394260Y-67777256D01*
X28222743Y-67605739D01*
X28222736Y-67605733D01*
X28030293Y-67458067D01*
X28030292Y-67458066D01*
X28030289Y-67458064D01*
X27820212Y-67336776D01*
X27820205Y-67336773D01*
X27596104Y-67243947D01*
X27361785Y-67181161D01*
X27121289Y-67149500D01*
X27121288Y-67149500D01*
X26878712Y-67149500D01*
X26878711Y-67149500D01*
X26638214Y-67181161D01*
X26403895Y-67243947D01*
X26179794Y-67336773D01*
X26179785Y-67336777D01*
X25969706Y-67458067D01*
X25777263Y-67605733D01*
X25777256Y-67605739D01*
X25605739Y-67777256D01*
X25605733Y-67777263D01*
X25458067Y-67969706D01*
X25336777Y-68179785D01*
X25336773Y-68179794D01*
X25243947Y-68403895D01*
X25181161Y-68638214D01*
X25149500Y-68878711D01*
X20500500Y-68878711D01*
X20500500Y-24878711D01*
X25149500Y-24878711D01*
X25149500Y-25121288D01*
X25181161Y-25361785D01*
X25243947Y-25596104D01*
X25336773Y-25820205D01*
X25336776Y-25820212D01*
X25458064Y-26030289D01*
X25458066Y-26030292D01*
X25458067Y-26030293D01*
X25605733Y-26222736D01*
X25605739Y-26222743D01*
X25777256Y-26394260D01*
X25777262Y-26394265D01*
X25969711Y-26541936D01*
X26179788Y-26663224D01*
X26403900Y-26756054D01*
X26638211Y-26818838D01*
X26818586Y-26842584D01*
X26878711Y-26850500D01*
X26878712Y-26850500D01*
X27121289Y-26850500D01*
X27169388Y-26844167D01*
X27361789Y-26818838D01*
X27596100Y-26756054D01*
X27820212Y-26663224D01*
X28030289Y-26541936D01*
X28222738Y-26394265D01*
X28394265Y-26222738D01*
X28541936Y-26030289D01*
X28663224Y-25820212D01*
X28756054Y-25596100D01*
X28818838Y-25361789D01*
X28850500Y-25121288D01*
X28850500Y-24878712D01*
X28850500Y-24878711D01*
X69149500Y-24878711D01*
X69149500Y-25121288D01*
X69181161Y-25361785D01*
X69243947Y-25596104D01*
X69336773Y-25820205D01*
X69336776Y-25820212D01*
X69458064Y-26030289D01*
X69458066Y-26030292D01*
X69458067Y-26030293D01*
X69605733Y-26222736D01*
X69605739Y-26222743D01*
X69777256Y-26394260D01*
X69777262Y-26394265D01*
X69969711Y-26541936D01*
X70179788Y-26663224D01*
X70403900Y-26756054D01*
X70638211Y-26818838D01*
X70818586Y-26842584D01*
X70878711Y-26850500D01*
X70878712Y-26850500D01*
X71121289Y-26850500D01*
X71169388Y-26844167D01*
X71361789Y-26818838D01*
X71596100Y-26756054D01*
X71820212Y-26663224D01*
X72030289Y-26541936D01*
X72222738Y-26394265D01*
X72394265Y-26222738D01*
X72541936Y-26030289D01*
X72663224Y-25820212D01*
X72756054Y-25596100D01*
X72818838Y-25361789D01*
X72850500Y-25121288D01*
X72850500Y-24878712D01*
X72818838Y-24638211D01*
X72756054Y-24403900D01*
X72663224Y-24179788D01*
X72541936Y-23969711D01*
X72394265Y-23777262D01*
X72394260Y-23777256D01*
X72222743Y-23605739D01*
X72222736Y-23605733D01*
X72030293Y-23458067D01*
X72030292Y-23458066D01*
X72030289Y-23458064D01*
X71820212Y-23336776D01*
X71820205Y-23336773D01*
X71596104Y-23243947D01*
X71361785Y-23181161D01*
X71121289Y-23149500D01*
X71121288Y-23149500D01*
X70878712Y-23149500D01*
X70878711Y-23149500D01*
X70638214Y-23181161D01*
X70403895Y-23243947D01*
X70179794Y-23336773D01*
X70179785Y-23336777D01*
X69969706Y-23458067D01*
X69777263Y-23605733D01*
X69777256Y-23605739D01*
X69605739Y-23777256D01*
X69605733Y-23777263D01*
X69458067Y-23969706D01*
X69336777Y-24179785D01*
X69336773Y-24179794D01*
X69243947Y-24403895D01*
X69181161Y-24638214D01*
X69149500Y-24878711D01*
X28850500Y-24878711D01*
X28818838Y-24638211D01*
X28756054Y-24403900D01*
X28663224Y-24179788D01*
X28541936Y-23969711D01*
X28394265Y-23777262D01*
X28394260Y-23777256D01*
X28222743Y-23605739D01*
X28222736Y-23605733D01*
X28030293Y-23458067D01*
X28030292Y-23458066D01*
X28030289Y-23458064D01*
X27820212Y-23336776D01*
X27820205Y-23336773D01*
X27596104Y-23243947D01*
X27361785Y-23181161D01*
X27121289Y-23149500D01*
X27121288Y-23149500D01*
X26878712Y-23149500D01*
X26878711Y-23149500D01*
X26638214Y-23181161D01*
X26403895Y-23243947D01*
X26179794Y-23336773D01*
X26179785Y-23336777D01*
X25969706Y-23458067D01*
X25777263Y-23605733D01*
X25777256Y-23605739D01*
X25605739Y-23777256D01*
X25605733Y-23777263D01*
X25458067Y-23969706D01*
X25336777Y-24179785D01*
X25336773Y-24179794D01*
X25243947Y-24403895D01*
X25181161Y-24638214D01*
X25149500Y-24878711D01*
X20500500Y-24878711D01*
X20500500Y-20624500D01*
X20520185Y-20557461D01*
X20572989Y-20511706D01*
X20624500Y-20500500D01*
X77375500Y-20500500D01*
X77442539Y-20520185D01*
G37*
%TD.AperFunction*%
%TA.AperFunction,Conductor*%
G36*
X135442539Y-20520185D02*
G01*
X135488294Y-20572989D01*
X135499500Y-20624500D01*
X135499500Y-89375500D01*
X135479815Y-89442539D01*
X135427011Y-89488294D01*
X135375500Y-89499500D01*
X78624500Y-89499500D01*
X78557461Y-89479815D01*
X78511706Y-89427011D01*
X78500500Y-89375500D01*
X78500500Y-68878711D01*
X83149500Y-68878711D01*
X83149500Y-69121288D01*
X83181161Y-69361785D01*
X83243947Y-69596104D01*
X83336773Y-69820205D01*
X83336776Y-69820212D01*
X83458064Y-70030289D01*
X83458066Y-70030292D01*
X83458067Y-70030293D01*
X83605733Y-70222736D01*
X83605739Y-70222743D01*
X83777256Y-70394260D01*
X83777262Y-70394265D01*
X83969711Y-70541936D01*
X84179788Y-70663224D01*
X84403900Y-70756054D01*
X84638211Y-70818838D01*
X84818586Y-70842584D01*
X84878711Y-70850500D01*
X84878712Y-70850500D01*
X85121289Y-70850500D01*
X85169388Y-70844167D01*
X85361789Y-70818838D01*
X85596100Y-70756054D01*
X85820212Y-70663224D01*
X86030289Y-70541936D01*
X86222738Y-70394265D01*
X86394265Y-70222738D01*
X86541936Y-70030289D01*
X86663224Y-69820212D01*
X86756054Y-69596100D01*
X86818838Y-69361789D01*
X86850500Y-69121288D01*
X86850500Y-68878712D01*
X86850500Y-68878711D01*
X127149500Y-68878711D01*
X127149500Y-69121288D01*
X127181161Y-69361785D01*
X127243947Y-69596104D01*
X127336773Y-69820205D01*
X127336776Y-69820212D01*
X127458064Y-70030289D01*
X127458066Y-70030292D01*
X127458067Y-70030293D01*
X127605733Y-70222736D01*
X127605739Y-70222743D01*
X127777256Y-70394260D01*
X127777262Y-70394265D01*
X127969711Y-70541936D01*
X128179788Y-70663224D01*
X128403900Y-70756054D01*
X128638211Y-70818838D01*
X128818586Y-70842584D01*
X128878711Y-70850500D01*
X128878712Y-70850500D01*
X129121289Y-70850500D01*
X129169388Y-70844167D01*
X129361789Y-70818838D01*
X129596100Y-70756054D01*
X129820212Y-70663224D01*
X130030289Y-70541936D01*
X130222738Y-70394265D01*
X130394265Y-70222738D01*
X130541936Y-70030289D01*
X130663224Y-69820212D01*
X130756054Y-69596100D01*
X130818838Y-69361789D01*
X130850500Y-69121288D01*
X130850500Y-68878712D01*
X130818838Y-68638211D01*
X130756054Y-68403900D01*
X130663224Y-68179788D01*
X130541936Y-67969711D01*
X130394265Y-67777262D01*
X130394260Y-67777256D01*
X130222743Y-67605739D01*
X130222736Y-67605733D01*
X130030293Y-67458067D01*
X130030292Y-67458066D01*
X130030289Y-67458064D01*
X129820212Y-67336776D01*
X129820205Y-67336773D01*
X129596104Y-67243947D01*
X129361785Y-67181161D01*
X129121289Y-67149500D01*
X129121288Y-67149500D01*
X128878712Y-67149500D01*
X128878711Y-67149500D01*
X128638214Y-67181161D01*
X128403895Y-67243947D01*
X128179794Y-67336773D01*
X128179785Y-67336777D01*
X127969706Y-67458067D01*
X127777263Y-67605733D01*
X127777256Y-67605739D01*
X127605739Y-67777256D01*
X127605733Y-67777263D01*
X127458067Y-67969706D01*
X127336777Y-68179785D01*
X127336773Y-68179794D01*
X127243947Y-68403895D01*
X127181161Y-68638214D01*
X127149500Y-68878711D01*
X86850500Y-68878711D01*
X86818838Y-68638211D01*
X86756054Y-68403900D01*
X86663224Y-68179788D01*
X86541936Y-67969711D01*
X86394265Y-67777262D01*
X86394260Y-67777256D01*
X86222743Y-67605739D01*
X86222736Y-67605733D01*
X86030293Y-67458067D01*
X86030292Y-67458066D01*
X86030289Y-67458064D01*
X85820212Y-67336776D01*
X85820205Y-67336773D01*
X85596104Y-67243947D01*
X85361785Y-67181161D01*
X85121289Y-67149500D01*
X85121288Y-67149500D01*
X84878712Y-67149500D01*
X84878711Y-67149500D01*
X84638214Y-67181161D01*
X84403895Y-67243947D01*
X84179794Y-67336773D01*
X84179785Y-67336777D01*
X83969706Y-67458067D01*
X83777263Y-67605733D01*
X83777256Y-67605739D01*
X83605739Y-67777256D01*
X83605733Y-67777263D01*
X83458067Y-67969706D01*
X83336777Y-68179785D01*
X83336773Y-68179794D01*
X83243947Y-68403895D01*
X83181161Y-68638214D01*
X83149500Y-68878711D01*
X78500500Y-68878711D01*
X78500500Y-24878711D01*
X83149500Y-24878711D01*
X83149500Y-25121288D01*
X83181161Y-25361785D01*
X83243947Y-25596104D01*
X83336773Y-25820205D01*
X83336776Y-25820212D01*
X83458064Y-26030289D01*
X83458066Y-26030292D01*
X83458067Y-26030293D01*
X83605733Y-26222736D01*
X83605739Y-26222743D01*
X83777256Y-26394260D01*
X83777262Y-26394265D01*
X83969711Y-26541936D01*
X84179788Y-26663224D01*
X84403900Y-26756054D01*
X84638211Y-26818838D01*
X84818586Y-26842584D01*
X84878711Y-26850500D01*
X84878712Y-26850500D01*
X85121289Y-26850500D01*
X85169388Y-26844167D01*
X85361789Y-26818838D01*
X85596100Y-26756054D01*
X85820212Y-26663224D01*
X86030289Y-26541936D01*
X86222738Y-26394265D01*
X86394265Y-26222738D01*
X86541936Y-26030289D01*
X86663224Y-25820212D01*
X86756054Y-25596100D01*
X86818838Y-25361789D01*
X86850500Y-25121288D01*
X86850500Y-24878712D01*
X86850500Y-24878711D01*
X127149500Y-24878711D01*
X127149500Y-25121288D01*
X127181161Y-25361785D01*
X127243947Y-25596104D01*
X127336773Y-25820205D01*
X127336776Y-25820212D01*
X127458064Y-26030289D01*
X127458066Y-26030292D01*
X127458067Y-26030293D01*
X127605733Y-26222736D01*
X127605739Y-26222743D01*
X127777256Y-26394260D01*
X127777262Y-26394265D01*
X127969711Y-26541936D01*
X128179788Y-26663224D01*
X128403900Y-26756054D01*
X128638211Y-26818838D01*
X128818586Y-26842584D01*
X128878711Y-26850500D01*
X128878712Y-26850500D01*
X129121289Y-26850500D01*
X129169388Y-26844167D01*
X129361789Y-26818838D01*
X129596100Y-26756054D01*
X129820212Y-26663224D01*
X130030289Y-26541936D01*
X130222738Y-26394265D01*
X130394265Y-26222738D01*
X130541936Y-26030289D01*
X130663224Y-25820212D01*
X130756054Y-25596100D01*
X130818838Y-25361789D01*
X130850500Y-25121288D01*
X130850500Y-24878712D01*
X130818838Y-24638211D01*
X130756054Y-24403900D01*
X130663224Y-24179788D01*
X130541936Y-23969711D01*
X130394265Y-23777262D01*
X130394260Y-23777256D01*
X130222743Y-23605739D01*
X130222736Y-23605733D01*
X130030293Y-23458067D01*
X130030292Y-23458066D01*
X130030289Y-23458064D01*
X129820212Y-23336776D01*
X129820205Y-23336773D01*
X129596104Y-23243947D01*
X129361785Y-23181161D01*
X129121289Y-23149500D01*
X129121288Y-23149500D01*
X128878712Y-23149500D01*
X128878711Y-23149500D01*
X128638214Y-23181161D01*
X128403895Y-23243947D01*
X128179794Y-23336773D01*
X128179785Y-23336777D01*
X127969706Y-23458067D01*
X127777263Y-23605733D01*
X127777256Y-23605739D01*
X127605739Y-23777256D01*
X127605733Y-23777263D01*
X127458067Y-23969706D01*
X127336777Y-24179785D01*
X127336773Y-24179794D01*
X127243947Y-24403895D01*
X127181161Y-24638214D01*
X127149500Y-24878711D01*
X86850500Y-24878711D01*
X86818838Y-24638211D01*
X86756054Y-24403900D01*
X86663224Y-24179788D01*
X86541936Y-23969711D01*
X86394265Y-23777262D01*
X86394260Y-23777256D01*
X86222743Y-23605739D01*
X86222736Y-23605733D01*
X86030293Y-23458067D01*
X86030292Y-23458066D01*
X86030289Y-23458064D01*
X85820212Y-23336776D01*
X85820205Y-23336773D01*
X85596104Y-23243947D01*
X85361785Y-23181161D01*
X85121289Y-23149500D01*
X85121288Y-23149500D01*
X84878712Y-23149500D01*
X84878711Y-23149500D01*
X84638214Y-23181161D01*
X84403895Y-23243947D01*
X84179794Y-23336773D01*
X84179785Y-23336777D01*
X83969706Y-23458067D01*
X83777263Y-23605733D01*
X83777256Y-23605739D01*
X83605739Y-23777256D01*
X83605733Y-23777263D01*
X83458067Y-23969706D01*
X83336777Y-24179785D01*
X83336773Y-24179794D01*
X83243947Y-24403895D01*
X83181161Y-24638214D01*
X83149500Y-24878711D01*
X78500500Y-24878711D01*
X78500500Y-20624500D01*
X78520185Y-20557461D01*
X78572989Y-20511706D01*
X78624500Y-20500500D01*
X135375500Y-20500500D01*
X135442539Y-20520185D01*
G37*
%TD.AperFunction*%
%TA.AperFunction,Conductor*%
G36*
X193442539Y-20520185D02*
G01*
X193488294Y-20572989D01*
X193499500Y-20624500D01*
X193499500Y-89375500D01*
X193479815Y-89442539D01*
X193427011Y-89488294D01*
X193375500Y-89499500D01*
X136624500Y-89499500D01*
X136557461Y-89479815D01*
X136511706Y-89427011D01*
X136500500Y-89375500D01*
X136500500Y-68878711D01*
X141149500Y-68878711D01*
X141149500Y-69121288D01*
X141181161Y-69361785D01*
X141243947Y-69596104D01*
X141336773Y-69820205D01*
X141336776Y-69820212D01*
X141458064Y-70030289D01*
X141458066Y-70030292D01*
X141458067Y-70030293D01*
X141605733Y-70222736D01*
X141605739Y-70222743D01*
X141777256Y-70394260D01*
X141777262Y-70394265D01*
X141969711Y-70541936D01*
X142179788Y-70663224D01*
X142403900Y-70756054D01*
X142638211Y-70818838D01*
X142818586Y-70842584D01*
X142878711Y-70850500D01*
X142878712Y-70850500D01*
X143121289Y-70850500D01*
X143169388Y-70844167D01*
X143361789Y-70818838D01*
X143596100Y-70756054D01*
X143820212Y-70663224D01*
X144030289Y-70541936D01*
X144222738Y-70394265D01*
X144394265Y-70222738D01*
X144541936Y-70030289D01*
X144663224Y-69820212D01*
X144756054Y-69596100D01*
X144818838Y-69361789D01*
X144850500Y-69121288D01*
X144850500Y-68878712D01*
X144850500Y-68878711D01*
X185149500Y-68878711D01*
X185149500Y-69121288D01*
X185181161Y-69361785D01*
X185243947Y-69596104D01*
X185336773Y-69820205D01*
X185336776Y-69820212D01*
X185458064Y-70030289D01*
X185458066Y-70030292D01*
X185458067Y-70030293D01*
X185605733Y-70222736D01*
X185605739Y-70222743D01*
X185777256Y-70394260D01*
X185777262Y-70394265D01*
X185969711Y-70541936D01*
X186179788Y-70663224D01*
X186403900Y-70756054D01*
X186638211Y-70818838D01*
X186818586Y-70842584D01*
X186878711Y-70850500D01*
X186878712Y-70850500D01*
X187121289Y-70850500D01*
X187169388Y-70844167D01*
X187361789Y-70818838D01*
X187596100Y-70756054D01*
X187820212Y-70663224D01*
X188030289Y-70541936D01*
X188222738Y-70394265D01*
X188394265Y-70222738D01*
X188541936Y-70030289D01*
X188663224Y-69820212D01*
X188756054Y-69596100D01*
X188818838Y-69361789D01*
X188850500Y-69121288D01*
X188850500Y-68878712D01*
X188818838Y-68638211D01*
X188756054Y-68403900D01*
X188663224Y-68179788D01*
X188541936Y-67969711D01*
X188394265Y-67777262D01*
X188394260Y-67777256D01*
X188222743Y-67605739D01*
X188222736Y-67605733D01*
X188030293Y-67458067D01*
X188030292Y-67458066D01*
X188030289Y-67458064D01*
X187820212Y-67336776D01*
X187820205Y-67336773D01*
X187596104Y-67243947D01*
X187361785Y-67181161D01*
X187121289Y-67149500D01*
X187121288Y-67149500D01*
X186878712Y-67149500D01*
X186878711Y-67149500D01*
X186638214Y-67181161D01*
X186403895Y-67243947D01*
X186179794Y-67336773D01*
X186179785Y-67336777D01*
X185969706Y-67458067D01*
X185777263Y-67605733D01*
X185777256Y-67605739D01*
X185605739Y-67777256D01*
X185605733Y-67777263D01*
X185458067Y-67969706D01*
X185336777Y-68179785D01*
X185336773Y-68179794D01*
X185243947Y-68403895D01*
X185181161Y-68638214D01*
X185149500Y-68878711D01*
X144850500Y-68878711D01*
X144818838Y-68638211D01*
X144756054Y-68403900D01*
X144663224Y-68179788D01*
X144541936Y-67969711D01*
X144394265Y-67777262D01*
X144394260Y-67777256D01*
X144222743Y-67605739D01*
X144222736Y-67605733D01*
X144030293Y-67458067D01*
X144030292Y-67458066D01*
X144030289Y-67458064D01*
X143820212Y-67336776D01*
X143820205Y-67336773D01*
X143596104Y-67243947D01*
X143361785Y-67181161D01*
X143121289Y-67149500D01*
X143121288Y-67149500D01*
X142878712Y-67149500D01*
X142878711Y-67149500D01*
X142638214Y-67181161D01*
X142403895Y-67243947D01*
X142179794Y-67336773D01*
X142179785Y-67336777D01*
X141969706Y-67458067D01*
X141777263Y-67605733D01*
X141777256Y-67605739D01*
X141605739Y-67777256D01*
X141605733Y-67777263D01*
X141458067Y-67969706D01*
X141336777Y-68179785D01*
X141336773Y-68179794D01*
X141243947Y-68403895D01*
X141181161Y-68638214D01*
X141149500Y-68878711D01*
X136500500Y-68878711D01*
X136500500Y-24878711D01*
X141149500Y-24878711D01*
X141149500Y-25121288D01*
X141181161Y-25361785D01*
X141243947Y-25596104D01*
X141336773Y-25820205D01*
X141336776Y-25820212D01*
X141458064Y-26030289D01*
X141458066Y-26030292D01*
X141458067Y-26030293D01*
X141605733Y-26222736D01*
X141605739Y-26222743D01*
X141777256Y-26394260D01*
X141777262Y-26394265D01*
X141969711Y-26541936D01*
X142179788Y-26663224D01*
X142403900Y-26756054D01*
X142638211Y-26818838D01*
X142818586Y-26842584D01*
X142878711Y-26850500D01*
X142878712Y-26850500D01*
X143121289Y-26850500D01*
X143169388Y-26844167D01*
X143361789Y-26818838D01*
X143596100Y-26756054D01*
X143820212Y-26663224D01*
X144030289Y-26541936D01*
X144222738Y-26394265D01*
X144394265Y-26222738D01*
X144541936Y-26030289D01*
X144663224Y-25820212D01*
X144756054Y-25596100D01*
X144818838Y-25361789D01*
X144850500Y-25121288D01*
X144850500Y-24878712D01*
X144850500Y-24878711D01*
X185149500Y-24878711D01*
X185149500Y-25121288D01*
X185181161Y-25361785D01*
X185243947Y-25596104D01*
X185336773Y-25820205D01*
X185336776Y-25820212D01*
X185458064Y-26030289D01*
X185458066Y-26030292D01*
X185458067Y-26030293D01*
X185605733Y-26222736D01*
X185605739Y-26222743D01*
X185777256Y-26394260D01*
X185777262Y-26394265D01*
X185969711Y-26541936D01*
X186179788Y-26663224D01*
X186403900Y-26756054D01*
X186638211Y-26818838D01*
X186818586Y-26842584D01*
X186878711Y-26850500D01*
X186878712Y-26850500D01*
X187121289Y-26850500D01*
X187169388Y-26844167D01*
X187361789Y-26818838D01*
X187596100Y-26756054D01*
X187820212Y-26663224D01*
X188030289Y-26541936D01*
X188222738Y-26394265D01*
X188394265Y-26222738D01*
X188541936Y-26030289D01*
X188663224Y-25820212D01*
X188756054Y-25596100D01*
X188818838Y-25361789D01*
X188850500Y-25121288D01*
X188850500Y-24878712D01*
X188818838Y-24638211D01*
X188756054Y-24403900D01*
X188663224Y-24179788D01*
X188541936Y-23969711D01*
X188394265Y-23777262D01*
X188394260Y-23777256D01*
X188222743Y-23605739D01*
X188222736Y-23605733D01*
X188030293Y-23458067D01*
X188030292Y-23458066D01*
X188030289Y-23458064D01*
X187820212Y-23336776D01*
X187820205Y-23336773D01*
X187596104Y-23243947D01*
X187361785Y-23181161D01*
X187121289Y-23149500D01*
X187121288Y-23149500D01*
X186878712Y-23149500D01*
X186878711Y-23149500D01*
X186638214Y-23181161D01*
X186403895Y-23243947D01*
X186179794Y-23336773D01*
X186179785Y-23336777D01*
X185969706Y-23458067D01*
X185777263Y-23605733D01*
X185777256Y-23605739D01*
X185605739Y-23777256D01*
X185605733Y-23777263D01*
X185458067Y-23969706D01*
X185336777Y-24179785D01*
X185336773Y-24179794D01*
X185243947Y-24403895D01*
X185181161Y-24638214D01*
X185149500Y-24878711D01*
X144850500Y-24878711D01*
X144818838Y-24638211D01*
X144756054Y-24403900D01*
X144663224Y-24179788D01*
X144541936Y-23969711D01*
X144394265Y-23777262D01*
X144394260Y-23777256D01*
X144222743Y-23605739D01*
X144222736Y-23605733D01*
X144030293Y-23458067D01*
X144030292Y-23458066D01*
X144030289Y-23458064D01*
X143820212Y-23336776D01*
X143820205Y-23336773D01*
X143596104Y-23243947D01*
X143361785Y-23181161D01*
X143121289Y-23149500D01*
X143121288Y-23149500D01*
X142878712Y-23149500D01*
X142878711Y-23149500D01*
X142638214Y-23181161D01*
X142403895Y-23243947D01*
X142179794Y-23336773D01*
X142179785Y-23336777D01*
X141969706Y-23458067D01*
X141777263Y-23605733D01*
X141777256Y-23605739D01*
X141605739Y-23777256D01*
X141605733Y-23777263D01*
X141458067Y-23969706D01*
X141336777Y-24179785D01*
X141336773Y-24179794D01*
X141243947Y-24403895D01*
X141181161Y-24638214D01*
X141149500Y-24878711D01*
X136500500Y-24878711D01*
X136500500Y-20624500D01*
X136520185Y-20557461D01*
X136572989Y-20511706D01*
X136624500Y-20500500D01*
X193375500Y-20500500D01*
X193442539Y-20520185D01*
G37*
%TD.AperFunction*%
%TD*%
M02*
