M48
; DRILL file KiCad 10.0.6 date 2026-09-14T21:38:57
; FORMAT={-:-/ absolute / metric / decimal}
; #@! TF.CreationDate,2026-09-14T21:38:57-04:00
; #@! TF.GenerationSoftware,Kicad,Pcbnew,10.0.6
; #@! TF.FileFunction,MixedPlating,1,2
FMAT,2
METRIC
; #@! TA.AperFunction,Plated,PTH,ViaDrill
T1C0.400
; #@! TA.AperFunction,NonPlated,NPTH,ComponentDrill
T2C3.200
%
G90
G05
T1
X45.5Y-88.0
X45.5Y-158.0
X45.5Y-228.0
X47.29Y-81.4
X47.29Y-151.4
X47.29Y-221.4
X50.67Y-81.4
X50.67Y-151.4
X50.67Y-221.4
X52.5Y-88.0
X52.5Y-158.0
X52.5Y-228.0
X103.5Y-88.0
X103.5Y-158.0
X103.5Y-228.0
X105.29Y-81.4
X105.29Y-151.4
X105.29Y-221.4
X108.67Y-81.4
X108.67Y-151.4
X108.67Y-221.4
X110.5Y-88.0
X110.5Y-158.0
X110.5Y-228.0
X161.5Y-88.0
X161.5Y-158.0
X161.5Y-228.0
X163.29Y-81.4
X163.29Y-151.4
X163.29Y-221.4
X166.67Y-81.4
X166.67Y-151.4
X166.67Y-221.4
X168.5Y-88.0
X168.5Y-158.0
X168.5Y-228.0
T2
X27.0Y-25.0
X27.0Y-69.0
X27.0Y-95.0
X27.0Y-139.0
X27.0Y-165.0
X27.0Y-209.0
X71.0Y-25.0
X71.0Y-69.0
X71.0Y-95.0
X71.0Y-139.0
X71.0Y-165.0
X71.0Y-209.0
X85.0Y-25.0
X85.0Y-69.0
X85.0Y-95.0
X85.0Y-139.0
X85.0Y-165.0
X85.0Y-209.0
X129.0Y-25.0
X129.0Y-69.0
X129.0Y-95.0
X129.0Y-139.0
X129.0Y-165.0
X129.0Y-209.0
X143.0Y-25.0
X143.0Y-69.0
X143.0Y-95.0
X143.0Y-139.0
X143.0Y-165.0
X143.0Y-209.0
X187.0Y-25.0
X187.0Y-69.0
X187.0Y-95.0
X187.0Y-139.0
X187.0Y-165.0
X187.0Y-209.0
M30
