%TF.GenerationSoftware,KiCad,Pcbnew,10.0.6*%
%TF.CreationDate,2026-09-14T21:40:11-04:00*%
%TF.ProjectId,patch_antenna_smp_rev9,70617463-685f-4616-9e74-656e6e615f73,9*%
%TF.SameCoordinates,PX1312d00PY1312d00*%
%TF.FileFunction,Copper,L1,Top*%
%TF.FilePolarity,Positive*%
%FSLAX46Y46*%
G04 Gerber Fmt 4.6, Leading zero omitted, Abs format (unit mm)*
G04 Created by KiCad (PCBNEW 10.0.6) date 2026-09-14 21:40:11*
%MOMM*%
%LPD*%
G01*
G04 APERTURE LIST*
G04 Aperture macros list*
%AMRoundRect*
0 Rectangle with rounded corners*
0 $1 Rounding radius*
0 $2 $3 $4 $5 $6 $7 $8 $9 X,Y pos of 4 corners*
0 Add a 4 corners polygon primitive as box body*
4,1,4,$2,$3,$4,$5,$6,$7,$8,$9,$2,$3,0*
0 Add four circle primitives for the rounded corners*
1,1,$1+$1,$2,$3*
1,1,$1+$1,$4,$5*
1,1,$1+$1,$6,$7*
1,1,$1+$1,$8,$9*
0 Add four rect primitives between the rounded corners*
20,1,$1+$1,$2,$3,$4,$5,0*
20,1,$1+$1,$4,$5,$6,$7,0*
20,1,$1+$1,$6,$7,$8,$9,0*
20,1,$1+$1,$8,$9,$2,$3,0*%
%AMFreePoly0*
4,1,32,1.175354,2.110354,1.175500,2.110000,1.175500,1.179300,1.175354,1.178946,1.175216,1.178849,1.072307,1.129519,0.884240,1.000302,0.721729,0.840131,0.589799,0.653958,0.492537,0.447555,0.432946,0.227290,0.412876,0.000000,0.432946,-0.227290,0.492537,-0.447555,0.589799,-0.653958,0.721729,-0.840131,0.884240,-1.000302,1.072307,-1.129519,1.175216,-1.178849,1.175472,-1.179134,
1.175500,-1.179300,1.175500,-2.110000,1.175354,-2.110354,1.175000,-2.110500,-0.395000,-2.110500,-0.395354,-2.110354,-0.395500,-2.110000,-0.395500,2.110000,-0.395354,2.110354,-0.395000,2.110500,1.175000,2.110500,1.175354,2.110354,1.175354,2.110354,$1*%
%AMFreePoly1*
4,1,32,0.435354,2.110354,0.435500,2.110000,0.435500,-2.110000,0.435354,-2.110354,0.435000,-2.110500,-1.135000,-2.110500,-1.135354,-2.110354,-1.135500,-2.110000,-1.135500,-1.179300,-1.135354,-1.178946,-1.135216,-1.178849,-1.032307,-1.129519,-0.844240,-1.000302,-0.681729,-0.840131,-0.549799,-0.653958,-0.452537,-0.447555,-0.392946,-0.227290,-0.372876,0.000000,-0.392946,0.227290,-0.452537,0.447555,
-0.549799,0.653958,-0.681729,0.840131,-0.844240,1.000302,-1.032307,1.129519,-1.135216,1.178849,-1.135472,1.179134,-1.135500,1.179300,-1.135500,2.110000,-1.135354,2.110354,-1.135000,2.110500,0.435000,2.110500,0.435354,2.110354,0.435354,2.110354,$1*%
G04 Aperture macros list end*
%TA.AperFunction,SMDPad,CuDef*%
%ADD10RoundRect,0.250000X-0.250000X0.275000X-0.250000X-0.275000X0.250000X-0.275000X0.250000X0.275000X0*%
%TD*%
%TA.AperFunction,SMDPad,CuDef*%
%ADD11RoundRect,0.250000X-0.275000X0.850000X-0.275000X-0.850000X0.275000X-0.850000X0.275000X0.850000X0*%
%TD*%
%TA.AperFunction,SMDPad,CuDef*%
%ADD12C,1.470000*%
%TD*%
%TA.AperFunction,SMDPad,CuDef*%
%ADD13FreePoly0,0.000000*%
%TD*%
%TA.AperFunction,SMDPad,CuDef*%
%ADD14FreePoly1,0.000000*%
%TD*%
%TA.AperFunction,ViaPad*%
%ADD15C,0.800000*%
%TD*%
G04 APERTURE END LIST*
D10*
%TO.P,JUD,1*%
%TO.N,RF_IN*%
X107000000Y-85975000D03*
D11*
%TO.P,JUD,2*%
%TO.N,GND*%
X108475000Y-87500000D03*
X105525000Y-87500000D03*
%TD*%
D10*
%TO.P,JUA,1*%
%TO.N,RF_IN*%
X49000000Y-85975000D03*
D11*
%TO.P,JUA,2*%
%TO.N,GND*%
X50475000Y-87500000D03*
X47525000Y-87500000D03*
%TD*%
D12*
%TO.P,JMD,1*%
%TO.N,RF_IN*%
X107000000Y-83000000D03*
D13*
%TO.P,JMD,2*%
%TO.N,GND*%
X105290000Y-83000000D03*
D14*
X108670000Y-83000000D03*
%TD*%
D10*
%TO.P,JUB,1*%
%TO.N,RF_IN*%
X49000000Y-155975000D03*
D11*
%TO.P,JUB,2*%
%TO.N,GND*%
X50475000Y-157500000D03*
X47525000Y-157500000D03*
%TD*%
D10*
%TO.P,JUC,1*%
%TO.N,RF_IN*%
X49000000Y-225975000D03*
D11*
%TO.P,JUC,2*%
%TO.N,GND*%
X50475000Y-227500000D03*
X47525000Y-227500000D03*
%TD*%
D12*
%TO.P,JMI,1*%
%TO.N,RF_IN*%
X165000000Y-223000000D03*
D13*
%TO.P,JMI,2*%
%TO.N,GND*%
X163290000Y-223000000D03*
D14*
X166670000Y-223000000D03*
%TD*%
D12*
%TO.P,JMH,1*%
%TO.N,RF_IN*%
X165000000Y-153000000D03*
D13*
%TO.P,JMH,2*%
%TO.N,GND*%
X163290000Y-153000000D03*
D14*
X166670000Y-153000000D03*
%TD*%
D12*
%TO.P,JMG,1*%
%TO.N,RF_IN*%
X165000000Y-83000000D03*
D13*
%TO.P,JMG,2*%
%TO.N,GND*%
X163290000Y-83000000D03*
D14*
X166670000Y-83000000D03*
%TD*%
D12*
%TO.P,JMA,1*%
%TO.N,RF_IN*%
X49000000Y-83000000D03*
D13*
%TO.P,JMA,2*%
%TO.N,GND*%
X47290000Y-83000000D03*
D14*
X50670000Y-83000000D03*
%TD*%
D10*
%TO.P,JUF,1*%
%TO.N,RF_IN*%
X107000000Y-225975000D03*
D11*
%TO.P,JUF,2*%
%TO.N,GND*%
X108475000Y-227500000D03*
X105525000Y-227500000D03*
%TD*%
D10*
%TO.P,JUG,1*%
%TO.N,RF_IN*%
X165000000Y-85975000D03*
D11*
%TO.P,JUG,2*%
%TO.N,GND*%
X166475000Y-87500000D03*
X163525000Y-87500000D03*
%TD*%
D10*
%TO.P,JUE,1*%
%TO.N,RF_IN*%
X107000000Y-155975000D03*
D11*
%TO.P,JUE,2*%
%TO.N,GND*%
X108475000Y-157500000D03*
X105525000Y-157500000D03*
%TD*%
D10*
%TO.P,JUH,1*%
%TO.N,RF_IN*%
X165000000Y-155975000D03*
D11*
%TO.P,JUH,2*%
%TO.N,GND*%
X166475000Y-157500000D03*
X163525000Y-157500000D03*
%TD*%
D12*
%TO.P,JMC,1*%
%TO.N,RF_IN*%
X49000000Y-223000000D03*
D13*
%TO.P,JMC,2*%
%TO.N,GND*%
X47290000Y-223000000D03*
D14*
X50670000Y-223000000D03*
%TD*%
D12*
%TO.P,JME,1*%
%TO.N,RF_IN*%
X107000000Y-153000000D03*
D13*
%TO.P,JME,2*%
%TO.N,GND*%
X105290000Y-153000000D03*
D14*
X108670000Y-153000000D03*
%TD*%
D10*
%TO.P,JUI,1*%
%TO.N,RF_IN*%
X165000000Y-225975000D03*
D11*
%TO.P,JUI,2*%
%TO.N,GND*%
X166475000Y-227500000D03*
X163525000Y-227500000D03*
%TD*%
D12*
%TO.P,JMB,1*%
%TO.N,RF_IN*%
X49000000Y-153000000D03*
D13*
%TO.P,JMB,2*%
%TO.N,GND*%
X47290000Y-153000000D03*
D14*
X50670000Y-153000000D03*
%TD*%
D12*
%TO.P,JMF,1*%
%TO.N,RF_IN*%
X107000000Y-223000000D03*
D13*
%TO.P,JMF,2*%
%TO.N,GND*%
X105290000Y-223000000D03*
D14*
X108670000Y-223000000D03*
%TD*%
D15*
%TO.N,GND*%
X50670000Y-151400000D03*
X110500000Y-88000000D03*
X47290000Y-151400000D03*
X52500000Y-88000000D03*
X45500000Y-158000000D03*
X108670000Y-221400000D03*
X163290000Y-221400000D03*
X161500000Y-228000000D03*
X103500000Y-158000000D03*
X166670000Y-151400000D03*
X45500000Y-228000000D03*
X103500000Y-88000000D03*
X47290000Y-81400000D03*
X105290000Y-151400000D03*
X161500000Y-158000000D03*
X105290000Y-81400000D03*
X108670000Y-81400000D03*
X163290000Y-81400000D03*
X168500000Y-228000000D03*
X52500000Y-158000000D03*
X52500000Y-228000000D03*
X50670000Y-81400000D03*
X166670000Y-81400000D03*
X103500000Y-228000000D03*
X166670000Y-221400000D03*
X108670000Y-151400000D03*
X168500000Y-88000000D03*
X110500000Y-228000000D03*
X47290000Y-221400000D03*
X105290000Y-221400000D03*
X168500000Y-158000000D03*
X45500000Y-88000000D03*
X163290000Y-151400000D03*
X50670000Y-221400000D03*
X161500000Y-88000000D03*
X110500000Y-158000000D03*
%TD*%
%TA.AperFunction,Conductor*%
%TO.N,GND*%
G36*
X169943039Y-226519685D02*
G01*
X169988794Y-226572489D01*
X170000000Y-226624000D01*
X170000000Y-229375500D01*
X169980315Y-229442539D01*
X169927511Y-229488294D01*
X169876000Y-229499500D01*
X166874000Y-229499500D01*
X166806961Y-229479815D01*
X166761206Y-229427011D01*
X166750000Y-229375500D01*
X166750000Y-226624000D01*
X166769685Y-226556961D01*
X166822489Y-226511206D01*
X166874000Y-226500000D01*
X169876000Y-226500000D01*
X169943039Y-226519685D01*
G37*
%TD.AperFunction*%
%TD*%
%TA.AperFunction,Conductor*%
%TO.N,RF_IN*%
G36*
X107354600Y-219701000D02*
G01*
X106645400Y-219701000D01*
X106645400Y-201721200D01*
X107354600Y-201721200D01*
X107354600Y-219701000D01*
G37*
%TD.AperFunction*%
%TD*%
%TA.AperFunction,Conductor*%
%TO.N,RF_IN*%
G36*
X183961139Y-32298485D02*
G01*
X184006894Y-32351289D01*
X184018100Y-32402800D01*
X184018100Y-61597200D01*
X183998415Y-61664239D01*
X183945611Y-61709994D01*
X183894100Y-61721200D01*
X168274000Y-61721200D01*
X168206961Y-61701515D01*
X168161206Y-61648711D01*
X168150000Y-61597200D01*
X168150000Y-51907100D01*
X166550000Y-51907100D01*
X166550000Y-61721200D01*
X163450000Y-61721200D01*
X163450000Y-51907100D01*
X161850000Y-51907100D01*
X161850000Y-61597200D01*
X161830315Y-61664239D01*
X161777511Y-61709994D01*
X161726000Y-61721200D01*
X146105900Y-61721200D01*
X146038861Y-61701515D01*
X145993106Y-61648711D01*
X145981900Y-61597200D01*
X145981900Y-32402800D01*
X146001585Y-32335761D01*
X146054389Y-32290006D01*
X146105900Y-32278800D01*
X183894100Y-32278800D01*
X183961139Y-32298485D01*
G37*
%TD.AperFunction*%
%TD*%
%TA.AperFunction,Conductor*%
%TO.N,RF_IN*%
G36*
X108550000Y-150376000D02*
G01*
X108530315Y-150443039D01*
X108477511Y-150488794D01*
X108426000Y-150500000D01*
X107300000Y-150500000D01*
X107300000Y-156376000D01*
X107280315Y-156443039D01*
X107227511Y-156488794D01*
X107176000Y-156500000D01*
X106824000Y-156500000D01*
X106756961Y-156480315D01*
X106711206Y-156427511D01*
X106700000Y-156376000D01*
X106700000Y-150500000D01*
X105574000Y-150500000D01*
X105506961Y-150480315D01*
X105461206Y-150427511D01*
X105450000Y-150376000D01*
X105450000Y-131721200D01*
X108550000Y-131721200D01*
X108550000Y-150376000D01*
G37*
%TD.AperFunction*%
%TD*%
%TA.AperFunction,Conductor*%
%TO.N,RF_IN*%
G36*
X50550000Y-80376000D02*
G01*
X50530315Y-80443039D01*
X50477511Y-80488794D01*
X50426000Y-80500000D01*
X49300000Y-80500000D01*
X49300000Y-86376000D01*
X49280315Y-86443039D01*
X49227511Y-86488794D01*
X49176000Y-86500000D01*
X48824000Y-86500000D01*
X48756961Y-86480315D01*
X48711206Y-86427511D01*
X48700000Y-86376000D01*
X48700000Y-80500000D01*
X47574000Y-80500000D01*
X47506961Y-80480315D01*
X47461206Y-80427511D01*
X47450000Y-80376000D01*
X47450000Y-61721200D01*
X50550000Y-61721200D01*
X50550000Y-80376000D01*
G37*
%TD.AperFunction*%
%TD*%
%TA.AperFunction,Conductor*%
%TO.N,GND*%
G36*
X53893106Y-226505023D02*
G01*
X53908104Y-226509427D01*
X53923094Y-226519057D01*
X53940175Y-226524067D01*
X53966855Y-226547172D01*
X53968042Y-226548541D01*
X53995518Y-226603402D01*
X53997163Y-226610960D01*
X54000000Y-226637331D01*
X54000000Y-229357670D01*
X53994975Y-229392614D01*
X53990570Y-229407612D01*
X53980939Y-229422601D01*
X53975932Y-229439675D01*
X53952827Y-229466355D01*
X53951458Y-229467542D01*
X53896597Y-229495018D01*
X53889039Y-229496663D01*
X53862668Y-229499500D01*
X50891830Y-229499500D01*
X50856889Y-229494475D01*
X50841890Y-229490070D01*
X50826902Y-229480440D01*
X50809824Y-229475432D01*
X50783144Y-229452327D01*
X50781957Y-229450958D01*
X50754477Y-229396083D01*
X50752832Y-229388521D01*
X50750000Y-229362168D01*
X50750000Y-226641829D01*
X50755023Y-226606893D01*
X50759427Y-226591895D01*
X50769057Y-226576904D01*
X50774067Y-226559824D01*
X50797172Y-226533144D01*
X50798541Y-226531957D01*
X50853420Y-226504477D01*
X50860979Y-226502833D01*
X50887332Y-226500000D01*
X53858170Y-226500000D01*
X53893106Y-226505023D01*
G37*
%TD.AperFunction*%
%TD*%
%TA.AperFunction,Conductor*%
%TO.N,RF_IN*%
G36*
X50493039Y-219720685D02*
G01*
X50538794Y-219773489D01*
X50550000Y-219825000D01*
X50550000Y-220376000D01*
X50530315Y-220443039D01*
X50477511Y-220488794D01*
X50426000Y-220500000D01*
X49300000Y-220500000D01*
X49300000Y-226376000D01*
X49280315Y-226443039D01*
X49227511Y-226488794D01*
X49176000Y-226500000D01*
X48824000Y-226500000D01*
X48756961Y-226480315D01*
X48711206Y-226427511D01*
X48700000Y-226376000D01*
X48700000Y-220500000D01*
X47574000Y-220500000D01*
X47506961Y-220480315D01*
X47461206Y-220427511D01*
X47450000Y-220376000D01*
X47450000Y-219825000D01*
X47469685Y-219757961D01*
X47522489Y-219712206D01*
X47574000Y-219701000D01*
X48645400Y-219701000D01*
X49354600Y-219701000D01*
X50426000Y-219701000D01*
X50493039Y-219720685D01*
G37*
%TD.AperFunction*%
%TD*%
%TA.AperFunction,Conductor*%
%TO.N,GND*%
G36*
X105143106Y-86505023D02*
G01*
X105158104Y-86509427D01*
X105173094Y-86519057D01*
X105190175Y-86524067D01*
X105216855Y-86547172D01*
X105218042Y-86548541D01*
X105245518Y-86603402D01*
X105247163Y-86610960D01*
X105250000Y-86637331D01*
X105250000Y-89357670D01*
X105244975Y-89392614D01*
X105240570Y-89407612D01*
X105230939Y-89422601D01*
X105225932Y-89439675D01*
X105202827Y-89466355D01*
X105201458Y-89467542D01*
X105146597Y-89495018D01*
X105139039Y-89496663D01*
X105112668Y-89499500D01*
X102141830Y-89499500D01*
X102106889Y-89494475D01*
X102091890Y-89490070D01*
X102076902Y-89480440D01*
X102059824Y-89475432D01*
X102033144Y-89452327D01*
X102031957Y-89450958D01*
X102004477Y-89396083D01*
X102002832Y-89388521D01*
X102000000Y-89362168D01*
X102000000Y-86641829D01*
X102005023Y-86606893D01*
X102009427Y-86591895D01*
X102019057Y-86576904D01*
X102024067Y-86559824D01*
X102047172Y-86533144D01*
X102048541Y-86531957D01*
X102103420Y-86504477D01*
X102110979Y-86502833D01*
X102137332Y-86500000D01*
X105108170Y-86500000D01*
X105143106Y-86505023D01*
G37*
%TD.AperFunction*%
%TD*%
%TA.AperFunction,Conductor*%
%TO.N,GND*%
G36*
X47193039Y-86519685D02*
G01*
X47238794Y-86572489D01*
X47250000Y-86624000D01*
X47250000Y-89375500D01*
X47230315Y-89442539D01*
X47177511Y-89488294D01*
X47126000Y-89499500D01*
X44124000Y-89499500D01*
X44056961Y-89479815D01*
X44011206Y-89427011D01*
X44000000Y-89375500D01*
X44000000Y-86624000D01*
X44019685Y-86556961D01*
X44072489Y-86511206D01*
X44124000Y-86500000D01*
X47126000Y-86500000D01*
X47193039Y-86519685D01*
G37*
%TD.AperFunction*%
%TD*%
%TA.AperFunction,Conductor*%
%TO.N,GND*%
G36*
X105143106Y-226505023D02*
G01*
X105158104Y-226509427D01*
X105173094Y-226519057D01*
X105190175Y-226524067D01*
X105216855Y-226547172D01*
X105218042Y-226548541D01*
X105245518Y-226603402D01*
X105247163Y-226610960D01*
X105250000Y-226637331D01*
X105250000Y-229357670D01*
X105244975Y-229392614D01*
X105240570Y-229407612D01*
X105230939Y-229422601D01*
X105225932Y-229439675D01*
X105202827Y-229466355D01*
X105201458Y-229467542D01*
X105146597Y-229495018D01*
X105139039Y-229496663D01*
X105112668Y-229499500D01*
X102141830Y-229499500D01*
X102106889Y-229494475D01*
X102091890Y-229490070D01*
X102076902Y-229480440D01*
X102059824Y-229475432D01*
X102033144Y-229452327D01*
X102031957Y-229450958D01*
X102004477Y-229396083D01*
X102002832Y-229388521D01*
X102000000Y-229362168D01*
X102000000Y-226641829D01*
X102005023Y-226606893D01*
X102009427Y-226591895D01*
X102019057Y-226576904D01*
X102024067Y-226559824D01*
X102047172Y-226533144D01*
X102048541Y-226531957D01*
X102103420Y-226504477D01*
X102110979Y-226502833D01*
X102137332Y-226500000D01*
X105108170Y-226500000D01*
X105143106Y-226505023D01*
G37*
%TD.AperFunction*%
%TD*%
%TA.AperFunction,Conductor*%
%TO.N,GND*%
G36*
X47143106Y-156505023D02*
G01*
X47158104Y-156509427D01*
X47173094Y-156519057D01*
X47190175Y-156524067D01*
X47216855Y-156547172D01*
X47218042Y-156548541D01*
X47245518Y-156603402D01*
X47247163Y-156610960D01*
X47250000Y-156637331D01*
X47250000Y-159357670D01*
X47244975Y-159392614D01*
X47240570Y-159407612D01*
X47230939Y-159422601D01*
X47225932Y-159439675D01*
X47202827Y-159466355D01*
X47201458Y-159467542D01*
X47146597Y-159495018D01*
X47139039Y-159496663D01*
X47112668Y-159499500D01*
X44141830Y-159499500D01*
X44106889Y-159494475D01*
X44091890Y-159490070D01*
X44076902Y-159480440D01*
X44059824Y-159475432D01*
X44033144Y-159452327D01*
X44031957Y-159450958D01*
X44004477Y-159396083D01*
X44002832Y-159388521D01*
X44000000Y-159362168D01*
X44000000Y-156641829D01*
X44005023Y-156606893D01*
X44009427Y-156591895D01*
X44019057Y-156576904D01*
X44024067Y-156559824D01*
X44047172Y-156533144D01*
X44048541Y-156531957D01*
X44103420Y-156504477D01*
X44110979Y-156502833D01*
X44137332Y-156500000D01*
X47108170Y-156500000D01*
X47143106Y-156505023D01*
G37*
%TD.AperFunction*%
%TD*%
%TA.AperFunction,Conductor*%
%TO.N,RF_IN*%
G36*
X49354600Y-219701000D02*
G01*
X48645400Y-219701000D01*
X48645400Y-201721200D01*
X49354600Y-201721200D01*
X49354600Y-219701000D01*
G37*
%TD.AperFunction*%
%TD*%
%TA.AperFunction,Conductor*%
%TO.N,GND*%
G36*
X169893106Y-156505023D02*
G01*
X169908104Y-156509427D01*
X169923094Y-156519057D01*
X169940175Y-156524067D01*
X169966855Y-156547172D01*
X169968042Y-156548541D01*
X169995518Y-156603402D01*
X169997163Y-156610960D01*
X170000000Y-156637331D01*
X170000000Y-159357670D01*
X169994975Y-159392614D01*
X169990570Y-159407612D01*
X169980939Y-159422601D01*
X169975932Y-159439675D01*
X169952827Y-159466355D01*
X169951458Y-159467542D01*
X169896597Y-159495018D01*
X169889039Y-159496663D01*
X169862668Y-159499500D01*
X166891830Y-159499500D01*
X166856889Y-159494475D01*
X166841890Y-159490070D01*
X166826902Y-159480440D01*
X166809824Y-159475432D01*
X166783144Y-159452327D01*
X166781957Y-159450958D01*
X166754477Y-159396083D01*
X166752832Y-159388521D01*
X166750000Y-159362168D01*
X166750000Y-156641829D01*
X166755023Y-156606893D01*
X166759427Y-156591895D01*
X166769057Y-156576904D01*
X166774067Y-156559824D01*
X166797172Y-156533144D01*
X166798541Y-156531957D01*
X166853420Y-156504477D01*
X166860979Y-156502833D01*
X166887332Y-156500000D01*
X169858170Y-156500000D01*
X169893106Y-156505023D01*
G37*
%TD.AperFunction*%
%TD*%
%TA.AperFunction,Conductor*%
%TO.N,RF_IN*%
G36*
X165354600Y-219701000D02*
G01*
X164645400Y-219701000D01*
X164645400Y-201721200D01*
X165354600Y-201721200D01*
X165354600Y-219701000D01*
G37*
%TD.AperFunction*%
%TD*%
%TA.AperFunction,Conductor*%
%TO.N,RF_IN*%
G36*
X183961139Y-102298485D02*
G01*
X184006894Y-102351289D01*
X184018100Y-102402800D01*
X184018100Y-131597200D01*
X183998415Y-131664239D01*
X183945611Y-131709994D01*
X183894100Y-131721200D01*
X168274000Y-131721200D01*
X168206961Y-131701515D01*
X168161206Y-131648711D01*
X168150000Y-131597200D01*
X168150000Y-124221200D01*
X166550000Y-124221200D01*
X166550000Y-131721200D01*
X163450000Y-131721200D01*
X163450000Y-124221200D01*
X161850000Y-124221200D01*
X161850000Y-131597200D01*
X161830315Y-131664239D01*
X161777511Y-131709994D01*
X161726000Y-131721200D01*
X146105900Y-131721200D01*
X146038861Y-131701515D01*
X145993106Y-131648711D01*
X145981900Y-131597200D01*
X145981900Y-102402800D01*
X146001585Y-102335761D01*
X146054389Y-102290006D01*
X146105900Y-102278800D01*
X183894100Y-102278800D01*
X183961139Y-102298485D01*
G37*
%TD.AperFunction*%
%TD*%
%TA.AperFunction,Conductor*%
%TO.N,GND*%
G36*
X163143106Y-226505023D02*
G01*
X163158104Y-226509427D01*
X163173094Y-226519057D01*
X163190175Y-226524067D01*
X163216855Y-226547172D01*
X163218042Y-226548541D01*
X163245518Y-226603402D01*
X163247163Y-226610960D01*
X163250000Y-226637331D01*
X163250000Y-229357670D01*
X163244975Y-229392614D01*
X163240570Y-229407612D01*
X163230939Y-229422601D01*
X163225932Y-229439675D01*
X163202827Y-229466355D01*
X163201458Y-229467542D01*
X163146597Y-229495018D01*
X163139039Y-229496663D01*
X163112668Y-229499500D01*
X160141830Y-229499500D01*
X160106889Y-229494475D01*
X160091890Y-229490070D01*
X160076902Y-229480440D01*
X160059824Y-229475432D01*
X160033144Y-229452327D01*
X160031957Y-229450958D01*
X160004477Y-229396083D01*
X160002832Y-229388521D01*
X160000000Y-229362168D01*
X160000000Y-226641829D01*
X160005023Y-226606893D01*
X160009427Y-226591895D01*
X160019057Y-226576904D01*
X160024067Y-226559824D01*
X160047172Y-226533144D01*
X160048541Y-226531957D01*
X160103420Y-226504477D01*
X160110979Y-226502833D01*
X160137332Y-226500000D01*
X163108170Y-226500000D01*
X163143106Y-226505023D01*
G37*
%TD.AperFunction*%
%TD*%
%TA.AperFunction,Conductor*%
%TO.N,RF_IN*%
G36*
X67961139Y-172298485D02*
G01*
X68006894Y-172351289D01*
X68018100Y-172402800D01*
X68018100Y-201597200D01*
X67998415Y-201664239D01*
X67945611Y-201709994D01*
X67894100Y-201721200D01*
X30105900Y-201721200D01*
X30038861Y-201701515D01*
X29993106Y-201648711D01*
X29981900Y-201597200D01*
X29981900Y-172402800D01*
X30001585Y-172335761D01*
X30054389Y-172290006D01*
X30105900Y-172278800D01*
X67894100Y-172278800D01*
X67961139Y-172298485D01*
G37*
%TD.AperFunction*%
%TD*%
%TA.AperFunction,Conductor*%
%TO.N,GND*%
G36*
X53943039Y-86519685D02*
G01*
X53988794Y-86572489D01*
X54000000Y-86624000D01*
X54000000Y-89375500D01*
X53980315Y-89442539D01*
X53927511Y-89488294D01*
X53876000Y-89499500D01*
X50874000Y-89499500D01*
X50806961Y-89479815D01*
X50761206Y-89427011D01*
X50750000Y-89375500D01*
X50750000Y-86624000D01*
X50769685Y-86556961D01*
X50822489Y-86511206D01*
X50874000Y-86500000D01*
X53876000Y-86500000D01*
X53943039Y-86519685D01*
G37*
%TD.AperFunction*%
%TD*%
%TA.AperFunction,Conductor*%
%TO.N,GND*%
G36*
X163143106Y-156505023D02*
G01*
X163158104Y-156509427D01*
X163173094Y-156519057D01*
X163190175Y-156524067D01*
X163216855Y-156547172D01*
X163218042Y-156548541D01*
X163245518Y-156603402D01*
X163247163Y-156610960D01*
X163250000Y-156637331D01*
X163250000Y-159357670D01*
X163244975Y-159392614D01*
X163240570Y-159407612D01*
X163230939Y-159422601D01*
X163225932Y-159439675D01*
X163202827Y-159466355D01*
X163201458Y-159467542D01*
X163146597Y-159495018D01*
X163139039Y-159496663D01*
X163112668Y-159499500D01*
X160141830Y-159499500D01*
X160106889Y-159494475D01*
X160091890Y-159490070D01*
X160076902Y-159480440D01*
X160059824Y-159475432D01*
X160033144Y-159452327D01*
X160031957Y-159450958D01*
X160004477Y-159396083D01*
X160002832Y-159388521D01*
X160000000Y-159362168D01*
X160000000Y-156641829D01*
X160005023Y-156606893D01*
X160009427Y-156591895D01*
X160019057Y-156576904D01*
X160024067Y-156559824D01*
X160047172Y-156533144D01*
X160048541Y-156531957D01*
X160103420Y-156504477D01*
X160110979Y-156502833D01*
X160137332Y-156500000D01*
X163108170Y-156500000D01*
X163143106Y-156505023D01*
G37*
%TD.AperFunction*%
%TD*%
%TA.AperFunction,Conductor*%
%TO.N,GND*%
G36*
X111893106Y-86505023D02*
G01*
X111908104Y-86509427D01*
X111923094Y-86519057D01*
X111940175Y-86524067D01*
X111966855Y-86547172D01*
X111968042Y-86548541D01*
X111995518Y-86603402D01*
X111997163Y-86610960D01*
X112000000Y-86637331D01*
X112000000Y-89357670D01*
X111994975Y-89392614D01*
X111990570Y-89407612D01*
X111980939Y-89422601D01*
X111975932Y-89439675D01*
X111952827Y-89466355D01*
X111951458Y-89467542D01*
X111896597Y-89495018D01*
X111889039Y-89496663D01*
X111862668Y-89499500D01*
X108891830Y-89499500D01*
X108856889Y-89494475D01*
X108841890Y-89490070D01*
X108826902Y-89480440D01*
X108809824Y-89475432D01*
X108783144Y-89452327D01*
X108781957Y-89450958D01*
X108754477Y-89396083D01*
X108752832Y-89388521D01*
X108750000Y-89362168D01*
X108750000Y-86641829D01*
X108755023Y-86606893D01*
X108759427Y-86591895D01*
X108769057Y-86576904D01*
X108774067Y-86559824D01*
X108797172Y-86533144D01*
X108798541Y-86531957D01*
X108853420Y-86504477D01*
X108860979Y-86502833D01*
X108887332Y-86500000D01*
X111858170Y-86500000D01*
X111893106Y-86505023D01*
G37*
%TD.AperFunction*%
%TD*%
%TA.AperFunction,Conductor*%
%TO.N,RF_IN*%
G36*
X166550000Y-80376000D02*
G01*
X166530315Y-80443039D01*
X166477511Y-80488794D01*
X166426000Y-80500000D01*
X165300000Y-80500000D01*
X165300000Y-86376000D01*
X165280315Y-86443039D01*
X165227511Y-86488794D01*
X165176000Y-86500000D01*
X164824000Y-86500000D01*
X164756961Y-86480315D01*
X164711206Y-86427511D01*
X164700000Y-86376000D01*
X164700000Y-80500000D01*
X163574000Y-80500000D01*
X163506961Y-80480315D01*
X163461206Y-80427511D01*
X163450000Y-80376000D01*
X163450000Y-61721200D01*
X166550000Y-61721200D01*
X166550000Y-80376000D01*
G37*
%TD.AperFunction*%
%TD*%
%TA.AperFunction,Conductor*%
%TO.N,GND*%
G36*
X111943039Y-156519685D02*
G01*
X111988794Y-156572489D01*
X112000000Y-156624000D01*
X112000000Y-159375500D01*
X111980315Y-159442539D01*
X111927511Y-159488294D01*
X111876000Y-159499500D01*
X108874000Y-159499500D01*
X108806961Y-159479815D01*
X108761206Y-159427011D01*
X108750000Y-159375500D01*
X108750000Y-156624000D01*
X108769685Y-156556961D01*
X108822489Y-156511206D01*
X108874000Y-156500000D01*
X111876000Y-156500000D01*
X111943039Y-156519685D01*
G37*
%TD.AperFunction*%
%TD*%
%TA.AperFunction,Conductor*%
%TO.N,GND*%
G36*
X163193039Y-86519685D02*
G01*
X163238794Y-86572489D01*
X163250000Y-86624000D01*
X163250000Y-89375500D01*
X163230315Y-89442539D01*
X163177511Y-89488294D01*
X163126000Y-89499500D01*
X160124000Y-89499500D01*
X160056961Y-89479815D01*
X160011206Y-89427011D01*
X160000000Y-89375500D01*
X160000000Y-86624000D01*
X160019685Y-86556961D01*
X160072489Y-86511206D01*
X160124000Y-86500000D01*
X163126000Y-86500000D01*
X163193039Y-86519685D01*
G37*
%TD.AperFunction*%
%TD*%
%TA.AperFunction,Conductor*%
%TO.N,RF_IN*%
G36*
X125961139Y-32298485D02*
G01*
X126006894Y-32351289D01*
X126018100Y-32402800D01*
X126018100Y-61597200D01*
X125998415Y-61664239D01*
X125945611Y-61709994D01*
X125894100Y-61721200D01*
X110274000Y-61721200D01*
X110206961Y-61701515D01*
X110161206Y-61648711D01*
X110150000Y-61597200D01*
X110150000Y-51907100D01*
X108550000Y-51907100D01*
X108550000Y-61721200D01*
X105450000Y-61721200D01*
X105450000Y-51907100D01*
X103850000Y-51907100D01*
X103850000Y-61597200D01*
X103830315Y-61664239D01*
X103777511Y-61709994D01*
X103726000Y-61721200D01*
X88105900Y-61721200D01*
X88038861Y-61701515D01*
X87993106Y-61648711D01*
X87981900Y-61597200D01*
X87981900Y-32402800D01*
X88001585Y-32335761D01*
X88054389Y-32290006D01*
X88105900Y-32278800D01*
X125894100Y-32278800D01*
X125961139Y-32298485D01*
G37*
%TD.AperFunction*%
%TD*%
%TA.AperFunction,Conductor*%
%TO.N,RF_IN*%
G36*
X183961139Y-172298485D02*
G01*
X184006894Y-172351289D01*
X184018100Y-172402800D01*
X184018100Y-201597200D01*
X183998415Y-201664239D01*
X183945611Y-201709994D01*
X183894100Y-201721200D01*
X146105900Y-201721200D01*
X146038861Y-201701515D01*
X145993106Y-201648711D01*
X145981900Y-201597200D01*
X145981900Y-172402800D01*
X146001585Y-172335761D01*
X146054389Y-172290006D01*
X146105900Y-172278800D01*
X183894100Y-172278800D01*
X183961139Y-172298485D01*
G37*
%TD.AperFunction*%
%TD*%
%TA.AperFunction,Conductor*%
%TO.N,RF_IN*%
G36*
X67961139Y-32298485D02*
G01*
X68006894Y-32351289D01*
X68018100Y-32402800D01*
X68018100Y-61597200D01*
X67998415Y-61664239D01*
X67945611Y-61709994D01*
X67894100Y-61721200D01*
X52274000Y-61721200D01*
X52206961Y-61701515D01*
X52161206Y-61648711D01*
X52150000Y-61597200D01*
X52150000Y-51907100D01*
X50550000Y-51907100D01*
X50550000Y-61721200D01*
X47450000Y-61721200D01*
X47450000Y-51907100D01*
X45850000Y-51907100D01*
X45850000Y-61597200D01*
X45830315Y-61664239D01*
X45777511Y-61709994D01*
X45726000Y-61721200D01*
X30105900Y-61721200D01*
X30038861Y-61701515D01*
X29993106Y-61648711D01*
X29981900Y-61597200D01*
X29981900Y-32402800D01*
X30001585Y-32335761D01*
X30054389Y-32290006D01*
X30105900Y-32278800D01*
X67894100Y-32278800D01*
X67961139Y-32298485D01*
G37*
%TD.AperFunction*%
%TD*%
%TA.AperFunction,Conductor*%
%TO.N,RF_IN*%
G36*
X166493039Y-219720685D02*
G01*
X166538794Y-219773489D01*
X166550000Y-219825000D01*
X166550000Y-220376000D01*
X166530315Y-220443039D01*
X166477511Y-220488794D01*
X166426000Y-220500000D01*
X165300000Y-220500000D01*
X165300000Y-226376000D01*
X165280315Y-226443039D01*
X165227511Y-226488794D01*
X165176000Y-226500000D01*
X164824000Y-226500000D01*
X164756961Y-226480315D01*
X164711206Y-226427511D01*
X164700000Y-226376000D01*
X164700000Y-220500000D01*
X163574000Y-220500000D01*
X163506961Y-220480315D01*
X163461206Y-220427511D01*
X163450000Y-220376000D01*
X163450000Y-219825000D01*
X163469685Y-219757961D01*
X163522489Y-219712206D01*
X163574000Y-219701000D01*
X164645400Y-219701000D01*
X165354600Y-219701000D01*
X166426000Y-219701000D01*
X166493039Y-219720685D01*
G37*
%TD.AperFunction*%
%TD*%
%TA.AperFunction,Conductor*%
%TO.N,RF_IN*%
G36*
X50550000Y-150376000D02*
G01*
X50530315Y-150443039D01*
X50477511Y-150488794D01*
X50426000Y-150500000D01*
X49300000Y-150500000D01*
X49300000Y-156376000D01*
X49280315Y-156443039D01*
X49227511Y-156488794D01*
X49176000Y-156500000D01*
X48824000Y-156500000D01*
X48756961Y-156480315D01*
X48711206Y-156427511D01*
X48700000Y-156376000D01*
X48700000Y-150500000D01*
X47574000Y-150500000D01*
X47506961Y-150480315D01*
X47461206Y-150427511D01*
X47450000Y-150376000D01*
X47450000Y-131721200D01*
X50550000Y-131721200D01*
X50550000Y-150376000D01*
G37*
%TD.AperFunction*%
%TD*%
%TA.AperFunction,Conductor*%
%TO.N,RF_IN*%
G36*
X125961139Y-102298485D02*
G01*
X126006894Y-102351289D01*
X126018100Y-102402800D01*
X126018100Y-131597200D01*
X125998415Y-131664239D01*
X125945611Y-131709994D01*
X125894100Y-131721200D01*
X110274000Y-131721200D01*
X110206961Y-131701515D01*
X110161206Y-131648711D01*
X110150000Y-131597200D01*
X110150000Y-124221200D01*
X108550000Y-124221200D01*
X108550000Y-131721200D01*
X105450000Y-131721200D01*
X105450000Y-124221200D01*
X103850000Y-124221200D01*
X103850000Y-131597200D01*
X103830315Y-131664239D01*
X103777511Y-131709994D01*
X103726000Y-131721200D01*
X88105900Y-131721200D01*
X88038861Y-131701515D01*
X87993106Y-131648711D01*
X87981900Y-131597200D01*
X87981900Y-102402800D01*
X88001585Y-102335761D01*
X88054389Y-102290006D01*
X88105900Y-102278800D01*
X125894100Y-102278800D01*
X125961139Y-102298485D01*
G37*
%TD.AperFunction*%
%TD*%
%TA.AperFunction,Conductor*%
%TO.N,RF_IN*%
G36*
X166550000Y-150376000D02*
G01*
X166530315Y-150443039D01*
X166477511Y-150488794D01*
X166426000Y-150500000D01*
X165300000Y-150500000D01*
X165300000Y-156376000D01*
X165280315Y-156443039D01*
X165227511Y-156488794D01*
X165176000Y-156500000D01*
X164824000Y-156500000D01*
X164756961Y-156480315D01*
X164711206Y-156427511D01*
X164700000Y-156376000D01*
X164700000Y-150500000D01*
X163574000Y-150500000D01*
X163506961Y-150480315D01*
X163461206Y-150427511D01*
X163450000Y-150376000D01*
X163450000Y-131721200D01*
X166550000Y-131721200D01*
X166550000Y-150376000D01*
G37*
%TD.AperFunction*%
%TD*%
%TA.AperFunction,Conductor*%
%TO.N,RF_IN*%
G36*
X67961139Y-102298485D02*
G01*
X68006894Y-102351289D01*
X68018100Y-102402800D01*
X68018100Y-131597200D01*
X67998415Y-131664239D01*
X67945611Y-131709994D01*
X67894100Y-131721200D01*
X52274000Y-131721200D01*
X52206961Y-131701515D01*
X52161206Y-131648711D01*
X52150000Y-131597200D01*
X52150000Y-124221200D01*
X50550000Y-124221200D01*
X50550000Y-131721200D01*
X47450000Y-131721200D01*
X47450000Y-124221200D01*
X45850000Y-124221200D01*
X45850000Y-131597200D01*
X45830315Y-131664239D01*
X45777511Y-131709994D01*
X45726000Y-131721200D01*
X30105900Y-131721200D01*
X30038861Y-131701515D01*
X29993106Y-131648711D01*
X29981900Y-131597200D01*
X29981900Y-102402800D01*
X30001585Y-102335761D01*
X30054389Y-102290006D01*
X30105900Y-102278800D01*
X67894100Y-102278800D01*
X67961139Y-102298485D01*
G37*
%TD.AperFunction*%
%TD*%
%TA.AperFunction,Conductor*%
%TO.N,RF_IN*%
G36*
X108493039Y-219720685D02*
G01*
X108538794Y-219773489D01*
X108550000Y-219825000D01*
X108550000Y-220376000D01*
X108530315Y-220443039D01*
X108477511Y-220488794D01*
X108426000Y-220500000D01*
X107300000Y-220500000D01*
X107300000Y-226376000D01*
X107280315Y-226443039D01*
X107227511Y-226488794D01*
X107176000Y-226500000D01*
X106824000Y-226500000D01*
X106756961Y-226480315D01*
X106711206Y-226427511D01*
X106700000Y-226376000D01*
X106700000Y-220500000D01*
X105574000Y-220500000D01*
X105506961Y-220480315D01*
X105461206Y-220427511D01*
X105450000Y-220376000D01*
X105450000Y-219825000D01*
X105469685Y-219757961D01*
X105522489Y-219712206D01*
X105574000Y-219701000D01*
X106645400Y-219701000D01*
X107354600Y-219701000D01*
X108426000Y-219701000D01*
X108493039Y-219720685D01*
G37*
%TD.AperFunction*%
%TD*%
%TA.AperFunction,Conductor*%
%TO.N,RF_IN*%
G36*
X125961139Y-172298485D02*
G01*
X126006894Y-172351289D01*
X126018100Y-172402800D01*
X126018100Y-201597200D01*
X125998415Y-201664239D01*
X125945611Y-201709994D01*
X125894100Y-201721200D01*
X88105900Y-201721200D01*
X88038861Y-201701515D01*
X87993106Y-201648711D01*
X87981900Y-201597200D01*
X87981900Y-172402800D01*
X88001585Y-172335761D01*
X88054389Y-172290006D01*
X88105900Y-172278800D01*
X125894100Y-172278800D01*
X125961139Y-172298485D01*
G37*
%TD.AperFunction*%
%TD*%
%TA.AperFunction,Conductor*%
%TO.N,GND*%
G36*
X169943039Y-86519685D02*
G01*
X169988794Y-86572489D01*
X170000000Y-86624000D01*
X170000000Y-89375500D01*
X169980315Y-89442539D01*
X169927511Y-89488294D01*
X169876000Y-89499500D01*
X166874000Y-89499500D01*
X166806961Y-89479815D01*
X166761206Y-89427011D01*
X166750000Y-89375500D01*
X166750000Y-86624000D01*
X166769685Y-86556961D01*
X166822489Y-86511206D01*
X166874000Y-86500000D01*
X169876000Y-86500000D01*
X169943039Y-86519685D01*
G37*
%TD.AperFunction*%
%TD*%
%TA.AperFunction,Conductor*%
%TO.N,GND*%
G36*
X47143106Y-226505023D02*
G01*
X47158104Y-226509427D01*
X47173094Y-226519057D01*
X47190175Y-226524067D01*
X47216855Y-226547172D01*
X47218042Y-226548541D01*
X47245518Y-226603402D01*
X47247163Y-226610960D01*
X47250000Y-226637331D01*
X47250000Y-229357670D01*
X47244975Y-229392614D01*
X47240570Y-229407612D01*
X47230939Y-229422601D01*
X47225932Y-229439675D01*
X47202827Y-229466355D01*
X47201458Y-229467542D01*
X47146597Y-229495018D01*
X47139039Y-229496663D01*
X47112668Y-229499500D01*
X44141830Y-229499500D01*
X44106889Y-229494475D01*
X44091890Y-229490070D01*
X44076902Y-229480440D01*
X44059824Y-229475432D01*
X44033144Y-229452327D01*
X44031957Y-229450958D01*
X44004477Y-229396083D01*
X44002832Y-229388521D01*
X44000000Y-229362168D01*
X44000000Y-226641829D01*
X44005023Y-226606893D01*
X44009427Y-226591895D01*
X44019057Y-226576904D01*
X44024067Y-226559824D01*
X44047172Y-226533144D01*
X44048541Y-226531957D01*
X44103420Y-226504477D01*
X44110979Y-226502833D01*
X44137332Y-226500000D01*
X47108170Y-226500000D01*
X47143106Y-226505023D01*
G37*
%TD.AperFunction*%
%TD*%
%TA.AperFunction,Conductor*%
%TO.N,RF_IN*%
G36*
X108550000Y-80376000D02*
G01*
X108530315Y-80443039D01*
X108477511Y-80488794D01*
X108426000Y-80500000D01*
X107300000Y-80500000D01*
X107300000Y-86376000D01*
X107280315Y-86443039D01*
X107227511Y-86488794D01*
X107176000Y-86500000D01*
X106824000Y-86500000D01*
X106756961Y-86480315D01*
X106711206Y-86427511D01*
X106700000Y-86376000D01*
X106700000Y-80500000D01*
X105574000Y-80500000D01*
X105506961Y-80480315D01*
X105461206Y-80427511D01*
X105450000Y-80376000D01*
X105450000Y-61721200D01*
X108550000Y-61721200D01*
X108550000Y-80376000D01*
G37*
%TD.AperFunction*%
%TD*%
%TA.AperFunction,Conductor*%
%TO.N,GND*%
G36*
X53943039Y-156519685D02*
G01*
X53988794Y-156572489D01*
X54000000Y-156624000D01*
X54000000Y-159375500D01*
X53980315Y-159442539D01*
X53927511Y-159488294D01*
X53876000Y-159499500D01*
X50874000Y-159499500D01*
X50806961Y-159479815D01*
X50761206Y-159427011D01*
X50750000Y-159375500D01*
X50750000Y-156624000D01*
X50769685Y-156556961D01*
X50822489Y-156511206D01*
X50874000Y-156500000D01*
X53876000Y-156500000D01*
X53943039Y-156519685D01*
G37*
%TD.AperFunction*%
%TD*%
%TA.AperFunction,Conductor*%
%TO.N,GND*%
G36*
X105193039Y-156519685D02*
G01*
X105238794Y-156572489D01*
X105250000Y-156624000D01*
X105250000Y-159375500D01*
X105230315Y-159442539D01*
X105177511Y-159488294D01*
X105126000Y-159499500D01*
X102124000Y-159499500D01*
X102056961Y-159479815D01*
X102011206Y-159427011D01*
X102000000Y-159375500D01*
X102000000Y-156624000D01*
X102019685Y-156556961D01*
X102072489Y-156511206D01*
X102124000Y-156500000D01*
X105126000Y-156500000D01*
X105193039Y-156519685D01*
G37*
%TD.AperFunction*%
%TD*%
%TA.AperFunction,Conductor*%
%TO.N,GND*%
G36*
X111943039Y-226519685D02*
G01*
X111988794Y-226572489D01*
X112000000Y-226624000D01*
X112000000Y-229375500D01*
X111980315Y-229442539D01*
X111927511Y-229488294D01*
X111876000Y-229499500D01*
X108874000Y-229499500D01*
X108806961Y-229479815D01*
X108761206Y-229427011D01*
X108750000Y-229375500D01*
X108750000Y-226624000D01*
X108769685Y-226556961D01*
X108822489Y-226511206D01*
X108874000Y-226500000D01*
X111876000Y-226500000D01*
X111943039Y-226519685D01*
G37*
%TD.AperFunction*%
%TD*%
M02*
