%TF.GenerationSoftware,KiCad,Pcbnew,10.0.6*%
%TF.CreationDate,2026-09-14T21:40:11-04:00*%
%TF.ProjectId,patch_antenna_smp_rev9,70617463-685f-4616-9e74-656e6e615f73,9*%
%TF.SameCoordinates,PX1312d00PY1312d00*%
%TF.FileFunction,Other,User*%
%FSLAX46Y46*%
G04 Gerber Fmt 4.6, Leading zero omitted, Abs format (unit mm)*
G04 Created by KiCad (PCBNEW 10.0.6) date 2026-09-14 21:40:11*
%MOMM*%
%LPD*%
G01*
G04 APERTURE LIST*
%ADD10C,0.050000*%
G04 APERTURE END LIST*
D10*
%TO.C,JUD*%
X108800000Y-89100000D02*
X108800000Y-89300000D01*
X105200000Y-89300000D01*
X105200000Y-89100000D01*
X104500000Y-89100000D01*
X104500000Y-85900000D01*
X105200000Y-85900000D01*
X105200000Y-85700000D01*
X106000000Y-85700000D01*
X106000000Y-84950000D01*
X108000000Y-84950000D01*
X108000000Y-85700000D01*
X108800000Y-85700000D01*
X108800000Y-85900000D01*
X109500000Y-85900000D01*
X109500000Y-89100000D01*
X108800000Y-89100000D01*
%TO.C,HE4*%
X132200000Y-139000000D02*
G75*
G02*
X125800000Y-139000000I-3200000J0D01*
G01*
X125800000Y-139000000D02*
G75*
G02*
X132200000Y-139000000I3200000J0D01*
G01*
%TO.C,HF1*%
X88200000Y-165000000D02*
G75*
G02*
X81800000Y-165000000I-3200000J0D01*
G01*
X81800000Y-165000000D02*
G75*
G02*
X88200000Y-165000000I3200000J0D01*
G01*
%TO.C,HA3*%
X30200000Y-69000000D02*
G75*
G02*
X23800000Y-69000000I-3200000J0D01*
G01*
X23800000Y-69000000D02*
G75*
G02*
X30200000Y-69000000I3200000J0D01*
G01*
%TO.C,JUA*%
X50800000Y-89100000D02*
X50800000Y-89300000D01*
X47200000Y-89300000D01*
X47200000Y-89100000D01*
X46500000Y-89100000D01*
X46500000Y-85900000D01*
X47200000Y-85900000D01*
X47200000Y-85700000D01*
X48000000Y-85700000D01*
X48000000Y-84950000D01*
X50000000Y-84950000D01*
X50000000Y-85700000D01*
X50800000Y-85700000D01*
X50800000Y-85900000D01*
X51500000Y-85900000D01*
X51500000Y-89100000D01*
X50800000Y-89100000D01*
%TO.C,HC2*%
X74200000Y-165000000D02*
G75*
G02*
X67800000Y-165000000I-3200000J0D01*
G01*
X67800000Y-165000000D02*
G75*
G02*
X74200000Y-165000000I3200000J0D01*
G01*
%TO.C,HD2*%
X132200000Y-25000000D02*
G75*
G02*
X125800000Y-25000000I-3200000J0D01*
G01*
X125800000Y-25000000D02*
G75*
G02*
X132200000Y-25000000I3200000J0D01*
G01*
%TO.C,JMD*%
X104390000Y-80390000D02*
X109610000Y-80390000D01*
X109610000Y-85610000D01*
X104390000Y-85610000D01*
X104390000Y-80390000D01*
%TO.C,JUB*%
X50800000Y-159100000D02*
X50800000Y-159300000D01*
X47200000Y-159300000D01*
X47200000Y-159100000D01*
X46500000Y-159100000D01*
X46500000Y-155900000D01*
X47200000Y-155900000D01*
X47200000Y-155700000D01*
X48000000Y-155700000D01*
X48000000Y-154950000D01*
X50000000Y-154950000D01*
X50000000Y-155700000D01*
X50800000Y-155700000D01*
X50800000Y-155900000D01*
X51500000Y-155900000D01*
X51500000Y-159100000D01*
X50800000Y-159100000D01*
%TO.C,HH1*%
X146200000Y-95000000D02*
G75*
G02*
X139800000Y-95000000I-3200000J0D01*
G01*
X139800000Y-95000000D02*
G75*
G02*
X146200000Y-95000000I3200000J0D01*
G01*
%TO.C,HI2*%
X190200000Y-165000000D02*
G75*
G02*
X183800000Y-165000000I-3200000J0D01*
G01*
X183800000Y-165000000D02*
G75*
G02*
X190200000Y-165000000I3200000J0D01*
G01*
%TO.C,HB2*%
X74200000Y-95000000D02*
G75*
G02*
X67800000Y-95000000I-3200000J0D01*
G01*
X67800000Y-95000000D02*
G75*
G02*
X74200000Y-95000000I3200000J0D01*
G01*
%TO.C,HI3*%
X146200000Y-209000000D02*
G75*
G02*
X139800000Y-209000000I-3200000J0D01*
G01*
X139800000Y-209000000D02*
G75*
G02*
X146200000Y-209000000I3200000J0D01*
G01*
%TO.C,JUC*%
X50800000Y-229100000D02*
X50800000Y-229300000D01*
X47200000Y-229300000D01*
X47200000Y-229100000D01*
X46500000Y-229100000D01*
X46500000Y-225900000D01*
X47200000Y-225900000D01*
X47200000Y-225700000D01*
X48000000Y-225700000D01*
X48000000Y-224950000D01*
X50000000Y-224950000D01*
X50000000Y-225700000D01*
X50800000Y-225700000D01*
X50800000Y-225900000D01*
X51500000Y-225900000D01*
X51500000Y-229100000D01*
X50800000Y-229100000D01*
%TO.C,JMI*%
X162390000Y-220390000D02*
X167610000Y-220390000D01*
X167610000Y-225610000D01*
X162390000Y-225610000D01*
X162390000Y-220390000D01*
%TO.C,HC4*%
X74200000Y-209000000D02*
G75*
G02*
X67800000Y-209000000I-3200000J0D01*
G01*
X67800000Y-209000000D02*
G75*
G02*
X74200000Y-209000000I3200000J0D01*
G01*
%TO.C,HG1*%
X146200000Y-25000000D02*
G75*
G02*
X139800000Y-25000000I-3200000J0D01*
G01*
X139800000Y-25000000D02*
G75*
G02*
X146200000Y-25000000I3200000J0D01*
G01*
%TO.C,HF4*%
X132200000Y-209000000D02*
G75*
G02*
X125800000Y-209000000I-3200000J0D01*
G01*
X125800000Y-209000000D02*
G75*
G02*
X132200000Y-209000000I3200000J0D01*
G01*
%TO.C,HC3*%
X30200000Y-209000000D02*
G75*
G02*
X23800000Y-209000000I-3200000J0D01*
G01*
X23800000Y-209000000D02*
G75*
G02*
X30200000Y-209000000I3200000J0D01*
G01*
%TO.C,JMH*%
X162390000Y-150390000D02*
X167610000Y-150390000D01*
X167610000Y-155610000D01*
X162390000Y-155610000D01*
X162390000Y-150390000D01*
%TO.C,JMG*%
X162390000Y-80390000D02*
X167610000Y-80390000D01*
X167610000Y-85610000D01*
X162390000Y-85610000D01*
X162390000Y-80390000D01*
%TO.C,JMA*%
X46390000Y-80390000D02*
X51610000Y-80390000D01*
X51610000Y-85610000D01*
X46390000Y-85610000D01*
X46390000Y-80390000D01*
%TO.C,HB3*%
X30200000Y-139000000D02*
G75*
G02*
X23800000Y-139000000I-3200000J0D01*
G01*
X23800000Y-139000000D02*
G75*
G02*
X30200000Y-139000000I3200000J0D01*
G01*
%TO.C,JUF*%
X108800000Y-229100000D02*
X108800000Y-229300000D01*
X105200000Y-229300000D01*
X105200000Y-229100000D01*
X104500000Y-229100000D01*
X104500000Y-225900000D01*
X105200000Y-225900000D01*
X105200000Y-225700000D01*
X106000000Y-225700000D01*
X106000000Y-224950000D01*
X108000000Y-224950000D01*
X108000000Y-225700000D01*
X108800000Y-225700000D01*
X108800000Y-225900000D01*
X109500000Y-225900000D01*
X109500000Y-229100000D01*
X108800000Y-229100000D01*
%TO.C,HB4*%
X74200000Y-139000000D02*
G75*
G02*
X67800000Y-139000000I-3200000J0D01*
G01*
X67800000Y-139000000D02*
G75*
G02*
X74200000Y-139000000I3200000J0D01*
G01*
%TO.C,HD1*%
X88200000Y-25000000D02*
G75*
G02*
X81800000Y-25000000I-3200000J0D01*
G01*
X81800000Y-25000000D02*
G75*
G02*
X88200000Y-25000000I3200000J0D01*
G01*
%TO.C,HC1*%
X30200000Y-165000000D02*
G75*
G02*
X23800000Y-165000000I-3200000J0D01*
G01*
X23800000Y-165000000D02*
G75*
G02*
X30200000Y-165000000I3200000J0D01*
G01*
%TO.C,HB1*%
X30200000Y-95000000D02*
G75*
G02*
X23800000Y-95000000I-3200000J0D01*
G01*
X23800000Y-95000000D02*
G75*
G02*
X30200000Y-95000000I3200000J0D01*
G01*
%TO.C,HH2*%
X190200000Y-95000000D02*
G75*
G02*
X183800000Y-95000000I-3200000J0D01*
G01*
X183800000Y-95000000D02*
G75*
G02*
X190200000Y-95000000I3200000J0D01*
G01*
%TO.C,JUG*%
X166800000Y-89100000D02*
X166800000Y-89300000D01*
X163200000Y-89300000D01*
X163200000Y-89100000D01*
X162500000Y-89100000D01*
X162500000Y-85900000D01*
X163200000Y-85900000D01*
X163200000Y-85700000D01*
X164000000Y-85700000D01*
X164000000Y-84950000D01*
X166000000Y-84950000D01*
X166000000Y-85700000D01*
X166800000Y-85700000D01*
X166800000Y-85900000D01*
X167500000Y-85900000D01*
X167500000Y-89100000D01*
X166800000Y-89100000D01*
%TO.C,HI4*%
X190200000Y-209000000D02*
G75*
G02*
X183800000Y-209000000I-3200000J0D01*
G01*
X183800000Y-209000000D02*
G75*
G02*
X190200000Y-209000000I3200000J0D01*
G01*
%TO.C,JUE*%
X108800000Y-159100000D02*
X108800000Y-159300000D01*
X105200000Y-159300000D01*
X105200000Y-159100000D01*
X104500000Y-159100000D01*
X104500000Y-155900000D01*
X105200000Y-155900000D01*
X105200000Y-155700000D01*
X106000000Y-155700000D01*
X106000000Y-154950000D01*
X108000000Y-154950000D01*
X108000000Y-155700000D01*
X108800000Y-155700000D01*
X108800000Y-155900000D01*
X109500000Y-155900000D01*
X109500000Y-159100000D01*
X108800000Y-159100000D01*
%TO.C,HE3*%
X88200000Y-139000000D02*
G75*
G02*
X81800000Y-139000000I-3200000J0D01*
G01*
X81800000Y-139000000D02*
G75*
G02*
X88200000Y-139000000I3200000J0D01*
G01*
%TO.C,HF3*%
X88200000Y-209000000D02*
G75*
G02*
X81800000Y-209000000I-3200000J0D01*
G01*
X81800000Y-209000000D02*
G75*
G02*
X88200000Y-209000000I3200000J0D01*
G01*
%TO.C,HH3*%
X146200000Y-139000000D02*
G75*
G02*
X139800000Y-139000000I-3200000J0D01*
G01*
X139800000Y-139000000D02*
G75*
G02*
X146200000Y-139000000I3200000J0D01*
G01*
%TO.C,HD4*%
X132200000Y-69000000D02*
G75*
G02*
X125800000Y-69000000I-3200000J0D01*
G01*
X125800000Y-69000000D02*
G75*
G02*
X132200000Y-69000000I3200000J0D01*
G01*
%TO.C,HG2*%
X190200000Y-25000000D02*
G75*
G02*
X183800000Y-25000000I-3200000J0D01*
G01*
X183800000Y-25000000D02*
G75*
G02*
X190200000Y-25000000I3200000J0D01*
G01*
%TO.C,HG3*%
X146200000Y-69000000D02*
G75*
G02*
X139800000Y-69000000I-3200000J0D01*
G01*
X139800000Y-69000000D02*
G75*
G02*
X146200000Y-69000000I3200000J0D01*
G01*
%TO.C,HA2*%
X74200000Y-25000000D02*
G75*
G02*
X67800000Y-25000000I-3200000J0D01*
G01*
X67800000Y-25000000D02*
G75*
G02*
X74200000Y-25000000I3200000J0D01*
G01*
%TO.C,HI1*%
X146200000Y-165000000D02*
G75*
G02*
X139800000Y-165000000I-3200000J0D01*
G01*
X139800000Y-165000000D02*
G75*
G02*
X146200000Y-165000000I3200000J0D01*
G01*
%TO.C,JUH*%
X166800000Y-159100000D02*
X166800000Y-159300000D01*
X163200000Y-159300000D01*
X163200000Y-159100000D01*
X162500000Y-159100000D01*
X162500000Y-155900000D01*
X163200000Y-155900000D01*
X163200000Y-155700000D01*
X164000000Y-155700000D01*
X164000000Y-154950000D01*
X166000000Y-154950000D01*
X166000000Y-155700000D01*
X166800000Y-155700000D01*
X166800000Y-155900000D01*
X167500000Y-155900000D01*
X167500000Y-159100000D01*
X166800000Y-159100000D01*
%TO.C,HE2*%
X132200000Y-95000000D02*
G75*
G02*
X125800000Y-95000000I-3200000J0D01*
G01*
X125800000Y-95000000D02*
G75*
G02*
X132200000Y-95000000I3200000J0D01*
G01*
%TO.C,HG4*%
X190200000Y-69000000D02*
G75*
G02*
X183800000Y-69000000I-3200000J0D01*
G01*
X183800000Y-69000000D02*
G75*
G02*
X190200000Y-69000000I3200000J0D01*
G01*
%TO.C,JMC*%
X46390000Y-220390000D02*
X51610000Y-220390000D01*
X51610000Y-225610000D01*
X46390000Y-225610000D01*
X46390000Y-220390000D01*
%TO.C,HH4*%
X190200000Y-139000000D02*
G75*
G02*
X183800000Y-139000000I-3200000J0D01*
G01*
X183800000Y-139000000D02*
G75*
G02*
X190200000Y-139000000I3200000J0D01*
G01*
%TO.C,HE1*%
X88200000Y-95000000D02*
G75*
G02*
X81800000Y-95000000I-3200000J0D01*
G01*
X81800000Y-95000000D02*
G75*
G02*
X88200000Y-95000000I3200000J0D01*
G01*
%TO.C,JME*%
X104390000Y-150390000D02*
X109610000Y-150390000D01*
X109610000Y-155610000D01*
X104390000Y-155610000D01*
X104390000Y-150390000D01*
%TO.C,HF2*%
X132200000Y-165000000D02*
G75*
G02*
X125800000Y-165000000I-3200000J0D01*
G01*
X125800000Y-165000000D02*
G75*
G02*
X132200000Y-165000000I3200000J0D01*
G01*
%TO.C,JUI*%
X166800000Y-229100000D02*
X166800000Y-229300000D01*
X163200000Y-229300000D01*
X163200000Y-229100000D01*
X162500000Y-229100000D01*
X162500000Y-225900000D01*
X163200000Y-225900000D01*
X163200000Y-225700000D01*
X164000000Y-225700000D01*
X164000000Y-224950000D01*
X166000000Y-224950000D01*
X166000000Y-225700000D01*
X166800000Y-225700000D01*
X166800000Y-225900000D01*
X167500000Y-225900000D01*
X167500000Y-229100000D01*
X166800000Y-229100000D01*
%TO.C,JMB*%
X46390000Y-150390000D02*
X51610000Y-150390000D01*
X51610000Y-155610000D01*
X46390000Y-155610000D01*
X46390000Y-150390000D01*
%TO.C,HA1*%
X30200000Y-25000000D02*
G75*
G02*
X23800000Y-25000000I-3200000J0D01*
G01*
X23800000Y-25000000D02*
G75*
G02*
X30200000Y-25000000I3200000J0D01*
G01*
%TO.C,HD3*%
X88200000Y-69000000D02*
G75*
G02*
X81800000Y-69000000I-3200000J0D01*
G01*
X81800000Y-69000000D02*
G75*
G02*
X88200000Y-69000000I3200000J0D01*
G01*
%TO.C,HA4*%
X74200000Y-69000000D02*
G75*
G02*
X67800000Y-69000000I-3200000J0D01*
G01*
X67800000Y-69000000D02*
G75*
G02*
X74200000Y-69000000I3200000J0D01*
G01*
%TO.C,JMF*%
X104390000Y-220390000D02*
X109610000Y-220390000D01*
X109610000Y-225610000D01*
X104390000Y-225610000D01*
X104390000Y-220390000D01*
%TD*%
M02*
