%TF.GenerationSoftware,KiCad,Pcbnew,10.0.6*%
%TF.CreationDate,2026-09-14T21:40:11-04:00*%
%TF.ProjectId,patch_antenna_smp_rev9,70617463-685f-4616-9e74-656e6e615f73,9*%
%TF.SameCoordinates,PX1312d00PY1312d00*%
%TF.FileFunction,Paste,Top*%
%TF.FilePolarity,Positive*%
%FSLAX46Y46*%
G04 Gerber Fmt 4.6, Leading zero omitted, Abs format (unit mm)*
G04 Created by KiCad (PCBNEW 10.0.6) date 2026-09-14 21:40:11*
%MOMM*%
%LPD*%
G01*
G04 APERTURE LIST*
G04 Aperture macros list*
%AMRoundRect*
0 Rectangle with rounded corners*
0 $1 Rounding radius*
0 $2 $3 $4 $5 $6 $7 $8 $9 X,Y pos of 4 corners*
0 Add a 4 corners polygon primitive as box body*
4,1,4,$2,$3,$4,$5,$6,$7,$8,$9,$2,$3,0*
0 Add four circle primitives for the rounded corners*
1,1,$1+$1,$2,$3*
1,1,$1+$1,$4,$5*
1,1,$1+$1,$6,$7*
1,1,$1+$1,$8,$9*
0 Add four rect primitives between the rounded corners*
20,1,$1+$1,$2,$3,$4,$5,0*
20,1,$1+$1,$4,$5,$6,$7,0*
20,1,$1+$1,$6,$7,$8,$9,0*
20,1,$1+$1,$8,$9,$2,$3,0*%
G04 Aperture macros list end*
%ADD10C,0.001000*%
%ADD11RoundRect,0.250000X-0.250000X0.275000X-0.250000X-0.275000X0.250000X-0.275000X0.250000X0.275000X0*%
%ADD12RoundRect,0.250000X-0.275000X0.850000X-0.275000X-0.850000X0.275000X-0.850000X0.275000X0.850000X0*%
%ADD13C,1.470000*%
G04 APERTURE END LIST*
D10*
%TO.C,JMD*%
X106465000Y-81820700D02*
X106465000Y-80890000D01*
X104895000Y-80890000D01*
X104895000Y-82465000D01*
X105820700Y-82465000D01*
X105871065Y-82359942D01*
X106003687Y-82168416D01*
X106168416Y-82003687D01*
X106359942Y-81871065D01*
X106465000Y-81820700D01*
G36*
X106465000Y-81820700D02*
G01*
X106359942Y-81871065D01*
X106168416Y-82003687D01*
X106003687Y-82168416D01*
X105871065Y-82359942D01*
X105820700Y-82465000D01*
X104895000Y-82465000D01*
X104895000Y-80890000D01*
X106465000Y-80890000D01*
X106465000Y-81820700D01*
G37*
X106465000Y-84179300D02*
X106359942Y-84128935D01*
X106168416Y-83996313D01*
X106003687Y-83831584D01*
X105871065Y-83640058D01*
X105820700Y-83535000D01*
X104895000Y-83535000D01*
X104895000Y-85110000D01*
X106465000Y-85110000D01*
X106465000Y-84179300D01*
G36*
X105871065Y-83640058D02*
G01*
X106003687Y-83831584D01*
X106168416Y-83996313D01*
X106359942Y-84128935D01*
X106465000Y-84179300D01*
X106465000Y-85110000D01*
X104895000Y-85110000D01*
X104895000Y-83535000D01*
X105820700Y-83535000D01*
X105871065Y-83640058D01*
G37*
X107996313Y-82168415D02*
X108128935Y-82359942D01*
X108179300Y-82465000D01*
X109105000Y-82465000D01*
X109105000Y-80890000D01*
X107535000Y-80890000D01*
X107535000Y-81820700D01*
X107640058Y-81871065D01*
X107831585Y-82003687D01*
X107996313Y-82168415D01*
G36*
X109105000Y-82465000D02*
G01*
X108179300Y-82465000D01*
X108128935Y-82359942D01*
X107996313Y-82168415D01*
X107831585Y-82003687D01*
X107640058Y-81871065D01*
X107535000Y-81820700D01*
X107535000Y-80890000D01*
X109105000Y-80890000D01*
X109105000Y-82465000D01*
G37*
X108128935Y-83640058D02*
X107996313Y-83831584D01*
X107831584Y-83996313D01*
X107640058Y-84128935D01*
X107535000Y-84179300D01*
X107535000Y-85110000D01*
X109105000Y-85110000D01*
X109105000Y-83535000D01*
X108179300Y-83535000D01*
X108128935Y-83640058D01*
G36*
X109105000Y-85110000D02*
G01*
X107535000Y-85110000D01*
X107535000Y-84179300D01*
X107640058Y-84128935D01*
X107831584Y-83996313D01*
X107996313Y-83831584D01*
X108128935Y-83640058D01*
X108179300Y-83535000D01*
X109105000Y-83535000D01*
X109105000Y-85110000D01*
G37*
%TO.C,JMI*%
X164465000Y-221820700D02*
X164465000Y-220890000D01*
X162895000Y-220890000D01*
X162895000Y-222465000D01*
X163820700Y-222465000D01*
X163871065Y-222359942D01*
X164003687Y-222168416D01*
X164168416Y-222003687D01*
X164359942Y-221871065D01*
X164465000Y-221820700D01*
G36*
X164465000Y-221820700D02*
G01*
X164359942Y-221871065D01*
X164168416Y-222003687D01*
X164003687Y-222168416D01*
X163871065Y-222359942D01*
X163820700Y-222465000D01*
X162895000Y-222465000D01*
X162895000Y-220890000D01*
X164465000Y-220890000D01*
X164465000Y-221820700D01*
G37*
X164465000Y-224179300D02*
X164359942Y-224128935D01*
X164168416Y-223996313D01*
X164003687Y-223831584D01*
X163871065Y-223640058D01*
X163820700Y-223535000D01*
X162895000Y-223535000D01*
X162895000Y-225110000D01*
X164465000Y-225110000D01*
X164465000Y-224179300D01*
G36*
X163871065Y-223640058D02*
G01*
X164003687Y-223831584D01*
X164168416Y-223996313D01*
X164359942Y-224128935D01*
X164465000Y-224179300D01*
X164465000Y-225110000D01*
X162895000Y-225110000D01*
X162895000Y-223535000D01*
X163820700Y-223535000D01*
X163871065Y-223640058D01*
G37*
X165996313Y-222168415D02*
X166128935Y-222359942D01*
X166179300Y-222465000D01*
X167105000Y-222465000D01*
X167105000Y-220890000D01*
X165535000Y-220890000D01*
X165535000Y-221820700D01*
X165640058Y-221871065D01*
X165831585Y-222003687D01*
X165996313Y-222168415D01*
G36*
X167105000Y-222465000D02*
G01*
X166179300Y-222465000D01*
X166128935Y-222359942D01*
X165996313Y-222168415D01*
X165831585Y-222003687D01*
X165640058Y-221871065D01*
X165535000Y-221820700D01*
X165535000Y-220890000D01*
X167105000Y-220890000D01*
X167105000Y-222465000D01*
G37*
X166128935Y-223640058D02*
X165996313Y-223831584D01*
X165831584Y-223996313D01*
X165640058Y-224128935D01*
X165535000Y-224179300D01*
X165535000Y-225110000D01*
X167105000Y-225110000D01*
X167105000Y-223535000D01*
X166179300Y-223535000D01*
X166128935Y-223640058D01*
G36*
X167105000Y-225110000D02*
G01*
X165535000Y-225110000D01*
X165535000Y-224179300D01*
X165640058Y-224128935D01*
X165831584Y-223996313D01*
X165996313Y-223831584D01*
X166128935Y-223640058D01*
X166179300Y-223535000D01*
X167105000Y-223535000D01*
X167105000Y-225110000D01*
G37*
%TO.C,JMH*%
X164465000Y-151820700D02*
X164465000Y-150890000D01*
X162895000Y-150890000D01*
X162895000Y-152465000D01*
X163820700Y-152465000D01*
X163871065Y-152359942D01*
X164003687Y-152168416D01*
X164168416Y-152003687D01*
X164359942Y-151871065D01*
X164465000Y-151820700D01*
G36*
X164465000Y-151820700D02*
G01*
X164359942Y-151871065D01*
X164168416Y-152003687D01*
X164003687Y-152168416D01*
X163871065Y-152359942D01*
X163820700Y-152465000D01*
X162895000Y-152465000D01*
X162895000Y-150890000D01*
X164465000Y-150890000D01*
X164465000Y-151820700D01*
G37*
X164465000Y-154179300D02*
X164359942Y-154128935D01*
X164168416Y-153996313D01*
X164003687Y-153831584D01*
X163871065Y-153640058D01*
X163820700Y-153535000D01*
X162895000Y-153535000D01*
X162895000Y-155110000D01*
X164465000Y-155110000D01*
X164465000Y-154179300D01*
G36*
X163871065Y-153640058D02*
G01*
X164003687Y-153831584D01*
X164168416Y-153996313D01*
X164359942Y-154128935D01*
X164465000Y-154179300D01*
X164465000Y-155110000D01*
X162895000Y-155110000D01*
X162895000Y-153535000D01*
X163820700Y-153535000D01*
X163871065Y-153640058D01*
G37*
X165996313Y-152168415D02*
X166128935Y-152359942D01*
X166179300Y-152465000D01*
X167105000Y-152465000D01*
X167105000Y-150890000D01*
X165535000Y-150890000D01*
X165535000Y-151820700D01*
X165640058Y-151871065D01*
X165831585Y-152003687D01*
X165996313Y-152168415D01*
G36*
X167105000Y-152465000D02*
G01*
X166179300Y-152465000D01*
X166128935Y-152359942D01*
X165996313Y-152168415D01*
X165831585Y-152003687D01*
X165640058Y-151871065D01*
X165535000Y-151820700D01*
X165535000Y-150890000D01*
X167105000Y-150890000D01*
X167105000Y-152465000D01*
G37*
X166128935Y-153640058D02*
X165996313Y-153831584D01*
X165831584Y-153996313D01*
X165640058Y-154128935D01*
X165535000Y-154179300D01*
X165535000Y-155110000D01*
X167105000Y-155110000D01*
X167105000Y-153535000D01*
X166179300Y-153535000D01*
X166128935Y-153640058D01*
G36*
X167105000Y-155110000D02*
G01*
X165535000Y-155110000D01*
X165535000Y-154179300D01*
X165640058Y-154128935D01*
X165831584Y-153996313D01*
X165996313Y-153831584D01*
X166128935Y-153640058D01*
X166179300Y-153535000D01*
X167105000Y-153535000D01*
X167105000Y-155110000D01*
G37*
%TO.C,JMG*%
X164465000Y-81820700D02*
X164465000Y-80890000D01*
X162895000Y-80890000D01*
X162895000Y-82465000D01*
X163820700Y-82465000D01*
X163871065Y-82359942D01*
X164003687Y-82168416D01*
X164168416Y-82003687D01*
X164359942Y-81871065D01*
X164465000Y-81820700D01*
G36*
X164465000Y-81820700D02*
G01*
X164359942Y-81871065D01*
X164168416Y-82003687D01*
X164003687Y-82168416D01*
X163871065Y-82359942D01*
X163820700Y-82465000D01*
X162895000Y-82465000D01*
X162895000Y-80890000D01*
X164465000Y-80890000D01*
X164465000Y-81820700D01*
G37*
X164465000Y-84179300D02*
X164359942Y-84128935D01*
X164168416Y-83996313D01*
X164003687Y-83831584D01*
X163871065Y-83640058D01*
X163820700Y-83535000D01*
X162895000Y-83535000D01*
X162895000Y-85110000D01*
X164465000Y-85110000D01*
X164465000Y-84179300D01*
G36*
X163871065Y-83640058D02*
G01*
X164003687Y-83831584D01*
X164168416Y-83996313D01*
X164359942Y-84128935D01*
X164465000Y-84179300D01*
X164465000Y-85110000D01*
X162895000Y-85110000D01*
X162895000Y-83535000D01*
X163820700Y-83535000D01*
X163871065Y-83640058D01*
G37*
X165996313Y-82168415D02*
X166128935Y-82359942D01*
X166179300Y-82465000D01*
X167105000Y-82465000D01*
X167105000Y-80890000D01*
X165535000Y-80890000D01*
X165535000Y-81820700D01*
X165640058Y-81871065D01*
X165831585Y-82003687D01*
X165996313Y-82168415D01*
G36*
X167105000Y-82465000D02*
G01*
X166179300Y-82465000D01*
X166128935Y-82359942D01*
X165996313Y-82168415D01*
X165831585Y-82003687D01*
X165640058Y-81871065D01*
X165535000Y-81820700D01*
X165535000Y-80890000D01*
X167105000Y-80890000D01*
X167105000Y-82465000D01*
G37*
X166128935Y-83640058D02*
X165996313Y-83831584D01*
X165831584Y-83996313D01*
X165640058Y-84128935D01*
X165535000Y-84179300D01*
X165535000Y-85110000D01*
X167105000Y-85110000D01*
X167105000Y-83535000D01*
X166179300Y-83535000D01*
X166128935Y-83640058D01*
G36*
X167105000Y-85110000D02*
G01*
X165535000Y-85110000D01*
X165535000Y-84179300D01*
X165640058Y-84128935D01*
X165831584Y-83996313D01*
X165996313Y-83831584D01*
X166128935Y-83640058D01*
X166179300Y-83535000D01*
X167105000Y-83535000D01*
X167105000Y-85110000D01*
G37*
%TO.C,JMA*%
X48465000Y-81820700D02*
X48465000Y-80890000D01*
X46895000Y-80890000D01*
X46895000Y-82465000D01*
X47820700Y-82465000D01*
X47871065Y-82359942D01*
X48003687Y-82168416D01*
X48168416Y-82003687D01*
X48359942Y-81871065D01*
X48465000Y-81820700D01*
G36*
X48465000Y-81820700D02*
G01*
X48359942Y-81871065D01*
X48168416Y-82003687D01*
X48003687Y-82168416D01*
X47871065Y-82359942D01*
X47820700Y-82465000D01*
X46895000Y-82465000D01*
X46895000Y-80890000D01*
X48465000Y-80890000D01*
X48465000Y-81820700D01*
G37*
X48465000Y-84179300D02*
X48359942Y-84128935D01*
X48168416Y-83996313D01*
X48003687Y-83831584D01*
X47871065Y-83640058D01*
X47820700Y-83535000D01*
X46895000Y-83535000D01*
X46895000Y-85110000D01*
X48465000Y-85110000D01*
X48465000Y-84179300D01*
G36*
X47871065Y-83640058D02*
G01*
X48003687Y-83831584D01*
X48168416Y-83996313D01*
X48359942Y-84128935D01*
X48465000Y-84179300D01*
X48465000Y-85110000D01*
X46895000Y-85110000D01*
X46895000Y-83535000D01*
X47820700Y-83535000D01*
X47871065Y-83640058D01*
G37*
X49996313Y-82168415D02*
X50128935Y-82359942D01*
X50179300Y-82465000D01*
X51105000Y-82465000D01*
X51105000Y-80890000D01*
X49535000Y-80890000D01*
X49535000Y-81820700D01*
X49640058Y-81871065D01*
X49831585Y-82003687D01*
X49996313Y-82168415D01*
G36*
X51105000Y-82465000D02*
G01*
X50179300Y-82465000D01*
X50128935Y-82359942D01*
X49996313Y-82168415D01*
X49831585Y-82003687D01*
X49640058Y-81871065D01*
X49535000Y-81820700D01*
X49535000Y-80890000D01*
X51105000Y-80890000D01*
X51105000Y-82465000D01*
G37*
X50128935Y-83640058D02*
X49996313Y-83831584D01*
X49831584Y-83996313D01*
X49640058Y-84128935D01*
X49535000Y-84179300D01*
X49535000Y-85110000D01*
X51105000Y-85110000D01*
X51105000Y-83535000D01*
X50179300Y-83535000D01*
X50128935Y-83640058D01*
G36*
X51105000Y-85110000D02*
G01*
X49535000Y-85110000D01*
X49535000Y-84179300D01*
X49640058Y-84128935D01*
X49831584Y-83996313D01*
X49996313Y-83831584D01*
X50128935Y-83640058D01*
X50179300Y-83535000D01*
X51105000Y-83535000D01*
X51105000Y-85110000D01*
G37*
%TO.C,JMC*%
X48465000Y-221820700D02*
X48465000Y-220890000D01*
X46895000Y-220890000D01*
X46895000Y-222465000D01*
X47820700Y-222465000D01*
X47871065Y-222359942D01*
X48003687Y-222168416D01*
X48168416Y-222003687D01*
X48359942Y-221871065D01*
X48465000Y-221820700D01*
G36*
X48465000Y-221820700D02*
G01*
X48359942Y-221871065D01*
X48168416Y-222003687D01*
X48003687Y-222168416D01*
X47871065Y-222359942D01*
X47820700Y-222465000D01*
X46895000Y-222465000D01*
X46895000Y-220890000D01*
X48465000Y-220890000D01*
X48465000Y-221820700D01*
G37*
X48465000Y-224179300D02*
X48359942Y-224128935D01*
X48168416Y-223996313D01*
X48003687Y-223831584D01*
X47871065Y-223640058D01*
X47820700Y-223535000D01*
X46895000Y-223535000D01*
X46895000Y-225110000D01*
X48465000Y-225110000D01*
X48465000Y-224179300D01*
G36*
X47871065Y-223640058D02*
G01*
X48003687Y-223831584D01*
X48168416Y-223996313D01*
X48359942Y-224128935D01*
X48465000Y-224179300D01*
X48465000Y-225110000D01*
X46895000Y-225110000D01*
X46895000Y-223535000D01*
X47820700Y-223535000D01*
X47871065Y-223640058D01*
G37*
X49996313Y-222168415D02*
X50128935Y-222359942D01*
X50179300Y-222465000D01*
X51105000Y-222465000D01*
X51105000Y-220890000D01*
X49535000Y-220890000D01*
X49535000Y-221820700D01*
X49640058Y-221871065D01*
X49831585Y-222003687D01*
X49996313Y-222168415D01*
G36*
X51105000Y-222465000D02*
G01*
X50179300Y-222465000D01*
X50128935Y-222359942D01*
X49996313Y-222168415D01*
X49831585Y-222003687D01*
X49640058Y-221871065D01*
X49535000Y-221820700D01*
X49535000Y-220890000D01*
X51105000Y-220890000D01*
X51105000Y-222465000D01*
G37*
X50128935Y-223640058D02*
X49996313Y-223831584D01*
X49831584Y-223996313D01*
X49640058Y-224128935D01*
X49535000Y-224179300D01*
X49535000Y-225110000D01*
X51105000Y-225110000D01*
X51105000Y-223535000D01*
X50179300Y-223535000D01*
X50128935Y-223640058D01*
G36*
X51105000Y-225110000D02*
G01*
X49535000Y-225110000D01*
X49535000Y-224179300D01*
X49640058Y-224128935D01*
X49831584Y-223996313D01*
X49996313Y-223831584D01*
X50128935Y-223640058D01*
X50179300Y-223535000D01*
X51105000Y-223535000D01*
X51105000Y-225110000D01*
G37*
%TO.C,JME*%
X106465000Y-151820700D02*
X106465000Y-150890000D01*
X104895000Y-150890000D01*
X104895000Y-152465000D01*
X105820700Y-152465000D01*
X105871065Y-152359942D01*
X106003687Y-152168416D01*
X106168416Y-152003687D01*
X106359942Y-151871065D01*
X106465000Y-151820700D01*
G36*
X106465000Y-151820700D02*
G01*
X106359942Y-151871065D01*
X106168416Y-152003687D01*
X106003687Y-152168416D01*
X105871065Y-152359942D01*
X105820700Y-152465000D01*
X104895000Y-152465000D01*
X104895000Y-150890000D01*
X106465000Y-150890000D01*
X106465000Y-151820700D01*
G37*
X106465000Y-154179300D02*
X106359942Y-154128935D01*
X106168416Y-153996313D01*
X106003687Y-153831584D01*
X105871065Y-153640058D01*
X105820700Y-153535000D01*
X104895000Y-153535000D01*
X104895000Y-155110000D01*
X106465000Y-155110000D01*
X106465000Y-154179300D01*
G36*
X105871065Y-153640058D02*
G01*
X106003687Y-153831584D01*
X106168416Y-153996313D01*
X106359942Y-154128935D01*
X106465000Y-154179300D01*
X106465000Y-155110000D01*
X104895000Y-155110000D01*
X104895000Y-153535000D01*
X105820700Y-153535000D01*
X105871065Y-153640058D01*
G37*
X107996313Y-152168415D02*
X108128935Y-152359942D01*
X108179300Y-152465000D01*
X109105000Y-152465000D01*
X109105000Y-150890000D01*
X107535000Y-150890000D01*
X107535000Y-151820700D01*
X107640058Y-151871065D01*
X107831585Y-152003687D01*
X107996313Y-152168415D01*
G36*
X109105000Y-152465000D02*
G01*
X108179300Y-152465000D01*
X108128935Y-152359942D01*
X107996313Y-152168415D01*
X107831585Y-152003687D01*
X107640058Y-151871065D01*
X107535000Y-151820700D01*
X107535000Y-150890000D01*
X109105000Y-150890000D01*
X109105000Y-152465000D01*
G37*
X108128935Y-153640058D02*
X107996313Y-153831584D01*
X107831584Y-153996313D01*
X107640058Y-154128935D01*
X107535000Y-154179300D01*
X107535000Y-155110000D01*
X109105000Y-155110000D01*
X109105000Y-153535000D01*
X108179300Y-153535000D01*
X108128935Y-153640058D01*
G36*
X109105000Y-155110000D02*
G01*
X107535000Y-155110000D01*
X107535000Y-154179300D01*
X107640058Y-154128935D01*
X107831584Y-153996313D01*
X107996313Y-153831584D01*
X108128935Y-153640058D01*
X108179300Y-153535000D01*
X109105000Y-153535000D01*
X109105000Y-155110000D01*
G37*
%TO.C,JMB*%
X48465000Y-151820700D02*
X48465000Y-150890000D01*
X46895000Y-150890000D01*
X46895000Y-152465000D01*
X47820700Y-152465000D01*
X47871065Y-152359942D01*
X48003687Y-152168416D01*
X48168416Y-152003687D01*
X48359942Y-151871065D01*
X48465000Y-151820700D01*
G36*
X48465000Y-151820700D02*
G01*
X48359942Y-151871065D01*
X48168416Y-152003687D01*
X48003687Y-152168416D01*
X47871065Y-152359942D01*
X47820700Y-152465000D01*
X46895000Y-152465000D01*
X46895000Y-150890000D01*
X48465000Y-150890000D01*
X48465000Y-151820700D01*
G37*
X48465000Y-154179300D02*
X48359942Y-154128935D01*
X48168416Y-153996313D01*
X48003687Y-153831584D01*
X47871065Y-153640058D01*
X47820700Y-153535000D01*
X46895000Y-153535000D01*
X46895000Y-155110000D01*
X48465000Y-155110000D01*
X48465000Y-154179300D01*
G36*
X47871065Y-153640058D02*
G01*
X48003687Y-153831584D01*
X48168416Y-153996313D01*
X48359942Y-154128935D01*
X48465000Y-154179300D01*
X48465000Y-155110000D01*
X46895000Y-155110000D01*
X46895000Y-153535000D01*
X47820700Y-153535000D01*
X47871065Y-153640058D01*
G37*
X49996313Y-152168415D02*
X50128935Y-152359942D01*
X50179300Y-152465000D01*
X51105000Y-152465000D01*
X51105000Y-150890000D01*
X49535000Y-150890000D01*
X49535000Y-151820700D01*
X49640058Y-151871065D01*
X49831585Y-152003687D01*
X49996313Y-152168415D01*
G36*
X51105000Y-152465000D02*
G01*
X50179300Y-152465000D01*
X50128935Y-152359942D01*
X49996313Y-152168415D01*
X49831585Y-152003687D01*
X49640058Y-151871065D01*
X49535000Y-151820700D01*
X49535000Y-150890000D01*
X51105000Y-150890000D01*
X51105000Y-152465000D01*
G37*
X50128935Y-153640058D02*
X49996313Y-153831584D01*
X49831584Y-153996313D01*
X49640058Y-154128935D01*
X49535000Y-154179300D01*
X49535000Y-155110000D01*
X51105000Y-155110000D01*
X51105000Y-153535000D01*
X50179300Y-153535000D01*
X50128935Y-153640058D01*
G36*
X51105000Y-155110000D02*
G01*
X49535000Y-155110000D01*
X49535000Y-154179300D01*
X49640058Y-154128935D01*
X49831584Y-153996313D01*
X49996313Y-153831584D01*
X50128935Y-153640058D01*
X50179300Y-153535000D01*
X51105000Y-153535000D01*
X51105000Y-155110000D01*
G37*
%TO.C,JMF*%
X106465000Y-221820700D02*
X106465000Y-220890000D01*
X104895000Y-220890000D01*
X104895000Y-222465000D01*
X105820700Y-222465000D01*
X105871065Y-222359942D01*
X106003687Y-222168416D01*
X106168416Y-222003687D01*
X106359942Y-221871065D01*
X106465000Y-221820700D01*
G36*
X106465000Y-221820700D02*
G01*
X106359942Y-221871065D01*
X106168416Y-222003687D01*
X106003687Y-222168416D01*
X105871065Y-222359942D01*
X105820700Y-222465000D01*
X104895000Y-222465000D01*
X104895000Y-220890000D01*
X106465000Y-220890000D01*
X106465000Y-221820700D01*
G37*
X106465000Y-224179300D02*
X106359942Y-224128935D01*
X106168416Y-223996313D01*
X106003687Y-223831584D01*
X105871065Y-223640058D01*
X105820700Y-223535000D01*
X104895000Y-223535000D01*
X104895000Y-225110000D01*
X106465000Y-225110000D01*
X106465000Y-224179300D01*
G36*
X105871065Y-223640058D02*
G01*
X106003687Y-223831584D01*
X106168416Y-223996313D01*
X106359942Y-224128935D01*
X106465000Y-224179300D01*
X106465000Y-225110000D01*
X104895000Y-225110000D01*
X104895000Y-223535000D01*
X105820700Y-223535000D01*
X105871065Y-223640058D01*
G37*
X107996313Y-222168415D02*
X108128935Y-222359942D01*
X108179300Y-222465000D01*
X109105000Y-222465000D01*
X109105000Y-220890000D01*
X107535000Y-220890000D01*
X107535000Y-221820700D01*
X107640058Y-221871065D01*
X107831585Y-222003687D01*
X107996313Y-222168415D01*
G36*
X109105000Y-222465000D02*
G01*
X108179300Y-222465000D01*
X108128935Y-222359942D01*
X107996313Y-222168415D01*
X107831585Y-222003687D01*
X107640058Y-221871065D01*
X107535000Y-221820700D01*
X107535000Y-220890000D01*
X109105000Y-220890000D01*
X109105000Y-222465000D01*
G37*
X108128935Y-223640058D02*
X107996313Y-223831584D01*
X107831584Y-223996313D01*
X107640058Y-224128935D01*
X107535000Y-224179300D01*
X107535000Y-225110000D01*
X109105000Y-225110000D01*
X109105000Y-223535000D01*
X108179300Y-223535000D01*
X108128935Y-223640058D01*
G36*
X109105000Y-225110000D02*
G01*
X107535000Y-225110000D01*
X107535000Y-224179300D01*
X107640058Y-224128935D01*
X107831584Y-223996313D01*
X107996313Y-223831584D01*
X108128935Y-223640058D01*
X108179300Y-223535000D01*
X109105000Y-223535000D01*
X109105000Y-225110000D01*
G37*
%TD*%
D11*
%TO.C,JUD*%
X107000000Y-85975000D03*
D12*
X108475000Y-87500000D03*
X105525000Y-87500000D03*
%TD*%
D11*
%TO.C,JUA*%
X49000000Y-85975000D03*
D12*
X50475000Y-87500000D03*
X47525000Y-87500000D03*
%TD*%
D13*
%TO.C,JMD*%
X107000000Y-83000000D03*
%TD*%
D11*
%TO.C,JUB*%
X49000000Y-155975000D03*
D12*
X50475000Y-157500000D03*
X47525000Y-157500000D03*
%TD*%
D11*
%TO.C,JUC*%
X49000000Y-225975000D03*
D12*
X50475000Y-227500000D03*
X47525000Y-227500000D03*
%TD*%
D13*
%TO.C,JMI*%
X165000000Y-223000000D03*
%TD*%
%TO.C,JMH*%
X165000000Y-153000000D03*
%TD*%
%TO.C,JMG*%
X165000000Y-83000000D03*
%TD*%
%TO.C,JMA*%
X49000000Y-83000000D03*
%TD*%
D11*
%TO.C,JUF*%
X107000000Y-225975000D03*
D12*
X108475000Y-227500000D03*
X105525000Y-227500000D03*
%TD*%
D11*
%TO.C,JUG*%
X165000000Y-85975000D03*
D12*
X166475000Y-87500000D03*
X163525000Y-87500000D03*
%TD*%
D11*
%TO.C,JUE*%
X107000000Y-155975000D03*
D12*
X108475000Y-157500000D03*
X105525000Y-157500000D03*
%TD*%
D11*
%TO.C,JUH*%
X165000000Y-155975000D03*
D12*
X166475000Y-157500000D03*
X163525000Y-157500000D03*
%TD*%
D13*
%TO.C,JMC*%
X49000000Y-223000000D03*
%TD*%
%TO.C,JME*%
X107000000Y-153000000D03*
%TD*%
D11*
%TO.C,JUI*%
X165000000Y-225975000D03*
D12*
X166475000Y-227500000D03*
X163525000Y-227500000D03*
%TD*%
D13*
%TO.C,JMB*%
X49000000Y-153000000D03*
%TD*%
%TO.C,JMF*%
X107000000Y-223000000D03*
%TD*%
M02*
