%TF.GenerationSoftware,KiCad,Pcbnew,10.0.1*%
%TF.CreationDate,2026-05-04T22:49:38-04:00*%
%TF.ProjectId,patch_antenna_smp,70617463-685f-4616-9e74-656e6e615f73,7.13*%
%TF.SameCoordinates,Original*%
%TF.FileFunction,Copper,L1,Top*%
%TF.FilePolarity,Positive*%
%FSLAX46Y46*%
G04 Gerber Fmt 4.6, Leading zero omitted, Abs format (unit mm)*
G04 Created by KiCad (PCBNEW 10.0.1) date 2026-05-04 22:49:38*
%MOMM*%
%LPD*%
G01*
G04 APERTURE LIST*
%TA.AperFunction,SMDPad,CuDef*%
%ADD10C,0.710000*%
%TD*%
%TA.AperFunction,SMDPad,CuDef*%
%ADD11R,0.970000X1.470000*%
%TD*%
%TA.AperFunction,ViaPad*%
%ADD12C,0.800000*%
%TD*%
G04 APERTURE END LIST*
D10*
%TO.P,JA,1*%
%TO.N,RF_IN*%
X210000000Y-116800000D03*
D11*
%TO.P,JA,2*%
%TO.N,GND*%
X207765000Y-112765000D03*
%TO.P,JA,3*%
X212235000Y-112765000D03*
%TD*%
D10*
%TO.P,JB,1*%
%TO.N,RF_IN*%
X210000000Y-186800000D03*
D11*
%TO.P,JB,2*%
%TO.N,GND*%
X207765000Y-182765000D03*
%TO.P,JB,3*%
X212235000Y-182765000D03*
%TD*%
D10*
%TO.P,JC,1*%
%TO.N,RF_IN*%
X210000000Y-256800000D03*
D11*
%TO.P,JC,2*%
%TO.N,GND*%
X207765000Y-252765000D03*
%TO.P,JC,3*%
X212235000Y-252765000D03*
%TD*%
D12*
%TO.N,GND*%
X206500000Y-111500000D03*
X213500000Y-111500000D03*
X206500000Y-181500000D03*
X213500000Y-181500000D03*
X206500000Y-251500000D03*
X213500000Y-251500000D03*
%TD*%
%TA.AperFunction,Conductor*%
%TO.N,RF_IN*%
G36*
X228961139Y-55798485D02*
G01*
X229006894Y-55851289D01*
X229018100Y-55902800D01*
X229018100Y-85097200D01*
X228998415Y-85164239D01*
X228945611Y-85209994D01*
X228894100Y-85221200D01*
X213274000Y-85221200D01*
X213206961Y-85201515D01*
X213161206Y-85148711D01*
X213150000Y-85097200D01*
X213150000Y-75407100D01*
X211550000Y-75407100D01*
X211550000Y-85221200D01*
X208450000Y-85221200D01*
X208450000Y-75407100D01*
X206850000Y-75407100D01*
X206850000Y-85097200D01*
X206830315Y-85164239D01*
X206777511Y-85209994D01*
X206726000Y-85221200D01*
X191105900Y-85221200D01*
X191038861Y-85201515D01*
X190993106Y-85148711D01*
X190981900Y-85097200D01*
X190981900Y-55902800D01*
X191001585Y-55835761D01*
X191054389Y-55790006D01*
X191105900Y-55778800D01*
X228894100Y-55778800D01*
X228961139Y-55798485D01*
G37*
%TD.AperFunction*%
%TD*%
%TA.AperFunction,Conductor*%
%TO.N,RF_IN*%
G36*
X211550000Y-108375500D02*
G01*
X211530315Y-108442539D01*
X211477511Y-108488294D01*
X211426000Y-108499500D01*
X208574000Y-108499500D01*
X208506961Y-108479815D01*
X208461206Y-108427011D01*
X208450000Y-108375500D01*
X208450000Y-85221200D01*
X211550000Y-85221200D01*
X211550000Y-108375500D01*
G37*
%TD.AperFunction*%
%TD*%
%TA.AperFunction,Conductor*%
%TO.N,RF_IN*%
G36*
X228961139Y-125798485D02*
G01*
X229006894Y-125851289D01*
X229018100Y-125902800D01*
X229018100Y-155097200D01*
X228998415Y-155164239D01*
X228945611Y-155209994D01*
X228894100Y-155221200D01*
X213274000Y-155221200D01*
X213206961Y-155201515D01*
X213161206Y-155148711D01*
X213150000Y-155097200D01*
X213150000Y-147721200D01*
X211550000Y-147721200D01*
X211550000Y-155221200D01*
X208450000Y-155221200D01*
X208450000Y-147721200D01*
X206850000Y-147721200D01*
X206850000Y-155097200D01*
X206830315Y-155164239D01*
X206777511Y-155209994D01*
X206726000Y-155221200D01*
X191105900Y-155221200D01*
X191038861Y-155201515D01*
X190993106Y-155148711D01*
X190981900Y-155097200D01*
X190981900Y-125902800D01*
X191001585Y-125835761D01*
X191054389Y-125790006D01*
X191105900Y-125778800D01*
X228894100Y-125778800D01*
X228961139Y-125798485D01*
G37*
%TD.AperFunction*%
%TD*%
%TA.AperFunction,Conductor*%
%TO.N,RF_IN*%
G36*
X211550000Y-178375500D02*
G01*
X211530315Y-178442539D01*
X211477511Y-178488294D01*
X211426000Y-178499500D01*
X208574000Y-178499500D01*
X208506961Y-178479815D01*
X208461206Y-178427011D01*
X208450000Y-178375500D01*
X208450000Y-155221200D01*
X211550000Y-155221200D01*
X211550000Y-178375500D01*
G37*
%TD.AperFunction*%
%TD*%
%TA.AperFunction,Conductor*%
%TO.N,RF_IN*%
G36*
X228961139Y-195798485D02*
G01*
X229006894Y-195851289D01*
X229018100Y-195902800D01*
X229018100Y-225097200D01*
X228998415Y-225164239D01*
X228945611Y-225209994D01*
X228894100Y-225221200D01*
X191105900Y-225221200D01*
X191038861Y-225201515D01*
X190993106Y-225148711D01*
X190981900Y-225097200D01*
X190981900Y-195902800D01*
X191001585Y-195835761D01*
X191054389Y-195790006D01*
X191105900Y-195778800D01*
X228894100Y-195778800D01*
X228961139Y-195798485D01*
G37*
%TD.AperFunction*%
%TD*%
%TA.AperFunction,Conductor*%
%TO.N,RF_IN*%
G36*
X210354600Y-243201000D02*
G01*
X209645400Y-243201000D01*
X209645400Y-225221200D01*
X210354600Y-225221200D01*
X210354600Y-243201000D01*
G37*
%TD.AperFunction*%
%TD*%
%TA.AperFunction,Conductor*%
%TO.N,RF_IN*%
G36*
X211493039Y-243220685D02*
G01*
X211538794Y-243273489D01*
X211550000Y-243325000D01*
X211550000Y-248375500D01*
X211530315Y-248442539D01*
X211477511Y-248488294D01*
X211426000Y-248499500D01*
X208574000Y-248499500D01*
X208506961Y-248479815D01*
X208461206Y-248427011D01*
X208450000Y-248375500D01*
X208450000Y-243325000D01*
X208469685Y-243257961D01*
X208522489Y-243212206D01*
X208574000Y-243201000D01*
X209645400Y-243201000D01*
X210354600Y-243201000D01*
X211426000Y-243201000D01*
X211493039Y-243220685D01*
G37*
%TD.AperFunction*%
%TD*%
%TA.AperFunction,Conductor*%
%TO.N,GND*%
G36*
X207642606Y-110005023D02*
G01*
X207657604Y-110009427D01*
X207672594Y-110019057D01*
X207689675Y-110024067D01*
X207716355Y-110047172D01*
X207717542Y-110048541D01*
X207745018Y-110103402D01*
X207746663Y-110110960D01*
X207749500Y-110137331D01*
X207749500Y-113358170D01*
X207744475Y-113393114D01*
X207740070Y-113408112D01*
X207730439Y-113423101D01*
X207725432Y-113440175D01*
X207702327Y-113466855D01*
X207700958Y-113468042D01*
X207646097Y-113495518D01*
X207638539Y-113497163D01*
X207612168Y-113500000D01*
X205141830Y-113500000D01*
X205106889Y-113494975D01*
X205091890Y-113490570D01*
X205076902Y-113480940D01*
X205059824Y-113475932D01*
X205033144Y-113452827D01*
X205031957Y-113451458D01*
X205004477Y-113396583D01*
X205002832Y-113389021D01*
X205000000Y-113362668D01*
X205000000Y-110141829D01*
X205005023Y-110106893D01*
X205009427Y-110091895D01*
X205019057Y-110076904D01*
X205024067Y-110059824D01*
X205047172Y-110033144D01*
X205048541Y-110031957D01*
X205103420Y-110004477D01*
X205110979Y-110002833D01*
X205137332Y-110000000D01*
X207607670Y-110000000D01*
X207642606Y-110005023D01*
G37*
%TD.AperFunction*%
%TD*%
%TA.AperFunction,Conductor*%
%TO.N,GND*%
G36*
X214893106Y-110005023D02*
G01*
X214908104Y-110009427D01*
X214923094Y-110019057D01*
X214940175Y-110024067D01*
X214966855Y-110047172D01*
X214968042Y-110048541D01*
X214995518Y-110103402D01*
X214997163Y-110110960D01*
X215000000Y-110137331D01*
X215000000Y-113358170D01*
X214994975Y-113393114D01*
X214990570Y-113408112D01*
X214980939Y-113423101D01*
X214975932Y-113440175D01*
X214952827Y-113466855D01*
X214951458Y-113468042D01*
X214896597Y-113495518D01*
X214889039Y-113497163D01*
X214862668Y-113500000D01*
X212392330Y-113500000D01*
X212357389Y-113494975D01*
X212342390Y-113490570D01*
X212327402Y-113480940D01*
X212310324Y-113475932D01*
X212283644Y-113452827D01*
X212282457Y-113451458D01*
X212254977Y-113396583D01*
X212253332Y-113389021D01*
X212250500Y-113362668D01*
X212250500Y-110141829D01*
X212255523Y-110106893D01*
X212259927Y-110091895D01*
X212269557Y-110076904D01*
X212274567Y-110059824D01*
X212297672Y-110033144D01*
X212299041Y-110031957D01*
X212353920Y-110004477D01*
X212361479Y-110002833D01*
X212387832Y-110000000D01*
X214858170Y-110000000D01*
X214893106Y-110005023D01*
G37*
%TD.AperFunction*%
%TD*%
%TA.AperFunction,Conductor*%
%TO.N,GND*%
G36*
X207642606Y-180005023D02*
G01*
X207657604Y-180009427D01*
X207672594Y-180019057D01*
X207689675Y-180024067D01*
X207716355Y-180047172D01*
X207717542Y-180048541D01*
X207745018Y-180103402D01*
X207746663Y-180110960D01*
X207749500Y-180137331D01*
X207749500Y-183358170D01*
X207744475Y-183393114D01*
X207740070Y-183408112D01*
X207730439Y-183423101D01*
X207725432Y-183440175D01*
X207702327Y-183466855D01*
X207700958Y-183468042D01*
X207646097Y-183495518D01*
X207638539Y-183497163D01*
X207612168Y-183500000D01*
X205141830Y-183500000D01*
X205106889Y-183494975D01*
X205091890Y-183490570D01*
X205076902Y-183480940D01*
X205059824Y-183475932D01*
X205033144Y-183452827D01*
X205031957Y-183451458D01*
X205004477Y-183396583D01*
X205002832Y-183389021D01*
X205000000Y-183362668D01*
X205000000Y-180141829D01*
X205005023Y-180106893D01*
X205009427Y-180091895D01*
X205019057Y-180076904D01*
X205024067Y-180059824D01*
X205047172Y-180033144D01*
X205048541Y-180031957D01*
X205103420Y-180004477D01*
X205110979Y-180002833D01*
X205137332Y-180000000D01*
X207607670Y-180000000D01*
X207642606Y-180005023D01*
G37*
%TD.AperFunction*%
%TD*%
%TA.AperFunction,Conductor*%
%TO.N,GND*%
G36*
X214893106Y-180005023D02*
G01*
X214908104Y-180009427D01*
X214923094Y-180019057D01*
X214940175Y-180024067D01*
X214966855Y-180047172D01*
X214968042Y-180048541D01*
X214995518Y-180103402D01*
X214997163Y-180110960D01*
X215000000Y-180137331D01*
X215000000Y-183358170D01*
X214994975Y-183393114D01*
X214990570Y-183408112D01*
X214980939Y-183423101D01*
X214975932Y-183440175D01*
X214952827Y-183466855D01*
X214951458Y-183468042D01*
X214896597Y-183495518D01*
X214889039Y-183497163D01*
X214862668Y-183500000D01*
X212392330Y-183500000D01*
X212357389Y-183494975D01*
X212342390Y-183490570D01*
X212327402Y-183480940D01*
X212310324Y-183475932D01*
X212283644Y-183452827D01*
X212282457Y-183451458D01*
X212254977Y-183396583D01*
X212253332Y-183389021D01*
X212250500Y-183362668D01*
X212250500Y-180141829D01*
X212255523Y-180106893D01*
X212259927Y-180091895D01*
X212269557Y-180076904D01*
X212274567Y-180059824D01*
X212297672Y-180033144D01*
X212299041Y-180031957D01*
X212353920Y-180004477D01*
X212361479Y-180002833D01*
X212387832Y-180000000D01*
X214858170Y-180000000D01*
X214893106Y-180005023D01*
G37*
%TD.AperFunction*%
%TD*%
%TA.AperFunction,Conductor*%
%TO.N,GND*%
G36*
X207642606Y-250005023D02*
G01*
X207657604Y-250009427D01*
X207672594Y-250019057D01*
X207689675Y-250024067D01*
X207716355Y-250047172D01*
X207717542Y-250048541D01*
X207745018Y-250103402D01*
X207746663Y-250110960D01*
X207749500Y-250137331D01*
X207749500Y-252857670D01*
X207744475Y-252892614D01*
X207740070Y-252907612D01*
X207730439Y-252922601D01*
X207725432Y-252939675D01*
X207702327Y-252966355D01*
X207700958Y-252967542D01*
X207646097Y-252995018D01*
X207638539Y-252996663D01*
X207612168Y-252999500D01*
X205141830Y-252999500D01*
X205106889Y-252994475D01*
X205091890Y-252990070D01*
X205076902Y-252980440D01*
X205059824Y-252975432D01*
X205033144Y-252952327D01*
X205031957Y-252950958D01*
X205004477Y-252896083D01*
X205002832Y-252888521D01*
X205000000Y-252862168D01*
X205000000Y-250141829D01*
X205005023Y-250106893D01*
X205009427Y-250091895D01*
X205019057Y-250076904D01*
X205024067Y-250059824D01*
X205047172Y-250033144D01*
X205048541Y-250031957D01*
X205103420Y-250004477D01*
X205110979Y-250002833D01*
X205137332Y-250000000D01*
X207607670Y-250000000D01*
X207642606Y-250005023D01*
G37*
%TD.AperFunction*%
%TD*%
%TA.AperFunction,Conductor*%
%TO.N,GND*%
G36*
X214893106Y-250005023D02*
G01*
X214908104Y-250009427D01*
X214923094Y-250019057D01*
X214940175Y-250024067D01*
X214966855Y-250047172D01*
X214968042Y-250048541D01*
X214995518Y-250103402D01*
X214997163Y-250110960D01*
X215000000Y-250137331D01*
X215000000Y-252857670D01*
X214994975Y-252892614D01*
X214990570Y-252907612D01*
X214980939Y-252922601D01*
X214975932Y-252939675D01*
X214952827Y-252966355D01*
X214951458Y-252967542D01*
X214896597Y-252995018D01*
X214889039Y-252996663D01*
X214862668Y-252999500D01*
X212392330Y-252999500D01*
X212357389Y-252994475D01*
X212342390Y-252990070D01*
X212327402Y-252980440D01*
X212310324Y-252975432D01*
X212283644Y-252952327D01*
X212282457Y-252950958D01*
X212254977Y-252896083D01*
X212253332Y-252888521D01*
X212250500Y-252862168D01*
X212250500Y-250141829D01*
X212255523Y-250106893D01*
X212259927Y-250091895D01*
X212269557Y-250076904D01*
X212274567Y-250059824D01*
X212297672Y-250033144D01*
X212299041Y-250031957D01*
X212353920Y-250004477D01*
X212361479Y-250002833D01*
X212387832Y-250000000D01*
X214858170Y-250000000D01*
X214893106Y-250005023D01*
G37*
%TD.AperFunction*%
%TD*%
M02*
