%TF.GenerationSoftware,KiCad,Pcbnew,10.0.1*%
%TF.CreationDate,2026-05-04T22:56:52-04:00*%
%TF.ProjectId,patch_antenna_smp,70617463-685f-4616-9e74-656e6e615f73,7.13*%
%TF.SameCoordinates,Original*%
%TF.FileFunction,Drillmap*%
%TF.FilePolarity,Positive*%
%FSLAX45Y45*%
G04 Gerber Fmt 4.5, Leading zero omitted, Abs format (unit mm)*
G04 Created by KiCad (PCBNEW 10.0.1) date 2026-05-04 22:56:52*
%MOMM*%
%LPD*%
G01*
G04 APERTURE LIST*
%ADD10C,0.050000*%
%ADD11C,0.200000*%
%ADD12C,0.100000*%
%ADD13C,0.320000*%
G04 APERTURE END LIST*
D10*
X18100000Y-4350000D02*
X23900000Y-4350000D01*
X23900000Y-4350000D02*
X23900000Y-25350000D01*
X23900000Y-25350000D02*
X21175000Y-25350000D01*
X21175000Y-25350000D02*
X21175000Y-24900000D01*
X21175000Y-24900000D02*
X20825000Y-24900000D01*
X20825000Y-24900000D02*
X20825000Y-25350000D01*
X20825000Y-25350000D02*
X18100000Y-25350000D01*
X18100000Y-25350000D02*
X18100000Y-4350000D01*
X20825000Y-10900000D02*
X21175000Y-10900000D01*
X21175000Y-10900000D02*
X21175000Y-11350000D01*
X21175000Y-11350000D02*
X20825000Y-11350000D01*
X20825000Y-11350000D02*
X20825000Y-10900000D01*
X20825000Y-17900000D02*
X21175000Y-17900000D01*
X21175000Y-17900000D02*
X21175000Y-18350000D01*
X21175000Y-18350000D02*
X20825000Y-18350000D01*
X20825000Y-18350000D02*
X20825000Y-17900000D01*
D11*
D12*
X20630000Y-11130000D02*
X20670000Y-11170000D01*
X20670000Y-11130000D02*
X20630000Y-11170000D01*
X20630000Y-18130000D02*
X20670000Y-18170000D01*
X20670000Y-18130000D02*
X20630000Y-18170000D01*
X20630000Y-25130000D02*
X20670000Y-25170000D01*
X20670000Y-25130000D02*
X20630000Y-25170000D01*
X21330000Y-11130000D02*
X21370000Y-11170000D01*
X21370000Y-11130000D02*
X21330000Y-11170000D01*
X21330000Y-18130000D02*
X21370000Y-18170000D01*
X21370000Y-18130000D02*
X21330000Y-18170000D01*
X21330000Y-25130000D02*
X21370000Y-25170000D01*
X21370000Y-25130000D02*
X21330000Y-25170000D01*
D13*
X18960000Y-4850000D02*
G75*
G02*
X18640000Y-4850000I-160000J0D01*
G01*
X18640000Y-4850000D02*
G75*
G02*
X18960000Y-4850000I160000J0D01*
G01*
X18960000Y-9250000D02*
G75*
G02*
X18640000Y-9250000I-160000J0D01*
G01*
X18640000Y-9250000D02*
G75*
G02*
X18960000Y-9250000I160000J0D01*
G01*
X18960000Y-11850000D02*
G75*
G02*
X18640000Y-11850000I-160000J0D01*
G01*
X18640000Y-11850000D02*
G75*
G02*
X18960000Y-11850000I160000J0D01*
G01*
X18960000Y-16250000D02*
G75*
G02*
X18640000Y-16250000I-160000J0D01*
G01*
X18640000Y-16250000D02*
G75*
G02*
X18960000Y-16250000I160000J0D01*
G01*
X18960000Y-18850000D02*
G75*
G02*
X18640000Y-18850000I-160000J0D01*
G01*
X18640000Y-18850000D02*
G75*
G02*
X18960000Y-18850000I160000J0D01*
G01*
X18960000Y-23250000D02*
G75*
G02*
X18640000Y-23250000I-160000J0D01*
G01*
X18640000Y-23250000D02*
G75*
G02*
X18960000Y-23250000I160000J0D01*
G01*
X23360000Y-4850000D02*
G75*
G02*
X23040000Y-4850000I-160000J0D01*
G01*
X23040000Y-4850000D02*
G75*
G02*
X23360000Y-4850000I160000J0D01*
G01*
X23360000Y-9250000D02*
G75*
G02*
X23040000Y-9250000I-160000J0D01*
G01*
X23040000Y-9250000D02*
G75*
G02*
X23360000Y-9250000I160000J0D01*
G01*
X23360000Y-11850000D02*
G75*
G02*
X23040000Y-11850000I-160000J0D01*
G01*
X23040000Y-11850000D02*
G75*
G02*
X23360000Y-11850000I160000J0D01*
G01*
X23360000Y-16250000D02*
G75*
G02*
X23040000Y-16250000I-160000J0D01*
G01*
X23040000Y-16250000D02*
G75*
G02*
X23360000Y-16250000I160000J0D01*
G01*
X23360000Y-18850000D02*
G75*
G02*
X23040000Y-18850000I-160000J0D01*
G01*
X23040000Y-18850000D02*
G75*
G02*
X23360000Y-18850000I160000J0D01*
G01*
X23360000Y-23250000D02*
G75*
G02*
X23040000Y-23250000I-160000J0D01*
G01*
X23040000Y-23250000D02*
G75*
G02*
X23360000Y-23250000I160000J0D01*
G01*
D11*
X18358277Y-25663984D02*
X18358277Y-25463984D01*
X18358277Y-25463984D02*
X18405896Y-25463984D01*
X18405896Y-25463984D02*
X18434467Y-25473508D01*
X18434467Y-25473508D02*
X18453515Y-25492555D01*
X18453515Y-25492555D02*
X18463039Y-25511603D01*
X18463039Y-25511603D02*
X18472563Y-25549698D01*
X18472563Y-25549698D02*
X18472563Y-25578269D01*
X18472563Y-25578269D02*
X18463039Y-25616365D01*
X18463039Y-25616365D02*
X18453515Y-25635412D01*
X18453515Y-25635412D02*
X18434467Y-25654460D01*
X18434467Y-25654460D02*
X18405896Y-25663984D01*
X18405896Y-25663984D02*
X18358277Y-25663984D01*
X18558277Y-25663984D02*
X18558277Y-25530650D01*
X18558277Y-25568746D02*
X18567801Y-25549698D01*
X18567801Y-25549698D02*
X18577324Y-25540174D01*
X18577324Y-25540174D02*
X18596372Y-25530650D01*
X18596372Y-25530650D02*
X18615420Y-25530650D01*
X18682086Y-25663984D02*
X18682086Y-25530650D01*
X18682086Y-25463984D02*
X18672563Y-25473508D01*
X18672563Y-25473508D02*
X18682086Y-25483031D01*
X18682086Y-25483031D02*
X18691610Y-25473508D01*
X18691610Y-25473508D02*
X18682086Y-25463984D01*
X18682086Y-25463984D02*
X18682086Y-25483031D01*
X18805896Y-25663984D02*
X18786848Y-25654460D01*
X18786848Y-25654460D02*
X18777324Y-25635412D01*
X18777324Y-25635412D02*
X18777324Y-25463984D01*
X18910658Y-25663984D02*
X18891610Y-25654460D01*
X18891610Y-25654460D02*
X18882086Y-25635412D01*
X18882086Y-25635412D02*
X18882086Y-25463984D01*
X19139229Y-25663984D02*
X19139229Y-25463984D01*
X19139229Y-25463984D02*
X19205896Y-25606841D01*
X19205896Y-25606841D02*
X19272563Y-25463984D01*
X19272563Y-25463984D02*
X19272563Y-25663984D01*
X19453515Y-25663984D02*
X19453515Y-25559222D01*
X19453515Y-25559222D02*
X19443991Y-25540174D01*
X19443991Y-25540174D02*
X19424944Y-25530650D01*
X19424944Y-25530650D02*
X19386848Y-25530650D01*
X19386848Y-25530650D02*
X19367801Y-25540174D01*
X19453515Y-25654460D02*
X19434467Y-25663984D01*
X19434467Y-25663984D02*
X19386848Y-25663984D01*
X19386848Y-25663984D02*
X19367801Y-25654460D01*
X19367801Y-25654460D02*
X19358277Y-25635412D01*
X19358277Y-25635412D02*
X19358277Y-25616365D01*
X19358277Y-25616365D02*
X19367801Y-25597317D01*
X19367801Y-25597317D02*
X19386848Y-25587793D01*
X19386848Y-25587793D02*
X19434467Y-25587793D01*
X19434467Y-25587793D02*
X19453515Y-25578269D01*
X19548753Y-25530650D02*
X19548753Y-25730650D01*
X19548753Y-25540174D02*
X19567801Y-25530650D01*
X19567801Y-25530650D02*
X19605896Y-25530650D01*
X19605896Y-25530650D02*
X19624944Y-25540174D01*
X19624944Y-25540174D02*
X19634467Y-25549698D01*
X19634467Y-25549698D02*
X19643991Y-25568746D01*
X19643991Y-25568746D02*
X19643991Y-25625888D01*
X19643991Y-25625888D02*
X19634467Y-25644936D01*
X19634467Y-25644936D02*
X19624944Y-25654460D01*
X19624944Y-25654460D02*
X19605896Y-25663984D01*
X19605896Y-25663984D02*
X19567801Y-25663984D01*
X19567801Y-25663984D02*
X19548753Y-25654460D01*
X19729705Y-25644936D02*
X19739229Y-25654460D01*
X19739229Y-25654460D02*
X19729705Y-25663984D01*
X19729705Y-25663984D02*
X19720182Y-25654460D01*
X19720182Y-25654460D02*
X19729705Y-25644936D01*
X19729705Y-25644936D02*
X19729705Y-25663984D01*
X19729705Y-25540174D02*
X19739229Y-25549698D01*
X19739229Y-25549698D02*
X19729705Y-25559222D01*
X19729705Y-25559222D02*
X19720182Y-25549698D01*
X19720182Y-25549698D02*
X19729705Y-25540174D01*
X19729705Y-25540174D02*
X19729705Y-25559222D01*
D12*
X18057500Y-25972500D02*
X18097500Y-26012500D01*
X18097500Y-25972500D02*
X18057500Y-26012500D01*
D11*
X18396372Y-25883984D02*
X18415420Y-25883984D01*
X18415420Y-25883984D02*
X18434467Y-25893508D01*
X18434467Y-25893508D02*
X18443991Y-25903031D01*
X18443991Y-25903031D02*
X18453515Y-25922079D01*
X18453515Y-25922079D02*
X18463039Y-25960174D01*
X18463039Y-25960174D02*
X18463039Y-26007793D01*
X18463039Y-26007793D02*
X18453515Y-26045888D01*
X18453515Y-26045888D02*
X18443991Y-26064936D01*
X18443991Y-26064936D02*
X18434467Y-26074460D01*
X18434467Y-26074460D02*
X18415420Y-26083984D01*
X18415420Y-26083984D02*
X18396372Y-26083984D01*
X18396372Y-26083984D02*
X18377324Y-26074460D01*
X18377324Y-26074460D02*
X18367801Y-26064936D01*
X18367801Y-26064936D02*
X18358277Y-26045888D01*
X18358277Y-26045888D02*
X18348753Y-26007793D01*
X18348753Y-26007793D02*
X18348753Y-25960174D01*
X18348753Y-25960174D02*
X18358277Y-25922079D01*
X18358277Y-25922079D02*
X18367801Y-25903031D01*
X18367801Y-25903031D02*
X18377324Y-25893508D01*
X18377324Y-25893508D02*
X18396372Y-25883984D01*
X18548753Y-26064936D02*
X18558277Y-26074460D01*
X18558277Y-26074460D02*
X18548753Y-26083984D01*
X18548753Y-26083984D02*
X18539229Y-26074460D01*
X18539229Y-26074460D02*
X18548753Y-26064936D01*
X18548753Y-26064936D02*
X18548753Y-26083984D01*
X18729705Y-25950650D02*
X18729705Y-26083984D01*
X18682086Y-25874460D02*
X18634467Y-26017317D01*
X18634467Y-26017317D02*
X18758277Y-26017317D01*
X18872563Y-25883984D02*
X18891610Y-25883984D01*
X18891610Y-25883984D02*
X18910658Y-25893508D01*
X18910658Y-25893508D02*
X18920182Y-25903031D01*
X18920182Y-25903031D02*
X18929705Y-25922079D01*
X18929705Y-25922079D02*
X18939229Y-25960174D01*
X18939229Y-25960174D02*
X18939229Y-26007793D01*
X18939229Y-26007793D02*
X18929705Y-26045888D01*
X18929705Y-26045888D02*
X18920182Y-26064936D01*
X18920182Y-26064936D02*
X18910658Y-26074460D01*
X18910658Y-26074460D02*
X18891610Y-26083984D01*
X18891610Y-26083984D02*
X18872563Y-26083984D01*
X18872563Y-26083984D02*
X18853515Y-26074460D01*
X18853515Y-26074460D02*
X18843991Y-26064936D01*
X18843991Y-26064936D02*
X18834467Y-26045888D01*
X18834467Y-26045888D02*
X18824944Y-26007793D01*
X18824944Y-26007793D02*
X18824944Y-25960174D01*
X18824944Y-25960174D02*
X18834467Y-25922079D01*
X18834467Y-25922079D02*
X18843991Y-25903031D01*
X18843991Y-25903031D02*
X18853515Y-25893508D01*
X18853515Y-25893508D02*
X18872563Y-25883984D01*
X19063039Y-25883984D02*
X19082086Y-25883984D01*
X19082086Y-25883984D02*
X19101134Y-25893508D01*
X19101134Y-25893508D02*
X19110658Y-25903031D01*
X19110658Y-25903031D02*
X19120182Y-25922079D01*
X19120182Y-25922079D02*
X19129705Y-25960174D01*
X19129705Y-25960174D02*
X19129705Y-26007793D01*
X19129705Y-26007793D02*
X19120182Y-26045888D01*
X19120182Y-26045888D02*
X19110658Y-26064936D01*
X19110658Y-26064936D02*
X19101134Y-26074460D01*
X19101134Y-26074460D02*
X19082086Y-26083984D01*
X19082086Y-26083984D02*
X19063039Y-26083984D01*
X19063039Y-26083984D02*
X19043991Y-26074460D01*
X19043991Y-26074460D02*
X19034467Y-26064936D01*
X19034467Y-26064936D02*
X19024944Y-26045888D01*
X19024944Y-26045888D02*
X19015420Y-26007793D01*
X19015420Y-26007793D02*
X19015420Y-25960174D01*
X19015420Y-25960174D02*
X19024944Y-25922079D01*
X19024944Y-25922079D02*
X19034467Y-25903031D01*
X19034467Y-25903031D02*
X19043991Y-25893508D01*
X19043991Y-25893508D02*
X19063039Y-25883984D01*
X19215420Y-26083984D02*
X19215420Y-25950650D01*
X19215420Y-25969698D02*
X19224944Y-25960174D01*
X19224944Y-25960174D02*
X19243991Y-25950650D01*
X19243991Y-25950650D02*
X19272563Y-25950650D01*
X19272563Y-25950650D02*
X19291610Y-25960174D01*
X19291610Y-25960174D02*
X19301134Y-25979222D01*
X19301134Y-25979222D02*
X19301134Y-26083984D01*
X19301134Y-25979222D02*
X19310658Y-25960174D01*
X19310658Y-25960174D02*
X19329705Y-25950650D01*
X19329705Y-25950650D02*
X19358277Y-25950650D01*
X19358277Y-25950650D02*
X19377325Y-25960174D01*
X19377325Y-25960174D02*
X19386848Y-25979222D01*
X19386848Y-25979222D02*
X19386848Y-26083984D01*
X19482086Y-26083984D02*
X19482086Y-25950650D01*
X19482086Y-25969698D02*
X19491610Y-25960174D01*
X19491610Y-25960174D02*
X19510658Y-25950650D01*
X19510658Y-25950650D02*
X19539229Y-25950650D01*
X19539229Y-25950650D02*
X19558277Y-25960174D01*
X19558277Y-25960174D02*
X19567801Y-25979222D01*
X19567801Y-25979222D02*
X19567801Y-26083984D01*
X19567801Y-25979222D02*
X19577325Y-25960174D01*
X19577325Y-25960174D02*
X19596372Y-25950650D01*
X19596372Y-25950650D02*
X19624944Y-25950650D01*
X19624944Y-25950650D02*
X19643991Y-25960174D01*
X19643991Y-25960174D02*
X19653515Y-25979222D01*
X19653515Y-25979222D02*
X19653515Y-26083984D01*
X20043991Y-25874460D02*
X19872563Y-26131603D01*
X20301134Y-25883984D02*
X20320182Y-25883984D01*
X20320182Y-25883984D02*
X20339229Y-25893508D01*
X20339229Y-25893508D02*
X20348753Y-25903031D01*
X20348753Y-25903031D02*
X20358277Y-25922079D01*
X20358277Y-25922079D02*
X20367801Y-25960174D01*
X20367801Y-25960174D02*
X20367801Y-26007793D01*
X20367801Y-26007793D02*
X20358277Y-26045888D01*
X20358277Y-26045888D02*
X20348753Y-26064936D01*
X20348753Y-26064936D02*
X20339229Y-26074460D01*
X20339229Y-26074460D02*
X20320182Y-26083984D01*
X20320182Y-26083984D02*
X20301134Y-26083984D01*
X20301134Y-26083984D02*
X20282087Y-26074460D01*
X20282087Y-26074460D02*
X20272563Y-26064936D01*
X20272563Y-26064936D02*
X20263039Y-26045888D01*
X20263039Y-26045888D02*
X20253515Y-26007793D01*
X20253515Y-26007793D02*
X20253515Y-25960174D01*
X20253515Y-25960174D02*
X20263039Y-25922079D01*
X20263039Y-25922079D02*
X20272563Y-25903031D01*
X20272563Y-25903031D02*
X20282087Y-25893508D01*
X20282087Y-25893508D02*
X20301134Y-25883984D01*
X20453515Y-26064936D02*
X20463039Y-26074460D01*
X20463039Y-26074460D02*
X20453515Y-26083984D01*
X20453515Y-26083984D02*
X20443991Y-26074460D01*
X20443991Y-26074460D02*
X20453515Y-26064936D01*
X20453515Y-26064936D02*
X20453515Y-26083984D01*
X20586848Y-25883984D02*
X20605896Y-25883984D01*
X20605896Y-25883984D02*
X20624944Y-25893508D01*
X20624944Y-25893508D02*
X20634468Y-25903031D01*
X20634468Y-25903031D02*
X20643991Y-25922079D01*
X20643991Y-25922079D02*
X20653515Y-25960174D01*
X20653515Y-25960174D02*
X20653515Y-26007793D01*
X20653515Y-26007793D02*
X20643991Y-26045888D01*
X20643991Y-26045888D02*
X20634468Y-26064936D01*
X20634468Y-26064936D02*
X20624944Y-26074460D01*
X20624944Y-26074460D02*
X20605896Y-26083984D01*
X20605896Y-26083984D02*
X20586848Y-26083984D01*
X20586848Y-26083984D02*
X20567801Y-26074460D01*
X20567801Y-26074460D02*
X20558277Y-26064936D01*
X20558277Y-26064936D02*
X20548753Y-26045888D01*
X20548753Y-26045888D02*
X20539229Y-26007793D01*
X20539229Y-26007793D02*
X20539229Y-25960174D01*
X20539229Y-25960174D02*
X20548753Y-25922079D01*
X20548753Y-25922079D02*
X20558277Y-25903031D01*
X20558277Y-25903031D02*
X20567801Y-25893508D01*
X20567801Y-25893508D02*
X20586848Y-25883984D01*
X20843991Y-26083984D02*
X20729706Y-26083984D01*
X20786848Y-26083984D02*
X20786848Y-25883984D01*
X20786848Y-25883984D02*
X20767801Y-25912555D01*
X20767801Y-25912555D02*
X20748753Y-25931603D01*
X20748753Y-25931603D02*
X20729706Y-25941127D01*
X21024944Y-25883984D02*
X20929706Y-25883984D01*
X20929706Y-25883984D02*
X20920182Y-25979222D01*
X20920182Y-25979222D02*
X20929706Y-25969698D01*
X20929706Y-25969698D02*
X20948753Y-25960174D01*
X20948753Y-25960174D02*
X20996372Y-25960174D01*
X20996372Y-25960174D02*
X21015420Y-25969698D01*
X21015420Y-25969698D02*
X21024944Y-25979222D01*
X21024944Y-25979222D02*
X21034468Y-25998269D01*
X21034468Y-25998269D02*
X21034468Y-26045888D01*
X21034468Y-26045888D02*
X21024944Y-26064936D01*
X21024944Y-26064936D02*
X21015420Y-26074460D01*
X21015420Y-26074460D02*
X20996372Y-26083984D01*
X20996372Y-26083984D02*
X20948753Y-26083984D01*
X20948753Y-26083984D02*
X20929706Y-26074460D01*
X20929706Y-26074460D02*
X20920182Y-26064936D01*
X21101134Y-25883984D02*
X21234468Y-25883984D01*
X21234468Y-25883984D02*
X21148753Y-26083984D01*
X21301134Y-25883984D02*
X21301134Y-25922079D01*
X21377325Y-25883984D02*
X21377325Y-25922079D01*
X21672563Y-26160174D02*
X21663039Y-26150650D01*
X21663039Y-26150650D02*
X21643991Y-26122079D01*
X21643991Y-26122079D02*
X21634468Y-26103031D01*
X21634468Y-26103031D02*
X21624944Y-26074460D01*
X21624944Y-26074460D02*
X21615420Y-26026841D01*
X21615420Y-26026841D02*
X21615420Y-25988746D01*
X21615420Y-25988746D02*
X21624944Y-25941127D01*
X21624944Y-25941127D02*
X21634468Y-25912555D01*
X21634468Y-25912555D02*
X21643991Y-25893508D01*
X21643991Y-25893508D02*
X21663039Y-25864936D01*
X21663039Y-25864936D02*
X21672563Y-25855412D01*
X21834468Y-25883984D02*
X21796372Y-25883984D01*
X21796372Y-25883984D02*
X21777325Y-25893508D01*
X21777325Y-25893508D02*
X21767801Y-25903031D01*
X21767801Y-25903031D02*
X21748753Y-25931603D01*
X21748753Y-25931603D02*
X21739230Y-25969698D01*
X21739230Y-25969698D02*
X21739230Y-26045888D01*
X21739230Y-26045888D02*
X21748753Y-26064936D01*
X21748753Y-26064936D02*
X21758277Y-26074460D01*
X21758277Y-26074460D02*
X21777325Y-26083984D01*
X21777325Y-26083984D02*
X21815420Y-26083984D01*
X21815420Y-26083984D02*
X21834468Y-26074460D01*
X21834468Y-26074460D02*
X21843991Y-26064936D01*
X21843991Y-26064936D02*
X21853515Y-26045888D01*
X21853515Y-26045888D02*
X21853515Y-25998269D01*
X21853515Y-25998269D02*
X21843991Y-25979222D01*
X21843991Y-25979222D02*
X21834468Y-25969698D01*
X21834468Y-25969698D02*
X21815420Y-25960174D01*
X21815420Y-25960174D02*
X21777325Y-25960174D01*
X21777325Y-25960174D02*
X21758277Y-25969698D01*
X21758277Y-25969698D02*
X21748753Y-25979222D01*
X21748753Y-25979222D02*
X21739230Y-25998269D01*
X22091611Y-26083984D02*
X22091611Y-25883984D01*
X22177325Y-26083984D02*
X22177325Y-25979222D01*
X22177325Y-25979222D02*
X22167801Y-25960174D01*
X22167801Y-25960174D02*
X22148753Y-25950650D01*
X22148753Y-25950650D02*
X22120182Y-25950650D01*
X22120182Y-25950650D02*
X22101134Y-25960174D01*
X22101134Y-25960174D02*
X22091611Y-25969698D01*
X22301134Y-26083984D02*
X22282087Y-26074460D01*
X22282087Y-26074460D02*
X22272563Y-26064936D01*
X22272563Y-26064936D02*
X22263039Y-26045888D01*
X22263039Y-26045888D02*
X22263039Y-25988746D01*
X22263039Y-25988746D02*
X22272563Y-25969698D01*
X22272563Y-25969698D02*
X22282087Y-25960174D01*
X22282087Y-25960174D02*
X22301134Y-25950650D01*
X22301134Y-25950650D02*
X22329706Y-25950650D01*
X22329706Y-25950650D02*
X22348753Y-25960174D01*
X22348753Y-25960174D02*
X22358277Y-25969698D01*
X22358277Y-25969698D02*
X22367801Y-25988746D01*
X22367801Y-25988746D02*
X22367801Y-26045888D01*
X22367801Y-26045888D02*
X22358277Y-26064936D01*
X22358277Y-26064936D02*
X22348753Y-26074460D01*
X22348753Y-26074460D02*
X22329706Y-26083984D01*
X22329706Y-26083984D02*
X22301134Y-26083984D01*
X22482087Y-26083984D02*
X22463039Y-26074460D01*
X22463039Y-26074460D02*
X22453515Y-26055412D01*
X22453515Y-26055412D02*
X22453515Y-25883984D01*
X22634468Y-26074460D02*
X22615420Y-26083984D01*
X22615420Y-26083984D02*
X22577325Y-26083984D01*
X22577325Y-26083984D02*
X22558277Y-26074460D01*
X22558277Y-26074460D02*
X22548753Y-26055412D01*
X22548753Y-26055412D02*
X22548753Y-25979222D01*
X22548753Y-25979222D02*
X22558277Y-25960174D01*
X22558277Y-25960174D02*
X22577325Y-25950650D01*
X22577325Y-25950650D02*
X22615420Y-25950650D01*
X22615420Y-25950650D02*
X22634468Y-25960174D01*
X22634468Y-25960174D02*
X22643991Y-25979222D01*
X22643991Y-25979222D02*
X22643991Y-25998269D01*
X22643991Y-25998269D02*
X22548753Y-26017317D01*
X22720182Y-26074460D02*
X22739230Y-26083984D01*
X22739230Y-26083984D02*
X22777325Y-26083984D01*
X22777325Y-26083984D02*
X22796372Y-26074460D01*
X22796372Y-26074460D02*
X22805896Y-26055412D01*
X22805896Y-26055412D02*
X22805896Y-26045888D01*
X22805896Y-26045888D02*
X22796372Y-26026841D01*
X22796372Y-26026841D02*
X22777325Y-26017317D01*
X22777325Y-26017317D02*
X22748753Y-26017317D01*
X22748753Y-26017317D02*
X22729706Y-26007793D01*
X22729706Y-26007793D02*
X22720182Y-25988746D01*
X22720182Y-25988746D02*
X22720182Y-25979222D01*
X22720182Y-25979222D02*
X22729706Y-25960174D01*
X22729706Y-25960174D02*
X22748753Y-25950650D01*
X22748753Y-25950650D02*
X22777325Y-25950650D01*
X22777325Y-25950650D02*
X22796372Y-25960174D01*
X22872563Y-26160174D02*
X22882087Y-26150650D01*
X22882087Y-26150650D02*
X22901134Y-26122079D01*
X22901134Y-26122079D02*
X22910658Y-26103031D01*
X22910658Y-26103031D02*
X22920182Y-26074460D01*
X22920182Y-26074460D02*
X22929706Y-26026841D01*
X22929706Y-26026841D02*
X22929706Y-25988746D01*
X22929706Y-25988746D02*
X22920182Y-25941127D01*
X22920182Y-25941127D02*
X22910658Y-25912555D01*
X22910658Y-25912555D02*
X22901134Y-25893508D01*
X22901134Y-25893508D02*
X22882087Y-25864936D01*
X22882087Y-25864936D02*
X22872563Y-25855412D01*
X18097500Y-26256500D02*
G75*
G02*
X17897500Y-26256500I-100000J0D01*
G01*
X17897500Y-26256500D02*
G75*
G02*
X18097500Y-26256500I100000J0D01*
G01*
X18339229Y-26147984D02*
X18463039Y-26147984D01*
X18463039Y-26147984D02*
X18396372Y-26224174D01*
X18396372Y-26224174D02*
X18424944Y-26224174D01*
X18424944Y-26224174D02*
X18443991Y-26233698D01*
X18443991Y-26233698D02*
X18453515Y-26243222D01*
X18453515Y-26243222D02*
X18463039Y-26262269D01*
X18463039Y-26262269D02*
X18463039Y-26309888D01*
X18463039Y-26309888D02*
X18453515Y-26328936D01*
X18453515Y-26328936D02*
X18443991Y-26338460D01*
X18443991Y-26338460D02*
X18424944Y-26347984D01*
X18424944Y-26347984D02*
X18367801Y-26347984D01*
X18367801Y-26347984D02*
X18348753Y-26338460D01*
X18348753Y-26338460D02*
X18339229Y-26328936D01*
X18548753Y-26328936D02*
X18558277Y-26338460D01*
X18558277Y-26338460D02*
X18548753Y-26347984D01*
X18548753Y-26347984D02*
X18539229Y-26338460D01*
X18539229Y-26338460D02*
X18548753Y-26328936D01*
X18548753Y-26328936D02*
X18548753Y-26347984D01*
X18634467Y-26167031D02*
X18643991Y-26157508D01*
X18643991Y-26157508D02*
X18663039Y-26147984D01*
X18663039Y-26147984D02*
X18710658Y-26147984D01*
X18710658Y-26147984D02*
X18729705Y-26157508D01*
X18729705Y-26157508D02*
X18739229Y-26167031D01*
X18739229Y-26167031D02*
X18748753Y-26186079D01*
X18748753Y-26186079D02*
X18748753Y-26205127D01*
X18748753Y-26205127D02*
X18739229Y-26233698D01*
X18739229Y-26233698D02*
X18624944Y-26347984D01*
X18624944Y-26347984D02*
X18748753Y-26347984D01*
X18872563Y-26147984D02*
X18891610Y-26147984D01*
X18891610Y-26147984D02*
X18910658Y-26157508D01*
X18910658Y-26157508D02*
X18920182Y-26167031D01*
X18920182Y-26167031D02*
X18929705Y-26186079D01*
X18929705Y-26186079D02*
X18939229Y-26224174D01*
X18939229Y-26224174D02*
X18939229Y-26271793D01*
X18939229Y-26271793D02*
X18929705Y-26309888D01*
X18929705Y-26309888D02*
X18920182Y-26328936D01*
X18920182Y-26328936D02*
X18910658Y-26338460D01*
X18910658Y-26338460D02*
X18891610Y-26347984D01*
X18891610Y-26347984D02*
X18872563Y-26347984D01*
X18872563Y-26347984D02*
X18853515Y-26338460D01*
X18853515Y-26338460D02*
X18843991Y-26328936D01*
X18843991Y-26328936D02*
X18834467Y-26309888D01*
X18834467Y-26309888D02*
X18824944Y-26271793D01*
X18824944Y-26271793D02*
X18824944Y-26224174D01*
X18824944Y-26224174D02*
X18834467Y-26186079D01*
X18834467Y-26186079D02*
X18843991Y-26167031D01*
X18843991Y-26167031D02*
X18853515Y-26157508D01*
X18853515Y-26157508D02*
X18872563Y-26147984D01*
X19063039Y-26147984D02*
X19082086Y-26147984D01*
X19082086Y-26147984D02*
X19101134Y-26157508D01*
X19101134Y-26157508D02*
X19110658Y-26167031D01*
X19110658Y-26167031D02*
X19120182Y-26186079D01*
X19120182Y-26186079D02*
X19129705Y-26224174D01*
X19129705Y-26224174D02*
X19129705Y-26271793D01*
X19129705Y-26271793D02*
X19120182Y-26309888D01*
X19120182Y-26309888D02*
X19110658Y-26328936D01*
X19110658Y-26328936D02*
X19101134Y-26338460D01*
X19101134Y-26338460D02*
X19082086Y-26347984D01*
X19082086Y-26347984D02*
X19063039Y-26347984D01*
X19063039Y-26347984D02*
X19043991Y-26338460D01*
X19043991Y-26338460D02*
X19034467Y-26328936D01*
X19034467Y-26328936D02*
X19024944Y-26309888D01*
X19024944Y-26309888D02*
X19015420Y-26271793D01*
X19015420Y-26271793D02*
X19015420Y-26224174D01*
X19015420Y-26224174D02*
X19024944Y-26186079D01*
X19024944Y-26186079D02*
X19034467Y-26167031D01*
X19034467Y-26167031D02*
X19043991Y-26157508D01*
X19043991Y-26157508D02*
X19063039Y-26147984D01*
X19215420Y-26347984D02*
X19215420Y-26214650D01*
X19215420Y-26233698D02*
X19224944Y-26224174D01*
X19224944Y-26224174D02*
X19243991Y-26214650D01*
X19243991Y-26214650D02*
X19272563Y-26214650D01*
X19272563Y-26214650D02*
X19291610Y-26224174D01*
X19291610Y-26224174D02*
X19301134Y-26243222D01*
X19301134Y-26243222D02*
X19301134Y-26347984D01*
X19301134Y-26243222D02*
X19310658Y-26224174D01*
X19310658Y-26224174D02*
X19329705Y-26214650D01*
X19329705Y-26214650D02*
X19358277Y-26214650D01*
X19358277Y-26214650D02*
X19377325Y-26224174D01*
X19377325Y-26224174D02*
X19386848Y-26243222D01*
X19386848Y-26243222D02*
X19386848Y-26347984D01*
X19482086Y-26347984D02*
X19482086Y-26214650D01*
X19482086Y-26233698D02*
X19491610Y-26224174D01*
X19491610Y-26224174D02*
X19510658Y-26214650D01*
X19510658Y-26214650D02*
X19539229Y-26214650D01*
X19539229Y-26214650D02*
X19558277Y-26224174D01*
X19558277Y-26224174D02*
X19567801Y-26243222D01*
X19567801Y-26243222D02*
X19567801Y-26347984D01*
X19567801Y-26243222D02*
X19577325Y-26224174D01*
X19577325Y-26224174D02*
X19596372Y-26214650D01*
X19596372Y-26214650D02*
X19624944Y-26214650D01*
X19624944Y-26214650D02*
X19643991Y-26224174D01*
X19643991Y-26224174D02*
X19653515Y-26243222D01*
X19653515Y-26243222D02*
X19653515Y-26347984D01*
X20043991Y-26138460D02*
X19872563Y-26395603D01*
X20301134Y-26147984D02*
X20320182Y-26147984D01*
X20320182Y-26147984D02*
X20339229Y-26157508D01*
X20339229Y-26157508D02*
X20348753Y-26167031D01*
X20348753Y-26167031D02*
X20358277Y-26186079D01*
X20358277Y-26186079D02*
X20367801Y-26224174D01*
X20367801Y-26224174D02*
X20367801Y-26271793D01*
X20367801Y-26271793D02*
X20358277Y-26309888D01*
X20358277Y-26309888D02*
X20348753Y-26328936D01*
X20348753Y-26328936D02*
X20339229Y-26338460D01*
X20339229Y-26338460D02*
X20320182Y-26347984D01*
X20320182Y-26347984D02*
X20301134Y-26347984D01*
X20301134Y-26347984D02*
X20282087Y-26338460D01*
X20282087Y-26338460D02*
X20272563Y-26328936D01*
X20272563Y-26328936D02*
X20263039Y-26309888D01*
X20263039Y-26309888D02*
X20253515Y-26271793D01*
X20253515Y-26271793D02*
X20253515Y-26224174D01*
X20253515Y-26224174D02*
X20263039Y-26186079D01*
X20263039Y-26186079D02*
X20272563Y-26167031D01*
X20272563Y-26167031D02*
X20282087Y-26157508D01*
X20282087Y-26157508D02*
X20301134Y-26147984D01*
X20453515Y-26328936D02*
X20463039Y-26338460D01*
X20463039Y-26338460D02*
X20453515Y-26347984D01*
X20453515Y-26347984D02*
X20443991Y-26338460D01*
X20443991Y-26338460D02*
X20453515Y-26328936D01*
X20453515Y-26328936D02*
X20453515Y-26347984D01*
X20653515Y-26347984D02*
X20539229Y-26347984D01*
X20596372Y-26347984D02*
X20596372Y-26147984D01*
X20596372Y-26147984D02*
X20577325Y-26176555D01*
X20577325Y-26176555D02*
X20558277Y-26195603D01*
X20558277Y-26195603D02*
X20539229Y-26205127D01*
X20729706Y-26167031D02*
X20739229Y-26157508D01*
X20739229Y-26157508D02*
X20758277Y-26147984D01*
X20758277Y-26147984D02*
X20805896Y-26147984D01*
X20805896Y-26147984D02*
X20824944Y-26157508D01*
X20824944Y-26157508D02*
X20834468Y-26167031D01*
X20834468Y-26167031D02*
X20843991Y-26186079D01*
X20843991Y-26186079D02*
X20843991Y-26205127D01*
X20843991Y-26205127D02*
X20834468Y-26233698D01*
X20834468Y-26233698D02*
X20720182Y-26347984D01*
X20720182Y-26347984D02*
X20843991Y-26347984D01*
X21015420Y-26147984D02*
X20977325Y-26147984D01*
X20977325Y-26147984D02*
X20958277Y-26157508D01*
X20958277Y-26157508D02*
X20948753Y-26167031D01*
X20948753Y-26167031D02*
X20929706Y-26195603D01*
X20929706Y-26195603D02*
X20920182Y-26233698D01*
X20920182Y-26233698D02*
X20920182Y-26309888D01*
X20920182Y-26309888D02*
X20929706Y-26328936D01*
X20929706Y-26328936D02*
X20939229Y-26338460D01*
X20939229Y-26338460D02*
X20958277Y-26347984D01*
X20958277Y-26347984D02*
X20996372Y-26347984D01*
X20996372Y-26347984D02*
X21015420Y-26338460D01*
X21015420Y-26338460D02*
X21024944Y-26328936D01*
X21024944Y-26328936D02*
X21034468Y-26309888D01*
X21034468Y-26309888D02*
X21034468Y-26262269D01*
X21034468Y-26262269D02*
X21024944Y-26243222D01*
X21024944Y-26243222D02*
X21015420Y-26233698D01*
X21015420Y-26233698D02*
X20996372Y-26224174D01*
X20996372Y-26224174D02*
X20958277Y-26224174D01*
X20958277Y-26224174D02*
X20939229Y-26233698D01*
X20939229Y-26233698D02*
X20929706Y-26243222D01*
X20929706Y-26243222D02*
X20920182Y-26262269D01*
X21158277Y-26147984D02*
X21177325Y-26147984D01*
X21177325Y-26147984D02*
X21196372Y-26157508D01*
X21196372Y-26157508D02*
X21205896Y-26167031D01*
X21205896Y-26167031D02*
X21215420Y-26186079D01*
X21215420Y-26186079D02*
X21224944Y-26224174D01*
X21224944Y-26224174D02*
X21224944Y-26271793D01*
X21224944Y-26271793D02*
X21215420Y-26309888D01*
X21215420Y-26309888D02*
X21205896Y-26328936D01*
X21205896Y-26328936D02*
X21196372Y-26338460D01*
X21196372Y-26338460D02*
X21177325Y-26347984D01*
X21177325Y-26347984D02*
X21158277Y-26347984D01*
X21158277Y-26347984D02*
X21139229Y-26338460D01*
X21139229Y-26338460D02*
X21129706Y-26328936D01*
X21129706Y-26328936D02*
X21120182Y-26309888D01*
X21120182Y-26309888D02*
X21110658Y-26271793D01*
X21110658Y-26271793D02*
X21110658Y-26224174D01*
X21110658Y-26224174D02*
X21120182Y-26186079D01*
X21120182Y-26186079D02*
X21129706Y-26167031D01*
X21129706Y-26167031D02*
X21139229Y-26157508D01*
X21139229Y-26157508D02*
X21158277Y-26147984D01*
X21301134Y-26147984D02*
X21301134Y-26186079D01*
X21377325Y-26147984D02*
X21377325Y-26186079D01*
X21672563Y-26424174D02*
X21663039Y-26414650D01*
X21663039Y-26414650D02*
X21643991Y-26386079D01*
X21643991Y-26386079D02*
X21634468Y-26367031D01*
X21634468Y-26367031D02*
X21624944Y-26338460D01*
X21624944Y-26338460D02*
X21615420Y-26290841D01*
X21615420Y-26290841D02*
X21615420Y-26252746D01*
X21615420Y-26252746D02*
X21624944Y-26205127D01*
X21624944Y-26205127D02*
X21634468Y-26176555D01*
X21634468Y-26176555D02*
X21643991Y-26157508D01*
X21643991Y-26157508D02*
X21663039Y-26128936D01*
X21663039Y-26128936D02*
X21672563Y-26119412D01*
X21853515Y-26347984D02*
X21739230Y-26347984D01*
X21796372Y-26347984D02*
X21796372Y-26147984D01*
X21796372Y-26147984D02*
X21777325Y-26176555D01*
X21777325Y-26176555D02*
X21758277Y-26195603D01*
X21758277Y-26195603D02*
X21739230Y-26205127D01*
X21929706Y-26167031D02*
X21939230Y-26157508D01*
X21939230Y-26157508D02*
X21958277Y-26147984D01*
X21958277Y-26147984D02*
X22005896Y-26147984D01*
X22005896Y-26147984D02*
X22024944Y-26157508D01*
X22024944Y-26157508D02*
X22034468Y-26167031D01*
X22034468Y-26167031D02*
X22043991Y-26186079D01*
X22043991Y-26186079D02*
X22043991Y-26205127D01*
X22043991Y-26205127D02*
X22034468Y-26233698D01*
X22034468Y-26233698D02*
X21920182Y-26347984D01*
X21920182Y-26347984D02*
X22043991Y-26347984D01*
X22282087Y-26347984D02*
X22282087Y-26147984D01*
X22367801Y-26347984D02*
X22367801Y-26243222D01*
X22367801Y-26243222D02*
X22358277Y-26224174D01*
X22358277Y-26224174D02*
X22339230Y-26214650D01*
X22339230Y-26214650D02*
X22310658Y-26214650D01*
X22310658Y-26214650D02*
X22291611Y-26224174D01*
X22291611Y-26224174D02*
X22282087Y-26233698D01*
X22491610Y-26347984D02*
X22472563Y-26338460D01*
X22472563Y-26338460D02*
X22463039Y-26328936D01*
X22463039Y-26328936D02*
X22453515Y-26309888D01*
X22453515Y-26309888D02*
X22453515Y-26252746D01*
X22453515Y-26252746D02*
X22463039Y-26233698D01*
X22463039Y-26233698D02*
X22472563Y-26224174D01*
X22472563Y-26224174D02*
X22491610Y-26214650D01*
X22491610Y-26214650D02*
X22520182Y-26214650D01*
X22520182Y-26214650D02*
X22539230Y-26224174D01*
X22539230Y-26224174D02*
X22548753Y-26233698D01*
X22548753Y-26233698D02*
X22558277Y-26252746D01*
X22558277Y-26252746D02*
X22558277Y-26309888D01*
X22558277Y-26309888D02*
X22548753Y-26328936D01*
X22548753Y-26328936D02*
X22539230Y-26338460D01*
X22539230Y-26338460D02*
X22520182Y-26347984D01*
X22520182Y-26347984D02*
X22491610Y-26347984D01*
X22672563Y-26347984D02*
X22653515Y-26338460D01*
X22653515Y-26338460D02*
X22643991Y-26319412D01*
X22643991Y-26319412D02*
X22643991Y-26147984D01*
X22824944Y-26338460D02*
X22805896Y-26347984D01*
X22805896Y-26347984D02*
X22767801Y-26347984D01*
X22767801Y-26347984D02*
X22748753Y-26338460D01*
X22748753Y-26338460D02*
X22739230Y-26319412D01*
X22739230Y-26319412D02*
X22739230Y-26243222D01*
X22739230Y-26243222D02*
X22748753Y-26224174D01*
X22748753Y-26224174D02*
X22767801Y-26214650D01*
X22767801Y-26214650D02*
X22805896Y-26214650D01*
X22805896Y-26214650D02*
X22824944Y-26224174D01*
X22824944Y-26224174D02*
X22834468Y-26243222D01*
X22834468Y-26243222D02*
X22834468Y-26262269D01*
X22834468Y-26262269D02*
X22739230Y-26281317D01*
X22910658Y-26338460D02*
X22929706Y-26347984D01*
X22929706Y-26347984D02*
X22967801Y-26347984D01*
X22967801Y-26347984D02*
X22986849Y-26338460D01*
X22986849Y-26338460D02*
X22996372Y-26319412D01*
X22996372Y-26319412D02*
X22996372Y-26309888D01*
X22996372Y-26309888D02*
X22986849Y-26290841D01*
X22986849Y-26290841D02*
X22967801Y-26281317D01*
X22967801Y-26281317D02*
X22939230Y-26281317D01*
X22939230Y-26281317D02*
X22920182Y-26271793D01*
X22920182Y-26271793D02*
X22910658Y-26252746D01*
X22910658Y-26252746D02*
X22910658Y-26243222D01*
X22910658Y-26243222D02*
X22920182Y-26224174D01*
X22920182Y-26224174D02*
X22939230Y-26214650D01*
X22939230Y-26214650D02*
X22967801Y-26214650D01*
X22967801Y-26214650D02*
X22986849Y-26224174D01*
X23063039Y-26424174D02*
X23072563Y-26414650D01*
X23072563Y-26414650D02*
X23091611Y-26386079D01*
X23091611Y-26386079D02*
X23101134Y-26367031D01*
X23101134Y-26367031D02*
X23110658Y-26338460D01*
X23110658Y-26338460D02*
X23120182Y-26290841D01*
X23120182Y-26290841D02*
X23120182Y-26252746D01*
X23120182Y-26252746D02*
X23110658Y-26205127D01*
X23110658Y-26205127D02*
X23101134Y-26176555D01*
X23101134Y-26176555D02*
X23091611Y-26157508D01*
X23091611Y-26157508D02*
X23072563Y-26128936D01*
X23072563Y-26128936D02*
X23063039Y-26119412D01*
X23424944Y-26424174D02*
X23415420Y-26414650D01*
X23415420Y-26414650D02*
X23396372Y-26386079D01*
X23396372Y-26386079D02*
X23386849Y-26367031D01*
X23386849Y-26367031D02*
X23377325Y-26338460D01*
X23377325Y-26338460D02*
X23367801Y-26290841D01*
X23367801Y-26290841D02*
X23367801Y-26252746D01*
X23367801Y-26252746D02*
X23377325Y-26205127D01*
X23377325Y-26205127D02*
X23386849Y-26176555D01*
X23386849Y-26176555D02*
X23396372Y-26157508D01*
X23396372Y-26157508D02*
X23415420Y-26128936D01*
X23415420Y-26128936D02*
X23424944Y-26119412D01*
X23501134Y-26214650D02*
X23501134Y-26347984D01*
X23501134Y-26233698D02*
X23510658Y-26224174D01*
X23510658Y-26224174D02*
X23529706Y-26214650D01*
X23529706Y-26214650D02*
X23558277Y-26214650D01*
X23558277Y-26214650D02*
X23577325Y-26224174D01*
X23577325Y-26224174D02*
X23586849Y-26243222D01*
X23586849Y-26243222D02*
X23586849Y-26347984D01*
X23710658Y-26347984D02*
X23691611Y-26338460D01*
X23691611Y-26338460D02*
X23682087Y-26328936D01*
X23682087Y-26328936D02*
X23672563Y-26309888D01*
X23672563Y-26309888D02*
X23672563Y-26252746D01*
X23672563Y-26252746D02*
X23682087Y-26233698D01*
X23682087Y-26233698D02*
X23691611Y-26224174D01*
X23691611Y-26224174D02*
X23710658Y-26214650D01*
X23710658Y-26214650D02*
X23739230Y-26214650D01*
X23739230Y-26214650D02*
X23758277Y-26224174D01*
X23758277Y-26224174D02*
X23767801Y-26233698D01*
X23767801Y-26233698D02*
X23777325Y-26252746D01*
X23777325Y-26252746D02*
X23777325Y-26309888D01*
X23777325Y-26309888D02*
X23767801Y-26328936D01*
X23767801Y-26328936D02*
X23758277Y-26338460D01*
X23758277Y-26338460D02*
X23739230Y-26347984D01*
X23739230Y-26347984D02*
X23710658Y-26347984D01*
X23834468Y-26214650D02*
X23910658Y-26214650D01*
X23863039Y-26147984D02*
X23863039Y-26319412D01*
X23863039Y-26319412D02*
X23872563Y-26338460D01*
X23872563Y-26338460D02*
X23891611Y-26347984D01*
X23891611Y-26347984D02*
X23910658Y-26347984D01*
X24129706Y-26214650D02*
X24129706Y-26414650D01*
X24129706Y-26224174D02*
X24148753Y-26214650D01*
X24148753Y-26214650D02*
X24186849Y-26214650D01*
X24186849Y-26214650D02*
X24205896Y-26224174D01*
X24205896Y-26224174D02*
X24215420Y-26233698D01*
X24215420Y-26233698D02*
X24224944Y-26252746D01*
X24224944Y-26252746D02*
X24224944Y-26309888D01*
X24224944Y-26309888D02*
X24215420Y-26328936D01*
X24215420Y-26328936D02*
X24205896Y-26338460D01*
X24205896Y-26338460D02*
X24186849Y-26347984D01*
X24186849Y-26347984D02*
X24148753Y-26347984D01*
X24148753Y-26347984D02*
X24129706Y-26338460D01*
X24339230Y-26347984D02*
X24320182Y-26338460D01*
X24320182Y-26338460D02*
X24310658Y-26319412D01*
X24310658Y-26319412D02*
X24310658Y-26147984D01*
X24501134Y-26347984D02*
X24501134Y-26243222D01*
X24501134Y-26243222D02*
X24491611Y-26224174D01*
X24491611Y-26224174D02*
X24472563Y-26214650D01*
X24472563Y-26214650D02*
X24434468Y-26214650D01*
X24434468Y-26214650D02*
X24415420Y-26224174D01*
X24501134Y-26338460D02*
X24482087Y-26347984D01*
X24482087Y-26347984D02*
X24434468Y-26347984D01*
X24434468Y-26347984D02*
X24415420Y-26338460D01*
X24415420Y-26338460D02*
X24405896Y-26319412D01*
X24405896Y-26319412D02*
X24405896Y-26300365D01*
X24405896Y-26300365D02*
X24415420Y-26281317D01*
X24415420Y-26281317D02*
X24434468Y-26271793D01*
X24434468Y-26271793D02*
X24482087Y-26271793D01*
X24482087Y-26271793D02*
X24501134Y-26262269D01*
X24567801Y-26214650D02*
X24643992Y-26214650D01*
X24596373Y-26147984D02*
X24596373Y-26319412D01*
X24596373Y-26319412D02*
X24605896Y-26338460D01*
X24605896Y-26338460D02*
X24624944Y-26347984D01*
X24624944Y-26347984D02*
X24643992Y-26347984D01*
X24786849Y-26338460D02*
X24767801Y-26347984D01*
X24767801Y-26347984D02*
X24729706Y-26347984D01*
X24729706Y-26347984D02*
X24710658Y-26338460D01*
X24710658Y-26338460D02*
X24701134Y-26319412D01*
X24701134Y-26319412D02*
X24701134Y-26243222D01*
X24701134Y-26243222D02*
X24710658Y-26224174D01*
X24710658Y-26224174D02*
X24729706Y-26214650D01*
X24729706Y-26214650D02*
X24767801Y-26214650D01*
X24767801Y-26214650D02*
X24786849Y-26224174D01*
X24786849Y-26224174D02*
X24796373Y-26243222D01*
X24796373Y-26243222D02*
X24796373Y-26262269D01*
X24796373Y-26262269D02*
X24701134Y-26281317D01*
X24967801Y-26347984D02*
X24967801Y-26147984D01*
X24967801Y-26338460D02*
X24948754Y-26347984D01*
X24948754Y-26347984D02*
X24910658Y-26347984D01*
X24910658Y-26347984D02*
X24891611Y-26338460D01*
X24891611Y-26338460D02*
X24882087Y-26328936D01*
X24882087Y-26328936D02*
X24872563Y-26309888D01*
X24872563Y-26309888D02*
X24872563Y-26252746D01*
X24872563Y-26252746D02*
X24882087Y-26233698D01*
X24882087Y-26233698D02*
X24891611Y-26224174D01*
X24891611Y-26224174D02*
X24910658Y-26214650D01*
X24910658Y-26214650D02*
X24948754Y-26214650D01*
X24948754Y-26214650D02*
X24967801Y-26224174D01*
X25043992Y-26424174D02*
X25053515Y-26414650D01*
X25053515Y-26414650D02*
X25072563Y-26386079D01*
X25072563Y-26386079D02*
X25082087Y-26367031D01*
X25082087Y-26367031D02*
X25091611Y-26338460D01*
X25091611Y-26338460D02*
X25101134Y-26290841D01*
X25101134Y-26290841D02*
X25101134Y-26252746D01*
X25101134Y-26252746D02*
X25091611Y-26205127D01*
X25091611Y-26205127D02*
X25082087Y-26176555D01*
X25082087Y-26176555D02*
X25072563Y-26157508D01*
X25072563Y-26157508D02*
X25053515Y-26128936D01*
X25053515Y-26128936D02*
X25043992Y-26119412D01*
M02*
